<?xml version="1.0" encoding="utf-8"?>
<!-- Generator: Adobe Illustrator 22.0.1, SVG Export Plug-In . SVG Version: 6.00 Build 0)  -->
<svg version="1.1" id="Ebene_1" xmlns="http://www.w3.org/2000/svg" xmlns:xlink="http://www.w3.org/1999/xlink" x="0px" y="0px"
	 viewBox="0 0 16 16" enable-background="new 0 0 16 16" xml:space="preserve">
<g>
	<path fill="#1A65D1" d="M14.347,5.382c0.103-1.007,0.124-2.578-0.507-3.765c-1.599,0.094-2.982,1.085-3.778,1.794
		C9.418,3.316,8.729,3.268,8,3.268c-0.74,0-1.44,0.05-2.093,0.148c-0.795-0.71-2.18-1.705-3.783-1.799
		c-0.638,1.201-0.609,2.794-0.503,3.8c-0.814,0.89-1.266,2.054-1.266,3.49c0,3.738,3.047,5.638,7.645,5.638s7.645-1.9,7.645-5.638
		C15.645,7.451,15.182,6.276,14.347,5.382z M8,13.783c-3.105,0-5.63-0.357-5.63-3.306c0-3.708,3.172-2.396,5.63-2.396
		s5.63-1.312,5.63,2.396C13.63,13.426,11.105,13.783,8,13.783z"/>
	<ellipse fill="#1A65D1" cx="5.342" cy="10.589" rx="1.072" ry="1.43"/>
	<ellipse fill="#1A65D1" cx="10.644" cy="10.589" rx="1.072" ry="1.43"/>
</g>
<g>
</g>
<g>
</g>
<g>
</g>
<g>
</g>
<g>
</g>
<g>
</g>
</svg>
