<?xml version="1.0" encoding="utf-8"?>
<!-- Generator: Adobe Illustrator 22.0.1, SVG Export Plug-In . SVG Version: 6.00 Build 0)  -->
<svg version="1.1" id="Ebene_1" xmlns="http://www.w3.org/2000/svg" xmlns:xlink="http://www.w3.org/1999/xlink" x="0px" y="0px"
	 viewBox="0 0 500 500" style="enable-background:new 0 0 500 500;" xml:space="preserve">
<style type="text/css">
	.st0{fill:#EDEBDC;}
	.st1{fill:none;stroke:#FFFFFF;stroke-width:8;stroke-miterlimit:10;}
	.st2{fill:#8D6921;}
	.st3{fill:#066089;}
	.st4{fill:#5B7712;}
	.st5{fill:#F8B435;}
	.st6{fill:#249CD3;}
	.st7{fill:#97BF0D;}
	.st8{fill:#1B171B;}
</style>
<g>
	
		<image style="overflow:visible;opacity:0.5;" width="472" height="500" xlink:href="6DCD725261FBC6F5.png"  transform="matrix(1 0 0 1 19 1)">
	</image>
	<g>
		<path class="st0" d="M457.7,248c13.4-40.9,10.6-80.8-8.5-113.8c-19.1-33-52.2-55.4-94.3-64.2c-28.7-32.1-64.7-49.6-102.8-49.6
			S178,37.8,149.3,69.9c-42.2,8.8-75.3,31.2-94.3,64.2c-19.1,33-21.9,72.9-8.5,113.8c-13.4,40.9-10.6,80.8,8.5,113.8
			c19.1,33,52.2,55.4,94.3,64.2c28.7,32.1,64.7,49.6,102.8,49.6c38.1,0,74.1-17.5,102.8-49.6c42.2-8.8,75.3-31.2,94.3-64.2
			C468.3,328.8,471.1,288.9,457.7,248z"/>
		<path class="st1" d="M457.7,248c13.4-40.9,10.6-80.8-8.5-113.8c-19.1-33-52.2-55.4-94.3-64.2c-28.7-32.1-64.7-49.6-102.8-49.6
			S178,37.8,149.3,69.9c-42.2,8.8-75.3,31.2-94.3,64.2c-19.1,33-21.9,72.9-8.5,113.8c-13.4,40.9-10.6,80.8,8.5,113.8
			c19.1,33,52.2,55.4,94.3,64.2c28.7,32.1,64.7,49.6,102.8,49.6c38.1,0,74.1-17.5,102.8-49.6c42.2-8.8,75.3-31.2,94.3-64.2
			C468.3,328.8,471.1,288.9,457.7,248z"/>
	</g>
</g>
<path class="st2" d="M251.9,435.2c-34.4,0-66.5-20.2-90.5-57c-23.4-35.9-36.4-83.6-36.4-134.1c0-50.6,12.9-98.2,36.4-134.1
	c24-36.7,56.1-57,90.5-57c34.4,0,66.5,20.2,90.5,57c23.4,35.9,36.4,83.6,36.4,134.1s-12.9,98.2-36.4,134.1
	C318.5,414.9,286.3,435.2,251.9,435.2z M251.9,65.3c-63.2,0-114.5,80.2-114.5,178.8s51.4,178.8,114.5,178.8s114.5-80.2,114.5-178.8
	S315.1,65.3,251.9,65.3z"/>
<path class="st3" d="M191.1,389.8C191.1,389.8,191.1,389.8,191.1,389.8c-48.1,0-86.2-18.3-104.7-50.2
	c-17.2-29.8-15.8-67.7,4.1-106.9c19.4-38.3,54.2-73.3,98-98.6c40-23.1,84.2-35.9,124.3-35.9c48.1,0,86.2,18.3,104.6,50.2
	c17.2,29.8,15.7,67.7-4.1,106.9c-19.4,38.3-54.2,73.3-98,98.6C275.3,377,231.2,389.8,191.1,389.8z M312.8,110.7
	c-38,0-79.9,12.1-118.1,34.2c-85.4,49.3-129.1,133.9-97.5,188.6c16.1,28,50.4,44,94,44c0,0,0,0,0,0c38,0,79.9-12.1,118.1-34.2
	c85.4-49.3,129.1-133.9,97.5-188.6C390.6,126.7,356.4,110.7,312.8,110.7z"/>
<path class="st4" d="M312.8,389.8C312.8,389.8,312.8,389.8,312.8,389.8c-40.1,0-84.2-12.7-124.3-35.9c-43.8-25.3-78.6-60.3-98-98.6
	c-19.8-39.1-21.3-77.1-4.1-106.9c18.4-31.9,56.6-50.2,104.6-50.2c40.1,0,84.2,12.7,124.3,35.9c43.8,25.3,78.6,60.3,98,98.6
	c19.8,39.1,21.3,77.1,4.1,106.9C399,371.5,360.9,389.8,312.8,389.8z M191.1,110.7c-43.6,0-77.8,16-94,44
	c-15,26.1-13.5,59.8,4.4,95.1c18.3,36.2,51.4,69.3,93.2,93.4c38.2,22.1,80.2,34.2,118.1,34.2c0,0,0,0,0,0c43.6,0,77.8-16,94-44
	c31.6-54.7-12.2-139.3-97.5-188.6C271,122.8,229.1,110.7,191.1,110.7z"/>
<circle class="st5" cx="185.1" cy="90.6" r="27.6"/>
<path class="st6" d="M131.2,353.2c0-15.2-12.3-27.6-27.6-27.6S76.1,338,76.1,353.2c0,15.2,12.3,27.6,27.6,27.6
	S131.2,368.4,131.2,353.2z"/>
<circle class="st7" cx="354.7" cy="377.4" r="27.6"/>
<g>
	<path class="st8" d="M301.8,207.5H261v107.6h-19.7V207.5h-40.6v-19.2h101.1V207.5z"/>
</g>
</svg>
