<?xml version="1.0" encoding="UTF-8" standalone="no"?>
<!DOCTYPE svg PUBLIC "-//W3C//DTD SVG 1.1//EN" "http://www.w3.org/Graphics/SVG/1.1/DTD/svg11.dtd">
<svg width="100%" height="100%" viewBox="0 0 1322 1191" version="1.1" xmlns="http://www.w3.org/2000/svg" xmlns:xlink="http://www.w3.org/1999/xlink" xml:space="preserve" xmlns:serif="http://www.serif.com/" style="fill-rule:evenodd;clip-rule:evenodd;stroke-miterlimit:10;">
    <g id="a">
        <g>
            <g>
                <path d="M653.6,511.9C613.6,510.6 573.6,510.9 533.6,513C529.6,513.2 524.2,515.2 525.2,519.1C525.5,520.4 526.6,521.3 527.6,522.1C535.6,528.1 546.5,528.4 556.5,528.4L626.4,528.4C630.3,528.4 640.3,528.3 643.2,525.6C646.1,522.9 653,516.1 651.6,512.5" style="fill-opacity:0.3;fill-rule:nonzero;"/>
                <path d="M257.7,814.2C235.3,808.7 211.7,808.2 189.1,812.8C187.5,813.1 185.6,813.7 184.8,815.1C183.3,817.9 187,820.7 190,821.7C209.6,828.3 231.4,828.1 250.9,821.3C252.1,820.9 253.4,820.3 254.1,819.2C254.8,818.1 254.3,816.3 253,816.1" style="fill-opacity:0.3;fill-rule:nonzero;"/>
                <path d="M128.9,810C118.3,809.5 112.6,810.4 106.3,813.8C105.1,814.5 103.8,815.4 103.3,816.7C102.1,820.1 106.5,822.7 110,823.5C118.6,825.3 127.5,825.6 136.2,824.2C139.2,823.7 142.5,822.8 143.9,820.1C145.6,816.8 143.1,812.5 139.7,811C136.3,809.5 132.4,809.9 128.7,810.4" style="fill-opacity:0.3;fill-rule:nonzero;"/>
                <path d="M857.4,559.4C846.2,559.4 835.1,560.6 824.2,562.8C820.7,563.5 816.4,565.6 817,569.1C817.4,571.4 819.9,572.6 822.1,573.3C831.5,576.3 841.7,576 851.6,575.7C915.5,573.5 979.4,571.3 1043.3,569.1C1047.1,569 1052.3,567 1051.3,563.4C984.6,554.8 916.7,555.4 850.2,565.2" style="fill-opacity:0.3;fill-rule:nonzero;"/>
                <path d="M1049.5,1043.3C1023.4,1043.7 997.2,1044.1 971.1,1044.5C956.2,1044.7 941.2,1045 926.7,1048.6C930.1,1051.8 934.9,1052.8 939.5,1053.6C971.3,1059.2 1004,1059.5 1035.9,1054.6C1041.1,1053.8 1047.5,1051.5 1047.8,1046.3" style="fill-opacity:0.3;fill-rule:nonzero;"/>
                <path d="M1146.6,1036.5C1139.5,1033.7 1131.4,1033.3 1124,1035.5C1120.6,1036.5 1116.8,1039.8 1118.6,1042.8C1135.9,1046.4 1154,1045.5 1170.9,1040.4C1160.5,1033.2 1146.5,1031.6 1134.8,1036.3" style="fill-opacity:0.3;fill-rule:nonzero;"/>
                <path d="M484.7,1138.2C555.7,1141.4 626.8,1140.9 697.8,1136.8C709,1136.1 723.4,1132.3 724,1121.1C644.2,1102.6 559,1141.1 479.7,1120.6" style="fill-opacity:0.3;fill-rule:nonzero;"/>
            </g>
            <path d="M728.5,235.9C728.5,235.9 727.6,218.5 735.2,215.9C735.2,215.9 734.6,224.6 733,228.4C731.5,232.1 728.5,235.9 728.5,235.9Z" style="fill:rgb(160,187,10);fill-rule:nonzero;"/>
            <path d="M412.6,256.7C414.3,244.8 403,236.2 403,236.2C403,236.2 402.1,239.3 402.6,242.6C403.1,245.9 412.6,256.7 412.6,256.7Z" style="fill:rgb(160,187,10);fill-rule:nonzero;"/>
            <path d="M763.3,233.2C763.3,233.2 744.1,244.9 740.9,243.6C737.7,242.3 739.8,240.1 739.8,240.1C739.8,240.1 734.8,242 735.9,239.7C737,237.4 737,237.3 737,237.3C737,237.3 732.7,237.3 734.8,235.6C737,233.9 739.8,227.2 742.6,226.1C745.4,225 747.6,223.3 747.6,223.3L750.8,218.3C750.8,218.3 752.3,217.2 756.8,217.7C761.3,218.1 766.9,219.2 766.9,219.2L763.3,233.2Z" style="fill:rgb(225,83,55);fill-rule:nonzero;"/>
            <path d="M734.2,216.2C734.2,216.2 752.8,215.8 755.8,221.2C755.8,221.2 750.6,222.6 748,223.2C747,223.4 745.9,225.3 745.9,225.3C745.9,225.3 738.9,235.1 735.6,235.7C734.1,236 726.2,232.6 726.2,232.6C726.2,232.6 726.6,218.6 734.2,216.2Z" style="fill:rgb(131,40,25);fill-rule:nonzero;"/>
            <path d="M407,239.5C406.4,239.5 391.2,238.9 389.3,238.9C387.4,238.9 380.8,238.1 376,241.3C371.1,244.5 376.2,249.9 376.2,249.9L381.3,260.8L392.2,260.6C392.2,260.6 399.7,260.6 403.1,258.2C406.5,255.8 414.2,249.9 414.2,249.9L407,239.5Z" style="fill:rgb(230,107,24);fill-rule:nonzero;"/>
            <path d="M352.9,259L363.2,253.6C363.2,253.6 373.5,242.7 377.2,241.8C377.2,241.8 382.1,240.5 380.8,243C380.8,243 384.9,240.4 385.9,242.3L388.3,243.8C390.7,245.3 389.8,246.5 389.8,246.5C389.8,246.5 391.5,244.6 391.2,247.9C390.9,251.1 388.8,252 388.8,252L387.6,257.1C387.6,257.1 392,252.5 396.1,254C400.2,255.5 392.2,262.2 387.9,263.9C383.6,265.6 367.1,268.2 367.1,268.2L359.9,271.4L352.9,259Z" style="fill:rgb(131,40,25);fill-rule:nonzero;"/>
            <path d="M1109.5,383C1122.2,388.5 1139.5,377.5 1139.5,377.5C1139.5,377.5 1132.5,375.9 1125.6,375.9C1118.7,376 1109.5,383 1109.5,383Z" style="fill:rgb(134,89,25);fill-rule:nonzero;"/>
            <path d="M535.1,542.1C535.1,542.1 535.3,542.2 535.6,542.4C537.4,543.6 544.2,547.8 547.4,547.2L542.4,554" style="fill:rgb(218,5,27);fill-rule:nonzero;"/>
            <path d="M1107.2,339.1C1107.2,339.1 1119.8,338.7 1124.4,338.7C1129,338.7 1138.9,347.4 1138.9,347.4L1135.5,352.3C1135.5,352.3 1145.3,355.6 1146.6,359C1147.9,362.5 1142.9,363.6 1142.9,363.6C1142.9,363.6 1147.9,362.9 1147,365.3C1146.1,367.7 1142.4,368.8 1142.4,368.8C1142.4,368.8 1147.8,368.8 1144.4,370.8C1140.9,372.8 1135.9,372.8 1135.9,372.8C1135.9,372.8 1138.7,374.8 1138.7,376.1C1138.7,377.4 1129.1,377.4 1129.1,377.4L1095.9,352.2L1107.2,339.1Z" style="fill:rgb(225,83,55);fill-rule:nonzero;"/>
            <path d="M1117.6,390.3C1117.6,390.3 1103.7,353.3 1115.8,339.8C1116.5,339.1 1117.6,339.2 1118.1,340.1C1119.2,342.3 1120.5,346.5 1118.4,351.8C1118.4,351.8 1123,349.4 1124,346.8C1124,346.8 1133.8,345.7 1138.1,347C1142.4,348.3 1139.4,352.4 1139.4,352.4C1139.4,352.4 1141.1,349.6 1142,353.1C1142.9,356.6 1132.4,384.2 1132.4,384.2L1117.6,390.3Z" style="fill:rgb(131,40,25);fill-rule:nonzero;"/>
            <g>
                <path d="M583.2,491.5L581.9,501.7C581.9,501.7 596.3,505.5 594.5,501.7C594.3,501.3 595.8,489.9 595.8,489.9" style="fill:rgb(225,83,55);fill-rule:nonzero;"/>
                <path d="M582,499.7C582,499.7 576.5,506.2 571.3,507.8C566.1,509.4 557.7,511.9 553.4,516.6C553.4,516.6 571.3,520 598.8,511.9C598.8,511.9 596.6,502.2 595.9,499.9C595.2,497.6 589.4,503.3 587.6,502.6C585.9,501.9 582,499.7 582,499.7Z" style="fill:rgb(220,228,174);fill-rule:nonzero;"/>
                <path d="M577,510.7L586.2,507.3L589.8,514.5L585.5,515.2L583.2,511.4L580.2,513L581.6,516.3L578.1,516.4L577,510.7Z" style="fill-rule:nonzero;"/>
                <path d="M598.8,515.5C571.3,523.6 553.4,520.2 553.4,520.2L553.4,516.6C553.4,516.6 571.3,520 598.8,511.9L598.8,515.5Z" style="fill-rule:nonzero;"/>
                <path d="M587.7,502.6C587.7,502.6 580.1,511 572.7,512.4C565.3,513.7 562.3,511.2 562.3,511.2" style="fill:none;fill-rule:nonzero;stroke:black;stroke-width:1.32px;"/>
                <path d="M578.8,502.9L583.5,505.8" style="fill:none;fill-rule:nonzero;stroke:black;stroke-width:1.32px;"/>
                <path d="M576.2,504.9L580.9,507.8" style="fill:none;fill-rule:nonzero;stroke:black;stroke-width:1.32px;"/>
                <path d="M572.8,507.1L577.5,510" style="fill:none;fill-rule:nonzero;stroke:black;stroke-width:1.32px;"/>
                <path d="M568.2,508.6L572.9,511.5" style="fill:none;fill-rule:nonzero;stroke:black;stroke-width:1.32px;"/>
            </g>
            <g>
                <path d="M620.6,490.9L619.3,501.1C619.3,501.1 604.4,501.2 607.1,498C607.4,497.7 608.8,486.2 608.8,486.2" style="fill:rgb(225,83,55);fill-rule:nonzero;"/>
                <path d="M619.6,499.2C619.6,499.2 621.4,504.9 626,507.8C630.6,510.7 640.3,508 643.3,513.6C643.3,513.6 624.9,521.6 600.3,506.9C600.3,506.9 604.8,498 606.1,496C607.4,493.9 611.5,500.9 613.4,500.7C615.4,500.4 619.6,499.2 619.6,499.2Z" style="fill:rgb(220,228,174);fill-rule:nonzero;"/>
                <path d="M599.5,510.4C624.1,525 642.5,517.1 642.5,517.1L643.4,513.6C643.4,513.6 625,521.6 600.4,506.9L599.5,510.4Z" style="fill-rule:nonzero;"/>
                <path d="M613.5,500.6C613.5,500.6 618.8,510.7 625.6,513.8C632.4,516.9 631.6,509 631.6,509" style="fill:none;fill-rule:nonzero;stroke:black;stroke-width:1.32px;"/>
                <path d="M622,503.1L616.7,504.7" style="fill:none;fill-rule:nonzero;stroke:black;stroke-width:1.32px;"/>
                <path d="M624,505.7L618.8,507.4" style="fill:none;fill-rule:nonzero;stroke:black;stroke-width:1.32px;"/>
                <path d="M624.5,507.2L621.5,510.3" style="fill:none;fill-rule:nonzero;stroke:black;stroke-width:1.32px;"/>
                <path d="M630,508.2L625.6,512.9" style="fill:none;fill-rule:nonzero;stroke:black;stroke-width:1.32px;"/>
            </g>
            <path d="M470.1,1076.2C470.1,1076.2 476.7,1074.5 484.9,1073.6C493.1,1072.7 498.4,1075.4 498.4,1075.4L488.3,1082.6L477.7,1083.3L470.1,1076.2Z" style="fill-rule:nonzero;"/>
            <path d="M528.6,1076.2C528.6,1076.2 535.2,1074.5 543.4,1073.6C551.6,1072.7 556.9,1075.4 556.9,1075.4L546.8,1082.6L536.2,1083.3L528.6,1076.2Z" style="fill-rule:nonzero;"/>
            <path d="M356.6,569.7L366.3,589.5L352.5,596.5C352.5,596.5 338.9,583.8 338,579.2C337.1,574.5 356.6,569.7 356.6,569.7Z" style="fill:rgb(230,107,24);fill-rule:nonzero;"/>
            <path d="M342.8,550.6C342.8,550.6 355.5,558.2 359.2,564.6C362.9,571 361.7,585.4 361.7,585.4C361.7,585.4 352.9,581.7 353.3,576.8C353.3,576.8 348,582.3 350.8,585C350.8,585 348.7,588.9 346.9,586.8C346.9,586.8 345.1,589.5 343.2,587.6C343.2,587.6 340.7,588.8 339.3,586.4C339.3,586.4 335.8,586.8 333.5,579.6C331.2,572.4 330.6,558.6 330.6,558.6L342.8,550.6Z" style="fill:rgb(131,40,25);fill-rule:nonzero;"/>
            <path d="M832.2,758.8L820.9,773.5C820.9,773.5 800.7,786.1 796.5,789C792.3,791.9 770.2,816.3 772.3,819C774.4,821.6 783.9,813 783.9,813C783.9,813 773.1,828 775,829.6C776.9,831.2 780,830.1 780,830.1C780,830.1 776.1,839.6 779.7,838.5C783.4,837.4 785,835.6 785,835.6C785,835.6 782.4,844 787.4,841.4C792.4,838.8 797.4,834.8 797.4,834.8L808.7,837.2C808.7,837.2 805.8,842.7 809,842.7C812.2,842.7 821.1,838.2 823.2,835.9C825.3,833.5 834.8,809.6 834.2,799.6L850.2,775.4" style="fill:rgb(131,40,25);fill-rule:nonzero;"/>
            <path d="M780.4,830.5C781.9,830 783.2,829 784.4,828C785.5,827.2 787.3,826.1 788,824.8C788.5,823.8 787.5,822.8 786.5,823.3C785.4,823.8 784.4,825.3 783.5,826.1C782.5,827 781.4,828.3 780.1,828.8C779,829.2 779.4,830.8 780.4,830.5Z" style="fill:rgb(196,9,33);fill-rule:nonzero;"/>
            <path d="M784.5,836.3C786,835.8 787.3,834.8 788.5,833.8C789.6,833 791.4,831.9 792.1,830.6C792.6,829.6 791.6,828.6 790.6,829.1C789.5,829.6 788.5,831.1 787.6,831.9C786.6,832.8 785.5,834.1 784.2,834.6C783.1,835.1 783.4,836.7 784.5,836.3Z" style="fill:rgb(196,9,33);fill-rule:nonzero;"/>
            <path d="M772.3,784.4C772.3,784.4 811.6,791.7 822.7,802.8C833.8,813.9 837.3,822.3 833.3,823.1C829.2,823.9 815.9,811.4 815.9,811.4C815.9,811.4 813.2,822.6 817.3,825.9C817.3,825.9 812.1,838.8 808.6,839.6C805.1,840.4 803.2,839.4 803.2,839.4C803.2,839.4 804,842.8 800.7,842C797.4,841.2 775.7,806.7 775.7,806.7L770.8,805.6C771,805.9 765.8,788 772.3,784.4Z" style="fill:rgb(230,107,24);fill-rule:nonzero;"/>
            <path d="M1027.8,1012.8L1026.1,1026.9C1026.1,1026.9 1046,1032.1 1043.4,1026.9C1043.2,1026.4 1045.1,1010.5 1045.1,1010.5" style="fill:rgb(225,83,55);fill-rule:nonzero;"/>
            <path d="M1026.2,1024.2C1026.2,1024.2 1018.6,1033.1 1011.4,1035.3C1004.2,1037.5 992.6,1041 986.6,1047.4C986.6,1047.4 1011.4,1052.1 1049.3,1041C1049.3,1041 1046.3,1027.6 1045.3,1024.4C1044.3,1021.2 1036.4,1029.1 1033.9,1028.1C1031.5,1027.1 1026.2,1024.2 1026.2,1024.2Z" style="fill:rgb(245,176,0);fill-rule:nonzero;"/>
            <path d="M1019.3,1039.4L1032,1034.5L1037,1044.6L1031.1,1045.5L1027.8,1040.2L1023.6,1042.4L1025.6,1047L1020.8,1047.2L1019.3,1039.4Z" style="fill-rule:nonzero;"/>
            <path d="M1049.3,1046C1011.4,1057.2 986.6,1052.4 986.6,1052.4L986.6,1047.4C986.6,1047.4 1011.4,1052.1 1049.3,1041L1049.3,1046Z" style="fill-rule:nonzero;"/>
            <path d="M1034,1028.1C1034,1028.1 1023.5,1039.8 1013.3,1041.6C1003.1,1043.5 998.9,1039.9 998.9,1039.9" style="fill:none;fill-rule:nonzero;stroke:black;stroke-width:1.32px;"/>
            <path d="M1021.8,1028.5L1028.3,1032.5" style="fill:none;fill-rule:nonzero;stroke:black;stroke-width:1.32px;"/>
            <path d="M1018.1,1031.4L1024.6,1035.4" style="fill:none;fill-rule:nonzero;stroke:black;stroke-width:1.32px;"/>
            <path d="M1013.4,1034.4L1020,1038.4" style="fill:none;fill-rule:nonzero;stroke:black;stroke-width:1.32px;"/>
            <path d="M1007.1,1036.4L1013.6,1040.4" style="fill:none;fill-rule:nonzero;stroke:black;stroke-width:1.32px;"/>
            <g>
                <path d="M1144.4,940.1L1150.5,953C1150.5,953 1170.1,946.7 1165.2,943.7C1164.7,943.4 1157.9,928.9 1157.9,928.9" style="fill:rgb(225,83,55);fill-rule:nonzero;"/>
                <path d="M1149.2,950.5C1149.2,950.5 1147.5,962.1 1142.6,967.8C1137.7,973.5 1129.7,982.7 1128.1,991.3C1128.1,991.3 1151.6,982 1177.6,952.3C1177.6,952.3 1167.9,942.6 1165.4,940.4C1162.8,938.2 1160.4,949.1 1157.8,949.6C1155.2,950.1 1149.2,950.5 1149.2,950.5Z" style="fill:rgb(245,176,0);fill-rule:nonzero;"/>
                <path d="M1154.1,963.7L1162.3,952.8L1171.9,958.7L1167.4,962.6L1161.8,959.9L1159.4,963.9L1163.6,966.8L1159.6,969.5L1154.1,963.7Z" style="fill-rule:nonzero;"/>
                <path d="M1180.4,956.6C1173.2,964.7 1164.7,969.1 1158.1,974.7C1141.4,988.8 1130.9,995.5 1130.9,995.5L1128.2,991.3C1128.2,991.3 1137.8,984.5 1154.3,970.8C1160.8,965.4 1170.4,960.7 1177.7,952.4L1180.4,956.6Z" style="fill-rule:nonzero;"/>
                <path d="M1157.8,949.7C1157.8,949.7 1155.1,965.2 1147.5,972.2C1139.9,979.2 1134.4,978.5 1134.4,978.5" style="fill:none;fill-rule:nonzero;stroke:black;stroke-width:1.32px;"/>
                <path d="M1147.7,956.6L1155.4,956.5" style="fill:none;fill-rule:nonzero;stroke:black;stroke-width:1.32px;"/>
                <path d="M1146.2,960.9L1153.8,960.8" style="fill:none;fill-rule:nonzero;stroke:black;stroke-width:1.32px;"/>
                <path d="M1143.8,966L1151.5,965.9" style="fill:none;fill-rule:nonzero;stroke:black;stroke-width:1.32px;"/>
                <path d="M1139.5,971.1L1147.2,971" style="fill:none;fill-rule:nonzero;stroke:black;stroke-width:1.32px;"/>
            </g>
            <g>
                <path d="M1021.7,530.1L1023.8,544.1C1023.8,544.1 1015.2,551.9 1009.4,549.1C1003.6,546.3 1001.4,542.8 1001.4,542.8L1003.3,531L1021.7,530.1Z" style="fill:rgb(225,83,55);fill-rule:nonzero;"/>
                <path d="M1001.4,542.8C1001.4,542.8 1005.6,547.6 1013.9,548.4C1017.2,548.7 1023.8,544.1 1023.8,544.1C1023.8,544.1 1030.3,554.5 1041.7,556.2C1053.1,557.8 1057.5,557.4 1062,561C1062,561 1043.8,564.5 1021.4,563.3C999,562.1 995.5,557.6 995.5,557.6L1001.4,542.8Z" style="fill:rgb(160,187,10);fill-rule:nonzero;"/>
                <path d="M995.5,562.9C995.5,562.9 999,567.4 1021.4,568.6C1043.8,569.8 1062,566.3 1062,566.3L1062,561C1062,561 1043.8,564.5 1021.4,563.3C999,562.1 995.5,557.6 995.5,557.6L995.5,562.9Z" style="fill:rgb(39,52,73);fill-rule:nonzero;"/>
                <path d="M1030.3,550.5L1028.4,553.2" style="fill:none;fill-rule:nonzero;stroke:rgb(39,52,73);stroke-width:1.32px;"/>
                <path d="M1032.3,552.4L1030.3,555.1" style="fill:none;fill-rule:nonzero;stroke:rgb(39,52,73);stroke-width:1.32px;"/>
                <path d="M1034.3,553.8L1032.4,556.5" style="fill:none;fill-rule:nonzero;stroke:rgb(39,52,73);stroke-width:1.32px;"/>
                <path d="M1036.4,554.9L1034.5,557.5" style="fill:none;fill-rule:nonzero;stroke:rgb(39,52,73);stroke-width:1.32px;"/>
                <path d="M1038.6,555.4L1036.7,558.1" style="fill:none;fill-rule:nonzero;stroke:rgb(39,52,73);stroke-width:1.32px;"/>
            </g>
            <path d="M890.3,530.1L888.2,544.1C888.2,544.1 896.8,551.9 902.6,549.1C908.4,546.3 910.6,542.8 910.6,542.8L908.7,531L890.3,530.1Z" style="fill:rgb(225,83,55);fill-rule:nonzero;"/>
            <path d="M1105.7,703.9L1125.4,823.6C1125.4,823.6 1148.9,877 1164.9,930.6L1139.9,952.9L1092.3,855.7L1065.5,799.4L1105.7,703.9Z" style="fill:rgb(137,158,30);fill-rule:nonzero;"/>
            <path d="M1127.5,707.6C1127.5,707.6 1132.9,741 1115.3,774.3C1097.8,807.6 1075.3,875.1 1075.3,875.1L1055.5,1015.9L1023.6,1014.6L1024.5,888.2L1036.6,767.6L1127.5,707.6Z" style="fill:rgb(160,187,10);fill-rule:nonzero;"/>
            <path d="M462.2,962.8C462.2,962.8 468.6,992.5 464.7,1005.7C460.8,1018.9 474,1088 474,1088L493.3,1089.4C493.3,1089.4 495.4,1030.4 497.2,1017.1C499,1003.9 497.2,962.4 497.2,962.4L462.2,962.8Z" style="fill:rgb(230,107,24);fill-rule:nonzero;"/>
            <path d="M521.7,962.8C521.7,962.8 528.1,992.5 524.2,1005.7C520.3,1018.9 533.5,1088 533.5,1088L552.8,1089.4C552.8,1089.4 554.9,1030.4 556.7,1017.1C558.5,1003.9 556.7,962.4 556.7,962.4L521.7,962.8Z" style="fill:rgb(230,107,24);fill-rule:nonzero;"/>
            <path d="M529.6,812L577.7,809.1C577.7,809.1 579.9,927.6 577.7,971.4L522.8,971.8L472.9,972.1L529.6,812Z" style="fill:rgb(111,77,143);fill-rule:nonzero;"/>
            <path d="M563.3,678.4C563.3,678.4 576.9,789.7 577.7,809.1L544.7,810.5L563.3,678.4Z" style="fill:rgb(245,176,0);fill-rule:nonzero;"/>
            <path d="M210.3,621.1C210.3,621.1 211,643.1 209.6,645.7C208.1,648.3 171.2,668.8 158.5,687.9C158.5,687.9 171.6,713.3 191,713.3L226.1,682L241.4,663L250.7,628.7L210.3,621.1Z" style="fill:rgb(108,35,26);fill-rule:nonzero;"/>
            <path d="M235.3,625.9C235.3,625.9 232.7,654.7 230.1,659.2C227.5,663.7 225.6,677.8 224.1,695.3C222.8,710.9 220.4,741.3 220.4,741.3L251.4,741.9L266.7,688.6L276,640.5L235.3,625.9Z" style="fill:rgb(131,40,25);fill-rule:nonzero;"/>
            <path d="M352.5,254.7L365.7,271.9C365.7,271.9 304.9,299.7 272.5,345.9L224.9,353.2C224.9,353.2 234.2,311.6 302.9,276.5L352.5,254.7Z" style="fill:rgb(225,83,55);fill-rule:nonzero;"/>
            <path d="M290.6,305.9C290.6,305.9 293.5,315.3 296.7,314.3L290,318.9L290.6,305.9Z" style="fill:rgb(218,5,27);fill-rule:nonzero;"/>
            <path d="M903,309L885.7,418.5L880.4,533.8L915.5,537L931.5,428.3L949.5,363.8L965.5,442L1001.6,543.4L1028.2,541.3L1008.5,426.3L1008.6,324.9C1008.5,324.9 987.2,324.3 903,309Z" style="fill:rgb(39,52,73);fill-rule:nonzero;"/>
            <path d="M532,109.5C529.8,106.8 528.3,101.4 529.7,98.2C531.1,95 537.2,90.9 540.7,90.7C539.7,85.7 538.6,82.4 540.4,77.7C542.4,72.4 547.4,68.9 552.3,66C555.5,64.1 558.9,62.4 562.6,61.9C568.5,61.1 574.6,63.7 578.6,68.1C582.6,72.5 584.5,78.5 584.6,84.5C584.6,88.8 583.8,93.4 585.6,97.4C588.4,103.6 596.1,105.4 602.3,108.2C610.1,111.8 616.6,118.3 619.7,126.3C622.9,134.3 622.5,143.6 618.5,151.2C605.9,142.8 586.2,147.8 573.4,139.6C566.5,135.2 561.8,125.1 557.7,118C558.8,115.6 560.9,111.6 561.3,108.9C561.7,106.2 562.1,106.3 559.6,105.7C557.8,105.2 555.6,106 554.8,107.7C554,109.4 553.9,111.3 553.9,113.1C549.6,109.9 544.6,107.6 539.4,106.4C537.7,106 535.2,106.3 535,108" style="fill:rgb(131,40,25);fill-rule:nonzero;"/>
            <path d="M532.8,109.3C532.9,109.2 537.1,105.1 537.3,105C544.2,102.3 548.1,106.7 552.3,111.6C553.7,109.7 554.1,107.5 555.5,105.5C557,103.4 563.4,105 562.4,107.9C560.8,112.7 556.9,116.4 559.7,121C562.1,124.7 565.6,131.2 568.4,134.6C575.8,143.5 593.8,142.2 594.7,142.4C596.1,142.7 598.1,142.1 598.1,143.6C598.2,151.5 595.1,158.4 591.1,165.8C587.7,172.1 582.3,175.8 575.4,178.5C569.1,181 565,181.6 558.3,180.2C551.1,178.7 544.2,174.1 539.7,168.6C539.2,168 535.3,165.4 534.5,164.1C532.5,160.8 531.4,159 534.5,158.2C538.8,157.1 549.6,147.6 549.9,146.2C550.1,145.2 547.8,137 547.8,133.6C544.1,135.1 540.9,134.1 538.4,129.7C538.3,129.8 533,116.2 532.8,109.3Z" style="fill:rgb(230,107,24);fill-rule:nonzero;"/>
            <path d="M533.5,158.6C533.5,158.6 515.7,160.5 502.8,180C489.9,199.5 481.3,211.1 481.3,211.1L403,236.2C403,236.2 414.2,244.8 412.6,256.7C412.6,256.7 474.1,241.2 482,236.2C489.9,231.2 528.9,201.5 528.9,201.5L559.3,274.9C559.3,274.9 597,285.8 617.8,269.3L620.8,183.4C620.8,183.4 644.6,217.4 657.8,222.4C671,227.4 728.5,235.9 728.5,235.9C728.5,235.9 727.6,218.5 735.2,215.9C735.2,215.9 670.7,203.6 668.7,202.2C666.7,200.9 638.1,150.5 598.1,142.6C598.1,142.6 594.1,177 570.3,178.3C546.5,179.6 533.5,158.6 533.5,158.6Z" style="fill:rgb(220,228,174);fill-rule:nonzero;"/>
            <path d="M558.9,273.7C558.9,273.7 560.5,459 578.4,492.7L597.1,492.9L599.1,316.2C599.1,316.2 607,339.3 636.6,371.1C636.6,371.1 608.8,466.7 606.3,490.8L620.8,495.5C620.8,495.5 676.6,379.8 673.5,369.2C669,353.9 617.6,267.6 617.6,267.6C617.6,267.6 602,283.9 558.9,273.7Z" style="fill:rgb(152,194,226);fill-rule:nonzero;"/>
            <path d="M973.8,146.9L975.6,165.8" style="fill:none;fill-rule:nonzero;stroke:rgb(131,154,31);stroke-width:1.32px;stroke-linecap:round;stroke-linejoin:round;"/>
            <path d="M968.2,147.9L967.4,166.9" style="fill:none;fill-rule:nonzero;stroke:rgb(131,154,31);stroke-width:1.32px;stroke-linecap:round;stroke-linejoin:round;"/>
            <path d="M961.7,147.9L960.9,166.9" style="fill:none;fill-rule:nonzero;stroke:rgb(131,154,31);stroke-width:1.32px;stroke-linecap:round;stroke-linejoin:round;"/>
            <path d="M955.2,147.5L953.8,164.5" style="fill:none;fill-rule:nonzero;stroke:rgb(131,154,31);stroke-width:1.32px;stroke-linecap:round;stroke-linejoin:round;"/>
            <path d="M964.8,115.2C964.1,115.2 943,130.6 943.2,138.1C943.4,145.6 956,151.8 961.5,151.5C967,151.3 976.3,148 981.1,142.5L964.8,115.2Z" style="fill:rgb(225,83,55);fill-rule:nonzero;"/>
            <path d="M972.2,128L963,133.2C963,133.2 957.8,125.3 953.3,123.8L949.9,127.3L958.3,134.2L954.4,138.1L945.8,131.9C945.8,131.9 941.4,135.1 940.4,139.5C939.4,143.9 952.8,156 967.9,151.4C978.5,148.2 980.7,143.1 980.7,143.1L972.2,128Z" style="fill:rgb(245,176,0);fill-rule:nonzero;"/>
            <path d="M968.3,107.1C968.3,107.1 963.7,103.2 961.9,106.5C960,109.8 959.2,114.5 964.8,115.3L968.3,107.1Z" style="fill:rgb(245,176,0);fill-rule:nonzero;"/>
            <path d="M963.9,115.5C963.9,115.5 961.1,110 969.4,106.3C977.7,102.6 989.9,102.2 995.9,115.4C1001.9,128.7 987,141.3 980.2,143.2L963.9,115.5Z" style="fill:rgb(39,52,73);fill-rule:nonzero;"/>
            <path d="M285.6,289.9C285.6,289.9 296.3,313.2 292.2,329.6C289.9,338.8 280.1,331 280.1,331L280.1,343.4L254.8,335.6L258.8,311.1L285.6,289.9Z" style="fill:rgb(131,40,25);fill-rule:nonzero;"/>
            <path d="M223.9,353.3L237.4,329.7L288.4,345.6L284.4,356C284.4,356 327.4,363.2 323.4,391.9C319.4,420.6 313,478.8 313,478.8L348.1,551.3L327.4,564.8C327.4,564.8 297.3,532.3 293.4,525.9C293.4,525.9 251.1,537 236.8,531.4C222.5,525.8 218.3,507.4 218.3,507.4C218.3,507.4 182.9,378.1 223.9,353.3Z" style="fill:rgb(233,130,96);fill-rule:nonzero;"/>
            <path d="M236.9,262C236.9,262 244.2,254.7 252.6,259.5C261,264.3 269.2,273.5 267.5,285.1C267.5,285.1 285.5,279.8 290,287.1C294.5,294.4 284.9,296.7 284.9,296.7L284.6,316.4C284.6,316.4 278.7,305.7 275.3,309.1C271.9,312.5 273.3,324.6 273.3,324.6C273.3,324.6 260.4,330.2 256.7,327.7C253,325.2 245.2,320.4 248,304.4C248,304.4 231.4,306.6 225.5,290.9C219.6,275.2 236.9,262 236.9,262Z" style="fill:rgb(218,5,27);fill-rule:nonzero;"/>
            <path d="M218.3,507.4C218.3,507.4 224.5,542.4 293.1,525.3L285.5,643.5C285.5,643.5 226.7,636.2 198.7,622.8L202,573.4C202.1,573.4 192.5,532.9 218.3,507.4Z" style="fill:rgb(160,187,10);fill-rule:nonzero;"/>
            <path d="M220.4,737.5C220.4,737.5 232.2,741 251.4,741L237.1,796.2C237.1,796.2 229,797 223.4,794.4L220.4,737.5Z" style="fill:rgb(160,187,10);fill-rule:nonzero;"/>
            <path d="M158.4,687.9C158.4,687.9 166.9,705.3 190.9,713.3L143.1,751.7C143.1,751.7 139,751.2 133.2,745.6C133.2,745.5 144.3,709.2 158.4,687.9Z" style="fill:rgb(160,187,10);fill-rule:nonzero;"/>
            <path d="M223.4,794.4C223.4,794.4 230.4,796.7 236.8,795.1C236.8,795.1 246.2,811 258.5,814.8C258.5,814.8 260.1,822 250.4,820.5C240.7,819 230.4,805.3 230.4,805.3L229.9,818.1L223.8,817.2L225,806.1C225,806.1 222.4,803.5 223.4,794.4Z" style="fill:rgb(39,52,73);fill-rule:nonzero;"/>
            <path d="M135,741.2C135,741.2 138.8,747.6 144.5,750.6C144.5,750.6 141,768.7 147.7,779.8C147.7,779.8 144.1,786.3 137.8,778.6C131.6,771 133,754 133,754L124.1,763.2L120.1,758.5L128.4,751C128.4,751 128.2,747.2 135,741.2Z" style="fill:rgb(39,52,73);fill-rule:nonzero;"/>
            <path d="M533.3,600.2L538.9,577.7C538.9,577.7 549.5,576.3 549.5,566.9C549.5,557.5 539.8,543 531,539.4C531,539.4 528.9,549 531.5,556C531.5,556 528.1,552.6 524.3,555.4C520.5,558.2 524.7,560.9 525.1,564.1C525.5,567.3 518.5,577.4 517.3,579C516.1,580.6 522.1,599.8 522.1,599.8L533.3,600.2Z" style="fill:rgb(230,107,24);fill-rule:nonzero;"/>
            <path d="M581.3,610.9C581.3,610.9 525.4,595.9 514.5,594.1C503.6,592.3 483.6,595.9 465,600C446.4,604.1 415.9,636.4 408.6,637.3C401.3,638.2 372.2,601.4 367.2,587.3C367.2,587.3 352.7,597.3 345.4,596.8C345.4,596.8 363.1,660.4 365.9,666.3C368.6,672.2 396.8,704.9 442.3,701.8C442.3,701.8 450.5,734.1 448.7,747.7C446.9,761.3 456.4,790.4 351,853.6C245.6,916.8 286.5,1017.7 286.5,1017.7C286.5,1017.7 324.1,1034.2 353.6,1001.5C353.6,1001.5 362.4,1048.6 404.2,1050.4C404.2,1050.4 459.7,1028.6 502.4,956.8C545.1,885 558.3,859.5 562.4,805C566.5,750.5 575.6,686.4 575.6,686.4C575.6,686.4 595.6,751.9 624.2,766.4C652.8,780.9 774.2,810.9 774.2,810.9C774.2,810.9 768.7,786.8 777.4,783.6C777.4,783.6 659.7,731.3 654.2,725.4C648.6,719.6 601.8,630 581.3,610.9Z" style="fill:rgb(218,5,27);fill-rule:nonzero;"/>
            <path d="M1109.5,383L1111.5,460.8C1111.5,460.8 1084.1,509.3 1065,524.8C1045.9,540.3 1105,574.8 1105,574.8C1105,574.8 1151.4,490.3 1153.2,474.8C1155,459.3 1139.6,377.5 1139.6,377.5C1139.6,377.5 1122.3,388.5 1109.5,383Z" style="fill:rgb(191,133,16);fill-rule:nonzero;"/>
            <path d="M1070.8,516.9C1070.8,516.9 1096.8,529.3 1105,551.2C1113.2,573.1 1122.3,644.8 1122.3,644.8L1141.4,714.8C1141.4,714.8 1084.1,765.7 1021.4,773L1004.3,646.5L944.1,720.3L855,785.7C849,792.4 819.1,763.3 823.6,756.9C839.4,743 914.3,693.4 920.7,687C927.1,680.6 1018.6,543.9 1018.6,543.9L1070.8,516.9Z" style="fill:rgb(245,176,0);fill-rule:nonzero;"/>
            <path d="M1005.4,466.6C1005.4,466.6 991.7,507.6 1010.7,508.7L1021.7,508.2L1032.2,524.5L1055.3,512.4L1045.3,500.3L1033.2,498.7C1033.2,498.7 1037.4,489.8 1034.3,484C1031.1,478.2 1024.5,483.4 1024.5,483.4L1021.7,475.1L1005.4,466.6Z" style="fill:rgb(131,40,25);fill-rule:nonzero;"/>
            <path d="M1020.1,451.1C1023.3,452.7 1027,451.4 1030.5,450.6C1034,449.8 1038.4,450.2 1039.9,453.4C1040.6,455 1040.4,456.9 1041,458.6C1042.2,461.8 1046.1,463 1048.8,465.1C1053.2,468.4 1054.6,475.1 1052,479.9C1051.1,481.6 1049.8,483.1 1048.8,484.7C1046.1,489.1 1045.7,494.4 1044.3,499.4C1044.1,500.1 1043.8,500.9 1043.1,501.3C1042.6,501.6 1041.9,501.5 1041.4,501.5C1039.3,501.3 1037.2,501.1 1035.1,500.9C1034.4,500.8 1033.7,500.7 1033.4,500.2C1033,499.6 1033.4,498.8 1033.7,498.1C1035.1,495.1 1035.7,491.8 1035.6,488.6C1035.5,487 1035.2,485.3 1033.8,484.5C1031.9,483.3 1029.5,484.8 1027.4,485.8C1025.3,486.8 1022.1,487 1021.6,484.7C1024.5,481.1 1021.3,475.5 1017.2,473.5C1013,471.5 1008.1,471.5 1003.9,469.6C1002.3,468.9 1000.6,467.8 1000.1,466C999.5,464 1000.7,461.9 1002.4,460.7C1004.1,459.5 1006.1,459.1 1008.1,458.7C1005.3,456 1005.8,450.8 1008.9,448.7C1012,446.6 1017.1,448 1018.6,451.5" style="fill:rgb(44,154,207);fill-rule:nonzero;"/>
            <path d="M1070.8,516.9L1060.1,507.8L1021.2,529.9L1018.4,546.7L1070.8,516.9Z" style="fill:rgb(220,228,174);fill-rule:nonzero;"/>
            <path d="M910.6,542.8C910.6,542.8 906.4,547.6 898.1,548.4C894.8,548.7 888.2,544.1 888.2,544.1C888.2,544.1 881.7,554.5 870.3,556.2C858.9,557.8 854.5,557.4 850,561C850,561 868.2,564.5 890.6,563.3C913,562.1 916.5,557.6 916.5,557.6L910.6,542.8Z" style="fill:rgb(160,187,10);fill-rule:nonzero;"/>
            <path d="M916.5,562.9C916.5,562.9 913,567.4 890.6,568.6C868.2,569.8 850,566.3 850,566.3L850,561C850,561 868.2,564.5 890.6,563.3C913,562.1 916.5,557.6 916.5,557.6L916.5,562.9Z" style="fill:rgb(39,52,73);fill-rule:nonzero;"/>
            <path d="M881.7,550.5L883.6,553.2" style="fill:none;fill-rule:nonzero;stroke:rgb(39,52,73);stroke-width:1.32px;"/>
            <path d="M879.7,552.4L881.7,555.1" style="fill:none;fill-rule:nonzero;stroke:rgb(39,52,73);stroke-width:1.32px;"/>
            <path d="M877.7,553.8L879.6,556.5" style="fill:none;fill-rule:nonzero;stroke:rgb(39,52,73);stroke-width:1.32px;"/>
            <path d="M875.6,554.9L877.5,557.5" style="fill:none;fill-rule:nonzero;stroke:rgb(39,52,73);stroke-width:1.32px;"/>
            <path d="M873.4,555.4L875.3,558.1" style="fill:none;fill-rule:nonzero;stroke:rgb(39,52,73);stroke-width:1.32px;"/>
            <path d="M567,1133.5C572.7,1139.5 532.5,1136.8 532.5,1136.8" style="fill:rgb(111,77,143);fill-rule:nonzero;"/>
            <path d="M532.5,1136.8C532.5,1136.8 572.7,1139.5 567,1133.5L567,1138.3C572.7,1144.3 532.5,1141.6 532.5,1141.6L532.5,1136.8Z" style="fill:rgb(226,219,196);fill-rule:nonzero;"/>
            <path d="M528.6,1076.2C528.6,1076.2 534,1079.2 541.4,1078.8C548.8,1078.4 556.9,1075.3 556.9,1075.3L552.6,1125.8C552.6,1125.8 561.4,1127.4 567,1133.4C572.6,1139.4 532.5,1136.7 532.5,1136.7L528.6,1076.2Z" style="fill:rgb(111,77,143);fill-rule:nonzero;"/>
            <path d="M532,1123.5C532,1123.5 536.8,1122.1 540.5,1124.5C544.2,1126.9 547.6,1136.7 547.6,1136.7" style="fill:none;fill-rule:nonzero;stroke:black;stroke-width:1.32px;"/>
            <path d="M508.5,1133.5C514.2,1139.5 474,1136.8 474,1136.8" style="fill:rgb(111,77,143);fill-rule:nonzero;"/>
            <path d="M474,1136.8C474,1136.8 514.2,1139.5 508.5,1133.5L508.5,1138.3C514.2,1144.3 474,1141.6 474,1141.6L474,1136.8Z" style="fill:rgb(226,219,196);fill-rule:nonzero;"/>
            <path d="M470.1,1076.2C470.1,1076.2 475.5,1079.2 482.9,1078.8C490.3,1078.4 498.4,1075.3 498.4,1075.3L494.1,1125.8C494.1,1125.8 502.9,1127.4 508.5,1133.4C514.1,1139.4 474,1136.7 474,1136.7L470.1,1076.2Z" style="fill:rgb(111,77,143);fill-rule:nonzero;"/>
            <path d="M473.5,1123.5C473.5,1123.5 478.3,1122.1 482,1124.5C485.7,1126.9 489.1,1136.7 489.1,1136.7" style="fill:none;fill-rule:nonzero;stroke:black;stroke-width:1.32px;"/>
            <path d="M613.9,505.9L604.7,502.5L601.1,509.7L605.3,510.4L607.7,506.6L610.7,508.2L609.3,511.5L612.8,511.6L613.9,505.9Z" style="fill-rule:nonzero;"/>
            <path d="M811.9,834.5C808.7,834.5 805.8,832.9 802.7,832.1C801.2,831.7 800.7,833.8 802.1,834.3C805.1,835.5 808.9,836.9 812.1,836C813,835.8 812.8,834.5 811.9,834.5Z" style="fill:rgb(196,9,33);fill-rule:nonzero;"/>
            <path d="M797.6,835.5C798.8,836.2 799.3,837.7 800.5,838.5C802.1,839.5 804.2,840.3 806,840.4C807.3,840.5 807.6,838.4 806.3,838.1C804.6,837.7 802.2,837.3 800.9,836C800,835.2 799.5,834.3 798.2,834C797.4,833.9 796.8,835 797.6,835.5Z" style="fill:rgb(196,9,33);fill-rule:nonzero;"/>
            <path d="M808.5,830C809.7,831.3 811.6,832.9 813.4,833.2C814.6,833.4 815.5,831.8 814.3,831.1C813.6,830.7 812.7,830.5 812,830.1C811.2,829.7 810.5,829.3 809.8,828.7C808.9,828.1 807.7,829.1 808.5,830Z" style="fill:rgb(196,9,33);fill-rule:nonzero;"/>
            <path d="M296.6,386.3C296.6,386.3 277.1,383.7 277.1,409C277.1,434.3 269.7,455.4 273.4,473.9C277.1,492.4 297.1,530.4 297.1,530.4" style="fill:none;fill-rule:nonzero;stroke:rgb(225,83,55);stroke-width:1.32px;"/>
            <path d="M439,687L442.2,701.8" style="fill:none;fill-rule:nonzero;stroke:rgb(167,18,39);stroke-width:1.32px;"/>
            <path d="M575.2,675.4L572,705.5" style="fill:none;fill-rule:nonzero;stroke:rgb(167,18,39);stroke-width:1.32px;"/>
            <path d="M470.2,830C470.2,830 424.9,905.8 401.7,936.7C383.6,960.8 354.1,1000.9 354.1,1000.9" style="fill:none;fill-rule:nonzero;stroke:rgb(167,18,39);stroke-width:1.32px;"/>
            <path d="M1003.3,475.2C1003.3,475.2 999.4,486.1 995.8,487.1L1001.1,489L1003.3,475.2Z" style="fill:rgb(218,5,27);fill-rule:nonzero;"/>
            <path d="M537.6,113.6C537.6,113.6 534.8,117.8 535.4,124.5L539,123.5L537.6,113.6Z" style="fill:rgb(218,5,27);fill-rule:nonzero;"/>
            <path d="M560.6,104.7C560.8,102.3 560.4,100 559.5,97.9C558.5,95.9 556.9,94.2 555,93.1C553,92 550.8,91.3 548.5,91C546.2,90.6 543.9,90.4 541.5,90.3C543.8,89.9 546.3,89.7 548.7,90C551.1,90.2 553.5,90.8 555.7,92C557.9,93.2 559.7,95.2 560.5,97.5C561.3,99.8 561.3,102.4 560.6,104.7Z" style="fill:rgb(105,36,28);fill-rule:nonzero;"/>
            <path d="M548,90C548,90 548.6,84.5 553.6,85.7C558.6,86.8 554.7,91.7 554.7,91.7" style="fill:rgb(105,36,28);fill-rule:nonzero;"/>
            <path d="M962.3,116.8C962.3,116.8 956.3,115.2 948.1,120L954.3,123.8L962.3,116.8Z" style="fill:rgb(218,5,27);fill-rule:nonzero;"/>
            <path d="M563.9,277.1C563.9,277.1 560.3,416.9 583.2,491.5" style="fill:none;fill-rule:nonzero;stroke:rgb(44,154,207);stroke-width:1.32px;stroke-linecap:round;stroke-linejoin:round;stroke-dasharray:3.97,9.25;"/>
            <path d="M601.7,309.2C601.7,309.2 630.1,361.6 642.5,370L609,489.6" style="fill:none;fill-rule:nonzero;stroke:rgb(44,154,207);stroke-width:1.32px;stroke-linecap:round;stroke-linejoin:round;stroke-dasharray:3.97,9.25;"/>
            <path d="M950.2,162.8C950.2,162.8 958.3,170.6 983.5,164.9" style="fill:none;fill-rule:nonzero;stroke:rgb(131,154,31);stroke-width:1.32px;stroke-linecap:round;stroke-linejoin:round;"/>
            <path d="M769.4,219.3C769.4,219.3 770.7,227.9 766.3,238.1" style="fill:none;fill-rule:nonzero;stroke:rgb(131,154,31);stroke-width:1.32px;stroke-linecap:round;stroke-linejoin:round;"/>
            <path d="M762.9,220.6L769.5,221.6" style="fill:none;fill-rule:nonzero;stroke:rgb(131,154,31);stroke-width:1.32px;stroke-linecap:round;stroke-linejoin:round;"/>
            <path d="M762.8,224.6L769.3,225.6" style="fill:none;fill-rule:nonzero;stroke:rgb(131,154,31);stroke-width:1.32px;stroke-linecap:round;stroke-linejoin:round;"/>
            <path d="M762.2,228.4L768.7,229.4" style="fill:none;fill-rule:nonzero;stroke:rgb(131,154,31);stroke-width:1.32px;stroke-linecap:round;stroke-linejoin:round;"/>
            <path d="M761.6,232.2L768.1,233.2" style="fill:none;fill-rule:nonzero;stroke:rgb(131,154,31);stroke-width:1.32px;stroke-linecap:round;stroke-linejoin:round;"/>
            <path d="M554.6,123.8C554.7,124.9 554.4,125.9 554,126.9C553.6,127.9 553.1,128.8 552.5,129.7C551.2,131.4 549.6,132.8 547.7,133.7C548.3,132.8 549,132.1 549.6,131.3C550.2,130.5 550.8,129.7 551.4,128.9C552.7,127.3 553.7,125.7 554.6,123.8Z" style="fill:rgb(193,86,25);fill-rule:nonzero;"/>
            <path d="M533.5,158.6C533.5,158.6 515.7,160.5 502.8,180C489.9,199.5 474.4,214.2 474.4,214.2L403,236.2C403,236.2 414.2,244.8 412.6,256.7C412.6,256.7 474.1,241.2 482,236.2C489.9,231.2 528.9,201.5 528.9,201.5L559.3,274.9C559.3,274.9 597,285.8 617.8,269.3L620.8,183.4C620.8,183.4 644.6,217.4 657.8,222.4C671,227.4 728.5,235.9 728.5,235.9C728.5,235.9 727.6,218.5 735.2,215.9C735.2,215.9 670.7,203.6 668.7,202.2C666.7,200.9 638.1,150.5 598.1,142.6C598.1,142.6 594.1,177 570.3,178.3C546.5,179.6 533.5,158.6 533.5,158.6Z" style="fill:rgb(220,228,174);fill-rule:nonzero;"/>
            <g>
                <path d="M602.9,182.6C585.5,186.7 564.4,190.6 547.2,191.2C543.7,191.3 541.5,195.2 542.5,198.6L552.9,236C553.7,238.8 556.4,240.6 559.3,240.2L606.7,233.6C609.7,233.2 611.9,230.5 611.7,227.5L609.6,188.1C609.4,184.6 606.3,181.8 602.9,182.6Z" style="fill:rgb(160,187,10);fill-rule:nonzero;"/>
                <g>
                    <path d="M574.6,195.5C576.3,206.8 578,218.1 579.8,229.4C580,230.4 581.5,230.2 581.4,229.1C579.7,217.8 578,206.5 576.2,195.2C576.1,194.3 574.5,194.5 574.6,195.5Z" style="fill:white;fill-rule:nonzero;"/>
                    <path d="M556.3,203.4C572,201.2 587.6,198.5 603.1,195.3C604.1,195.1 603.9,193.5 602.8,193.7C587.3,196.8 571.7,199.5 556,201.8C555,201.9 555.3,203.5 556.3,203.4Z" style="fill:white;fill-rule:nonzero;"/>
                    <path d="M566.9,207.6C573.1,206.6 579.3,205.5 585.5,204.5C587.2,204.2 588.8,203.9 590.5,203.7C591.5,203.5 592,203.2 592.3,204.3C592.5,204.9 592.6,205.5 592.7,206.1C592.9,206.9 593.1,207.7 593.2,208.5C593.3,209 593.8,210.2 593.6,210.7C593.2,211.9 589.8,211.9 588.7,212.1C582.4,213.1 576.1,214.2 569.8,215.2C568.2,215.4 566.7,215.7 565.1,215.9C563.9,216.1 563.4,215.9 562.8,214.8C562.5,214.2 562.3,213.5 562.1,212.9C561.8,212.1 561.6,211.4 561.4,210.6C561.3,210.2 561.2,209.9 561.1,209.5C561.1,209 561.4,208.8 561.9,208.8C563.3,208.2 565.2,208.1 566.7,207.8C567.7,207.6 567.4,206 566.4,206.2C564.8,206.5 563.2,206.9 561.6,207.2C560.7,207.4 559.7,207.5 559.4,208.5C559.1,209.5 559.7,210.9 560,211.9C560.4,213.2 560.9,214.6 561.5,215.9C562.7,218.3 565,217.5 567.2,217.1C570.6,216.6 573.9,216 577.3,215.5C580.7,215 584,214.4 587.4,213.9C589,213.6 590.5,213.4 592.1,213.1C593.1,212.9 594.3,212.9 594.9,211.9C595.4,211.1 595.1,210 594.9,209.2C594.6,207.5 594.2,205.7 593.7,204C593.5,203.3 593.4,202.4 592.7,202C591.7,201.4 590,202.1 588.9,202.3C581.5,203.6 574,204.8 566.6,206.1C565.6,206.2 565.9,207.7 566.9,207.6Z" style="fill:white;fill-rule:nonzero;"/>
                    <path d="M562,213.2C572.1,211.8 582.2,210.5 592.4,209.1C593.4,209 593.2,207.4 592.1,207.5C582,208.9 571.9,210.2 561.7,211.6C560.7,211.8 561,213.3 562,213.2Z" style="fill:white;fill-rule:nonzero;"/>
                    <path d="M577.6,216.2C576,223.3 570.7,229.1 563.9,231.5C562.9,231.8 563.6,233.3 564.6,233C572,230.4 577.5,224 579.2,216.4C579.4,215.4 577.8,215.2 577.6,216.2Z" style="fill:white;fill-rule:nonzero;"/>
                    <path d="M579,215.7C584.6,221.9 592.7,225.2 601,225C602,225 601.8,223.4 600.7,223.4C593,223.7 585.4,220.4 580.1,214.7C579.5,213.9 578.3,214.9 579,215.7Z" style="fill:white;fill-rule:nonzero;"/>
                </g>
            </g>
            <path d="M556.9,107.3C556.9,107.3 560.2,106 559.4,108C558.5,110.1 556.8,110.5 556.8,110.5C556.8,110.5 559.5,113.1 557.3,113.7" style="fill:none;fill-rule:nonzero;stroke:rgb(193,86,25);stroke-width:0.66px;"/>
            <path d="M276.8,312.6C276.5,313.7 276.3,314.8 276.2,315.9C276.1,317 276.2,318 276.8,318.8C276.9,319 277.1,319.2 277.2,319.3C277.4,319.4 277.5,319.6 277.8,319.7C278.2,320 278.7,320.2 279.2,320.4C280.1,320.8 281.2,320.8 282.1,319.9C281.9,320.5 281.4,320.9 280.8,321.2C280.2,321.5 279.5,321.5 278.9,321.4C278.3,321.3 277.7,321 277.1,320.8C276.8,320.7 276.6,320.4 276.3,320.2C276.1,320 275.8,319.7 275.6,319.4C275.2,318.8 275,318.2 275,317.5C275,316.9 275,316.2 275.2,315.6C275.5,314.5 276,313.5 276.8,312.6Z" style="fill:rgb(91,31,25);fill-rule:nonzero;"/>
            <path d="M263.6,254.3C273.3,248.2 272.6,232.9 265.7,223.7C258.8,214.5 248,209.3 238.6,202.6C220.9,190 207.4,170.7 204.3,149.1C201.2,127.6 209.3,104.2 226.7,91.1C238,82.6 252.3,78.8 266.3,77.3C295.5,74.2 327,81.1 347.9,101.7C368.8,122.3 375.3,158.2 357.9,181.8C341.7,203.7 311.3,209.8 292.1,229.1C283.3,238 277.1,249.4 267.2,257.1" style="fill:rgb(218,5,27);fill-rule:nonzero;"/>
            <g>
                <path d="M252.8,142.9C251.4,131.4 265.4,129.3 273.7,131.6C279.2,133.1 281.3,136.5 281.5,141.9C281.7,147.2 279.7,152.3 274.7,154.7C272.4,155.8 274.4,159.2 276.7,158.1C287.8,152.8 289.3,133.1 277,128.5C266.2,124.4 246.9,127.6 248.8,142.9C249.1,145.4 253.1,145.5 252.8,142.9Z" style="fill:white;fill-rule:nonzero;"/>
                <path d="M265.5,160.4C272.4,159.1 280.6,159.4 284.3,166.4C287.4,172.1 285.5,179.1 280.4,182.9C271.2,189.7 258.4,182.2 248.5,188.3C246.3,189.6 248.3,193.1 250.5,191.7C257.6,187.4 266.4,190.5 274.2,189.5C280.7,188.6 286.2,184.6 288.7,178.5C291.1,172.5 289.6,165.5 285.2,160.9C279.8,155.3 271.7,155.3 264.5,156.6C261.9,157 263,160.9 265.5,160.4Z" style="fill:white;fill-rule:nonzero;"/>
                <path d="M282.3,154C288.6,152.2 294.5,149 299.3,144.4C301.7,142.2 303.5,138.3 306.1,136.5C310.3,133.5 315.8,136.7 319.4,139.2C322.7,141.5 325.7,144.9 325.5,149.1C325.3,153.1 323.1,156.9 320.1,159.6C313.7,165.5 303.9,165.3 297.3,159.9C295.3,158.3 292.5,161.1 294.5,162.7C301.6,168.5 311.4,169.9 319.4,165.1C326.5,160.8 332.2,151.3 328.1,143.1C324.8,136.4 313.8,129 306.1,131.8C301.7,133.4 299.3,138.9 296,142C291.8,145.9 286.7,148.6 281.2,150.1C278.8,150.8 279.9,154.7 282.3,154Z" style="fill:white;fill-rule:nonzero;"/>
                <path d="M270.3,118.2C285.3,124.7 303.1,126.9 317.1,116.7C319.1,115.2 317.2,111.7 315.1,113.3C302.3,122.7 286.2,120.8 272.4,114.8C270,113.8 268,117.2 270.3,118.2Z" style="fill:white;fill-rule:nonzero;"/>
                <path d="M291,109.2C291.2,109.7 291.3,110.1 291.5,110.6C291.8,111.6 292.9,112.3 293.9,112C294.9,111.7 295.6,110.6 295.3,109.6C295.1,109.1 295,108.7 294.8,108.2C294.5,107.2 293.4,106.5 292.4,106.8C291.4,107 290.7,108.1 291,109.2Z" style="fill:white;fill-rule:nonzero;"/>
                <path d="M291.1,103.9C290,106.2 290.8,108.8 292.9,110.3C294.7,111.6 298.3,112.7 300.4,111.5C302.6,110.2 302.8,107.3 301.6,105.3C300.2,103 297.4,101.6 294.9,101.1C292.4,100.6 291.3,104.5 293.8,104.9C294.9,105.1 296,105.5 296.9,106.1C297.2,106.3 298.7,107.4 298.3,108C298.2,108.1 293.8,107.2 294.5,105.9C295.7,103.7 292.2,101.6 291.1,103.9Z" style="fill:white;fill-rule:nonzero;"/>
            </g>
            <path d="M1036,578.7C1036,578.7 1044,588.2 1037,600.2C1030,612.2 1003.7,647 1003.7,647" style="fill:none;fill-rule:nonzero;stroke:rgb(191,133,16);stroke-width:1.32px;"/>
            <path d="M581.3,610.9C581.3,610.9 525.4,595.9 514.5,594.1C503.6,592.3 483.6,595.9 465,600C446.4,604.1 415.9,636.4 408.6,637.3C401.3,638.2 372.2,601.4 367.2,587.3C367.2,587.3 352.7,597.3 345.4,596.8C345.4,596.8 363.1,660.4 365.9,666.3C368.6,672.2 396.8,704.9 442.3,701.8C442.3,701.8 450.5,734.1 448.7,747.7C446.9,761.3 456.4,790.4 351,853.6C245.6,916.8 286.5,1017.7 286.5,1017.7C286.5,1017.7 324.1,1034.2 353.6,1001.5C353.6,1001.5 362.4,1048.6 404.2,1050.4C404.2,1050.4 459.7,1028.6 502.4,956.8C545.1,885 558.3,859.5 562.4,805C566.5,750.5 575.6,686.4 575.6,686.4C575.6,686.4 595.6,751.9 624.2,766.4C652.8,780.9 774.2,810.9 774.2,810.9C774.2,810.9 768.7,786.8 777.4,783.6C777.4,783.6 659.7,731.3 654.2,725.4C648.6,719.6 601.8,630 581.3,610.9Z" style="fill:none;fill-rule:nonzero;"/>
            <path d="M527.2,524.2C529.2,523.5 541.8,520.5 541.2,528.5C540.6,536.5 532.2,540.8 532.2,540.8L535.2,559.1C535.2,559.1 528.9,554.8 525.9,555.1C522.9,555.4 528.1,571 528.1,571C528.1,571 517.2,584.3 521.5,591C525.8,597.7 541.8,653.2 504.5,661.9C467.2,670.6 464.6,645.9 470.6,629.6C476.6,613.3 485.2,595.3 484.9,588.3C484.5,579.1 485.2,569.6 486.7,560.5C488.4,550.2 493.4,540.4 500.5,532.8C503.4,529.7 507.7,524.9 512,523.8C516.9,522.6 522,525.9 527.2,524.2Z" style="fill:rgb(37,24,23);fill-rule:nonzero;"/>
            <path d="M1001,496C982.6,504.4 959.2,500.4 944.7,486.2C928.3,470.3 924.7,445.8 915.8,424.8C903.1,394.7 872.8,368.4 840.5,373.8C815.2,378 796.5,400 785.4,423.2C776,442.9 770.4,465.6 776,486.8C781.9,508.7 799.9,526.6 821.4,534C842.9,541.4 867.2,538.7 887.5,528.4C905.1,519.5 920.9,504.8 940.6,503.2C958.3,501.8 987.8,508.6 1000.6,496.3" style="fill:rgb(245,176,0);fill-rule:nonzero;"/>
            <g>
                <path d="M861.3,410.1C863.5,436.9 867,463.5 871.8,490C872.1,491.9 870.3,493.6 868.5,492.5C843.5,478.5 825.8,454.2 799.2,442.8C796.5,441.7 798.8,437.8 801.5,438.9C828.1,450.3 845.8,474.7 870.8,488.6C869.7,489.4 868.6,490.3 867.5,491.1C862.6,464.3 859,437.2 856.8,410C856.6,407.3 861.1,407.3 861.3,410.1Z" style="fill:white;fill-rule:nonzero;"/>
                <path d="M884.8,426.9C858.8,447 831.9,465.9 804,483.3C801.5,484.8 799.3,480.9 801.7,479.4C829.2,462.2 855.9,443.6 881.6,423.7C883.9,421.9 887.1,425.1 884.8,426.9Z" style="fill:white;fill-rule:nonzero;"/>
            </g>
            <path d="M847.9,225.8C830.2,224 762.1,218.3 762.1,218.3C762.1,218.3 762.6,223.7 762,228.3C761.4,232.9 759.3,235.9 759.3,235.9C759.3,235.9 824.4,257 852.1,259.3C869.8,260.8 874.6,260.3 890.7,243.1C883.2,234.2 877.8,217.9 875.3,209.2C864.4,219.1 854.2,226.4 847.9,225.8Z" style="fill:rgb(225,83,55);fill-rule:nonzero;"/>
            <g>
                <path d="M1069.5,278.8C1068.3,275.3 1059.4,252.1 1049.9,228.8C1046.1,235 1037.6,247.8 1028,257.4C1033.2,270.5 1039.3,285.5 1042.4,291.8C1048.3,304.2 1096.2,352.2 1096.2,352.2C1096.2,352.2 1099.1,351.2 1101.6,346.6C1104.1,342 1108.8,339.3 1108.8,339.3C1108.8,339.3 1071.9,285.9 1069.5,278.8Z" style="fill:rgb(225,83,55);fill-rule:nonzero;"/>
                <path d="M1026.5,177.4C1020,170.9 984.1,164.4 984.1,164.4L978.8,143.2C978.8,143.2 979.4,153.2 949.9,148.5L949.3,162.6C949.3,162.6 932.2,153.2 922.8,160.2C916.7,164.7 894.9,191.2 875.3,209C877.8,217.7 883.1,234.1 890.7,242.9C895.6,237.6 901.6,230.2 909.2,219.7L902.2,308.7C902.2,308.7 947,330.5 1007.7,324.6L1018.9,233.8C1018.9,233.8 1023.2,249.9 1028.2,262.4C1035.6,245.8 1047.2,239 1053.8,232.4C1043.9,208.7 1029.8,180.7 1026.5,177.4Z" style="fill:rgb(160,187,10);fill-rule:nonzero;"/>
            </g>
            <g>
                <path d="M951.5,218.9C952.8,216.9 955.6,213.3 958.3,215.7C959.9,217.2 960.9,220 961.6,222C962.4,224.4 962.9,226.8 963,229.3C963.1,230.4 963.1,231.5 963,232.6C963,233.2 963,234.2 962.8,234.7C962.3,235.6 961.5,235.8 960.6,235.9C956.4,236.3 952,234.4 949.4,231.1C948.7,230.2 948,229.2 947.8,228C947.5,226.2 949.1,225.2 950.7,225.6C952.6,226.2 955.2,229.7 954.4,231.7C953.5,233.9 948.8,233.8 946.9,233.8C943.7,233.8 940.6,233.4 937.6,232.6C936.6,232.3 936.1,233.8 937.1,234.1C940.9,235.2 944.9,235.6 948.9,235.3C951.3,235.1 955.2,234.8 956.1,232C956.9,229.4 954.4,225.7 952.2,224.5C950.1,223.3 947,223.9 946.3,226.5C945.6,229.3 948,232.2 949.9,233.9C952.1,235.8 954.9,237.1 957.9,237.5C960.6,237.8 964,237.8 964.5,234.6C965.1,231 964.7,227.1 963.8,223.6C963.3,221.7 962.6,219.8 961.7,218C961,216.5 960.1,214.9 958.7,214C955.2,211.8 952,215.5 950.3,218.1C949.6,218.9 951,219.8 951.5,218.9Z" style="fill:rgb(39,52,73);fill-rule:nonzero;"/>
                <path d="M977.3,222.1C978.6,220.1 981.4,216.5 984.1,218.9C985.7,220.4 986.7,223.2 987.4,225.2C988.2,227.6 988.7,230 988.8,232.5C988.9,233.6 988.9,234.7 988.8,235.8C988.8,236.4 988.8,237.4 988.6,237.9C988.1,238.8 987.3,239 986.4,239.1C982.2,239.5 977.8,237.6 975.2,234.3C974.5,233.4 973.8,232.4 973.6,231.2C973.3,229.4 974.9,228.4 976.5,228.8C978.4,229.4 981,232.9 980.2,234.9C979.3,237.1 974.6,237 972.7,237C969.5,237 966.4,236.6 963.4,235.8C962.4,235.5 961.9,237 962.9,237.3C966.7,238.4 970.7,238.8 974.7,238.5C977.1,238.3 981,238 981.9,235.2C982.7,232.6 980.2,228.9 978,227.7C975.9,226.5 972.8,227.1 972.1,229.7C971.4,232.5 973.8,235.4 975.7,237.1C977.9,239 980.7,240.3 983.7,240.7C986.4,241 989.8,241 990.3,237.8C990.9,234.2 990.5,230.3 989.6,226.8C989.1,224.9 988.4,223 987.5,221.2C986.8,219.7 985.9,218.1 984.5,217.2C981,215 977.8,218.7 976.1,221.3C975.4,222 976.8,222.9 977.3,222.1Z" style="fill:rgb(39,52,73);fill-rule:nonzero;"/>
                <path d="M1002.8,225C1004.1,223 1006.9,219.4 1009.6,221.8C1011.2,223.3 1012.2,226.1 1012.9,228.1C1013.7,230.5 1014.2,232.9 1014.3,235.4C1014.4,236.5 1014.4,237.6 1014.3,238.7C1014.3,239.3 1014.3,240.3 1014.1,240.8C1013.6,241.7 1012.8,241.9 1011.9,242C1007.7,242.4 1003.3,240.5 1000.7,237.2C1000,236.3 999.3,235.3 999.1,234.1C998.8,232.3 1000.4,231.3 1002,231.7C1003.9,232.3 1006.5,235.8 1005.7,237.8C1004.8,240 1000.1,239.9 998.2,239.9C995,239.9 991.9,239.5 988.9,238.7C987.9,238.4 987.4,239.9 988.4,240.2C992.2,241.3 996.2,241.7 1000.2,241.4C1002.6,241.2 1006.5,240.9 1007.4,238.1C1008.2,235.5 1005.7,231.8 1003.5,230.6C1001.4,229.4 998.3,230 997.6,232.6C996.9,235.4 999.3,238.3 1001.2,240C1003.4,241.9 1006.2,243.2 1009.2,243.6C1011.9,243.9 1015.3,243.9 1015.8,240.7C1016.4,237.1 1016,233.2 1015.1,229.7C1014.6,227.8 1013.9,225.9 1013,224.1C1012.3,222.6 1011.4,221 1010,220.1C1006.5,217.9 1003.3,221.6 1001.6,224.2C1000.9,224.9 1002.3,225.8 1002.8,225Z" style="fill:rgb(39,52,73);fill-rule:nonzero;"/>
                <path d="M925.8,215.5C927.1,213.5 929.9,209.9 932.6,212.3C934.2,213.8 935.2,216.6 935.9,218.6C936.7,221 937.2,223.4 937.3,225.9C937.4,227 937.4,228.1 937.3,229.2C937.3,229.8 937.3,230.8 937.1,231.3C936.6,232.2 935.8,232.4 934.9,232.5C930.7,232.9 926.3,231 923.7,227.7C923,226.8 922.3,225.8 922.1,224.6C921.8,222.8 923.4,221.8 925,222.2C926.9,222.8 929.5,226.3 928.7,228.3C927.8,230.5 923.1,230.4 921.2,230.4C918,230.4 914.9,230 911.9,229.2C910.9,228.9 910.4,230.4 911.4,230.7C915.2,231.8 919.2,232.2 923.2,231.9C925.6,231.7 929.5,231.4 930.4,228.6C931.2,226 928.7,222.3 926.5,221.1C924.4,219.9 921.3,220.5 920.6,223.1C919.9,225.9 922.3,228.8 924.2,230.5C926.4,232.4 929.2,233.7 932.2,234.1C934.9,234.4 938.3,234.4 938.8,231.2C939.4,227.6 939,223.7 938.1,220.2C937.6,218.3 936.9,216.4 936,214.6C935.3,213.1 934.4,211.5 933,210.6C929.5,208.4 926.3,212.1 924.6,214.7C923.9,215.5 925.2,216.4 925.8,215.5Z" style="fill:rgb(39,52,73);fill-rule:nonzero;"/>
            </g>
            <g>
                <path d="M948.4,247.8C949.7,245.8 952.5,242.2 955.2,244.6C956.8,246.1 957.8,248.9 958.5,250.9C959.3,253.3 959.8,255.7 959.9,258.2C960,259.3 960,260.4 959.9,261.5C959.9,262.1 959.9,263.1 959.7,263.6C959.2,264.5 958.4,264.7 957.5,264.8C953.3,265.2 948.9,263.3 946.3,260C945.6,259.1 944.9,258.1 944.7,256.9C944.4,255.1 946,254.1 947.6,254.5C949.5,255.1 952.1,258.6 951.3,260.6C950.4,262.8 945.7,262.7 943.8,262.7C940.6,262.7 937.5,262.3 934.5,261.5C933.5,261.2 933,262.7 934,263C937.8,264.1 941.8,264.5 945.8,264.2C948.2,264 952.1,263.7 953,260.9C953.8,258.3 951.3,254.6 949.1,253.4C947,252.2 943.9,252.8 943.2,255.4C942.5,258.2 944.9,261.1 946.8,262.8C949,264.7 951.8,266 954.8,266.4C957.5,266.7 960.9,266.7 961.4,263.5C962,259.9 961.6,256 960.7,252.5C960.2,250.6 959.5,248.7 958.6,246.9C957.9,245.4 957,243.8 955.6,242.9C952.1,240.7 948.9,244.4 947.2,247C946.5,247.8 947.8,248.7 948.4,247.8Z" style="fill:rgb(39,52,73);fill-rule:nonzero;"/>
                <path d="M974.2,251C975.5,249 978.3,245.4 981,247.8C982.6,249.3 983.6,252.1 984.3,254.1C985.1,256.5 985.6,258.9 985.7,261.4C985.8,262.5 985.8,263.6 985.7,264.7C985.7,265.3 985.7,266.3 985.5,266.8C985,267.7 984.2,267.9 983.3,268C979.1,268.4 974.7,266.5 972.1,263.2C971.4,262.3 970.7,261.3 970.5,260.1C970.2,258.3 971.8,257.3 973.4,257.7C975.3,258.3 977.9,261.8 977.1,263.8C976.2,266 971.5,265.9 969.6,265.9C966.4,265.9 963.3,265.5 960.3,264.7C959.3,264.4 958.8,265.9 959.8,266.2C963.6,267.3 967.6,267.7 971.6,267.4C974,267.2 977.9,266.9 978.8,264.1C979.6,261.5 977.1,257.8 974.9,256.6C972.8,255.4 969.7,256 969,258.6C968.3,261.4 970.7,264.3 972.6,266C974.8,267.9 977.6,269.2 980.6,269.6C983.3,269.9 986.7,269.9 987.2,266.7C987.8,263.1 987.4,259.2 986.5,255.7C986,253.8 985.3,251.9 984.4,250.1C983.7,248.6 982.8,247 981.4,246.1C977.9,243.9 974.7,247.6 973,250.2C972.3,251 973.6,251.8 974.2,251Z" style="fill:rgb(39,52,73);fill-rule:nonzero;"/>
                <path d="M999.7,253.9C1001,251.9 1003.8,248.3 1006.5,250.7C1008.1,252.2 1009.1,255 1009.8,257C1010.6,259.4 1011.1,261.8 1011.2,264.3C1011.3,265.4 1011.3,266.5 1011.2,267.6C1011.2,268.2 1011.2,269.2 1011,269.7C1010.5,270.6 1009.7,270.8 1008.8,270.9C1004.6,271.3 1000.2,269.4 997.6,266.1C996.9,265.2 996.2,264.2 996,263C995.7,261.2 997.3,260.2 998.9,260.6C1000.8,261.2 1003.4,264.7 1002.6,266.7C1001.7,268.9 997,268.8 995.1,268.8C991.9,268.8 988.8,268.4 985.8,267.6C984.8,267.3 984.3,268.8 985.3,269.1C989.1,270.2 993.1,270.6 997.1,270.3C999.5,270.1 1003.4,269.8 1004.3,267C1005.1,264.4 1002.6,260.7 1000.4,259.5C998.3,258.3 995.2,258.9 994.5,261.5C993.8,264.3 996.2,267.2 998.1,268.9C1000.3,270.8 1003.1,272.1 1006.1,272.5C1008.8,272.8 1012.2,272.8 1012.7,269.6C1013.3,266 1012.9,262.1 1012,258.6C1011.5,256.7 1010.8,254.8 1009.9,253C1009.2,251.5 1008.3,249.9 1006.9,249C1003.4,246.8 1000.2,250.5 998.5,253.1C997.8,253.9 999.1,254.7 999.7,253.9Z" style="fill:rgb(39,52,73);fill-rule:nonzero;"/>
                <path d="M922.6,244.4C923.9,242.4 926.7,238.8 929.4,241.2C931,242.7 932,245.5 932.7,247.5C933.5,249.9 934,252.3 934.1,254.8C934.2,255.9 934.2,257 934.1,258.1C934.1,258.7 934.1,259.7 933.9,260.2C933.4,261.1 932.6,261.3 931.7,261.4C927.5,261.8 923.1,259.9 920.5,256.6C919.8,255.7 919.1,254.7 918.9,253.5C918.6,251.7 920.2,250.7 921.8,251.1C923.7,251.7 926.3,255.2 925.5,257.2C924.6,259.4 919.9,259.3 918,259.3C914.8,259.3 911.7,258.9 908.7,258.1C907.7,257.8 907.2,259.3 908.2,259.6C912,260.7 916,261.1 920,260.8C922.4,260.6 926.3,260.3 927.2,257.5C928,254.9 925.5,251.2 923.3,250C921.2,248.8 918.1,249.4 917.4,252C916.7,254.8 919.1,257.7 921,259.4C923.2,261.3 926,262.6 929,263C931.7,263.3 935.1,263.3 935.6,260.1C936.2,256.5 935.8,252.6 934.9,249.1C934.4,247.2 933.7,245.3 932.8,243.5C932.1,242 931.2,240.4 929.8,239.5C926.3,237.3 923.1,241 921.4,243.6C920.7,244.4 922.1,245.3 922.6,244.4Z" style="fill:rgb(39,52,73);fill-rule:nonzero;"/>
            </g>
            <g>
                <path d="M945.3,276.8C946.6,274.8 949.4,271.2 952.1,273.6C953.7,275.1 954.7,277.9 955.4,279.9C956.2,282.3 956.7,284.7 956.8,287.2C956.9,288.3 956.9,289.4 956.8,290.5C956.8,291.1 956.8,292.1 956.6,292.6C956.1,293.5 955.3,293.7 954.4,293.8C950.2,294.2 945.8,292.3 943.2,289C942.5,288.1 941.8,287.1 941.6,285.9C941.3,284.1 942.9,283.1 944.5,283.5C946.4,284.1 949,287.6 948.2,289.6C947.3,291.8 942.6,291.7 940.7,291.7C937.5,291.7 934.4,291.3 931.4,290.5C930.4,290.2 929.9,291.7 930.9,292C934.7,293.1 938.7,293.5 942.7,293.2C945.1,293 949,292.7 949.9,289.9C950.7,287.3 948.2,283.6 946,282.4C943.9,281.2 940.8,281.8 940.1,284.4C939.4,287.2 941.8,290.1 943.7,291.8C945.9,293.7 948.7,295 951.7,295.4C954.4,295.7 957.8,295.7 958.3,292.5C958.9,288.9 958.5,285 957.6,281.5C957.1,279.6 956.4,277.7 955.5,275.9C954.8,274.4 953.9,272.8 952.5,271.9C949,269.7 945.8,273.4 944.1,276C943.3,276.7 944.7,277.6 945.3,276.8Z" style="fill:rgb(39,52,73);fill-rule:nonzero;"/>
                <path d="M971,279.9C972.3,277.9 975.1,274.3 977.8,276.7C979.4,278.2 980.4,281 981.1,283C981.9,285.4 982.4,287.8 982.5,290.3C982.6,291.4 982.6,292.5 982.5,293.6C982.5,294.2 982.5,295.2 982.3,295.7C981.8,296.6 981,296.8 980.1,296.9C975.9,297.3 971.5,295.4 968.9,292.1C968.2,291.2 967.5,290.2 967.3,289C967,287.2 968.6,286.2 970.2,286.6C972.1,287.2 974.7,290.7 973.9,292.7C973,294.9 968.3,294.8 966.4,294.8C963.2,294.8 960.1,294.4 957.1,293.6C956.1,293.3 955.6,294.8 956.6,295.1C960.4,296.2 964.4,296.6 968.4,296.3C970.8,296.1 974.7,295.8 975.6,293C976.4,290.4 973.9,286.7 971.7,285.5C969.6,284.3 966.5,284.9 965.8,287.5C965.1,290.3 967.5,293.2 969.4,294.9C971.6,296.8 974.4,298.1 977.4,298.5C980.1,298.8 983.5,298.8 984,295.6C984.6,292 984.2,288.1 983.3,284.6C982.8,282.7 982.1,280.8 981.2,279C980.5,277.5 979.6,275.9 978.2,275C974.7,272.8 971.5,276.5 969.8,279.1C969.1,279.9 970.5,280.7 971,279.9Z" style="fill:rgb(39,52,73);fill-rule:nonzero;"/>
                <path d="M996.5,282.8C997.8,280.8 1000.6,277.2 1003.3,279.6C1004.9,281.1 1005.9,283.9 1006.6,285.9C1007.4,288.3 1007.9,290.7 1008,293.2C1008.1,294.3 1008.1,295.4 1008,296.5C1008,297.1 1008,298.1 1007.8,298.6C1007.3,299.5 1006.5,299.7 1005.6,299.8C1001.4,300.2 997,298.3 994.4,295C993.7,294.1 993,293.1 992.8,291.9C992.5,290.1 994.1,289.1 995.7,289.5C997.6,290.1 1000.2,293.6 999.4,295.6C998.5,297.8 993.8,297.7 991.9,297.7C988.7,297.7 985.6,297.3 982.6,296.5C981.6,296.2 981.1,297.7 982.1,298C985.9,299.1 989.9,299.5 993.9,299.2C996.3,299 1000.2,298.7 1001.1,295.9C1001.9,293.3 999.4,289.6 997.2,288.4C995.1,287.2 992,287.8 991.3,290.4C990.6,293.2 993,296.1 994.9,297.8C997.1,299.7 999.9,301 1002.9,301.4C1005.6,301.7 1009,301.7 1009.5,298.5C1010.1,294.9 1009.7,291 1008.8,287.5C1008.3,285.6 1007.6,283.7 1006.7,281.9C1006,280.4 1005.1,278.8 1003.7,277.9C1000.2,275.7 997,279.4 995.3,282C994.6,282.8 996,283.6 996.5,282.8Z" style="fill:rgb(39,52,73);fill-rule:nonzero;"/>
                <path d="M919.5,273.4C920.8,271.4 923.6,267.8 926.3,270.2C927.9,271.7 928.9,274.5 929.6,276.5C930.4,278.9 930.9,281.3 931,283.8C931.1,284.9 931.1,286 931,287.1C931,287.7 931,288.7 930.8,289.2C930.3,290.1 929.5,290.3 928.6,290.4C924.4,290.8 920,288.9 917.4,285.6C916.7,284.7 916,283.7 915.8,282.5C915.5,280.7 917.1,279.7 918.7,280.1C920.6,280.7 923.2,284.2 922.4,286.2C921.5,288.4 916.8,288.3 914.9,288.3C911.7,288.3 908.6,287.9 905.6,287.1C904.6,286.8 904.1,288.3 905.1,288.6C908.9,289.7 912.9,290.1 916.9,289.8C919.3,289.6 923.2,289.3 924.1,286.5C924.9,283.9 922.4,280.2 920.2,279C918.1,277.8 915,278.4 914.3,281C913.6,283.8 916,286.7 917.9,288.4C920.1,290.3 922.9,291.6 925.9,292C928.6,292.3 932,292.3 932.5,289.1C933.1,285.5 932.7,281.6 931.8,278.1C931.3,276.2 930.6,274.3 929.7,272.5C929,271 928.1,269.4 926.7,268.5C923.2,266.3 920,270 918.3,272.6C917.6,273.3 918.9,274.2 919.5,273.4Z" style="fill:rgb(39,52,73);fill-rule:nonzero;"/>
            </g>
        </g>
    </g>
</svg>
