<?xml version="1.0" encoding="UTF-8" standalone="no"?>
<!DOCTYPE svg PUBLIC "-//W3C//DTD SVG 1.1//EN" "http://www.w3.org/Graphics/SVG/1.1/DTD/svg11.dtd">
<svg width="100%" height="100%" viewBox="0 0 100 100" version="1.1" xmlns="http://www.w3.org/2000/svg" xmlns:xlink="http://www.w3.org/1999/xlink" xml:space="preserve" xmlns:serif="http://www.serif.com/" style="fill-rule:evenodd;clip-rule:evenodd;stroke-linejoin:round;stroke-miterlimit:2;">
    <g transform="matrix(0.451521,0,0,0.451521,-1014.97,-107.48)">
        <path d="M2431.66,270.073C2440.79,270.247 2448.91,278.133 2448.97,287.576L2448.97,381.449L2463.25,396.372L2463.81,397.009C2466,399.974 2465.9,400.265 2466.03,403.286C2466.03,407.973 2466.61,412.781 2465.18,416.941C2463.12,422.934 2457.14,427.309 2450.66,427.431C2389.26,427.803 2327.86,427.802 2266.46,427.431C2258.36,427.278 2251.15,420.291 2251.09,411.908L2251.09,403.286C2251.12,402.534 2251.11,402.342 2251.24,401.598C2251.47,400.203 2252.01,398.864 2252.8,397.691C2253.23,397.065 2253.37,396.938 2253.87,396.372L2268.15,381.449L2268.15,287.576C2268.16,286.295 2268.21,285.96 2268.32,285.173C2269.45,277.027 2276.85,270.237 2285.46,270.073C2334.19,269.769 2382.93,269.768 2431.66,270.073ZM2285.68,280.072C2281.73,280.097 2278.18,283.475 2278.15,287.608L2278.15,385.463L2261.09,403.286C2261.09,407.953 2260.05,413.002 2262.62,415.705C2263.63,416.759 2265.05,417.385 2266.51,417.43C2284.35,417.762 2437.61,417.672 2450.61,417.43C2453.48,417.341 2456.01,414.78 2456.03,411.875L2456.03,403.286L2438.97,385.463C2438.97,352.812 2439.18,320.161 2438.97,287.51C2438.9,283.624 2435.48,280.148 2431.53,280.073C2382.92,279.765 2334.3,280.072 2285.68,280.072Z" style="fill:white;fill-opacity:0.2;"/>
    </g>
    <g transform="matrix(0.451521,0,0,0.451521,-1014.94,-107.469)">
        <path d="M2278.15,287.608C2278.15,283.446 2281.52,280.072 2285.68,280.072C2312.69,280.072 2404.43,280.072 2431.44,280.072C2435.6,280.072 2438.97,283.446 2438.97,287.608L2438.97,385.463L2456.03,403.286L2456.03,411.875C2456.03,413.348 2455.44,414.762 2454.4,415.804C2453.36,416.846 2451.95,417.431 2450.47,417.431C2422.23,417.431 2294.89,417.431 2266.65,417.431C2265.18,417.431 2263.76,416.846 2262.72,415.804C2261.68,414.762 2261.09,413.348 2261.09,411.875C2261.09,407.913 2261.09,403.286 2261.09,403.286L2278.15,385.463L2278.15,287.608ZM2430.77,288.434L2286.35,288.434L2286.35,381.525L2430.77,381.525L2430.77,288.434Z"/>
    </g>
    <g transform="matrix(0.442249,0,0,0.448937,-993.166,-105.241)">
        <rect x="2285.05" y="285.133" width="147.45" height="93.627" style="fill:white;fill-opacity:0.65;"/>
    </g>
    <g transform="matrix(0.442249,0,0,0.448937,-993.166,-105.241)">
        <path d="M2432.5,378.759L2285.05,378.759L2285.05,285.133L2432.5,285.133L2432.5,378.759ZM2295.26,368.702L2422.29,368.702L2422.29,295.19L2295.26,295.19L2295.26,368.702Z" style="fill:none;"/>
    </g>
    <g transform="matrix(0.451521,0,0,0.332282,-1014.94,-61.7198)">
        <path d="M2440.26,403.8L2277.1,403.8L2285.35,387.463L2432.01,387.463C2434.76,392.909 2437.51,398.354 2440.26,403.8Z" style="fill:rgb(64,64,64);"/>
    </g>
    <g transform="matrix(-0.451521,0,0,0.451521,1114.94,-107.469)">
        <path d="M2286.35,288.434L2405.18,288.434L2312.09,381.525L2286.35,381.525L2286.35,288.434Z" style="fill:white;fill-opacity:0.5;"/>
    </g>
    <g transform="matrix(-0.451521,0,0,0.451521,1114.94,-107.469)">
        <path d="M2286.35,288.434L2286.35,381.525L2312.09,381.525L2405.18,288.434L2286.35,288.434ZM2381.04,298.434L2307.95,371.525L2296.35,371.525L2296.35,298.434L2381.04,298.434Z" style="fill:none;"/>
    </g>
    <g transform="matrix(0.520107,0,0,0.520107,-1177.25,-130.429)">
        <path d="M2379.27,319.036L2344.13,354.169L2340.45,350.486L2375.58,315.353C2376.81,316.581 2378.04,317.808 2379.27,319.036Z"/>
    </g>
</svg>
