<?xml version="1.0" encoding="UTF-8" standalone="no"?>
<!DOCTYPE svg PUBLIC "-//W3C//DTD SVG 1.1//EN" "http://www.w3.org/Graphics/SVG/1.1/DTD/svg11.dtd">
<svg width="100%" height="100%" viewBox="0 0 36 36" version="1.1" xmlns="http://www.w3.org/2000/svg" xmlns:xlink="http://www.w3.org/1999/xlink" xml:space="preserve" xmlns:serif="http://www.serif.com/" style="fill-rule:evenodd;clip-rule:evenodd;stroke-linejoin:round;stroke-miterlimit:2;">
    <g transform="matrix(1.05242,0,0,1.05242,-0.944362,-2.15756)">
        <path d="M13.17,6.47C13.737,4.507 15.709,3.005 18,3.005C20.291,3.005 22.262,4.507 22.829,6.47C24.813,5.979 27.099,6.936 28.245,8.92C29.39,10.905 29.076,13.363 27.659,14.835C29.076,16.308 29.39,18.766 28.245,20.75C27.099,22.734 24.813,23.691 22.829,23.2C22.262,25.164 20.291,26.665 18,26.665C15.709,26.665 13.737,25.164 13.17,23.2C11.186,23.691 8.9,22.734 7.755,20.75C6.609,18.766 6.923,16.308 8.341,14.835C6.923,13.363 6.609,10.905 7.755,8.92C8.9,6.936 11.186,5.979 13.17,6.47ZM21.777,12.937C21.065,12.937 20.353,13.103 19.784,13.364L19.914,14.183C20.389,13.993 20.982,13.838 21.671,13.838C22.584,13.838 22.952,14.135 22.952,14.906L22.952,15.452C21.884,15.476 21.065,15.583 20.579,15.868C19.974,16.164 19.724,16.686 19.724,17.28C19.724,18.253 20.318,18.823 21.445,18.823C22.216,18.823 22.739,18.55 23,18.063L23.083,18.063L23.19,18.716L23.854,18.716L23.854,14.669C23.854,13.447 23.047,12.937 21.777,12.937ZM18.775,18.716L16.259,10.397L14.586,10.397L12.058,18.716L12.996,18.716L13.66,16.532L17.137,16.532L17.802,18.716L18.775,18.716ZM21.623,18.039C20.911,18.039 20.614,17.743 20.614,17.268C20.614,16.948 20.757,16.746 20.959,16.615C21.398,16.307 22.193,16.247 22.952,16.247L22.952,16.781C22.952,17.541 22.549,18.039 21.623,18.039ZM15.559,11.311L16.864,15.618L13.933,15.618L15.239,11.311L15.559,11.311Z"/>
    </g>
    <g transform="matrix(0.269675,0,0,0.269675,-155.512,-87.9263)">
        <path class="darker" d="M593.504,419.575C596.727,418.947 600.058,418.618 603.465,418.618C619.554,418.618 633.943,425.956 643.465,437.467C652.986,425.956 667.375,418.618 683.465,418.618C686.871,418.618 690.202,418.947 693.426,419.575C687.292,441.395 667.234,457.411 643.465,457.411C619.695,457.411 599.637,441.395 593.504,419.575Z"/>
    </g>
</svg>
