<svg height="511pt" viewBox="0 -12 511.9992 511" width="511pt" xmlns="http://www.w3.org/2000/svg"><path d="m290.75 322.917969c-4.296875 0-8.59375-1.148438-12.4375-3.324219-1.503906-.859375-2.964844-1.886719-4.34375-3.054688l-1.058594-.890624.464844-1.304688c4.304688-12.148438 15.769531-21.378906 28.523438-22.976562 1.003906-.125 1.71875-1.046876 1.59375-2.058594-.117188-.914063-.898438-1.605469-1.8125-1.605469-.078126 0-.15625.003906-.234376.011719-12.699218 1.601562-24.507812 10.21875-30.089843 21.957031l-1.453125 3.058594-1.976563-2.75c-1.910156-2.660157-3.546875-5.59375-4.859375-8.726563-1.796875-4.25-3.183594-9.164062-4.238281-15.019531l-.492187-2.75 2.765624.421875c1.121094.167969 2.21875.253906 3.269532.253906 4.394531 0 8.683594-1.335937 12.074218-3.765625 5.988282-4.304687 9.347657-12.109375 8.355469-19.425781-.125-.898438-.90625-1.585938-1.8125-1.585938-.085937 0-.167969.007813-.253906.019532-.492187.066406-.921875.316406-1.21875.707031-.300781.394531-.429687.878906-.363281 1.367187.820312 6-1.9375 12.40625-6.855469 15.929688-2.777344 2-6.285156 3.105469-9.875 3.105469-1.886719 0-3.722656-.296875-5.460937-.886719l-1.183594-.398438-.28125-2.195312c-.46875-4.097656-.84375-8.203125-1.109375-12.226562l-.011719-.132813.011719-.132813c.683593-10.285156.765625-20.8125.238281-31.296874l-.15625-3.050782 2.859375 1.078125c2.917969 1.105469 5.992187 1.664063 9.144531 1.664063 4.097656 0 8.132813-.972656 11.667969-2.808594 8.175781-4.25 13.550781-12.941406 13.699219-22.144531.019531-1.015625-.789063-1.851563-1.808594-1.867188-.996094 0-1.84375.828125-1.859375 1.808594-.132813 7.75-4.847656 15.367187-11.730469 18.945313-2.976562 1.546874-6.414062 2.363281-9.933594 2.363281-3.828124 0-7.558593-.949219-10.789062-2.75l-1.136719-.632813.117188-1.296875c.023437-.261719.042969-.523437.0625-.789062.019531-.292969.039062-.585938.066406-.878907.726563-7.96875 1.175781-14.179687.304687-21.585937-.761718-6.410156.335938-13.027344 3.175782-19.136719 2.5625-5.496094 6.402344-10.191406 11.101562-13.578125l4.972656-3.582031-1.898437 5.824219c-2.835937 8.695312-1.835937 18.472656 2.671875 26.15625.328125.566406.933594.914062 1.585938.914062.324218 0 .644531-.089843.921874-.253906.429688-.253906.730469-.648437.855469-1.121094.125-.476562.054688-.972656-.195312-1.398437-4.882813-8.339844-5.042969-19.207032-.40625-27.6875.261719-.484375.234375-.949219.167969-1.253906l-.433594-1.882813 1.863281-.496094c2.84375-.761719 5.808594-1.148437 8.808594-1.148437 8.1875 0 16.414062 2.839844 22.570312 7.789062l1.5 1.207032-1.144531 1.546874c-5.257812 7.070313-7.925781 15.800782-7.519531 24.585938.046875.980469.859375 1.75 1.84375 1.75h.179687c.914063-.042969 1.699219-.90625 1.652344-1.914062-.34375-7.394532 1.773438-14.875 5.957031-21.066407l1.597657-2.355469 1.675781 2.296876c1.914062 2.625 3.492187 5.417968 5.207031 8.535156 1.800781 3.253906 3.652344 6.605468 5.96875 9.640625 1.015625 1.335937 2.167969 2.675781 3.625 4.222656l1.195312 1.269531-1.089843 1.355469c-.234375.292969-.375.621094-.410157.980469-.980468 9.6875-5.691406 18.988281-12.929687 25.523437-7.210937 6.503907-16.917969 10.234375-26.628906 10.234375h-.101563c-1.011718 0-1.835937.820313-1.839844 1.828125 0 1.011719.820313 1.839844 1.828126 1.839844h.109374c10.605469 0 21.207032-4.070313 29.09375-11.175781 7.066407-6.371094 11.910157-15.089844 13.640626-24.550782l.683593-3.753906 2.699219 2.699219c.769531.769531 1.507812 1.535156 2.234375 2.328125 4.582031 5.019531 6.984375 9.660156 7.363281 14.1875.523438 6.347656-2.824218 12.058594-6.367187 18.105469-2.972657 5.082031-6.035157 10.316406-6.898438 16.203125-.5625 3.832031-.152343 7.644531.242188 11.335937l.027343.28125c.082032.800781.160157 1.589844.234376 2.378907l.386718 4.21875-3.503906-2.382813c-6.386719-4.339844-14.207031-6.730469-22.011719-6.730469-3.574219 0-7.058593.5-10.347656 1.484375-.472656.140625-.855469.457031-1.089844.886719-.230469.433594-.28125.929688-.140625 1.398438.230469.773437.953125 1.3125 1.757813 1.3125.179687 0 .355469-.027344.53125-.078126 2.992187-.898437 6.152343-1.355468 9.394531-1.355468 8.941406 0 17.65625 3.421875 23.910156 9.394531l.894532.847656-.359376 1.179688c-1.796874 5.929687-6.519531 10.347656-11.523437 15.027343-2.453125 2.277344-4.582031 4.285157-6.507813 6.441407-1.867187 2.097656-3.566406 4.390625-5.207031 6.605469l-.128906.171874c-3.378906 4.570313-6.871094 9.292969-11.703125 12.015626-2.9375 1.648437-6.4375 2.519531-10.125 2.519531zm0 0" fill="#ff8984"/><path d="m218.316406 322.917969c-3.554687 0-6.949218-.8125-9.820312-2.351563l-3.667969-1.960937 3.824219-1.640625c9.808594-4.203125 17.816406-12.171875 21.976562-21.859375.195313-.457031.203125-.957031.023438-1.414063-.183594-.453125-.527344-.808594-.976563-1-.242187-.101562-.484375-.152344-.734375-.152344-.730468 0-1.394531.4375-1.6875 1.113282-4.25 9.910156-12.921875 17.804687-23.191406 21.125-.101562.035156-.210938.082031-.304688.132812l-1.417968.808594-1.078125-1.230469c-1.625-1.859375-3.128907-3.867187-4.78125-6.109375-1.683594-2.269531-3.425781-4.625-5.34375-6.773437-2.023438-2.273438-4.367188-4.453125-6.433594-6.378907-5.285156-4.921874-10.28125-9.574218-11.847656-16-.523438-2.140624-.664063-4.460937-.464844-7.523437l.136719-2.058594 2.050781.199219c1.460937.140625 2.875.210938 4.210937.210938 11.164063 0 22.273438-4.261719 30.476563-11.691407 10.183594-9.226562 15.695313-22.921875 14.746094-36.628906-.066407-.957031-.863281-1.710937-1.8125-1.710937-.046875 0-.09375 0-.140625.003906-1.023438.074218-1.789063.949218-1.714844 1.957031.859375 12.40625-4.328125 25.300781-13.542969 33.652344-7.511719 6.804687-17.78125 10.707031-28.171875 10.707031-1.238281 0-2.484375-.054688-3.703125-.167969l-1.980469-.183593.171876-1.980469c.1875-2.195313.351562-5.09375-.078126-8.050781-.871093-5.878907-3.933593-11.109376-6.890624-16.167969-3.558594-6.078125-6.90625-11.792969-6.375-18.144531.367187-4.523438 2.773437-9.160157 7.359374-14.171876 1.425782-1.558593 2.863282-2.980468 4.59375-4.679687.648438-.628906 1.289063-1.257813 1.917969-1.894531l.765625-.78125 1.070313.226562c.105469.023438.175781.042969.253906.050782 7.058594.425781 13.859375 4.339843 17.769531 10.207031 3.90625 5.871093 4.886719 13.65625 2.550782 20.320312-.332032.957031.171874 2.007813 1.125 2.339844.183593.0625.398437.097656.609374.097656.777344 0 1.476563-.492187 1.730469-1.226562 2.707031-7.71875 1.574219-16.746094-2.957031-23.566407-3.617188-5.449218-9.429688-9.5-15.945312-11.113281l-2.921876-.726562 1.800782-2.410157c2.199218-2.953124 3.984375-6.171874 5.714844-9.285156 1.789062-3.25 3.640624-6.617187 5.976562-9.585937 2.75-3.5 6.273438-6.398438 10.46875-8.605469l3.945312-2.074219-1.070312 4.324219c-1.523438 6.136719-.835938 12.863281 1.878906 18.457031 3.375 6.957031 9.847656 12.308594 17.320313 14.320313.175781.046875.335937.074218.476562.074218.832031 0 1.5625-.5625 1.777344-1.367187.128906-.472656.0625-.96875-.183594-1.394531-.246093-.425782-.644531-.730469-1.113281-.859375-6.460938-1.738281-12.0625-6.363281-14.980469-12.375-2.917969-6.015625-3.09375-13.273438-.46875-19.421875.113281-.269532.160157-.570313.128907-.890625l-.171876-1.773438 1.742188-.375c2.578125-.550781 5.199219-.832031 7.789062-.832031 5.441407 0 10.703126 1.246094 15.214844 3.605469 6.316406 3.304687 11.570313 8.949219 14.796875 15.898437 2.847657 6.101563 3.949219 12.722656 3.1875 19.140625-.882812 7.40625-.433593 13.617188.292969 21.582031.191406 2.042969.339844 4.046876.453125 5.734376l.011719.136718-.011719.132813c-.585937 8.699219-.734375 17.636719-.445313 26.5625l.074219 2.308593-2.292969-.253906c-1.347656-.152344-2.722656-.226562-4.085937-.226562-5.847656 0-11.667969 1.375-16.832031 3.980468-6.894532 3.496094-12.640625 9.191407-16.1875 16.042969-.222656.4375-.265625.9375-.113282 1.40625.148438.464844.46875.84375.902344 1.066407.269532.144531.542969.210937.847656.210937.691407 0 1.316407-.378906 1.632813-.988281 3.183594-6.171875 8.363281-11.304688 14.582031-14.457032 4.640625-2.347656 9.878906-3.589843 15.144532-3.589843 1.671874 0 3.355468.128906 4.992187.378906l1.589844.242187.203125 3.109376-.011719.132812c-.296875 4.324219-.664063 8.316406-1.117187 12.203125-.875 7.535156-2.222657 16.3125-5.574219 24.246094-3.445313 8.195312-8.859375 14.707031-15.246094 18.332031-3.832031 2.171875-8.128906 3.324219-12.417969 3.324219zm0 0" fill="#ff8984"/><path d="m243.292969 353.886719c-25.164063 0-50.570313-.4375-75.515625-1.304688-10.609375-.378906-21.160156-1.734375-26.492188-9.03125-3.640625-4.984375-4.03125-11.59375-4.148437-19.085937l-2.5-159.660156c-.15625-9.699219.222656-19.675782 6.558593-25.738282 5.65625-5.390625 14.492188-5.996094 23.058594-6.152344 11.328125-.21875 22.875-.332031 34.316406-.332031 18.808594 0 38.097657.304688 57.332032.902344 27.539062.867187 55.253906 2.363281 82.371094 4.453125 1.722656.128906 3.546874.210938 5.417968.289062 6.964844.289063 14.796875.617188 20.148438 3.925782 6.058594 3.734375 6.792968 11.066406 7.5 18.164062l.207031 1.988282c5.820313 53.929687 6.765625 108.695312 2.808594 162.765624-.582031 7.957032-1.703125 16.851563-7.679688 21.6875-4.496093 3.640626-10.640625 4.222657-17.617187 4.570313-34.925782 1.699219-70.511719 2.558594-105.765625 2.558594zm13.179687-61.0625c.886719 3.621093 1.9375 6.84375 3.210938 9.863281 2.667968 6.328125 7.75 14.953125 16.820312 20.09375 4.371094 2.480469 9.300782 3.792969 14.253906 3.792969 4.34375 0 8.460938-1.03125 11.910157-2.972657 5.515625-3.097656 9.25-8.152343 12.863281-13.039062 1.730469-2.339844 3.335938-4.503906 5.125-6.511719 1.851562-2.070312 3.894531-3.984375 6.054688-6.003906l.140624-.132813c5.449219-5.074218 11.082032-10.320312 12.914063-17.808593 1.082031-4.433594.605469-8.890625.144531-13.199219-.375-3.445312-.761718-7.007812-.257812-10.40625.765625-5.199219 3.523437-9.902344 6.441406-14.878906 3.679688-6.292969 7.46875-12.773438 6.851562-20.273438-.453124-5.378906-3.171874-10.726562-8.3125-16.34375-1.546874-1.707031-3.238281-3.367187-4.734374-4.832031-2.625-2.578125-5.074219-4.976563-7.164063-7.730469-2.183594-2.863281-3.960937-6.082031-5.675781-9.191406l-.046875-.085938c-1.867188-3.375-3.796875-6.859374-6.253907-9.984374-7.003906-8.925782-18.339843-14.253907-30.328124-14.253907-6.046876 0-11.9375 1.410157-17.03125 4.078125-7.011719 3.667969-12.847657 9.917969-16.425782 17.605469-.136718.296875-.261718.601563-.382812.90625l-.214844.523437-1.847656 4.390626-1.996094-4.765626c-.148438-.351562-.296875-.707031-.460938-1.0625-3.574218-7.679687-9.40625-13.929687-16.417968-17.597656-5.097656-2.667968-10.988282-4.078125-17.03125-4.078125-11.980469 0-23.320313 5.328125-30.328125 14.25-2.460938 3.128907-4.390625 6.613281-6.253907 9.984375l-.050781.089844c-1.8125 3.285156-3.515625 6.375-5.667969 9.195312-2.070312 2.714844-4.476562 5.082032-7.023437 7.585938l-.136719.136719c-1.578125 1.546875-3.207031 3.148437-4.742187 4.832031-5.148438 5.625-7.863281 10.972656-8.304688 16.34375-.617187 7.5 3.171875 13.984375 6.835938 20.25 2.945312 5.042969 5.683593 9.730469 6.449219 14.90625.496093 3.355469.132812 6.777344-.25 10.402344-.464844 4.339844-.941407 8.796875.132812 13.207031 1.828125 7.460937 7.460938 12.71875 12.910156 17.800781 2.222656 2.070313 4.320313 4.023438 6.203125 6.144532 1.699219 1.894531 3.222657 3.9375 4.832031 6.101562l.296876.402344c3.617187 4.890625 7.351562 9.945312 12.855468 13.042968 3.449219 1.941407 7.570313 2.972657 11.917969 2.972657 4.957031 0 9.886719-1.3125 14.253906-3.789063 9.074219-5.144531 14.15625-13.769531 16.824219-20.097656 1.242188-2.953125 2.296875-6.179688 3.214844-9.867188zm0 0" fill="#59bd8b"/><g fill="#cbe580"><path d="m493.136719 116.125c-4.796875 0-9.382813-2.542969-11.683594-6.480469-2.160156-3.683593-2.425781-7.546875-.761719-11.175781 1.996094-4.355469 6.671875-7.789062 11.90625-8.753906.71875-.132813 1.429688-.203125 2.101563-.203125 2.84375 0 5.570312 1.140625 7.671875 3.207031 3.0625 3.023438 4.496094 7.644531 3.75 12.058594-.867188 5.105468-4.875 9.597656-9.746094 10.925781-1.039062.28125-2.128906.421875-3.238281.421875zm0 0"/><path d="m494.703125 398.847656c-.695313 0-1.40625-.066406-2.113281-.199218-5.226563-.960938-9.898438-4.398438-11.898438-8.75-1.664062-3.628907-1.398437-7.492188.761719-11.179688 2.304687-3.933594 6.886719-6.476562 11.675781-6.476562 1.132813 0 2.226563.140624 3.246094.421874 4.875 1.328126 8.882812 5.820313 9.746094 10.921876.75 4.421874-.6875 9.039062-3.746094 12.050781-2.132812 2.101562-4.78125 3.210937-7.671875 3.210937zm0 0"/><path d="m452.039062 201.898438c-.027343-.960938-.164062-2.183594-.324218-3.597657l-.011719-.101562c-.636719-5.363281-.675781-7.980469-.144531-9.332031l.296875-.746094.730469-.335938c.660156-.304687 1.554687-.441406 2.902343-.441406 1.523438 0 3.285157.183594 4.132813.269531l.230468.023438c.773438.078125 1.507813.148437 2.113282.164062l15.339844.433594-.191407 2.117187c-.710937 7.816407-.730469 15.738282-.0625 23.550782l.199219 2.308594-2.3125-.140626c-1.9375-.121093-3.898438-.179687-5.835938-.179687-4.808593 0-9.652343.367187-14.402343 1.089844l-2.234375.339843zm0 0"/><path d="m455.523438 301.015625c-1.332032 0-2.222657-.128906-2.886719-.421875l-.777344-.339844-.296875-.796875c-.589844-1.597656-.386719-4.707031.128906-9.207031l.023438-.183594c.160156-1.414062.296875-2.640625.324218-3.601562l.421876-15.417969 2.238281.339844c4.75.722656 9.59375 1.089843 14.398437 1.089843 1.9375 0 3.902344-.0625 5.839844-.179687l2.308594-.140625-.195313 2.308594c-.667969 7.8125-.648437 15.734375.058594 23.546875l.191406 2.121093-15.335937.429688c-.605469.019531-1.339844.089844-2.117188.167969l-.230468.023437c-.757813.078125-2.546876.261719-4.09375.261719zm0 0"/><path d="m444.925781 82.261719c-5.953125 0-11.839843-4.171875-13.691406-9.703125-1.304687-3.863282-.691406-8.277344 1.5625-11.246094 2.902344-3.800781 7.46875-5.980469 12.523437-5.980469 1.988282 0 3.972657.355469 5.742188 1.03125 2.605469 1 8.582031 4.25 7.878906 12.820313-.519531 6.394531-6.121094 12.21875-12.480468 12.984375-.503907.0625-1.019532.09375-1.535157.09375zm0 0"/><path d="m445.3125 433.03125c-5.058594 0-9.621094-2.179688-12.515625-5.976562-2.253906-2.972657-2.867187-7.386719-1.5625-11.253907 1.851563-5.527343 7.738281-9.699219 13.695313-9.699219.476562 0 .976562.03125 1.519531.09375 6.367187.765626 11.96875 6.589844 12.492187 12.980469.699219 8.574219-5.273437 11.824219-7.875 12.824219-1.761718.675781-3.753906 1.03125-5.753906 1.03125zm0 0"/><path d="m448.023438 166.425781c-4.195313 0-8.289063-2.832031-9.730469-6.726562-1.476563-3.984375-.167969-8.835938 3.105469-11.53125 1.769531-1.460938 3.871093-2.234375 6.070312-2.234375 2.070312 0 4.226562.691406 6.082031 1.945312 2.992188 2.035156 5.886719 6.242188 4.199219 11.414063-1.296875 4.039062-5.324219 7.042969-9.578125 7.128906zm0 0"/><path d="m447.476562 342.433594c-2.207031 0-4.308593-.773438-6.082031-2.238282-3.269531-2.691406-4.574219-7.542968-3.101562-11.527343 1.441406-3.894531 5.515625-6.722657 9.6875-6.722657h.148437c4.296875.085938 8.324219 3.089844 9.625 7.136719 1.683594 5.164063-1.210937 9.375-4.199218 11.40625-1.835938 1.253907-3.996094 1.945313-6.078126 1.945313zm0 0"/><path d="m383.078125 57.34375c-.027344-.972656-.164063-2.191406-.34375-3.683594l-.019531-.152344c-.53125-4.679687-.722656-7.679687-.125-9.183593l.296875-.75.734375-.332031c.667968-.304688 1.574218-.441407 2.9375-.441407 1.386718 0 2.914062.140625 4.09375.261719l.203125.019531c.785156.078125 1.527343.152344 2.136719.167969l15.351562.433594-.191406 2.117187c-.710938 7.820313-.730469 15.746094-.058594 23.5625l.195312 2.308594-2.3125-.144531c-1.960937-.121094-3.949218-.183594-5.914062-.183594-4.777344 0-9.597656.367188-14.332031 1.085938l-2.242188.339843zm0 0"/><path d="m386.558594 445.566406c-1.335938 0-2.226563-.128906-2.890625-.421875l-.785157-.34375-.292968-.804687c-.582032-1.601563-.363282-4.859375.140625-9.257813.183593-1.527343.320312-2.742187.351562-3.722656l.40625-15.421875 2.242188.34375c4.734375.71875 9.554687 1.085938 14.332031 1.085938 1.964844 0 3.953125-.0625 5.914062-.1875l2.3125-.140626-.195312 2.308594c-.671875 7.816406-.648438 15.742188.058594 23.558594l.191406 2.121094-15.351562.429687c-.609376.015625-1.351563.089844-2.136719.171875l-.207031.019532c-1.171876.121093-2.707032.261718-4.089844.261718zm0 0"/><path d="m334.167969 107.339844c-5.953125 0-11.839844-4.167969-13.695313-9.703125-1.304687-3.871094-.691406-8.285157 1.566406-11.246094 2.890626-3.796875 7.449219-5.976563 12.511719-5.976563 1.996094 0 3.984375.355469 5.75 1.03125 2.605469.996094 8.574219 4.242188 7.871094 12.820313-.523437 6.390625-6.117187 12.214844-12.472656 12.980469-.5.0625-1.015625.09375-1.53125.09375zm0 0"/><path d="m334.554688 407.957031c-5.058594 0-9.621094-2.179687-12.515626-5.980469-2.257812-2.957031-2.871093-7.375-1.566406-11.25 1.851563-5.53125 7.738282-9.703124 13.695313-9.703124.480469 0 .980469.03125 1.519531.09375 6.367188.769531 11.960938 6.59375 12.484375 12.984374.703125 8.574219-5.269531 11.820313-7.867187 12.820313-1.757813.675781-3.746094 1.035156-5.75 1.035156zm0 0"/><path d="m322.679688 35.238281c-5.960938 0-11.851563-4.167969-13.707032-9.699219-1.304687-3.863281-.691406-8.277343 1.5625-11.246093 2.90625-3.800781 7.46875-5.980469 12.523438-5.980469 2.019531 0 4.007812.359375 5.753906 1.039062 2.59375.992188 8.570312 4.242188 7.871094 12.816407-.53125 6.488281-6.015625 12.191406-12.480469 12.980469-.503906.058593-1.015625.089843-1.523437.089843zm0 0"/><path d="m323.054688 480.058594c-5.050782 0-9.613282-2.179688-12.515626-5.980469-2.257812-2.972656-2.871093-7.386719-1.5625-11.253906 1.859376-5.53125 7.753907-9.699219 13.703126-9.699219.476562 0 .988281.03125 1.515624.09375 6.363282.765625 11.964844 6.589844 12.488282 12.980469.699218 8.574219-5.277344 11.824219-7.878906 12.820312-1.757813.679688-3.746094 1.039063-5.75 1.039063zm0 0"/><path d="m269.851562 424.457031c-3.050781 0-5.96875-.972656-8.21875-2.742187-2.722656-2.148438-4.597656-5.542969-5.023437-9.085938-.609375-5.253906 2.636719-11.359375 7.722656-14.523437 2.050781-1.273438 4.128907-1.917969 6.183594-1.917969 1.886719 0 3.699219.550781 5.378906 1.636719 4.613281 2.972656 7.375 8.539062 7.03125 14.179687-.191406 2.945313-1.394531 8.296875-7.324219 11.167969-1.730468.839844-3.71875 1.285156-5.75 1.285156zm0 0"/><path d="m258.503906 92.71875-1.914062-.078125.007812-21.578125c0-1.332031.070313-2.023438.257813-2.546875l.207031-.570313.488281-.359374c1.332031-.988282 3.910157-1.488282 7.664063-1.488282 3.425781 0 10.597656.582032 13.183594 2.792969 2.007812 1.742187 3.804687 7.183594 4.1875 12.664063.269531 4.027343-.277344 7.34375-1.433594 8.65625-.984375 1.101562-2.75 1.40625-5.28125 1.546874l-16.21875.941407c-.285156.019531-.554688.027343-.777344.027343-.140625.003907-.261719 0-.371094-.007812zm0 0"/><path d="m223.957031 462.707031c-.03125-.152343-.046875-.300781-.058593-.464843l-1.683594-20.640626 1.847656-.277343c1.3125-.199219 2.699219-.4375 4.109375-.683594 4.511719-.769531 9.585937-1.640625 14.023437-1.640625 2.96875 0 5.292969.390625 7.109376 1.191406 5.082031 2.230469 5.28125 10.441406 5.441406 17.039063l.039062 1.265625.042969 1.777344-28.148437 3.96875c-.222657.035156-.433594.0625-.605469.074218l-1.777344.140625zm0 0"/><path d="m238.285156 55.003906c-.328125 0-.652344-.011718-.976562-.039062-6.273438-.5-11.898438-6.003906-12.539063-12.265625-.589843-5.722657 1.453125-10.179688 5.75-12.554688 2.089844-1.152343 4.617188-1.765625 7.308594-1.765625 3.722656 0 7.363281 1.183594 9.992187 3.238282 3.929688 3.074218 5.285157 7.777343 3.820313 13.242187-1.5625 5.785156-7.300781 10.144531-13.355469 10.144531zm0 0"/><path d="m189.332031 33.101562c-.515625 0-1.03125-.03125-1.535156-.09375-6.355469-.765624-11.957031-6.585937-12.480469-12.972656-.703125-8.582031 5.273438-11.832031 7.875-12.828125 1.773438-.675781 3.757813-1.035156 5.746094-1.035156 5.0625 0 9.625 2.183594 12.523438 5.988281 2.253906 2.957032 2.867187 7.375 1.5625 11.25-1.851563 5.523438-7.738282 9.691406-13.691407 9.691406zm0 0"/><path d="m188.941406 482.191406c-2 0-3.988281-.355468-5.75-1.03125-2.601562-1-8.578125-4.246094-7.875-12.828125.523438-6.386719 6.125-12.207031 12.484375-12.972656.445313-.066406.941407-.097656 1.519531-.097656 5.949219 0 11.84375 4.167969 13.703126 9.695312 1.304687 3.875.691406 8.292969-1.5625 11.25-2.894532 3.800781-7.457032 5.984375-12.519532 5.984375zm0 0"/><path d="m177.816406 105.210938c-.507812 0-1.019531-.03125-1.515625-.089844-6.359375-.78125-11.953125-6.605469-12.476562-12.984375-.703125-8.585938 5.269531-11.832031 7.867187-12.828125 1.761719-.675782 3.75-1.035156 5.75-1.035156 5.0625 0 9.625 2.183593 12.519532 5.988281 2.257812 2.945312 2.871093 7.363281 1.5625 11.25-1.855469 5.527343-7.75 9.699219-13.707032 9.699219zm0 0"/><path d="m177.441406 410.089844c-2 0-3.988281-.355469-5.75-1.027344-2.597656-1-8.566406-4.246094-7.867187-12.832031.25-3.097657 1.683593-6.15625 4.03125-8.601563 2.339843-2.449218 5.339843-4.007812 8.441406-4.382812.5-.058594 1.011719-.089844 1.519531-.089844 5.960938 0 11.855469 4.171875 13.707032 9.703125 1.308593 3.882813.695312 8.300781-1.566407 11.25-2.890625 3.800781-7.453125 5.980469-12.515625 5.980469zm0 0"/><path d="m125.460938 447.699219c-1.433594 0-3.078126-.15625-3.964844-.242188l-.136719-.011719c-.726563-.082031-1.621094-.171874-2.355469-.195312l-15.351562-.425781.191406-2.121094c.710938-7.820313.730469-15.746094.058594-23.558594l-.195313-2.308593 2.3125.140624c1.9375.117188 3.902344.175782 5.839844.175782 4.8125 0 9.65625-.363282 14.40625-1.085938l2.242187-.339844.410157 15.433594c.023437.960938.164062 2.179688.34375 3.671875l.023437.183594c.527344 4.664063.714844 7.65625.121094 9.160156l-.296875.75-.734375.335938c-.660156.304687-1.5625.4375-2.914062.4375zm0 0"/><path d="m126.269531 70.300781c-4.75-.722656-9.589843-1.085937-14.390625-1.085937-1.9375 0-3.910156.058594-5.859375.175781l-2.308593.140625.195312-2.308594c.667969-7.8125.648438-15.742187-.058594-23.558594l-.191406-2.121093 15.347656-.429688c.734375-.019531 1.628906-.109375 2.324219-.1875l.171875-.015625c.882812-.085937 2.53125-.246094 3.96875-.246094 1.320312 0 2.203125.128907 2.859375.417969l.789063.34375.292968.8125c.578125 1.605469.363282 4.863281-.140625 9.261719-.183593 1.527344-.324219 2.746094-.351562 3.710938l-.410157 15.429687zm0 0"/><path d="m67.058594 80.128906c-.507813 0-1.019532-.027344-1.519532-.089844-6.46875-.792968-11.949218-6.496093-12.484374-12.980468-.699219-8.582032 5.277343-11.832032 7.878906-12.832032 1.769531-.675781 3.757812-1.03125 5.746094-1.03125 5.058593 0 9.621093 2.179688 12.519531 5.988282 2.253906 2.957031 2.867187 7.371094 1.566406 11.25-1.855469 5.523437-7.746094 9.695312-13.707031 9.695312zm0 0"/><path d="m66.675781 435.167969c-2 0-3.984375-.355469-5.742187-1.027344-2.601563-1-8.578125-4.246094-7.878906-12.828125.535156-6.492188 6.015624-12.191406 12.480468-12.984375.496094-.058594.996094-.085937 1.535156-.085937 5.957032 0 11.847657 4.167968 13.695313 9.695312 1.304687 3.875.6875 8.289062-1.566406 11.25-2.894531 3.800781-7.464844 5.980469-12.523438 5.980469zm0 0"/><path d="m63.867188 164.28125c-4.292969-.085938-8.320313-3.085938-9.621094-7.125-1.679688-5.164062 1.066406-9.277344 4.199218-11.40625 1.847657-1.257812 4.007813-1.949219 6.085938-1.949219 2.199219 0 4.300781.769531 6.070312 2.226563 3.273438 2.699218 4.578126 7.550781 3.101563 11.539062-1.4375 3.890625-5.511719 6.714844-9.6875 6.714844zm0 0"/><path d="m64.53125 344.5625c-2.078125 0-4.238281-.691406-6.085938-1.945312-3.132812-2.128907-5.878906-6.246094-4.195312-11.414063 1.296875-4.035156 5.324219-7.03125 9.578125-7.121094h.191406c4.171875 0 8.246094 2.824219 9.683594 6.714844 1.480469 3.992187.171875 8.84375-3.101563 11.539063-1.769531 1.457031-3.871093 2.226562-6.070312 2.226562zm0 0"/><path d="m56.5 303.152344c-1.425781 0-3.070312-.160156-3.957031-.242188l-.152344-.015625c-.730469-.082031-1.621094-.171875-2.355469-.191406l-15.339844-.429687.191407-2.121094c.707031-7.816406.726562-15.742188.058593-23.558594l-.195312-2.308594 2.3125.140625c1.933594.117188 3.898438.179688 5.832031.179688 4.808594 0 9.652344-.367188 14.402344-1.089844l2.238281-.339844.421875 15.433594c.027344.945313.164063 2.144531.320313 3.539063l.019531.148437c.632813 5.367187.671875 7.988281.140625 9.332031l-.292969.746094-.730469.335938c-.664062.304687-1.5625.441406-2.914062.441406zm0 0"/><path d="m57.296875 214.851562c-4.746094-.722656-9.585937-1.089843-14.386719-1.089843-1.9375 0-3.90625.0625-5.851562.179687l-2.308594.136719.195312-2.304687c.667969-7.816407.648438-15.742188-.058593-23.558594l-.191407-2.121094 15.335938-.429688c.734375-.019531 1.628906-.113281 2.324219-.1875l.191406-.019531c.945313-.09375 2.527344-.246093 3.953125-.246093 1.316406 0 2.199219.128906 2.859375.417968l.78125.34375.292969.800782c.589844 1.601562.386718 4.714843-.128906 9.214843l-.027344.230469c-.160156 1.390625-.292969 2.589844-.320313 3.539062l-.421875 15.433594zm0 0"/><path d="m18.871094 113.992188c-1.117188 0-2.210938-.144532-3.25-.429688-4.871094-1.332031-8.878906-5.824219-9.742188-10.925781-.746094-4.410157.6875-9.023438 3.746094-12.046875 2.128906-2.097656 4.78125-3.207032 7.683594-3.207032.6875 0 1.394531.066407 2.09375.195313 5.242187.976563 9.914062 4.414063 11.90625 8.765625 1.640625 3.570312 1.371094 7.539062-.765625 11.164062-2.253907 3.875-6.945313 6.484376-11.671875 6.484376zm0 0"/><path d="m17.308594 400.984375c-2.898438 0-5.558594-1.109375-7.683594-3.207031-3.058594-3.023438-4.496094-7.640625-3.75-12.046875.863281-5.105469 4.875-9.597657 9.746094-10.925781 1.050781-.285157 2.140625-.433594 3.246094-.433594 4.792968 0 9.378906 2.550781 11.679687 6.496094 2.132813 3.621093 2.402344 7.585937.757813 11.160156-1.988282 4.347656-6.660157 7.785156-11.898438 8.761718-.703125.128907-1.40625.195313-2.097656.195313zm0 0"/></g><path d="m497.867188 367.1875c-7.992188-2.175781-17.15625 1.550781-21.320313 8.671875-1.125 1.929687-1.886719 3.933594-2.28125 5.957031-7.835937.652344-15.714844.316406-23.476563-.988281l.042969-5.335937c.007813-1.023438-.394531-2.003907-1.113281-2.730469-.722656-.726563-1.703125-1.136719-2.726562-1.136719l-41.882813-.015625-1.050781-18.820313c-.117188-2.117187-1.925782-3.738281-4.042969-3.617187-2.117187.117187-3.738281 1.929687-3.621094 4.042969l1.027344 18.390625-31.386719-.011719c-.792968 0-2.085937 0-2.640625-.265625-.335937-.726563-.214843-3.03125-.15625-4.160156.058594-1.066407.109375-2.070313.054688-3.039063-.183594-3.160156-.691407-5.585937-1.226563-8.152344-.042968-.207031-.089844-.425781-.132812-.636718 2.996094-.84375 5.800781-2.136719 8.320312-4.171875 4.507813-3.65625 6.84375-8.679688 8.144532-14.042969 8.191406-.265625 17.496093-.636719 26.503906-.992188 9.179687-.363281 18.671875-.738281 26.960937-1.007812.15625-.003906.304688-.039062.457031-.0625.683594 3.675781 2.582032 7.136719 5.472657 9.515625 2.855469 2.355469 6.257812 3.539063 9.722656 3.539063 3.144531 0 6.34375-.980469 9.230469-2.941407 6.066406-4.125 8.582031-11.132812 6.40625-17.847656-2.027344-6.269531-8.277344-10.917969-14.863282-11.054687-6.539062-.136719-13.03125 4.242187-15.320312 10.417968-.109375.292969-.199219.59375-.289062.890625-.339844-.085937-.695313-.140625-1.066407-.128906-8.3125.269531-17.824219.648437-27.015625 1.011719-8.445312.332031-17.140625.675781-24.929687.9375.140625-1.316406.25-2.628906.34375-3.917969.332031-4.5.613281-9.007813.875-13.519531.382812.128906.785156.214844 1.210937.214844h.003906l43.441407-.035157c2.117187 0 3.835937-1.71875 3.832031-3.839843 0-2.117188-1.71875-3.835938-3.835938-3.835938-.003906 0-.003906 0-.003906 0l-43.441406.035156c-.273438 0-.539062.03125-.796875.085938.238281-4.816406.429687-9.640625.59375-14.464844l64.226563-1.101562c-.019532.164062-.039063.320312-.054688.484374-.695312 5.996094-1.046875 10.828126 1.21875 13.90625 1.960938 2.65625 5.269531 3.273438 8.433594 3.273438 1.589844 0 3.144531-.15625 4.472656-.289062.757812-.078126 1.472656-.148438 1.929688-.160157l17.363281-.488281c1.078125-.03125 2.09375-.511719 2.800781-1.332031.703125-.816407 1.03125-1.894531.898438-2.96875-1.25-10.257813-1.253907-20.660157-.019532-30.917969.140625-1.164062-.257812-2.328125-1.082031-3.160156-.824219-.832032-1.984375-1.246094-3.144531-1.117188-9.191406 1.007813-18.441406.601563-27.503906-1.203125-1.105469-.222656-2.257813.058594-3.144532.761719-.882812.707031-1.410156 1.765625-1.441406 2.894531l-.339844 12.632813-64.378906 1.101562c.648438-25.523437.21875-51.109375-1.277344-76.613281.21875.042969.4375.074219.667969.078125l64.984375 1.113281.34375 12.632813c.03125 1.132812.558594 2.191406 1.441406 2.894531.6875.546875 1.53125.839844 2.394532.839844.25 0 .5-.023438.75-.074219 9.0625-1.808594 18.3125-2.210938 27.503906-1.207031 1.160156.128906 2.320312-.28125 3.144531-1.117188.824219-.832031 1.222656-1.996093 1.082031-3.15625-1.238281-10.257812-1.230468-20.664062.019532-30.921875.132812-1.070312-.195313-2.148437-.898438-2.96875-.707031-.816406-1.722656-1.300781-2.800781-1.332031l-17.363281-.484375c-.457032-.011719-1.171876-.085938-1.929688-.164062-3.964844-.398438-9.960938-1.003907-12.90625 2.988281-2.265625 3.074219-1.914062 7.90625-1.21875 13.90625.015625.164062.035156.320312.054688.480469l-64.46875-1.101563c-.023438 0-.046876 0-.066407 0-.421875 0-.820312.082031-1.199219.207031-.304687-4.570312-.644531-9.136718-1.019531-13.699218 6.820313-.03125 14.59375-.230469 22.144531-.421876 8.179688-.210937 16.636719-.429687 23.769532-.429687.085937 0 .171875.011719.261718 0 2.117188 0 3.835938-1.71875 3.839844-3.835937 0-2.117188-1.71875-3.839844-3.835937-3.839844-7.273438.003906-15.902344.21875-24.234375.429687-7.746094.199219-15.722656.402344-22.609375.425781-.464844-5.132812-.960938-10.261718-1.511719-15.382812-.035156-.324219-.070312-.65625-.101562-.988281 7.683593.160156 16.742187.109375 25.554687.058593 10.203125-.058593 20.75-.117187 28.972656.148438h.128907c.324218 0 .636718-.050781.941406-.128906.085937.296875.175781.597656.285156.890625 2.257812 6.082031 8.535156 10.421875 15.015625 10.421875.101563 0 .203125 0 .304687-.003906 6.585938-.136719 12.839844-4.789063 14.867188-11.054688 2.171875-6.714844-.34375-13.722656-6.40625-17.847656-6.066406-4.125-13.507812-3.894532-18.957031.597656-2.890625 2.378906-4.789063 5.839844-5.472657 9.515625-.148437-.023437-.300781-.058594-.457031-.0625-8.367187-.269531-18.992187-.207031-29.265625-.152344-9.195312.054688-18.660156.105469-26.464844-.082031-1.042968-5.933594-3.234374-11.941406-9.3125-15.6875-1.378906-.847656-2.84375-1.527344-4.367187-2.085938-.054687-.304687-.132813-.601562-.257813-.878906l-.023437-14c-.003906-1.046875-.007813-2.996094.539063-3.621094.21875-.253906.851562-.523437 1.722656-.523437h.007812c1.132813.003906 2.285156.125 3.503906.257813 1.492188.160156 3.03125.324218 4.746094.300781 2.316406-.035157 4.695313-.023438 6.996094-.015625 1.191406.007812 2.367188.015625 3.570312.011718l14.164063-.003906-1.027344 18.390625c-.117187 2.113281 1.503907 3.925781 3.621094 4.042969.070313.003906.144531.007812.214844.007812 2.023437 0 3.714843-1.582031 3.828125-3.625l1.050781-18.820312 41.882813-.015625c1.023437 0 2.003906-.410156 2.726562-1.132813.71875-.726562 1.117188-1.710937 1.109375-2.734374l-.039063-5.335938c7.761719-1.304688 15.636719-1.640625 23.476563-.984375.394531 2.023437 1.15625 4.023437 2.28125 5.953125 3.363281 5.753906 9.988281 9.289062 16.625 9.289062 1.578125 0 3.15625-.199218 4.695313-.617187 7.035156-1.917969 12.601562-8.125 13.847656-15.445313 1.074218-6.3125-.929688-12.6875-5.359375-17.050781-3.960938-3.902343-9.355469-5.558593-14.796875-4.546875-7.109375 1.320313-13.253906 5.910156-16.03125 11.980469-.414063.902344-.738282 1.824219-.992188 2.753906-7.941406-.636719-15.925781-.320312-23.808594.910157l-.097656-12.757813c7.453125-2.441406 13.320313-9.484375 13.964844-17.367187.695312-8.480469-3.710938-15.601563-11.496094-18.585938-8.796875-3.375-19.238281-.511719-24.8125 6.808594-3.414062 4.480468-4.34375 10.796875-2.433594 16.496094 2.449219 7.300781 9.515626 12.632812 17.109376 13.445312l.164062 21.25-59.871094.023438c-1.175781.007812-2.355468-.003907-3.53125-.011719-2.335937-.007813-4.75-.019531-7.148437.015625-1.238281.015625-2.488281-.113282-3.808594-.257813-1.363281-.144531-2.769531-.296875-4.300781-.300781-.011719 0-.023438 0-.03125 0-3.027344 0-5.765625 1.148438-7.511719 3.15625-2.4375 2.796875-2.429687 6.476562-2.425781 8.675781l.023437 12.972657c-3.554687-.492188-7.175781-.644532-10.59375-.789063-1.851562-.078125-3.601562-.148437-5.21875-.273437-.320312-.027344-.640625-.046876-.957031-.070313.003906-.066406.023438-.128906.023438-.195313l.695312-19.15625c.003906-.121093-.015625-.238281-.023438-.359374 8.117188-1.960938 14.703126-9.386719 15.386719-17.765626.695313-8.476562-3.710937-15.597656-11.492187-18.582031-8.804688-3.378906-19.242188-.515625-24.820313 6.804688-3.410156 4.480469-4.34375 10.800781-2.429687 16.496093 2.300781 6.847657 8.660156 11.96875 15.707031 13.246094l-.6875 18.945313c-8.9375-.640625-17.910156-1.21875-26.894531-1.730469l-1.429688-49.101562c-.070312-2.457032.007813-5.839844 1.480469-6.84375.800781-.546876 2.417969-.660157 3.722656-.75l17.640625-1.230469c2.039063-.140625 3.605469-1.855469 3.570313-3.894531l-.117188-6.671876 48.65625-.292968c.261719 0 .515625-.03125.765625-.082032l.378906 14.0625c.03125 1.132813.558594 2.191407 1.441407 2.894532.6875.546875 1.53125.839844 2.394531.839844.25 0 .503906-.023438.75-.074219 9.066406-1.808594 18.316406-2.210938 27.503906-1.203125 1.164063.128906 2.320313-.285156 3.144532-1.117188.824218-.832031 1.222656-1.996094 1.082031-3.160156-1.238281-10.257812-1.230469-20.660156.019531-30.917969.132812-1.074219-.195312-2.152343-.898438-2.96875-.707031-.820312-1.722656-1.300781-2.800781-1.332031l-17.363281-.488281c-.457031-.011719-1.175781-.082031-1.933594-.160157-3.964844-.398437-9.957031-1.003906-12.902344 2.984376-2.160156 2.933593-1.941406 7.464843-1.3125 13.082031-.105468-.011719-.207031-.03125-.316406-.03125l-48.742187.292969-.238281-13.554688c7.765624-2.230469 13.964843-9.445312 14.628906-17.558594.695312-8.480468-3.710938-15.601562-11.496094-18.585937-8.796875-3.378907-19.238281-.515625-24.8125 6.808593-3.414062 4.476563-4.34375 10.796876-2.433594 16.492188 2.378906 7.089844 9.109375 12.324219 16.449219 13.367188l.417969 23.867187-14.011719.976563c-2.105469.148437-4.996094.347656-7.515625 2.070312-5.109375 3.488281-4.90625 10.4375-4.820312 13.402344l1.410156 48.453125c-7.925782-.421875-15.851563-.785157-23.765625-1.105469l1.097656-30.753906 3.34375-.195313c2.265625-.128906 6.476563-.371093 9.199219-3.449219 2.855468-3.230468 3.125-8.75 2.84375-12.808593-.382813-5.546875-2.226563-13.214844-6.152344-16.582031-5.496094-4.703126-23.675781-5.9375-28.875-.742188-.019531.015625-.035156.035156-.054688.054688-2.238281 2.328124-2.238281 5.46875-2.238281 7.160156l-.011719 19.414062c0 1.1875-.003906 3.175782 1.261719 4.988282 1.800781 2.578124 4.734375 2.949218 6.621094 2.949218.476563 0 .882813-.023437 1.191406-.042968l5.179688-.300782-1.074219 30.015625c-2.671875-.09375-5.34375-.1875-8.007812-.273437-4.667969-.144532-9.347657-.269532-14.03125-.378906l.152343-67.195313c6.964844-1.519531 13.039063-6.914063 14.917969-13.898437 2.066406-7.683594-.046875-14.675782-5.796875-19.183594-6.5-5.089844-16.398437-5.921875-23.542969-1.980469-6.324218 3.492187-9.480468 10.09375-8.65625 18.113281.84375 8.210938 7.410156 15.25 15.402344 16.972656l-.152344 67.003907c-5.957031-.113281-11.921875-.195313-17.890625-.253907l1.398438-48.113281c.085937-2.96875.289062-9.917969-4.820313-13.40625-2.519531-1.71875-5.40625-1.917969-7.515625-2.066406l-14.007812-.976563.417969-23.871093c7.335937-1.042969 14.066406-6.277344 16.445312-13.363281 1.914062-5.695313.980469-12.015626-2.429688-16.496094-5.578124-7.320313-16.015624-10.183594-24.816406-6.804688-7.785156 2.984375-12.1875 10.105469-11.496094 18.582032.664063 8.117187 6.863282 15.332031 14.628907 17.5625l-.238281 13.550781-48.742188-.292969c-.007812 0-.015625 0-.023438 0-.097656 0-.191406.023438-.289062.03125.628906-5.613281.847656-10.148438-1.316406-13.078125-2.941406-3.988281-8.933594-3.386719-12.902344-2.984375-.757812.074219-1.472656.148438-1.929688.160156l-17.363281.484375c-1.082031.03125-2.097656.515625-2.800781 1.335938-.707031.816406-1.03125 1.894531-.902344 2.96875 1.253906 10.257812 1.257813 20.660156.023438 30.917969-.140625 1.164062.257812 2.328124 1.082031 3.160156.820313.828125 1.980469 1.242187 3.144531 1.113281 9.183594-1.007813 18.4375-.597656 27.5 1.207031.25.046875.5.074219.75.074219.863282 0 1.707032-.292969 2.394532-.839844.882812-.707031 1.414062-1.765625 1.441406-2.894531l.382812-14.0625c.246094.050781.503906.082031.765625.082031l48.652344.292969-.117187 6.671875c-.035157 2.039063 1.535156 3.753906 3.570312 3.894531l17.644531 1.230469c1.300781.089844 2.921875.203125 3.722657.75 1.472656 1.003906 1.546874 4.386719 1.476562 6.84375l-1.40625 48.273437c-9.007812-.050781-18.015625-.027343-27.007812.054688l-.59375-16.441406c7.042968-1.277344 13.40625-6.398438 15.703124-13.246094 1.914063-5.695312.980469-12.015625-2.429687-16.496094-5.578125-7.320312-16.011719-10.183594-24.816406-6.804687-7.785157 2.984375-12.1875 10.105469-11.496094 18.582031.6875 8.378906 7.269531 15.804688 15.386719 17.765625-.007813.121094-.027344.238281-.023438.359375l.59375 16.363281c-3.328125.042969-6.65625.09375-9.976562.15625-2.347656.042969-4.71875.121094-7.0625.3125.40625-4.15625.679687-7.917969-.066406-12.691406-.5625-3.601563-2.941407-7.898437-11.054688-7.898437l-77.089844-.03125.164063-21.25c7.589843-.8125 14.65625-6.148438 17.109375-13.445313 1.910156-5.695313.980468-12.015625-2.433594-16.496094-5.582031-7.320312-16.019531-10.183593-24.820312-6.804687-7.785157 2.984375-12.1875 10.105468-11.496094 18.582031.644531 7.882813 6.511718 14.929687 13.96875 17.367187l-.101563 12.757813c-7.878906-1.230469-15.863281-1.542969-23.808593-.90625-.25-.933594-.578126-1.851563-.992188-2.757813-2.777344-6.066406-8.917969-10.660156-16.03125-11.980468-5.4375-1.011719-10.832031.648437-14.792969 4.546875-4.429687 4.367187-6.433593 10.742187-5.359375 17.050781 1.246094 7.320312 6.8125 13.527344 13.847656 15.449219 1.539063.417969 3.117188.617187 4.695313.617187 6.636719 0 13.261719-3.539062 16.625-9.289062 1.125-1.929688 1.886719-3.933594 2.28125-5.957032 7.835937-.652343 15.714844-.320312 23.476563.988282l-.042969 5.335937c-.007813 1.019531.394531 2.003907 1.113281 2.730469.722656.726562 1.703125 1.136719 2.726562 1.136719l41.878907.015625 1.050781 18.820312c.117188 2.042969 1.808594 3.625 3.828125 3.625.074219 0 .144531-.003906.21875-.007812 2.117187-.117188 3.734375-1.929688 3.617187-4.046875l-1.027343-18.390625 31.386719.011718c3.253906.003907 3.367187.722657 3.476562 1.414063.664062 4.25.324219 7.632813-.105469 11.914063-.027343.253906-.050781.527343-.078125.785156-4.425781 1.082031-8.539062 2.945312-11.96875 6.21875-4.15625 3.96875-6.273437 9.074218-7.335937 14.527344-.003907 0-.007813 0-.011719 0l-49.800781 1.613281c-.15625.003906-.308594.035156-.457031.058593-.683594-3.675781-2.582032-7.132812-5.472657-9.515624-5.445312-4.488282-12.886719-4.722657-18.953125-.59375-6.066406 4.125-8.582031 11.128906-6.410156 17.847656 2.027344 6.265625 8.28125 10.917968 14.867188 11.054687.101562.003907.203124.003907.304687.003907 6.480469 0 12.757813-4.34375 15.015625-10.425782.109375-.292968.195312-.589844.285156-.886718.304688.074218.617188.128906.941406.128906h.125l48.675782-1.578125c-.128906 2.59375-.132813 5.183593-.09375 7.699219l.144531 9.152343-42.652344.03125c-2.121093 0-3.839843 1.722657-3.835937 3.839844s1.71875 3.835937 3.839844 3.835937l42.769531-.03125.222656 14.390626-63.574219 1.085937c.019532-.160156.039063-.316406.054688-.480469.695312-5.996094 1.046875-10.832031-1.21875-13.90625-2.945313-3.988281-8.9375-3.382812-12.90625-2.984375-.757813.074219-1.472656.148438-1.929688.160157l-17.363281.488281c-1.078125.027343-2.09375.511719-2.800781 1.332031-.703125.816406-1.03125 1.894531-.898438 2.964844 1.25 10.261718 1.253906 20.664062.019532 30.921875-.140626 1.164062.257812 2.324219 1.082031 3.160156.824219.832031 1.976562 1.242187 3.144531 1.113281 9.1875-1.003906 18.441406-.601562 27.503906 1.207032.246094.050781.5.074218.75.074218.859375 0 1.707032-.292968 2.394532-.839844.882812-.703124 1.410156-1.761718 1.441406-2.894531l.339844-12.632812 64.082031-1.09375 1.265625 80.84375c-.117188-.015625-.234375-.042969-.359375-.042969l-64.984375-1.113281-.34375-12.632813c-.03125-1.132812-.558594-2.191406-1.441406-2.894531-.886719-.707031-2.035157-.984375-3.144532-.765625-9.0625 1.804688-18.3125 2.210938-27.5 1.207031-1.167968-.128906-2.324218.28125-3.148437 1.113281-.824219.832032-1.222657 1.996094-1.082031 3.160157 1.238281 10.257812 1.230468 20.660156-.019532 30.921875-.128906 1.070312.195313 2.148437.902344 2.96875.703125.816406 1.71875 1.300781 2.796875 1.328125l17.363281.488281c.457032.011719 1.171875.085938 1.929688.160156 1.328125.132813 2.882812.289063 4.472656.289063 3.164062 0 6.472656-.617188 8.433594-3.273438 2.265625-3.074219 1.917968-7.90625 1.222656-13.90625-.019531-.164062-.039062-.320312-.054688-.480469l64.46875 1.101563h.066407c.183593 0 .363281-.027344.542969-.054687l.226562 14.667968c-.402344-.144531-.832031-.238281-1.285156-.238281l-43.441406-.03125s0 0-.003907 0c-2.117187 0-3.835937 1.714844-3.835937 3.835937-.003906 2.117188 1.714844 3.835938 3.832031 3.839844l43.441406.03125h.003907c.496093 0 .964843-.101562 1.402343-.273437l.164063 10.515625c.035156 2.140625.074218 4.542968.285156 7.042968-.472656-.234374-1-.382812-1.566406-.398437l-49.800782-1.613281c-.375-.011719-.726562.039062-1.070312.125-.085938-.296875-.175781-.59375-.285156-.886719-2.289063-6.175781-8.75-10.570313-15.316406-10.417969-6.589844.136719-12.839844 4.789063-14.867188 11.054688-2.175781 6.71875.339844 13.722656 6.40625 17.847656 2.886719 1.964844 6.085938 2.941406 9.230469 2.941406 3.464843 0 6.871093-1.183594 9.722656-3.539062 2.890625-2.378906 4.789063-5.839844 5.472656-9.515625.152344.023437.300781.058593.457031.0625l49.800782 1.609375c.042968.003906.085937.003906.125.003906 1.023437 0 1.953125-.40625 2.644531-1.0625.75 3.175781 1.96875 6.304688 3.996094 9.082031 3.054687 4.183594 7.191406 6.808594 11.917969 8.480469.140624.882812.308593 1.835938.492187 2.882812.835937 4.644532 2.382813 13.292969-.410156 15.152344-.480469.320313-1.894531.320313-2.738281.320313l-31.386719.011719 1.027343-18.390626c.117188-2.117187-1.503906-3.925781-3.617187-4.042968-2.117187-.121094-3.929687 1.5-4.046875 3.617187l-1.050781 18.820313-41.882813.015625c-1.023437 0-2 .410156-2.722656 1.136719-.722656.726562-1.121094 1.710937-1.113281 2.730468l.042969 5.335938c-7.765626 1.308594-15.640626 1.644531-23.476563.988281-.398437-2.023437-1.15625-4.027344-2.285156-5.953125-4.160157-7.125-13.328125-10.851562-21.316407-8.671875-7.035156 1.917969-12.601562 8.125-13.847656 15.445313-1.074218 6.3125.929688 12.683593 5.359375 17.050781 3.199219 3.152343 7.328125 4.835937 11.667969 4.835937 1.035156 0 2.078125-.09375 3.125-.289062 7.113281-1.320313 13.253906-5.910156 16.03125-11.980469.414062-.90625.742188-1.828125.996094-2.757813 2.699218.214844 5.402344.328126 8.105468.328126 5.25 0 10.496094-.429688 15.699219-1.242188l.097657 12.765625c-7.453126 2.4375-13.320313 9.480469-13.964844 17.367187-.691406 8.476563 3.710937 15.597657 11.496094 18.582032 2.480468.953125 5.089843 1.410156 7.6875 1.410156 6.609374 0 13.121093-2.960938 17.128906-8.21875 3.410156-4.476562 4.34375-10.796875 2.429687-16.492188-2.449219-7.300781-9.515625-12.628906-17.105469-13.441406l-.167968-21.257812 77.089844-.027344c1.824218 0 4.578124-.003906 6.988281-1.605469 6.851562-4.558593 5.09375-15.199219 3.792969-22.464843 3.515624.535156 7.179687.785156 10.835937.910156 2.214844.078125 4.433594.132812 6.652344.203125-.003907.011719-.007813.027343-.007813.039062l-.691406 19.15625c-.007812.121094.015625.238281.023438.359375-8.117188 1.960938-14.703126 9.386719-15.386719 17.761719-.695313 8.480469 3.710937 15.601563 11.492187 18.585937 2.484375.953126 5.09375 1.40625 7.6875 1.40625 6.613282 0 13.125-2.957031 17.128906-8.214843 3.414063-4.480469 4.34375-10.800781 2.433594-16.492188-2.300781-6.851562-8.660156-11.964843-15.707031-13.242187l.691406-19.046875c0-.027344-.007812-.050781-.003906-.078125 8.957031.253906 17.925781.453125 26.910156.59375-.019531.175781-.042969.347656-.039062.527344l1.453125 49.886718c.066406 2.457032-.007813 5.835938-1.480469 6.84375-.800781.546875-2.417969.660156-3.722656.75l-17.640625 1.226563c-2.039063.144531-3.605469 1.855469-3.570313 3.898437l.117188 6.667969-48.65625.292969c-.261719.003906-.515625.03125-.761719.082031l-.382812-14.058594c-.03125-1.132812-.558594-2.191406-1.441407-2.898437-.882812-.707032-2.035156-.984375-3.144531-.761719-9.0625 1.804687-18.3125 2.210937-27.5 1.203125-1.167969-.128906-2.324219.285156-3.148438 1.117188-.824218.832031-1.222656 1.996093-1.082031 3.15625 1.238281 10.257812 1.230469 20.664062-.019531 30.921874-.128906 1.070313.195312 2.148438.902344 2.96875.703125.816407 1.71875 1.300782 2.796875 1.332032l17.367187.488281c.453125.011719 1.171875.082031 1.929688.160156 1.328125.132813 2.878906.289063 4.46875.289063 3.164062 0 6.476562-.621094 8.433594-3.277344 2.160156-2.929688 1.941406-7.460938 1.3125-13.074219.101562.007813.191406.027344.292968.027344h.023438l48.742187-.292969.238281 13.554688c-7.765624 2.226562-13.964843 9.445312-14.628906 17.558594-.695312 8.476562 3.710938 15.597656 11.496094 18.585937 2.480469.953125 5.089844 1.40625 7.6875 1.40625 6.609375 0 13.121094-2.957031 17.125-8.214844 3.414062-4.480469 4.34375-10.800781 2.433594-16.492187-2.378906-7.089844-9.105469-12.328125-16.449219-13.371094l-.417969-23.863281 14.011719-.976563c2.105469-.148437 4.996094-.347656 7.515625-2.070312 5.109375-3.488282 4.90625-10.433594 4.820312-13.402344l-1.453124-49.886719c0-.070312-.019532-.136719-.027344-.207031 6.125.078125 12.25.125 18.378906.152344l-1.589844 74.550781c-2.019531.292969-4.023437.632813-5.96875.96875-2.710937.464844-5.273437.90625-7.339844 1.097656-2.097656.195313-3.644531 2.039063-3.472656 4.132813l1.820313 22.339844c.105469 1.277343.320312 3.929687 2.402343 5.769531 1.511719 1.335937 3.324219 1.648437 4.785157 1.648437.839843 0 1.5625-.101562 2.050781-.171875l29.863281-4.210937c2.03125-.289063 3.476563-2.117188 3.285157-4.160156-.113282-1.210938-.152344-2.757813-.191407-4.398438-.195312-7.773438-.457031-18.421875-8.835937-22.101562-3.128906-1.378907-6.824219-1.761719-10.707032-1.648438l1.574219-73.785156c.292969 0 .589844.003906.882813.003906 7.382812 0 14.765625-.042969 22.144531-.121094l.339844 31.777344c-1.519531.464844-3.027344 1.152344-4.496094 2.066406-6.960937 4.335938-11.21875 12.554688-10.351563 19.992188.59375 5.082031 3.195313 9.777344 7.136719 12.886718 3.316407 2.613282 7.523438 3.964844 11.738281 3.964844 2.824219 0 5.65625-.609375 8.226563-1.855468 6.246094-3.027344 10.074219-8.832032 10.507813-15.929688.46875-7.648438-3.304688-15.222656-9.609376-19.292969-1.738281-1.121093-3.582031-1.867187-5.476562-2.25l-.339844-31.449219c7.457032-.101562 14.914063-.234374 22.359375-.414062l-1.40625 48.394531c-.085937 2.96875-.289062 9.917969 4.820313 13.402344 2.519531 1.722656 5.40625 1.921875 7.515625 2.070313l14.011719.976562-.421876 23.863281c-7.339843 1.039063-14.066406 6.28125-16.445312 13.371094-1.914062 5.695313-.980469 12.015625 2.429688 16.492187 4.007812 5.257813 10.515624 8.21875 17.128906 8.21875 2.59375 0 5.207031-.457031 7.6875-1.410156 7.785156-2.984375 12.1875-10.105468 11.496094-18.585937-.664063-8.113281-6.863282-15.332031-14.628907-17.558594l.238281-13.554687 48.742188.292968h.023438c.097656 0 .191406-.019531.289062-.027344-.625 5.613282-.847656 10.144532 1.316406 13.078126 1.957032 2.65625 5.269532 3.273437 8.433594 3.273437 1.589844 0 3.140625-.15625 4.46875-.289063.757812-.074218 1.472656-.148437 1.929688-.160156l17.363281-.488281c1.082031-.027344 2.097656-.511719 2.800781-1.332031.703125-.816406 1.03125-1.894532.902344-2.96875-1.253906-10.257813-1.257813-20.660156-.023438-30.917969.140625-1.164063-.257812-2.328125-1.082031-3.160156-.820313-.832031-1.980469-1.246094-3.144531-1.117188-9.183594 1.007813-18.4375.601563-27.5-1.203125-1.109375-.222656-2.261719.058594-3.144532.761719-.882812.707031-1.414062 1.765625-1.441406 2.898437l-.382812 14.058594c-.246094-.050781-.503906-.078125-.765625-.078125l-48.652344-.292969.117187-6.671874c.035157-2.042969-1.535156-3.753907-3.570312-3.894532l-17.644531-1.230468c-1.300781-.089844-2.921875-.203126-3.722657-.75-1.472656-1.003907-1.546874-4.386719-1.476562-6.839844l1.421875-48.824219c8.992187-.246094 17.972656-.546875 26.941406-.902344l.644531 17.839844c-7.046874 1.28125-13.40625 6.394531-15.703124 13.242187-1.914063 5.695313-.984376 12.015626 2.429687 16.496094 4.003906 5.257813 10.515625 8.214844 17.128906 8.214844 2.59375 0 5.207031-.457031 7.6875-1.40625 7.785157-2.988281 12.1875-10.109375 11.492188-18.585938-.683594-8.378906-7.265625-15.800781-15.386719-17.765624.007812-.117188.03125-.238282.023438-.359376l-.652344-17.988281c3.84375-.167969 7.679687-.339843 11.515625-.527343 1.699219-.082032 3.382812-.1875 5.039062-.34375.0625.296874.125.601562.183594.890624.5 2.382813.925781 4.4375 1.078125 7.035157.03125.542969-.011719 1.339843-.054688 2.1875-.171874 3.304687-.433593 8.300781 3.46875 10.898437 2.410157 1.601563 5.164063 1.605469 6.988282 1.605469l77.089844.027344-.164063 21.257812c-7.597656.8125-14.65625 6.140625-17.109375 13.441407-1.910156 5.695312-.980469 12.015624 2.433594 16.496093 4.003906 5.253907 10.515625 8.214844 17.125 8.214844 2.597656 0 5.207031-.457031 7.691406-1.410156 7.78125-2.984375 12.1875-10.105469 11.492188-18.582031-.644532-7.886719-6.511719-14.929688-13.964844-17.367188l.101562-12.765625c5.199219.808594 10.445313 1.242187 15.695313 1.242187 2.707031 0 5.410156-.117187 8.109375-.332031.253906.933594.578125 1.855469.996094 2.761719 2.777343 6.070312 8.917968 10.660156 16.03125 11.980469 1.046874.191406 2.089843.289062 3.125.289062 4.335937 0 8.46875-1.6875 11.667968-4.835937 4.429688-4.367188 6.433594-10.742188 5.359375-17.054688-1.238281-7.316406-6.804687-13.523437-13.839843-15.441406zm-57.699219-37.828125c1.152343-3.109375 4.488281-5.414063 7.808593-5.414063h.152344c3.367188.070313 6.6875 2.542969 7.726563 5.746094 1.328125 4.117188-.894531 7.417969-3.421875 9.140625-2.527344 1.71875-6.417969 2.578125-9.757813-.175781-2.601562-2.140625-3.679687-6.136719-2.507812-9.296875zm13.519531-38.96875c.171875-1.5.324219-2.796875.351562-3.863281l.359376-13.164063c6.839843 1.035157 13.757812 1.34375 20.664062.925781-.679688 7.949219-.660156 15.957032.058594 23.90625l-13.214844.371094c-.734375.019532-1.585938.105469-2.488281.195313-1.355469.136719-4.863281.492187-5.980469.003906-.546875-1.496094.007812-6.285156.25-8.375zm-.269531-100.78125c1.09375-.5 4.636719-.144531 6-.007813.902343.09375 1.753906.179688 2.488281.199219l13.214844.367188c-.71875 7.949219-.738282 15.957031-.058594 23.910156-6.902344-.421875-13.824219-.113281-20.664062.925781l-.359376-13.164062c-.027343-1.066406-.179687-2.363282-.351562-3.863282-.246094-2.117187-.8125-7-.269531-8.367187zm-10.746094-39.902344c1.546875-1.269531 3.207031-1.769531 4.800781-1.769531 1.847656 0 3.601563.671875 4.960938 1.597656 2.527344 1.71875 4.753906 5.023438 3.421875 9.136719-1.039063 3.207031-4.359375 5.675781-7.726563 5.746094-3.335937.058593-6.792968-2.257813-7.960937-5.414063-1.171875-3.15625-.09375-7.152344 2.503906-9.296875zm39.835937-50.398437c1.726563-3.777344 5.832032-6.769532 10.453126-7.628906.585937-.109376 1.164062-.164063 1.734374-.164063 2.339844 0 4.519532.90625 6.273438 2.632813 2.605469 2.566406 3.824219 6.511718 3.179688 10.292968-.742188 4.363282-4.15625 8.199219-8.300782 9.332032-4.675781 1.273437-10.242187-.984376-12.671875-5.140626-1.8125-3.097656-2.042969-6.324218-.667969-9.324218zm-49.378906-27.382813c-1.097656-3.265625-.601562-6.957031 1.261719-9.398437 2.773437-3.644532 6.980469-5.195313 10.925781-5.195313 1.785156 0 3.511719.320313 5.035156.902344 2.707032 1.039063 7.164063 3.820313 6.59375 10.792969-.449218 5.488281-5.261718 10.492187-10.726562 11.160156s-11.339844-3.042969-13.089844-8.261719zm-110.765625 25.078125c-1.09375-3.265625-.601562-6.953125 1.261719-9.398437 2.777344-3.644531 6.984375-5.195313 10.929688-5.195313 1.785156 0 3.511718.320313 5.035156.902344 2.707031 1.039062 7.160156 3.820312 6.59375 10.792969-.449219 5.488281-5.261719 10.492187-10.730469 11.15625-5.46875.667969-11.335937-3.035157-13.089844-8.257813zm62.085938-51.945312c1.097656-.5 4.636719-.140625 6-.003906.902343.089843 1.753906.175781 2.488281.195312l13.21875.371094c-.722656 7.949218-.742188 15.957031-.0625 23.90625-6.902344-.421875-13.820312-.109375-20.660156.925781l-.359375-13.164063c-.027344-1.066406-.179688-2.363281-.351563-3.863281-.246094-2.117187-.8125-7-.273437-8.367187zm-73.578125-20.152344c-1.097656-3.269531-.601563-6.957031 1.261718-9.402344 2.773438-3.644531 6.980469-5.191406 10.925782-5.191406 1.785156 0 3.515625.316406 5.035156.898438 2.707031 1.039062 7.164062 3.824218 6.59375 10.792968-.449219 5.488282-5.261719 10.496094-10.726562 11.160156-5.46875.664063-11.339844-3.039062-13.089844-8.257812zm-51.332032 65.800781c-.414062.023438-.722656.027344-.953124.019531 0-.097656 0-.183593 0-.246093l.007812-19.417969c.003906-.960938.050781-1.585938.144531-1.867188 2.652344-1.960937 15.605469-1.132812 18.355469 1.222657 1.207031 1.035156 3.09375 5.527343 3.492188 11.277343.285156 4.148438-.421876 6.617188-.9375 7.195313-.605469.6875-2.824219.816406-3.890626.878906zm-32.78125-48.210937h.003907c-.511719-4.949219 1.125-8.617188 4.726562-10.605469 4.421875-2.4375 11.054688-1.867187 15.101563 1.304687 3.304687 2.589844 4.382812 6.441407 3.121094 11.144532-1.398438 5.1875-6.910157 9.058594-12.242188 8.628906-5.355469-.429688-10.160156-5.128906-10.710938-10.472656zm-99.480468 8.792968c-.175782 1.5-.324219 2.796876-.351563 3.867188l-.359375 13.164062c-4.867187-.738281-9.773437-1.109374-14.6875-1.109374-1.992187 0-3.984375.0625-5.976562.183593.679687-7.949219.660156-15.960937-.058594-23.910156l13.214844-.367187c.738281-.023438 1.585937-.109376 2.488281-.199219 1.355469-.136719 4.859375-.492188 5.980469-.003907.546875 1.496094-.007813 6.285157-.25 8.375zm50.03125-31.421874c-.570313-6.96875 3.886718-9.753907 6.597656-10.792969 1.519531-.582031 3.246094-.898438 5.03125-.898438 3.945312 0 8.152344 1.546875 10.929688 5.191407 1.863281 2.445312 2.355468 6.136718 1.261718 9.402343-1.753906 5.21875-7.640625 8.921875-13.09375 8.257813-5.464844-.664063-10.277344-5.671875-10.726562-11.160156zm-11.492188 72.101562c-.570312-6.972656 3.886719-9.753906 6.59375-10.792969 4.882813-1.871093 11.933594-1 15.960938 4.292969 1.863281 2.445312 2.359375 6.136719 1.261718 9.398438-1.753906 5.21875-7.613281 8.925781-13.089843 8.261718-5.464844-.667968-10.277344-5.671875-10.726563-11.160156zm-136.992187 14.527344c-2.429688 4.160156-8 6.414062-12.675781 5.140625-4.140626-1.132813-7.554688-4.96875-8.296876-9.328125-.648437-3.785156.574219-7.730469 3.179688-10.296875 2.179688-2.144531 5.023438-3.019531 8.003906-2.46875 4.625.859375 8.726563 3.851562 10.453125 7.628906 1.375 3.003906 1.144531 6.226563-.664062 9.324219zm26.230469-39.605469c-.570313-6.972656 3.886718-9.753906 6.59375-10.792969 1.519531-.582031 3.25-.898437 5.03125-.898437 3.945312 0 8.152343 1.546875 10.929687 5.191406 1.863281 2.445313 2.359375 6.132813 1.261719 9.398437-1.753906 5.222657-7.621094 8.921876-13.089844 8.261719-5.46875-.667969-10.28125-5.671875-10.726562-11.160156zm16.777343 89.980469c-1.152343 3.109375-4.492187 5.414062-7.8125 5.414062-.046875 0-.097656 0-.148437 0-3.367188-.070312-6.691406-2.542968-7.726563-5.746094-1.332031-4.117187.894531-7.417968 3.421875-9.140624 2.527344-1.71875 6.421875-2.574219 9.757813.175781 2.601562 2.140625 3.679687 6.136719 2.507812 9.296875zm-13.519531 38.96875c-.175781 1.5-.324219 2.796875-.355469 3.863281l-.359375 13.164063c-4.867187-.738282-9.773437-1.105469-14.6875-1.105469-1.988281 0-3.980468.058593-5.972656.179687.679688-7.949218.660156-15.957031-.058594-23.90625l13.214844-.371094c.734375-.019531 1.585938-.105468 2.484375-.195312 1.355469-.136719 4.863281-.492188 5.980469-.007812.546875 1.5-.003906 6.289062-.246094 8.378906zm.269531 105.054687c-1.09375.5-4.636719.140625-6.003906.003907-.898437-.089844-1.75-.175782-2.484375-.195313l-13.214844-.371094c.71875-7.949219.738282-15.957031.058594-23.90625 6.902344.417969 13.820312.109375 20.660156-.929687l.359375 13.167968c.03125 1.066407.179688 2.363282.355469 3.863282.242188 2.117187.808594 7 .269531 8.367187zm10.742188 39.898438c-3.335938 2.75-7.230469 1.894531-9.757813.171875-2.527344-1.71875-4.753906-5.023438-3.421875-9.136719 1.035157-3.207031 4.359375-5.675781 7.726563-5.746094.050781-.003906.097656-.003906.148437-.003906 3.320313 0 6.65625 2.304687 7.808594 5.417969 1.175781 3.160156.097656 7.15625-2.503906 9.296875zm-39.835938 50.402343c-1.726562 3.773438-5.828125 6.769532-10.453125 7.628907-2.980468.550781-5.824218-.324219-8.003906-2.46875-2.605469-2.570313-3.824219-6.515625-3.179688-10.296875.742188-4.363282 4.15625-8.199219 8.296876-9.328125.882812-.242188 1.796874-.355469 2.71875-.355469 3.949218 0 7.984374 2.121094 9.953124 5.492188 1.8125 3.097656 2.042969 6.324218.667969 9.328124zm49.382813 27.378907c1.097656 3.265625.601562 6.957031-1.261719 9.402343-4.03125 5.292969-11.082031 6.164063-15.960937 4.292969-2.707032-1.039062-7.164063-3.824219-6.59375-10.792969.449218-5.488281 5.257812-10.496093 10.726562-11.160156.425781-.050781.855469-.078125 1.285156-.078125 5.070313 0 10.1875 3.523438 11.804688 8.335938zm110.761718-25.078125c1.097657 3.265625.601563 6.957031-1.261718 9.402344-4.03125 5.289062-11.082032 6.164062-15.960938 4.292968-2.707031-1.039062-7.164062-3.824218-6.59375-10.792968.449219-5.488282 5.261719-10.496094 10.726563-11.160157 5.464843-.667969 11.335937 3.039063 13.089843 8.257813zm-62.085937 51.949218c-1.09375.5-4.636719.140626-6 .003907-.902344-.089844-1.753906-.175781-2.488281-.199219l-13.214844-.371094c.71875-7.945312.738281-15.957031.058594-23.90625 6.902344.425782 13.820312.113282 20.660156-.925781l.359375 13.167969c.03125 1.066406.179687 2.359375.355469 3.863281.242187 2.113281.808594 6.996094.269531 8.367187zm73.582031 20.152344c1.09375 3.265625.601563 6.953125-1.261718 9.398438-4.03125 5.292968-11.082032 6.167968-15.960938 4.292968-2.710938-1.039062-7.167969-3.820312-6.597656-10.792968.449218-5.488282 5.261718-10.492188 10.726562-11.160156.429688-.050782.859375-.074219 1.289063-.074219 5.070312 0 10.1875 3.523437 11.804687 8.335937zm47.375-23.578125c3.914063 1.71875 4.109375 9.550781 4.25 15.269531.011719.421876.019532.84375.03125 1.253907l-26.386718 3.726562c-.1875.023438-.347657.042969-.484376.058594-.011718-.097656-.019531-.207031-.03125-.328125l-1.523437-18.691406c1.332031-.207032 2.730469-.445313 4.164063-.691406 6.835937-1.175782 15.339843-2.636719 19.980468-.597657zm32.421875-30.140625c-.152343 2.5-1.160156 7.054688-6.195312 9.492188-3.753907 1.824218-8.632813 1.316406-11.867188-1.234375-2.3125-1.824219-3.910156-4.722657-4.261719-7.746094-.519531-4.445313 2.398438-9.855469 6.785157-12.585937 2.296875-1.429688 5.800781-2.644532 9.425781-.304688 4.015625 2.59375 6.414062 7.453125 6.113281 12.378906zm103.796875 23.0625c.171875-1.5.324219-2.796875.351563-3.867187l.359375-13.164063c6.839844 1.039063 13.757812 1.347656 20.660156.925782-.679688 7.949218-.660156 15.960937.0625 23.910156l-13.21875.371094c-.734375.019531-1.585938.105468-2.484375.195312-1.355469.136719-4.863281.488281-5.980469.003906-.546875-1.496094.007813-6.285156.25-8.375zm-50.035156 31.421875c.570312 6.96875-3.886719 9.753907-6.59375 10.792969-4.878906 1.875-11.929688 1-15.960938-4.292969-1.863281-2.445312-2.359374-6.132812-1.261718-9.402343 1.613281-4.808594 6.730468-8.335938 11.804687-8.335938.429688 0 .859375.027344 1.285157.078125 5.464843.664063 10.277343 5.671875 10.726562 11.160156zm11.496094-72.101562c.570312 6.96875-3.886719 9.753906-6.59375 10.792969-4.882813 1.871093-11.933594.996093-15.960938-4.292969-1.863281-2.445313-2.359375-6.136719-1.265625-9.402344 1.617188-4.8125 6.734375-8.335937 11.804688-8.335937.429687 0 .859375.023437 1.285156.078124 5.46875.667969 10.28125 5.671876 10.730469 11.160157zm2.773437-44.933594c-60.066406 2.929687-121 3.347656-181.105469 1.25-10.105468-.351563-20.121093-1.589844-24.949218-8.207031-3.289063-4.511719-3.648438-10.789063-3.761719-17.933594l-2.503906-159.660156c-.144531-9.265625.195312-18.765625 5.949219-24.257813 5.117187-4.894531 13.53125-5.453125 21.707031-5.609375 30.398437-.574218 61.199219-.378906 91.546875.574219 27.34375.855469 55.027344 2.351563 82.277344 4.445313 1.75.132812 3.566406.210937 5.488281.289062 6.6875.28125 14.261719.597656 19.1875 3.632812 5.207031 3.210938 5.863281 9.742188 6.558593 16.664063.066407.671875.136719 1.339844.207032 2 5.8125 53.832031 6.753906 108.472656 2.800781 162.40625-.550781 7.539063-1.589844 15.949219-6.9375 20.28125-4.039063 3.269531-9.847656 3.804687-16.464844 4.125zm107.988281 70.011719c.570313 6.972656-3.886718 9.753906-6.59375 10.792968-4.878906 1.871094-11.929687 1-15.960937-4.292968-1.863281-2.445313-2.359375-6.132813-1.261719-9.398438 1.613282-4.8125 6.730469-8.335937 11.804688-8.335937.425781 0 .859375.023437 1.285156.074219 5.464844.664062 10.277344 5.671874 10.726562 11.160156zm44.023438-25.121094c-2.179688 2.144531-5.023438 3.023438-8.007812 2.46875-4.621094-.859375-8.726563-3.855469-10.453126-7.628906-1.375-3.003906-1.144531-6.230469.667969-9.328125 1.96875-3.371094 6.003907-5.492188 9.957031-5.492188.917969 0 1.832032.113281 2.714844.355469 4.144532 1.128906 7.554688 4.964844 8.300782 9.328125.644531 3.785156-.574219 7.730469-3.179688 10.296875zm0 0" fill="#231f20"/><path d="m346.113281 203.652344c-1.570312-1.714844-3.21875-3.335938-4.816406-4.90625-2.546875-2.503906-4.953125-4.867188-6.972656-7.511719-2.066407-2.714844-3.742188-5.742187-5.511719-8.949219-1.917969-3.46875-3.902344-7.058594-6.484375-10.34375-11.484375-14.625-33.386719-19.328125-49.859375-10.703125-7.398438 3.871094-13.546875 10.453125-17.308594 18.527344-.226562.496094-.425781.996094-.636718 1.496094-.207032-.5-.40625-1-.636719-1.496094-3.757813-8.074219-9.90625-14.65625-17.304688-18.527344-16.472656-8.621093-38.375-3.921875-49.859375 10.703125-2.582031 3.285156-4.566406 6.875-6.484375 10.34375-1.769531 3.207032-3.445312 6.234375-5.511719 8.949219-2.019531 2.644531-4.421874 5.007813-6.972656 7.511719-1.597656 1.566406-3.246094 3.1875-4.816406 4.90625-5.453125 5.96875-8.339844 11.707031-8.820312 17.535156-.675782 8.136719 3.285156 14.898438 7.117187 21.441406 2.816406 4.808594 5.476563 9.355469 6.1875 14.164063.457031 3.105469.105469 6.40625-.269531 9.902343-.476563 4.492188-.972656 9.132813.1875 13.882813 1.96875 8.050781 7.824218 13.511719 13.488281 18.796875 2.183594 2.035156 4.246094 3.960938 6.074219 6.007812 1.742187 1.953126 3.332031 4.101563 5.011718 6.371094 3.742188 5.058594 7.609376 10.285156 13.488282 13.59375 3.828125 2.152344 8.296875 3.222656 12.894531 3.222656 5.171875 0 10.496094-1.355468 15.238281-4.046874 9.558594-5.421876 14.890625-14.441407 17.679688-21.054688 1.398437-3.324219 2.46875-6.75 3.308594-10.160156.84375 3.410156 1.910156 6.839844 3.3125 10.160156 2.789062 6.609375 8.117187 15.632812 17.679687 21.054688 4.742187 2.691406 10.066406 4.046874 15.238281 4.046874 4.59375 0 9.066406-1.070312 12.894532-3.222656 5.875-3.308594 9.746093-8.535156 13.488281-13.59375 1.679687-2.273437 3.265625-4.417968 5.011719-6.371094 1.824218-2.046874 3.886718-3.972656 6.070312-6.007812 5.664062-5.285156 11.519531-10.746094 13.488281-18.792969 1.164063-4.753906.667969-9.394531.1875-13.882812-.371093-3.5-.722656-6.800781-.265625-9.90625.707032-4.808594 3.371094-9.351563 6.183594-14.164063 3.832031-6.542968 7.792969-13.304687 7.121094-21.441406-.480469-5.828125-3.367188-11.566406-8.820313-17.535156zm-101.96875 96.832031c-3.289062 7.796875-8.402343 13.964844-14.398437 17.367187-6.554688 3.71875-14.480469 4.074219-20.304688.949219 10.191406-4.371093 18.644532-12.707031 23.027344-22.910156.835938-1.945313-.066406-4.203125-2.011719-5.039063-1.949219-.839843-4.203125.0625-5.042969 2.011719-4.03125 9.390625-12.242187 16.871094-21.96875 20.011719-.238281.078125-.464843.179688-.675781.296875-1.609375-1.84375-3.132812-3.882813-4.6875-5.984375-1.707031-2.308594-3.476562-4.699219-5.453125-6.914062-2.058594-2.3125-4.351562-4.445313-6.566406-6.511719-5.058594-4.722657-9.84375-9.183594-11.265625-15.007813-.535156-2.179687-.566406-4.496094-.410156-6.917968 1.464843.140624 2.933593.214843 4.398437.214843 11.640625 0 23.128906-4.324219 31.828125-12.210937 10.628907-9.632813 16.386719-23.929688 15.390625-38.246094-.148437-2.113281-1.96875-3.71875-4.09375-3.5625-2.113281.148438-3.710937 1.980469-3.5625 4.09375.820313 11.808594-4.117187 24.082031-12.890625 32.027344-8.074219 7.320312-19.480469 11.03125-30.34375 10.035156.234375-2.773438.328125-5.613281-.097656-8.511719-.925781-6.285156-4.09375-11.695312-7.15625-16.925781-3.378906-5.765625-6.566406-11.210938-6.09375-16.929688.335937-4.074218 2.574219-8.320312 6.839844-12.992187 1.425781-1.5625 2.933593-3.042969 4.527343-4.605469.640626-.632812 1.289063-1.269531 1.9375-1.914062.183594.035156.371094.078125.566407.089844 6.425781.382812 12.636719 3.953124 16.203125 9.316406 3.566406 5.363281 4.457031 12.46875 2.328125 18.546875-.703125 2 .347656 4.1875 2.351562 4.890625.417969.144531.847657.214844 1.265625.214844 1.585938 0 3.070313-.988282 3.621094-2.566407 2.914062-8.300781 1.695312-18.011719-3.179688-25.335937-3.933593-5.917969-10.226562-10.234375-17.128906-11.953125 2.277344-3.058594 4.101563-6.335938 5.855469-9.511719 1.855469-3.351562 3.605469-6.519531 5.804687-9.316406 2.636719-3.363282 6.023438-6.070313 9.824219-8.066406-1.628906 6.574218-.941406 13.707031 2.023438 19.8125 3.628906 7.472656 10.582031 13.21875 18.605469 15.378906.332031.089844.667968.132812 1 .132812 1.691406 0 3.242187-1.128906 3.699218-2.84375.554688-2.046875-.660156-4.152344-2.707031-4.703125-5.902344-1.585937-11.023437-5.820312-13.695313-11.320312-2.667968-5.5-2.828124-12.136719-.429687-17.761719.261719-.609375.335937-1.246094.277344-1.863281 2.421875-.527344 4.902343-.792969 7.371093-.792969 4.972657 0 9.914063 1.089844 14.292969 3.378906 5.914063 3.097656 10.855469 8.414063 13.910157 14.96875 2.683593 5.769532 3.722656 12.011719 3.007812 18.058594-.902344 7.578125-.449219 13.898438.292969 22.007812.171875 1.890626.3125 3.785157.441406 5.683594-.597656 8.902344-.742187 17.84375-.449219 26.761719-7.523437-.839844-15.28125.542969-22.035156 3.960937-7.261719 3.675782-13.320312 9.679688-17.058594 16.90625-.976562 1.882813-.238281 4.199219 1.640625 5.175782.566407.289062 1.167969.429687 1.761719.429687 1.390625 0 2.730469-.757812 3.410156-2.074219 3.007813-5.808593 7.878906-10.636718 13.710938-13.589843 5.796875-2.929688 12.515625-4 18.929687-3.019531.027344.457031.058594.910156.089844 1.367187-.277344 4.050781-.640625 8.089844-1.109375 12.113281-.859375 7.402344-2.175781 16.007813-5.417969 23.699219zm97.046875-61.734375c-3.0625 5.230469-6.226562 10.640625-7.15625 16.925781-.601562 4.066407-.179687 8.015625.230469 11.835938.09375.890625.1875 1.765625.265625 2.632812-9.796875-6.664062-22.714844-8.910156-34.058594-5.511719-2.03125.609376-3.183594 2.75-2.574218 4.78125.609374 2.03125 2.75 3.179688 4.777343 2.574219 10.742188-3.222656 23.238281-.171875 31.351563 7.566407-1.648438 5.433593-6.214844 9.703124-11.042969 14.207031-2.214844 2.066406-4.503906 4.199219-6.5625 6.511719-1.980469 2.214843-3.746094 4.605468-5.457031 6.914062-3.410156 4.613281-6.636719 8.96875-11.082032 11.46875-5.84375 3.289062-13.921874 2.972656-20.582031-.804688-1.402343-.796874-2.753906-1.75-4.046875-2.832031 4.0625-11.460937 14.824219-20.152343 26.890625-21.667969 2.105469-.265624 3.59375-2.183593 3.332031-4.285156-.265624-2.101562-2.1875-3.601562-4.285156-3.328125-13.574218 1.703125-25.792968 10.773438-31.644531 23.070313-1.785156-2.480469-3.351563-5.273438-4.636719-8.324219-1.976562-4.6875-3.234375-9.710937-4.113281-14.601563 1.179687.183594 2.375.28125 3.570313.28125 4.710937 0 9.433593-1.40625 13.242187-4.144531 6.574219-4.722656 10.261719-13.289062 9.167969-21.3125-.285156-2.101562-2.226563-3.570312-4.320313-3.285156-2.101562.285156-3.570312 2.21875-3.285156 4.320313.71875 5.285156-1.707031 10.929687-6.042969 14.046874-3.832031 2.75-9.0625 3.457032-13.53125 1.945313-.035156-.3125-.078125-.636719-.117187-.949219-.46875-4.023437-.828125-8.0625-1.105469-12.113281.699219-10.480469.773438-21.019531.242188-31.523437 3.148437 1.183593 6.496093 1.785156 9.847656 1.785156 4.335937 0 8.679687-1 12.589844-3.03125 8.816406-4.578125 14.621093-13.953125 14.785156-23.886719.039062-2.121094-1.652344-3.867187-3.773438-3.902344-2.09375-.03125-3.863281 1.65625-3.898437 3.773438-.117188 7.042969-4.398438 13.957031-10.648438 17.203125-5.78125 3-13.144531 2.8125-18.832031-.355469.046875-.554687.078125-1.113281.128906-1.667969.738282-8.105468 1.195313-14.425781.296875-22.003906-.71875-6.046875.320313-12.292969 3.003907-18.058594 2.4375-5.230468 6.085937-9.648437 10.460937-12.804687-2.972656 9.113281-2.015625 19.492187 2.847656 27.792969.714844 1.21875 1.996094 1.894531 3.316407 1.894531.65625 0 1.324218-.167969 1.9375-.523438 1.828124-1.074219 2.441406-3.425781 1.371093-5.253906-4.542969-7.746094-4.691406-17.839844-.382812-25.714844.464843-.847656.558593-1.789062.363281-2.664062 2.691406-.714844 5.484375-1.074219 8.289062-1.074219 7.660157 0 15.394532 2.59375 21.316407 7.351562-5.527344 7.4375-8.332031 16.609376-7.902344 25.871094.09375 2.054688 1.792969 3.660156 3.832031 3.660156.058594 0 .121094-.003906.179688-.003906 2.117187-.101562 3.753906-1.898437 3.65625-4.011718-.324219-6.941407 1.714844-14.082032 5.617187-19.84375 1.859375 2.550781 3.4375 5.355468 5.074219 8.320312 1.828125 3.308594 3.71875 6.726562 6.128906 9.886719 1.179688 1.550781 2.453125 2.992187 3.761719 4.375-.457031.5625-.765625 1.257812-.84375 2.03125-.929687 9.207031-5.40625 18.042969-12.28125 24.242187-6.855469 6.175782-16.066406 9.714844-25.292969 9.714844-.035156 0-.074218.003906-.097656 0-2.117188 0-3.832031 1.714844-3.835938 3.828125-.007812 2.121094 1.707032 3.84375 3.828126 3.847656h.101562c11.101562 0 22.191406-4.257812 30.433594-11.691406 7.398437-6.671875 12.480468-15.882813 14.273437-25.679687.746094.753906 1.46875 1.503906 2.175781 2.273437 4.265626 4.671875 6.503907 8.921875 6.839844 12.992187.472656 5.71875-2.714844 11.164063-6.09375 16.929688zm0 0" fill="#231f20"/></svg>