<?xml version="1.0" encoding="iso-8859-1"?>
<!-- Generator: Adobe Illustrator 19.0.0, SVG Export Plug-In . SVG Version: 6.00 Build 0)  -->
<svg version="1.1" id="Capa_1" xmlns="http://www.w3.org/2000/svg" xmlns:xlink="http://www.w3.org/1999/xlink" x="0px" y="0px"
	 viewBox="0 0 512 512" style="enable-background:new 0 0 512 512;" xml:space="preserve">
<polygon style="fill:#BABABA;" points="329.888,471.344 182.113,471.344 196.673,392.509 315.327,392.509 "/>
<polygon style="fill:#A5A7AA;" points="196.673,392.509 182.113,471.344 203.643,471.344 218.202,392.509 "/>
<path style="fill:#E5E5E5;" d="M476.33,395.031H35.67C16.001,395.031,0,379.03,0,359.361V45.367c0-19.669,16.001-35.67,35.67-35.67
	h440.66c19.669,0,35.67,16.001,35.67,35.669V359.36C512,379.03,495.999,395.031,476.33,395.031z"/>
<path style="fill:#D8D6D6;" d="M20.605,359.361V45.367c0-19.668,16.001-35.669,35.67-35.669H35.67C16.001,9.697,0,25.698,0,45.367
	v313.994c0,19.669,16.001,35.67,35.67,35.67h20.605C36.606,395.031,20.605,379.03,20.605,359.361z"/>
<path style="fill:#E5E5E5;" d="M368.107,485.794c0-9.117-7.393-16.51-16.51-16.51H160.404c-9.118,0-16.509,7.393-16.509,16.51
	c0,9.116,7.391,16.509,16.509,16.509h191.194C360.715,502.303,368.107,494.91,368.107,485.794z"/>
<path style="fill:#D8D6D6;" d="M351.597,485.794H160.404c-6.108,0-11.427-3.325-14.283-8.255c-6.37,11,1.6,24.764,14.283,24.764
	h191.194c12.686,0,20.654-13.769,14.283-24.764C363.024,482.469,357.704,485.794,351.597,485.794z"/>
<circle style="fill:#BABABA;" cx="256" cy="368.28" r="10.737"/>
<path style="fill:#A5A7AA;" d="M261.369,358.989c-1.581-0.916-3.411-1.448-5.369-1.448c-5.93,0-10.737,4.807-10.737,10.737
	c0,8.261,8.962,13.428,16.106,9.29C254.211,373.422,254.222,363.128,261.369,358.989z"/>
<path style="fill:#F5F5F5;" d="M475.603,325.511c0,9.648-7.821,17.471-17.472,17.471H53.87c-9.649,0-17.471-7.822-17.471-17.471
	V63.566c0-9.65,7.822-17.471,17.471-17.471h404.262c9.651,0,17.472,7.821,17.472,17.471v261.945H475.603z"/>
<path style="fill:#EEEDF2;" d="M57.004,325.511V63.566c0-9.65,7.822-17.471,17.471-17.471H53.87
	c-9.649,0-17.471,7.821-17.471,17.471v261.945c0,9.648,7.822,17.471,17.471,17.471h20.605
	C64.826,342.982,57.004,335.159,57.004,325.511z"/>
<path style="fill:#4A94CC;" d="M458.131,46.095H53.87c-9.649,0-17.471,7.821-17.471,17.471v23.537h439.204V63.566
	C475.603,53.916,467.782,46.095,458.131,46.095z"/>
<path style="fill:#EA473B;" d="M53.87,46.095c-9.649,0-17.471,7.821-17.471,17.471v23.537h44.77V46.095H53.87z"/>
<path style="fill:#D63322;" d="M57.004,63.566c0-9.65,7.822-17.471,17.471-17.471H53.87c-9.649,0-17.471,7.821-17.471,17.471v23.537
	h20.605C57.004,87.103,57.004,63.566,57.004,63.566z"/>
<path style="fill:#5CCC2E;" d="M191.21,187.932c0,4.783-3.878,8.66-8.661,8.66H143.09c-4.784,0-8.662-3.877-8.662-8.66v-39.46
	c0-4.784,3.878-8.663,8.662-8.663h39.459c4.784,0,8.661,3.879,8.661,8.663V187.932z"/>
<path style="fill:#3BBC56;" d="M284.392,187.932c0,4.783-3.878,8.66-8.661,8.66H236.27c-4.783,0-8.661-3.877-8.661-8.66v-39.46
	c0-4.784,3.878-8.663,8.661-8.663h39.461c4.783,0,8.661,3.879,8.661,8.663L284.392,187.932L284.392,187.932z"/>
<path style="fill:#FFA92C;" d="M191.21,279.559c0,4.786-3.878,8.664-8.661,8.664H143.09c-4.784,0-8.662-3.878-8.662-8.664V240.1
	c0-4.783,3.878-8.662,8.662-8.662h39.459c4.784,0,8.661,3.879,8.661,8.662V279.559z"/>
<path style="fill:#EA473B;" d="M284.392,279.559c0,4.786-3.878,8.664-8.661,8.664H236.27c-4.783,0-8.661-3.878-8.661-8.664V240.1
	c0-4.783,3.878-8.662,8.661-8.662h39.461c4.783,0,8.661,3.879,8.661,8.662L284.392,279.559L284.392,279.559z"/>
<path style="fill:#6EDCF9;" d="M377.573,187.932c0,4.783-3.878,8.66-8.661,8.66h-39.461c-4.783,0-8.661-3.877-8.661-8.66v-39.46
	c0-4.784,3.878-8.663,8.661-8.663h39.461c4.783,0,8.661,3.879,8.661,8.663V187.932z"/>
<path style="fill:#4A94CC;" d="M377.573,279.559c0,4.786-3.878,8.664-8.661,8.664h-39.461c-4.783,0-8.661-3.878-8.661-8.664V240.1
	c0-4.783,3.878-8.662,8.661-8.662h39.461c4.783,0,8.661,3.879,8.661,8.662V279.559z"/>
<path style="fill:#54BF22;" d="M155.032,187.932v-39.46c0-4.784,3.878-8.663,8.662-8.663h-20.605c-4.784,0-8.662,3.879-8.662,8.663
	v39.46c0,4.783,3.878,8.66,8.662,8.66h20.605C158.91,196.593,155.032,192.715,155.032,187.932z"/>
<path style="fill:#26A53B;" d="M248.214,187.932v-39.46c0-4.784,3.878-8.663,8.661-8.663H236.27c-4.783,0-8.661,3.879-8.661,8.663
	v39.46c0,4.783,3.878,8.66,8.661,8.66h20.605C252.092,196.593,248.214,192.715,248.214,187.932z"/>
<path style="fill:#FC8F1A;" d="M155.032,279.559V240.1c0-4.783,3.878-8.662,8.662-8.662h-20.605c-4.784,0-8.662,3.879-8.662,8.662
	v39.459c0,4.786,3.878,8.664,8.662,8.664h20.605C158.91,288.222,155.032,284.345,155.032,279.559z"/>
<path style="fill:#D63322;" d="M248.214,279.559V240.1c0-4.783,3.878-8.662,8.661-8.662H236.27c-4.783,0-8.661,3.879-8.661,8.662
	v39.459c0,4.786,3.878,8.664,8.661,8.664h20.605C252.092,288.222,248.214,284.345,248.214,279.559z"/>
<path style="fill:#3AC4DB;" d="M341.395,187.932v-39.46c0-4.784,3.878-8.663,8.661-8.663h-20.605c-4.783,0-8.661,3.879-8.661,8.663
	v39.46c0,4.783,3.878,8.66,8.661,8.66h20.605C345.273,196.593,341.395,192.715,341.395,187.932z"/>
<path style="fill:#3585B7;" d="M341.395,279.559V240.1c0-4.783,3.878-8.662,8.661-8.662h-20.605c-4.783,0-8.661,3.879-8.661,8.662
	v39.459c0,4.786,3.878,8.664,8.661,8.664h20.605C345.273,288.222,341.395,284.345,341.395,279.559z"/>
<g>
</g>
<g>
</g>
<g>
</g>
<g>
</g>
<g>
</g>
<g>
</g>
<g>
</g>
<g>
</g>
<g>
</g>
<g>
</g>
<g>
</g>
<g>
</g>
<g>
</g>
<g>
</g>
<g>
</g>
</svg>
