<svg height="496pt" viewBox="0 0 496 496" width="496pt" xmlns="http://www.w3.org/2000/svg"><path d="m317.28125 56h-138.5625l-69.285156 120 69.285156 120h138.5625l69.285156-120zm0 0" fill="#acabb1"/><path d="m336 176c0 48.601562-39.398438 88-88 88s-88-39.398438-88-88 39.398438-88 88-88 88 39.398438 88 88zm0 0" fill="#3e3d42"/><path d="m264 360 104-24v-40h-240v40l104 24" fill="#57565c"/><path d="m232 8h32v48h-32zm0 0" fill="#d80027"/><path d="m8 464h88v24h-88zm0 0" fill="#acabb1"/><path d="m208 464h80v24h-80zm0 0" fill="#acabb1"/><path d="m408 464h80v24h-80zm0 0" fill="#acabb1"/><path d="m312 176c0 35.347656-28.652344 64-64 64s-64-28.652344-64-64 28.652344-64 64-64 64 28.652344 64 64zm0 0" fill="#1a6fb0"/><path d="m277.230469 203.304688c-3.671875 3.933593-8.101563 7.089843-13.023438 9.28125" fill="#acabb1"/><path d="m64 384h-40l16 80h24zm0 0" fill="#57565c"/><path d="m128 336v-40l-104 88h40zm0 0" fill="#acabb1"/><path d="m432 384h40l-16 80h-24zm0 0" fill="#57565c"/><path d="m368 336v-40l104 88h-40zm0 0" fill="#acabb1"/><path d="m232 328h32v56h-32zm0 0" fill="#acabb1"/><path d="m232 384h32v80h-32zm0 0" fill="#57565c"/><g fill="#231f20"><path d="m488 456h-22.238281l14.078125-70.398438c.007812-.144531.007812-.285156 0-.425781.15625-.957031.132812-1.9375-.0625-2.886719 0-.082031 0-.160156 0-.234374-.277344-1-.746094-1.9375-1.378906-2.757813-.078126-.097656-.085938-.234375-.175782-.335937-.085937-.105469-.261718-.175782-.375-.296876-.199218-.257812-.414062-.507812-.640625-.742187l-104-88c-.605469-.503906-1.277343-.914063-2-1.226563-.101562 0-.214843-.046874-.320312-.085937-.789063-.296875-1.621094-.464844-2.460938-.496094-.136719 0-.25-.082031-.386719-.082031h-36.902343l62.359375-108c1.429687-2.472656 1.429687-5.523438 0-8l-69.289063-120c-1.417969-2.488281-4.0625-4.023438-6.925781-4.03125h-45.28125v-40c0-4.417969-3.582031-8-8-8h-32c-4.417969 0-8 3.582031-8 8v40h-45.28125c-2.855469 0-5.496094 1.523438-6.925781 4l-69.289063 120c-1.429687 2.476562-1.429687 5.523438 0 8l62.398438 108h-36.902344c-.136719 0-.238281.070312-.375.070312-.859375.035157-1.703125.207032-2.503906.515626-.097656.019531-.1875.046874-.28125.078124-.726563.308594-1.402344.71875-2.007813 1.222657l-104 88c-.226562.238281-.441406.488281-.640625.746093-.113281.121094-.269531.167969-.375.296876-.105468.125-.097656.238281-.175781.335937-.632813.820313-1.101563 1.757813-1.375 2.757813v.234374c-.199219.949219-.222656 1.925782-.066406 2.886719-.007813.140625-.007813.28125 0 .421875l14.039062 70.433594h-22.238281c-4.417969 0-8 3.582031-8 8v24c0 4.417969 3.582031 8 8 8h88c4.417969 0 8-3.582031 8-8v-24c0-4.417969-3.582031-8-8-8h-24v-68l57.816406-43.367188 94.183594 21.765626v89.601562h-16c-4.417969 0-8 3.582031-8 8v24c0 4.417969 3.582031 8 8 8h80c4.417969 0 8-3.582031 8-8v-24c0-4.417969-3.582031-8-8-8h-16v-89.601562l94.183594-21.734376 57.816406 43.335938v68h-16c-4.417969 0-8 3.582031-8 8v24c0 4.417969 3.582031 8 8 8h80c4.417969 0 8-3.582031 8-8v-24c0-4.417969-3.582031-8-8-8zm-248-440h16v32h-16zm-121.328125 160 64.664063-112h129.328124l64.664063 112-64.664063 112h-129.328124zm1.328125 137.246094v18.753906l-58.664062 44h-15.503907zm-32 166.753906h-72v-8h72zm-41.449219-24-12.796875-64h22.246094v64zm209.449219-80h-16v-40h16zm24 104h-64v-8h64zm-40-24v-64h16v64zm24-136h-32c-4.417969 0-8 3.582031-8 8v21.945312l-88-20.34375v-25.601562h224v25.601562l-88 20.34375v-21.945312c0-4.417969-3.582031-8-8-8zm112-6.753906 74.167969 62.753906h-15.503907l-58.664062-44zm64 78.753906h22.238281l-12.796875 64h-9.441406zm40 88h-64v-8h64zm0 0"/><path d="m248 104c-39.765625 0-72 32.234375-72 72s32.234375 72 72 72 72-32.234375 72-72c-.042969-39.746094-32.253906-71.957031-72-72zm0 128c-30.929688 0-56-25.070312-56-56s25.070312-56 56-56 56 25.070312 56 56c-.039062 30.910156-25.089844 55.960938-56 56zm0 0"/><path d="m344 176c0-53.019531-42.980469-96-96-96s-96 42.980469-96 96 42.980469 96 96 96c52.996094-.058594 95.941406-43.003906 96-96zm-96 80c-44.183594 0-80-35.816406-80-80s35.816406-80 80-80 80 35.816406 80 80c-.046875 44.164062-35.835938 79.953125-80 80zm0 0"/><path d="m271.390625 197.839844c-2.929687 3.152344-6.464844 5.675781-10.398437 7.425781-3.453126 1.53125-5.363282 5.273437-4.582032 8.96875.785156 3.699219 4.050782 6.34375 7.828125 6.339844 1.105469-.003907 2.195313-.238281 3.203125-.6875 5.90625-2.613281 11.222656-6.394531 15.628906-11.117188 3.019532-3.230469 2.847657-8.292969-.378906-11.308593-3.226562-3.019532-8.289062-2.847657-11.308594.378906zm0 0"/><path d="m248 128c-4.417969 0-8 3.582031-8 8s3.582031 8 8 8c17.671875 0 32 14.328125 32 32 0 4.417969 3.582031 8 8 8s8-3.582031 8-8c-.027344-26.5-21.5-47.972656-48-48zm0 0"/></g></svg>