<svg height="512pt" viewBox="0 0 512 512" width="512pt" xmlns="http://www.w3.org/2000/svg"><path d="m210.296875 35.507812-210.296875 24.746094v180.140625h210.296875zm0 0" fill="#fd982c"/><path d="m240.296875 480.023438 271.703125 31.976562v-241.824219h-271.703125zm0 0" fill="#fdbf00"/><path d="m512 240.394531v-240.394531l-271.703125 31.976562v208.417969zm0 0" fill="#9bdd39"/><path d="m0 270.175781v181.570313l210.296875 24.746094v-206.316407zm0 0" fill="#00d7df"/><path d="m103 48.132812v192.261719h107.296875v-204.886719zm0 0" fill="#fa502e"/><path d="m373 270.175781v225.464844l139 16.359375v-241.824219zm0 0" fill="#ff9100"/><path d="m373 16.359375v224.035156h139v-240.394531zm0 0" fill="#93bf00"/><path d="m103 270.175781v193.691407l107.296875 12.625v-206.316407zm0 0" fill="#00aadf"/></svg>