<?xml version="1.0" encoding="utf-8"?>
<!-- Generator: Adobe Illustrator 22.0.1, SVG Export Plug-In . SVG Version: 6.00 Build 0)  -->
<svg version="1.1" id="Ebene_1" xmlns="http://www.w3.org/2000/svg" xmlns:xlink="http://www.w3.org/1999/xlink" x="0px" y="0px"
	 viewBox="0 0 500 500" style="enable-background:new 0 0 500 500;" xml:space="preserve">
<style type="text/css">
	.st0{fill:#FFFFFF;}
	.st1{fill:none;stroke:#860532;stroke-width:2;stroke-linecap:round;stroke-miterlimit:10;stroke-dasharray:2,6;}
	.st2{fill:none;stroke:#8D6822;stroke-width:2;stroke-linecap:round;stroke-miterlimit:10;stroke-dasharray:4,8;}
	.st3{fill:none;stroke:#4C366B;stroke-width:2;stroke-linecap:round;stroke-miterlimit:10;stroke-dasharray:6,4;}
	.st4{fill:#1A171B;}
	.st5{fill:#F17022;}
	.st6{fill:#E5352D;}
	.st7{fill:none;stroke:#8D6822;stroke-width:8;stroke-linecap:round;stroke-linejoin:round;stroke-miterlimit:10;}
	.st8{fill:none;stroke:#006089;stroke-width:8;stroke-linecap:round;stroke-linejoin:round;stroke-miterlimit:10;}
	.st9{fill:none;stroke:#5B7712;stroke-width:8;stroke-linecap:round;stroke-linejoin:round;stroke-miterlimit:10;}
	.st10{fill:#F8B334;}
	.st11{fill:#009EE0;}
	.st12{fill:#97BF0D;}
	.st13{fill:#6F539A;}
</style>
<path class="st0" d="M455.8,130c-20.1-34.8-55-58.4-99.4-67.7c-30.3-33.8-68.2-52.2-108.3-52.2c-40.2,0-78.1,18.4-108.3,52.2
	C95.3,71.6,60.4,95.3,40.3,130c-20.1,34.8-23.1,76.8-8.9,120c-14.2,43.1-11.2,85.2,8.9,120c20.1,34.8,55,58.4,99.4,67.7
	c30.3,33.8,68.2,52.2,108.3,52.2c40.2,0,78.1-18.4,108.3-52.2c44.4-9.3,79.3-32.9,99.4-67.7c20.1-34.8,23.1-76.8,8.9-120
	C478.9,206.9,475.9,164.8,455.8,130z"/>
<g>
	<path class="st1" d="M383.5,374.9c21.4-48.6,13.5-121.4-25.3-188.5C304.4,93.2,211.5,46.1,150.6,81.2
		c-60.8,35.1-66.5,139.2-12.7,232.4"/>
	<path class="st1" d="M137.9,313.6c53.8,93.2,146.8,140.3,207.6,105.2c17-9.8,29.7-25,38-43.9"/>
</g>
<g>
	<path class="st2" d="M248.1,122.8c-107.6,0-194.9,57-194.9,127.2"/>
	<path class="st2" d="M248.1,377.2c107.6,0,194.9-57,194.9-127.2"/>
	<path class="st2" d="M53.2,250c0,70.3,87.3,127.2,194.9,127.2"/>
	<path class="st2" d="M443,250c0-70.3-87.3-127.2-194.9-127.2"/>
</g>
<path class="st3" d="M358.2,313.6c53.8-93.2,48.1-197.3-12.7-232.4"/>
<g>
	<path class="st4" d="M212,189.1h-16.5v43.7h-5.9v-43.7h-16.5v-5.7H212V189.1z"/>
	<path class="st4" d="M241.8,199c-2.3,14.9-6.9,25.7-12.1,33.7c-4.3,6.6-9.5,11.2-14.9,15l-3.2-4.4c4.4-3.2,8.3-6.4,11.4-10.2
		l-11.5-34h6.1l9.2,28.4h0.5c3.7-6.9,6.9-15.2,8.9-28.4H241.8z"/>
	<path class="st4" d="M278.2,214.8c0,11.8-5.4,18.7-15.7,18.7c-2.3,0-4.6-0.4-6.8-1.3v14.2H250V199h3.9l0.5,4.8h0.5
		c1.7-3.3,5.4-5.4,10.5-5.4C274.6,198.5,278.2,204.9,278.2,214.8z M272.5,215.3c0-7.9-2.7-11.1-8.1-11.1c-5.2,0-8.8,3-8.8,11v11.2
		c2.1,1.3,4.3,1.6,6.4,1.6C269.1,228,272.5,223.7,272.5,215.3z"/>
	<path class="st4" d="M312.1,219h-20.8c0.8,7.3,4.9,9.3,10.2,9.3c3.7,0,7.3-0.9,10-2.4l0.5,5.4c-3.1,1.5-6.6,2.3-10.9,2.3
		c-10,0-15.5-5.1-15.5-17.4c0-11.5,4.9-17.9,14.3-17.9c9.7,0,12.9,6.4,12.9,14.3C312.8,214.9,312.5,217,312.1,219z M291.2,213.8
		h15.9c0.1-0.5,0.1-1.1,0.1-1.6c0-4.9-2.1-8.5-7.5-8.5C294.3,203.6,291.6,207.3,291.2,213.8z"/>
	<path class="st4" d="M323.5,229c0-2.8,1.4-4.2,4.3-4.2c2.8,0,4.2,1.4,4.2,4.2c0,2.9-1.4,4.3-4.2,4.3
		C324.9,233.3,323.5,231.9,323.5,229z"/>
	<path class="st4" d="M223.2,258.7l-10.7,49.4h-9.2l-10.7-39.5h-0.4l-10.3,39.5h-9.2l-10.7-49.4h6l9,43.6h1.1l11.2-42.8h6.9
		l11.5,42.8h1.1l8.8-43.6H223.2z"/>
	<path class="st4" d="M226.6,291.3c0-11.7,5.2-17.8,14.8-17.8c9.5,0,14.3,6,14.3,17.8c0,11.3-5.1,17.6-14.6,17.6
		C231.5,308.9,226.6,302.6,226.6,291.3z M250.2,291.3c0-9-3.1-12.3-9-12.3c-6.1,0-9,3.5-9,12.1c0,8.6,3.2,12.4,9.2,12.4
		C247.3,303.6,250.2,300,250.2,291.3z"/>
	<path class="st4" d="M278.3,279.7c-5.9,0-7.7,4.1-7.7,11.6v16.8h-5.6v-33.8h3.9l0.5,5.8h0.5c0.8-3,2.5-6.3,8.3-6.3
		c1.3,0,2.5,0.2,3.7,0.6l-0.6,5.8C280.1,279.8,279.1,279.7,278.3,279.7z"/>
	<path class="st4" d="M296.2,308.6c-6,0-8.2-3.4-8.2-8.7l0.1-44.8h5.6l-0.1,43.7c0,2.8,1.1,4.2,3.9,4.2c0.8,0,1.6-0.1,2.5-0.3
		l-0.5,5.5C298.5,308.5,297.3,308.6,296.2,308.6z"/>
	<path class="st4" d="M333.5,255.1v53H329l-0.8-4.1h-0.5c-2,3-5.2,4.9-9.7,4.9c-8.7,0-12.6-6.6-12.6-16.1c0-11.7,5-19.1,15.6-19.1
		c2.6,0,4.9,0.4,6.9,1.3v-19.8H333.5z M327.8,291.1V281c-2-1.1-4.3-1.6-6.6-1.6c-7,0-10.2,4.6-10.2,12.6c0,7.6,2.9,11.2,8.5,11.2
		C324.4,303.1,327.8,300.4,327.8,291.1z"/>
</g>
<path class="st5" d="M408.1,160c-4.1-7.2-13.3-9.6-20.5-5.5c-7.2,4.1-9.6,13.3-5.5,20.5c4.1,7.2,13.3,9.6,20.5,5.5
	C409.8,176.4,412.3,167.2,408.1,160z"/>
<path class="st6" d="M139,95.4c-4.1-7.2-13.3-9.6-20.5-5.5c-7.2,4.1-9.6,13.3-5.5,20.5c4.1,7.2,13.3,9.6,20.5,5.5
	C140.7,111.8,143.2,102.6,139,95.4z"/>
<path class="st7" d="M375.3,250c0-107.6-57-194.9-127.2-194.9"/>
<path class="st7" d="M120.9,250c0,107.6,57,194.9,127.2,194.9"/>
<path class="st8" d="M123.1,385.5c48.6,21.4,121.4,13.5,188.5-25.3c93.2-53.8,140.3-146.8,105.2-207.6
	C381.7,91.7,277.7,86,184.5,139.8"/>
<path class="st9" d="M416.9,347.5c35.1-60.8-12-153.8-105.2-207.6C218.5,86,114.4,91.7,79.3,152.5c-35.1,60.8,12,153.8,105.2,207.6"
	/>
<path class="st7" d="M248.1,55.1c-70.3,0-127.2,87.3-127.2,194.9"/>
<path class="st10" d="M186,62c0,16,13,29,29,29c16,0,29-13,29-29s-13-29-29-29C199,33,186,46,186,62z"/>
<path class="st8" d="M184.5,139.8C91.2,193.7,44.1,286.6,79.3,347.5c9.8,17,25,29.7,43.9,38"/>
<path class="st11" d="M44,276.3c0,16,13,29,29,29c16,0,29-13,29-29c0-16-13-29-29-29C57,247.3,44,260.3,44,276.3z"/>
<path class="st7" d="M248.1,444.9c70.3,0,127.2-87.3,127.2-194.9"/>
<path class="st9" d="M184.5,360.2c93.2,53.8,197.3,48.1,232.4-12.7"/>
<path class="st12" d="M328,391.2c0,16,13,29,29,29c16,0,29-13,29-29c0-16-13-29-29-29C341,362.2,328,375.2,328,391.2z"/>
<path class="st3" d="M345.5,81.2c-60.8-35.1-153.8,12-207.6,105.2c-53.8,93.2-48.1,197.3,12.7,232.4c60.8,35.1,153.8-12,207.6-105.2
	"/>
<path class="st13" d="M257.1,412.8c-4.1-7.2-13.3-9.6-20.5-5.5c-7.2,4.1-9.6,13.3-5.5,20.5c4.1,7.2,13.3,9.6,20.5,5.5
	C258.7,429.1,261.2,420,257.1,412.8z"/>
<g>
</g>
<g>
</g>
<g>
</g>
<g>
</g>
<g>
</g>
<g>
</g>
</svg>
