<?xml version="1.0" encoding="utf-8"?>
<!-- Generator: Adobe Illustrator 22.0.1, SVG Export Plug-In . SVG Version: 6.00 Build 0)  -->
<svg version="1.1" id="Ebene_1" xmlns="http://www.w3.org/2000/svg" xmlns:xlink="http://www.w3.org/1999/xlink" x="0px" y="0px"
	 viewBox="0 0 100 30" enable-background="new 0 0 100 30" xml:space="preserve">
<path fill="#F7AD22" d="M12.4,11.884c-1.581-2.738-5.082-3.676-7.82-2.095c-2.738,1.581-3.676,5.082-2.095,7.82
	c1.581,2.738,5.082,3.676,7.82,2.096C13.042,18.123,13.981,14.622,12.4,11.884z"/>
<path fill="#259BD2" d="M98.024,14.746c0-6.324-5.128-11.451-11.452-11.451S75.121,8.422,75.121,14.746
	c0,6.325,5.127,11.451,11.451,11.451S98.024,21.072,98.024,14.746z"/>
<path fill="#E21F22" d="M45.27,14.747c0-6.325-5.127-11.452-11.451-11.452c-6.324,0-11.451,5.127-11.451,11.452
	c0,6.325,5.127,11.451,11.451,11.451C40.143,26.198,45.27,21.072,45.27,14.747z"/>
<path fill="#6E5399" d="M65.153,11.884c-1.581-2.738-5.082-3.677-7.82-2.096c-2.738,1.581-3.676,5.082-2.095,7.82
	c1.581,2.738,5.082,3.676,7.82,2.095C65.796,18.123,66.734,14.623,65.153,11.884z"/>
<g>
</g>
<g>
</g>
<g>
</g>
<g>
</g>
<g>
</g>
<g>
</g>
</svg>
