<?xml version="1.0" encoding="utf-8"?>
<!-- Generator: Adobe Illustrator 22.0.1, SVG Export Plug-In . SVG Version: 6.00 Build 0)  -->
<svg version="1.1" id="Ebene_1" xmlns="http://www.w3.org/2000/svg" xmlns:xlink="http://www.w3.org/1999/xlink" x="0px" y="0px"
	 viewBox="0 0 150 150" enable-background="new 0 0 150 150" xml:space="preserve">
<g>
	<path fill="#333333" d="M130.752,42.812c-5.39-9.335-14.752-15.671-26.679-18.168C95.947,15.564,85.779,10.624,75,10.624
		c-10.779,0-20.947,4.94-29.073,14.02C34,27.141,24.638,33.477,19.248,42.812C13.859,52.146,13.053,63.423,16.854,75
		c-3.801,11.578-2.995,22.854,2.394,32.19c5.39,9.335,14.752,15.671,26.679,18.167c8.126,9.081,18.294,14.02,29.073,14.02
		c10.779,0,20.947-4.94,29.073-14.021c11.927-2.497,21.289-8.833,26.679-18.168c5.389-9.334,6.195-20.611,2.394-32.188
		C136.948,63.423,136.141,52.147,130.752,42.812z"/>
</g>
<g>
</g>
<g>
</g>
<g>
</g>
<g>
</g>
<g>
</g>
<g>
</g>
</svg>
