<?xml version="1.0" encoding="iso-8859-1"?>
<!-- Generator: Adobe Illustrator 19.0.0, SVG Export Plug-In . SVG Version: 6.00 Build 0)  -->
<svg version="1.1" id="Capa_1" xmlns="http://www.w3.org/2000/svg" xmlns:xlink="http://www.w3.org/1999/xlink" x="0px" y="0px"
	 viewBox="0 0 512 512" style="enable-background:new 0 0 512 512;" xml:space="preserve">
<path style="fill:#EFEFEF;" d="M454.423,195.549c-5.016,0-404.58,0-396.845,0c-12.131,0-22.056,9.925-22.056,22.056
	c0,23.401,0,266.346,0,262.847c0,12.131,9.925,22.056,22.056,22.056c36.439,0,404.742,0,396.845,0
	c12.131,0,22.056-9.925,22.056-22.056c0-0.165,0-5.428,0-5.162c0-21.873,0-261.057,0-257.685
	C476.479,205.474,466.554,195.549,454.423,195.549z"/>
<path style="fill:#DDDDDD;" d="M60.984,480.452c0-16.259,0-269.065,0-262.847c0-12.131,9.925-22.056,22.056-22.056
	c-0.843,0-26.895,0-25.461,0c-12.131,0-22.056,9.925-22.056,22.056c0,23.401,0,266.346,0,262.847
	c0,12.131,9.925,22.056,22.056,22.056c4.778,0,18.371,0,25.461,0C70.909,502.508,60.984,492.583,60.984,480.452z"/>
<path style="fill:#EFEFEF;" d="M170.869,236.728L170.869,236.728c-20.362,0-72.159,0-102.158,0c0,13.969,0,109.457,0,124.835
	c14.028,0,121.969,0,136.211,0h34.053l0,0h34.053l0,0h34.053h34.053l0,0h34.053l0,0h34.053l0,0h34.053c0-13.987,0-109.303,0-124.835
	C424.705,236.728,184.476,236.728,170.869,236.728z"/>
<path style="fill:#DDDDDD;" d="M94.982,236.728h-2.388l0,0c-4.21,0-7.756,0-11.941,0l0,0c-2.57,0-4.605,0-7.165,0l0,0H71.1l0,0
	h-2.389l0,0c0,13.969,0,109.457,0,124.835c9.322,0,16.947,0,26.271,0C94.982,347.576,94.982,252.26,94.982,236.728L94.982,236.728z"
	/>
<path style="fill:#EFEFEF;" d="M505.793,12.156c-6.704-4.615,19.676-1.654-491.186-2.458c-2.977,0-5.948,0.769-8.4,2.458
	c-4.94,3.402-7.113,9.319-5.858,14.879l35.55,157.436c1.463,6.478,7.218,11.078,13.859,11.078h53.915l0,0h304.656l0,0h53.914
	c6.641,0,12.396-4.6,13.858-11.078l35.55-157.436C512.908,21.475,510.735,15.559,505.793,12.156z"/>
<path style="fill:#DDDDDD;" d="M65.09,184.471L29.54,27.036c-1.911-8.467,4.184-17.337,14.258-17.337
	c-27.163,0.595-31.744-1.569-37.59,2.458c-4.94,3.402-7.113,9.319-5.858,14.879L35.9,184.472
	c1.463,6.478,7.218,11.078,13.859,11.078h29.19C72.308,195.549,66.553,190.949,65.09,184.471z"/>
<path style="fill:#666666;" d="M397.59,187.174h-26.929h-229.32h-26.929c-6.791,0-12.296,5.505-12.296,12.296
	s5.505,12.296,12.296,12.296h26.929c10.968,0,244.911,0,256.249,0c6.791,0,12.296-5.505,12.296-12.296
	S404.381,187.174,397.59,187.174z"/>
<path style="fill:#535454;" d="M133.023,199.471c0-6.791,5.505-12.296,12.296-12.296h-3.978h-26.929
	c-6.791,0-12.296,5.505-12.296,12.296s5.505,12.296,12.296,12.296h26.929h3.978C138.528,211.767,133.023,206.262,133.023,199.471z"
	/>
<path style="fill:#CCCCCC;" d="M443.291,229.001c-33.272,0-244.137,0-272.422,0c-10.054,0-92.149,0-102.158,0
	c-4.267,0-7.727,3.459-7.727,7.727c0,26.356,0,99.101,0,124.836c0,4.268,3.459,7.727,7.727,7.727c14.149,0,263.444,0,272.422,0
	h34.053h34.053h34.052c4.267,0,7.727-3.459,7.727-7.727c0-26.294,0-100.047,0-124.836
	C451.018,232.46,447.558,229.001,443.291,229.001z M382.912,244.455h18.599v9.574h-18.599V244.455z M348.859,244.455h18.599v9.574
	h-18.599V244.455z M348.859,269.482h18.599v9.068c-6.505,0-12.094,0-18.599,0V269.482z M314.807,244.455h18.599v9.574h-18.599
	V244.455z M314.807,269.482h18.599v9.068c-6.505,0-12.094,0-18.599,0V269.482z M316.38,294.004v9.067c-6.505,0-12.094,0-18.599,0
	v-9.067C304.285,294.004,309.875,294.004,316.38,294.004z M299.353,318.525v9.068h-18.599v-9.068
	C287.259,318.525,292.848,318.525,299.353,318.525z M280.754,244.455h18.599v9.574h-18.599V244.455z M280.754,269.482h18.599v9.068
	c-6.505,0-12.094,0-18.599,0V269.482z M282.327,294.004v9.067c-6.505,0-12.094,0-18.599,0v-9.067
	C270.233,294.004,275.822,294.004,282.327,294.004z M265.3,318.525v9.068h-18.599v-9.068
	C253.206,318.525,258.796,318.525,265.3,318.525z M246.702,244.455h18.599v9.574h-18.599L246.702,244.455L246.702,244.455z
	 M246.702,269.482h18.599v9.068c-6.505,0-12.094,0-18.599,0L246.702,269.482L246.702,269.482z M248.274,294.004v9.067
	c-6.505,0-12.094,0-18.599,0v-9.067C236.18,294.004,241.769,294.004,248.274,294.004z M231.248,318.525v9.068h-18.599v-9.068
	C219.153,318.525,224.743,318.525,231.248,318.525z M212.649,244.455h18.599v9.574h-18.599V244.455z M212.649,269.482h18.599v9.068
	c-6.505,0-12.094,0-18.599,0V269.482z M214.221,294.004v9.067c-6.505,0-12.094,0-18.599,0v-9.067
	C202.127,294.004,207.716,294.004,214.221,294.004z M197.195,318.525v9.068h-18.599v-9.068
	C185.101,318.525,190.69,318.525,197.195,318.525z M178.596,244.455h18.599v9.574h-18.599V244.455z M178.596,269.482h18.599v9.068
	c-6.505,0-12.094,0-18.599,0V269.482z M144.543,244.455h18.599v9.574h-18.599V244.455z M144.543,269.482h18.599v9.068
	c-6.505,0-12.094,0-18.599,0V269.482z M110.49,244.455h18.599v9.574H110.49V244.455z M110.49,269.482h18.599v9.068
	c-6.505,0-12.094,0-18.599,0V269.482z M76.438,244.455h18.599v9.574H76.438V244.455z M76.438,269.482h18.599v9.068H76.438V269.482z
	 M76.438,294.004c8.516,0,27.149,0,35.625,0v9.067H76.438V294.004z M95.037,353.837H76.438v-10.79h18.599
	C95.037,343.047,95.037,353.837,95.037,353.837z M129.09,353.837h-18.599v-10.79h18.599V353.837z M129.09,327.593
	c-16.758,0-35.893,0-52.652,0v-9.068c13.292,0,47.647,0,52.652,0V327.593z M127.517,303.071v-9.067c6.505,0,12.094,0,18.599,0v9.067
	C139.611,303.071,134.022,303.071,127.517,303.071z M163.142,353.837h-18.599v-10.79h18.599V353.837z M163.142,327.593h-18.599
	v-9.068c6.505,0,12.094,0,18.599,0V327.593z M161.57,303.071v-9.067c6.505,0,12.094,0,18.599,0v9.067
	C173.664,303.071,168.074,303.071,161.57,303.071z M333.406,353.837h-154.81v-10.79h26.326h34.053h34.052h34.053h26.326V353.837z
	 M333.406,327.593h-18.599v-9.068c6.505,0,12.094,0,18.599,0V327.593z M331.833,303.071v-9.067c6.505,0,12.094,0,18.599,0v9.067
	C343.928,303.071,338.338,303.071,331.833,303.071z M367.459,353.837H348.86v-10.79h18.599V353.837z M367.459,327.593H348.86v-9.068
	c6.505,0,12.094,0,18.599,0V327.593z M365.886,303.071v-9.067c6.505,0,12.094,0,18.599,0v9.067
	C377.98,303.071,372.391,303.071,365.886,303.071z M401.512,353.837h-18.599v-10.79h18.599V353.837z M435.564,353.837h-18.599
	v-10.79h18.599V353.837z M435.564,327.593c-16.758,0-35.893,0-52.652,0v-9.068c4.722,0,34.511,0,52.652,0V327.593z M435.564,303.071
	h-35.625v-9.067h35.625V303.071z M435.564,278.55c-13.292,0-47.647,0-52.652,0v-9.068c16.758,0,35.893,0,52.652,0V278.55z
	 M435.564,254.029h-18.599v-9.574h18.599V254.029z"/>
<path style="fill:#BABABA;" d="M94.982,361.564v-7.727H76.438v-10.79h18.544c0-5.405,0-10.049,0-15.454H76.438v-9.068h18.544
	c0-5.405,0-10.049,0-15.454H76.438v-9.067h18.544c0-5.405,0-10.049,0-15.454H76.438v-9.068h18.544c0-5.405,0-10.049,0-15.454H76.438
	v-9.574h18.544v-7.727c0-4.268,3.459-7.727,7.727-7.727H68.711c-4.267,0-7.727,3.459-7.727,7.727c0,26.356,0,99.101,0,124.836
	c0,4.268,3.459,7.727,7.727,7.727h33.998C98.442,369.29,94.982,365.831,94.982,361.564z"/>
<path style="fill:#CCCCCC;" d="M187.705,386.324c-2.891,0-5.234,2.343-5.234,5.234v61.27c0,2.891,2.344,5.234,5.234,5.234
	c8.877,0,143.246,0,136.592,0c2.891,0,5.234-2.344,5.234-5.234v-61.27c0-2.891-2.344-5.234-5.234-5.234
	C315.42,386.324,181.051,386.324,187.705,386.324z"/>
<path style="fill:#BABABA;" d="M213.378,452.828v-61.27c0-2.891,2.344-5.234,5.234-5.234c-14.051,0-22.514,0-30.907,0
	c-2.891,0-5.234,2.343-5.234,5.234v61.27c0,2.891,2.344,5.234,5.234,5.234c8.436,0,16.79,0,30.907,0
	C215.721,458.063,213.378,455.719,213.378,452.828z"/>
<path style="fill:#CCCCCC;" d="M307.08,177.951H204.922c-4.267,0-7.727-3.459-7.727-7.727s3.459-7.727,7.727-7.727H307.08
	c4.267,0,7.727,3.459,7.727,7.727S311.347,177.951,307.08,177.951z"/>
<path style="fill:#A4D9F4;" d="M456.655,141.587l22.084-97.801c0.656-2.907-1.554-5.672-4.534-5.672H37.797
	c-2.98,0-5.191,2.765-4.534,5.672l22.084,97.801c0.479,2.119,2.361,3.624,4.534,3.624h392.24
	C454.294,145.212,456.177,143.706,456.655,141.587z"/>
<path style="fill:#7CC9E8;" d="M86.254,141.587L64.17,43.786c-0.656-2.907,1.554-5.672,4.534-5.672H37.797
	c-2.98,0-5.191,2.765-4.534,5.672l22.084,97.801c0.478,2.119,2.361,3.624,4.534,3.624h30.907
	C88.615,145.212,86.733,143.706,86.254,141.587z"/>
<path style="fill:#70B5E8;" d="M33.262,43.786l5.319,23.556H473.42l5.319-23.556c0.656-2.907-1.554-5.672-4.534-5.672H37.797
	C34.816,38.114,32.606,40.879,33.262,43.786z"/>
<path style="fill:#52A5D8;" d="M33.262,43.786c1.198,5.306,3.957,17.524,5.319,23.556h30.907l-5.319-23.556
	c-0.656-2.907,1.554-5.672,4.534-5.672c-31.859,0.17-31.221-0.385-32.965,0.477C33.89,39.505,32.77,41.605,33.262,43.786z"/>
<path style="fill:#CCCCCC;" d="M307.08,502.508v-8.73c0-6.799-5.563-12.363-12.363-12.363h-77.432
	c-6.8,0-12.363,5.563-12.363,12.363v8.73H307.08z"/>
<path style="fill:#BABABA;" d="M248.192,481.415h-30.907c-6.8,0-12.363,5.563-12.363,12.363v8.73h30.907v-8.73
	C235.829,486.978,241.392,481.415,248.192,481.415z"/>
<g>
</g>
<g>
</g>
<g>
</g>
<g>
</g>
<g>
</g>
<g>
</g>
<g>
</g>
<g>
</g>
<g>
</g>
<g>
</g>
<g>
</g>
<g>
</g>
<g>
</g>
<g>
</g>
<g>
</g>
</svg>
