<?xml version="1.0" encoding="iso-8859-1"?>
<!-- Generator: Adobe Illustrator 19.0.0, SVG Export Plug-In . SVG Version: 6.00 Build 0)  -->
<svg version="1.1" id="Capa_1" xmlns="http://www.w3.org/2000/svg" xmlns:xlink="http://www.w3.org/1999/xlink" x="0px" y="0px"
	 viewBox="0 0 512 512" style="enable-background:new 0 0 512 512;" xml:space="preserve">
<path style="fill:#444443;" d="M403.899,203.383H104.573c-5.1,0-9.272-4.172-9.272-9.272l0,0c0-5.1,4.172-9.272,9.272-9.272h299.326
	c5.1,0,9.272,4.172,9.272,9.272l0,0C413.171,199.21,408.999,203.383,403.899,203.383z"/>
<path style="fill:#EFEFEF;" d="M466.725,195.683c-2.429-0.5-419.01-0.361-420.763,0c-5.783,1.192-10.092,6.336-10.092,12.371
	c0.023,294.097-0.059,281.769,0.066,282.982c0.65,6.35,6.054,11.342,12.563,11.342c1.813,0.001,416.009,0.199,418.226-0.258
	c5.76-1.187,10.092-6.312,10.092-12.371V208.054C476.817,201.997,472.487,196.87,466.725,195.683z"/>
<path style="fill:#DDDDDD;" d="M62.146,489.749c0.023-294.097-0.059-281.77,0.066-282.982c0.649-6.338,6.042-11.342,12.563-11.342
	c-27.571,0.087-26.604-0.197-28.813,0.258c-5.783,1.191-10.092,6.336-10.092,12.371c0.023,294.097-0.059,281.77,0.066,282.982
	c0.65,6.35,6.054,11.342,12.563,11.342h26.276C67.822,502.378,62.146,496.687,62.146,489.749z"/>
<path style="fill:#666666;" d="M497.788,9.579H14.212c-9.101,0-15.863,8.455-13.858,17.337l35.549,157.432
	c1.463,6.478,7.218,11.078,13.858,11.078h53.914c2.102-3.765,6.12-6.314,10.739-6.314c14.094,0,272.09,0,283.173,0
	c4.618,0,8.637,2.549,10.739,6.314h53.913c6.641,0,12.395-4.6,13.858-11.078l35.549-157.432
	C513.65,18.039,506.893,9.579,497.788,9.579z"/>
<path style="fill:#535454;" d="M65.007,184.348L29.458,26.915c-2.004-8.878,4.754-17.337,13.858-17.337H14.212
	c-9.101,0-15.863,8.455-13.858,17.337l35.549,157.432c1.463,6.478,7.218,11.078,13.858,11.078h29.104
	C72.225,195.425,66.47,190.825,65.007,184.348z"/>
<path style="fill:#EFEFEF;" d="M69.873,255.977c0,81.015,0,28.272,0,111.22c10.031,0,91.786,0,101.711,0l0,0
	c67.9,0,223.363,0,271.23,0c0-34.169,0-74.149,0-111.22C403.536,255.977,119.242,255.977,69.873,255.977z"/>
<path style="fill:#DDDDDD;" d="M96.007,255.977h-2.376l0,0c-3.594,0-7.94,0-11.879,0l0,0c-3.594,0-7.94,0-11.879,0l0,0
	c0,81.015,0,28.272,0,111.22c8.276,0,18.382,0,26.134,0C96.007,356.783,96.007,268.639,96.007,255.977L96.007,255.977z"/>
<path style="fill:#B6ADF7;" d="M103.776,228.366H69.873v27.611c51.357,0,322.207,0,372.941,0v-27.611
	C340.554,228.366,206.091,228.366,103.776,228.366z"/>
<path style="fill:#A695F4;" d="M69.873,228.366v27.611c9.288,0,16.885,0,26.177,0v-27.611
	C86.762,228.366,79.164,228.366,69.873,228.366z"/>
<path style="fill:#8970E5;" d="M189.51,228.366v27.611c17.022,0,115.334,0,129.451,0v-27.611
	C304.6,228.366,206.664,228.366,189.51,228.366z"/>
<path style="fill:#CCCCCC;" d="M442.814,220.639H69.873c-4.267,0-7.727,3.459-7.727,7.727c0,14.033,0,124.93,0,138.831
	c0,4.268,3.459,7.727,7.727,7.727c18.374,0,56.983,0,67.807,0h33.904c8.943,0,257.147,0,271.23,0c4.267,0,7.727-3.459,7.727-7.727
	v-29.245c0-9.604,0-99.805,0-109.586C450.541,224.098,447.082,220.639,442.814,220.639z M382.733,330.225v-11.872
	c10.25,0,34.272,0,52.354,0v11.872C418.45,330.225,399.371,330.225,382.733,330.225z M281.022,330.225v-11.872
	c6.453,0,11.997,0,18.45,0v11.872H281.022z M247.118,330.225v-11.872c6.453,0,11.998,0,18.45,0v11.872H247.118z M213.215,330.225
	v-11.872c6.453,0,11.998,0,18.45,0v11.872H213.215z M179.311,330.225v-11.872c6.453,0,11.998,0,18.451,0v11.872H179.311z
	 M77.6,330.225v-11.872h43.129h9.225v11.872C113.316,330.225,94.237,330.225,77.6,330.225z M129.953,263.703v11.872
	c-6.453,0-11.998,0-18.45,0v-11.872H129.953z M163.857,263.703v11.872c-6.453,0-11.998,0-18.451,0v-11.872H163.857z
	 M197.761,263.703v11.872c-6.453,0-11.998,0-18.451,0v-11.872H197.761z M231.665,263.703v11.872c-6.453,0-11.998,0-18.45,0v-11.872
	H231.665z M265.569,263.703v11.872c-6.453,0-11.998,0-18.45,0v-11.872H265.569z M299.472,263.703v11.872c-6.453,0-11.997,0-18.45,0
	v-11.872H299.472z M333.376,263.703v11.872c-6.453,0-11.998,0-18.451,0v-11.872H333.376z M367.28,263.703v11.872
	c-6.453,0-11.998,0-18.451,0v-11.872H367.28z M435.088,263.703v11.872c-18.074,0-42.008,0-52.354,0v-11.872H435.088z M435.088,302.9
	h-35.402v-11.872h35.402V302.9z M365.781,302.9v-11.872c6.453,0,11.998,0,18.451,0V302.9C377.779,302.9,372.234,302.9,365.781,302.9
	z M331.878,302.9v-11.872c6.453,0,11.998,0,18.451,0V302.9C343.875,302.9,338.33,302.9,331.878,302.9z M297.974,302.9v-11.872
	c6.453,0,11.998,0,18.451,0V302.9C309.971,302.9,304.427,302.9,297.974,302.9z M264.07,302.9v-11.872c6.453,0,11.997,0,18.45,0
	V302.9C276.068,302.9,270.523,302.9,264.07,302.9z M230.166,302.9v-11.872c6.453,0,11.998,0,18.451,0V302.9
	C242.164,302.9,236.619,302.9,230.166,302.9z M196.263,302.9v-11.872c6.453,0,11.998,0,18.45,0V302.9
	C208.26,302.9,202.716,302.9,196.263,302.9z M162.359,302.9v-11.872c6.453,0,11.998,0,18.451,0V302.9
	C174.356,302.9,168.812,302.9,162.359,302.9z M137.68,302.9h-9.225v-11.872c6.453,0,11.998,0,18.451,0V302.9H137.68z M77.6,302.9
	v-11.872c8.517,0,26.995,0,35.402,0V302.9H77.6z M96.05,275.575H77.6v-11.872h18.45V275.575z M145.407,318.353
	c6.453,0,11.998,0,18.451,0v11.872h-18.451V318.353z M314.926,318.353c6.453,0,11.998,0,18.451,0v11.872h-18.451V318.353z
	 M348.829,318.353c6.453,0,11.998,0,18.451,0v11.872h-18.451V318.353z M77.6,236.092h357.488v12.157c-37.796,0-314.134,0-357.488,0
	C77.6,248.249,77.6,236.092,77.6,236.092z M77.6,345.678h18.45v13.791H77.6V345.678z M111.503,345.678h18.45v13.791h-18.45
	C111.503,359.469,111.503,345.678,111.503,345.678z M145.407,345.678h18.451v13.791h-18.451V345.678z M179.311,345.678
	c30.985,0,118.782,0,154.065,0v13.791H179.311V345.678z M348.829,345.678h18.451v13.791h-18.451V345.678z M382.733,345.678h18.45
	v13.791h-18.45V345.678z M435.088,359.47h-18.451v-13.791h18.451V359.47z"/>
<path style="fill:#BABABA;" d="M96.007,367.196v-7.727H77.6v-13.791h18.407c0-5.405,0-10.049,0-15.453H77.6v-11.872h18.407
	c0-5.405,0-10.049,0-15.453H77.6v-11.872h18.407c0-5.405,0-10.049,0-15.453H77.6v-11.872h18.407c0-5.405,0-10.049,0-15.453H77.6
	v-12.157h18.407v-7.727c0-4.268,3.459-7.727,7.727-7.727H69.873c-4.267,0-7.727,3.459-7.727,7.727c0,14.033,0,124.93,0,138.831
	c0,4.268,3.459,7.727,7.727,7.727h33.861C99.466,374.923,96.007,371.464,96.007,367.196z"/>
<path style="fill:#CCCCCC;" d="M169.779,392.552h-12.551c-3.116,0-5.642,2.526-5.642,5.642v104.183c8.779,0,194.024,0,208.828,0
	V397.525c0-2.746-2.227-4.973-4.973-4.973C348.858,392.552,176.947,392.552,169.779,392.552z"/>
<path style="fill:#BABABA;" d="M188.135,392.552h-18.356h-12.551c-3.116,0-5.642,2.526-5.642,5.642v104.183
	c10.682,0,19.535,0,30.907,0V398.194C182.493,395.078,185.019,392.552,188.135,392.552z"/>
<path style="fill:#A4D9F4;" d="M446.62,167.011H65.379c-2.492,0-4.651-1.726-5.2-4.157L33.454,44.498
	c-0.753-3.334,1.782-6.505,5.2-6.505h434.692c3.418,0,5.953,3.171,5.2,6.505L451.82,162.855
	C451.271,165.285,449.112,167.011,446.62,167.011z"/>
<path style="fill:#7CC9E8;" d="M91.086,162.855L64.361,44.498c-0.753-3.334,1.782-6.505,5.2-6.505H38.654
	c-3.418,0-5.953,3.171-5.2,6.505L60.18,162.855c0.549,2.43,2.708,4.157,5.2,4.157h30.907
	C93.795,167.011,91.635,165.285,91.086,162.855z"/>
<path style="fill:#70B5E8;" d="M478.546,44.498c0.753-3.333-1.781-6.503-5.198-6.505H38.652c-3.417,0.001-5.95,3.172-5.198,6.505
	l5.131,22.723h434.83L478.546,44.498z"/>
<path style="fill:#52A5D8;" d="M69.492,67.221l-5.131-22.723c-0.753-3.333,1.782-6.504,5.199-6.505
	c-33.624,0.008-31.483-0.143-32.767,0.335c-2.404,0.895-3.947,3.476-3.339,6.17c0.727,3.219,4.406,19.515,5.131,22.723H69.492z"/>
<g>
</g>
<g>
</g>
<g>
</g>
<g>
</g>
<g>
</g>
<g>
</g>
<g>
</g>
<g>
</g>
<g>
</g>
<g>
</g>
<g>
</g>
<g>
</g>
<g>
</g>
<g>
</g>
<g>
</g>
</svg>
