<?xml version="1.0" encoding="iso-8859-1"?>
<!-- Generator: Adobe Illustrator 19.0.0, SVG Export Plug-In . SVG Version: 6.00 Build 0)  -->
<svg version="1.1" id="Capa_1" xmlns="http://www.w3.org/2000/svg" xmlns:xlink="http://www.w3.org/1999/xlink" x="0px" y="0px"
	 viewBox="0 0 512 512" style="enable-background:new 0 0 512 512;" xml:space="preserve">
<path style="fill:#EFEFEF;" d="M466.382,195.692c-1.812-0.373-418.497-0.467-420.763,0c-5.741,1.183-10.091,6.293-10.091,12.371
	v281.695c0,6.958,5.694,12.629,12.628,12.629c444.371,0,416.28,0.143,418.226-0.258c5.741-1.183,10.092-6.293,10.092-12.371V208.063
	C476.474,201.986,472.122,196.875,466.382,195.692z"/>
<path style="fill:#DDDDDD;" d="M62.688,489.758V208.063c0-6.956,5.693-12.629,12.628-12.629
	c-28.482,0.088-27.487-0.198-29.697,0.258c-5.741,1.183-10.091,6.293-10.091,12.371v281.695c0,6.958,5.694,12.629,12.628,12.629
	h27.161c-0.868,0-1.717-0.089-2.537-0.258C67.038,500.947,62.688,495.836,62.688,489.758z"/>
<path style="fill:#EFEFEF;" d="M70.414,239.704L70.414,239.704c0,40.845,0,92.646,0,131.711c83.516,0,288.134,0,372.598,0
	c0-23.714,0-55.837,0-79.433l0,0c0-16.295,0-35.884,0-52.278C384,239.704,113.305,239.704,70.414,239.704z"/>
<path style="fill:#DDDDDD;" d="M70.414,239.704c0,45.073,0,93.674,0,131.711c0.423,0,27.239,0,26.142,0c0-13.28,0-118.089,0-131.711
	C94.443,239.704,68.96,239.704,70.414,239.704z"/>
<path style="fill:#666666;" d="M497.788,9.588H14.212c-9.101,0-15.863,8.455-13.858,17.337l35.549,157.432
	c1.463,6.478,7.218,11.078,13.858,11.078h53.914c2.102-3.765,6.12-2.821,10.739-2.821c11.027,0,269.057-0.333,283.173-0.333
	c4.618,0,8.637-0.611,10.739,3.154h53.913c6.641,0,12.395-4.6,13.858-11.078l35.549-157.432
	C513.65,18.048,506.893,9.588,497.788,9.588z"/>
<path style="fill:#535454;" d="M65.007,184.357L29.458,26.925c-2.004-8.877,4.753-17.337,13.858-17.337H14.212
	c-9.101,0-15.863,8.455-13.858,17.337l35.549,157.432c1.463,6.478,7.218,11.078,13.858,11.078h29.104
	C72.225,195.435,66.47,190.835,65.007,184.357z"/>
<path style="fill:#CCCCCC;" d="M443.012,231.977c-87.852,0-298.323,0-372.598,0c-4.267,0-7.727,3.459-7.727,7.727
	c0,39.874,0,91.892,0,131.712c0,4.268,3.459,7.727,7.727,7.727c17.978,0,356.353,0,372.598,0c4.267,0,7.727-3.459,7.727-7.727
	c0-17.842,0-35.684,0-53.562v-25.872c0-16.453,0-35.759,0-52.278C450.739,235.435,447.279,231.977,443.012,231.977z
	 M382.993,335.999V325.58c18.895,0,32.632,0,52.292,0v10.419C418.648,335.999,399.631,335.999,382.993,335.999z M281.376,335.999
	V325.58c6.442,0,11.977,0,18.419,0v10.419H281.376z M247.503,335.999V325.58c6.442,0,11.977,0,18.419,0v10.419H247.503z
	 M213.631,335.999V325.58c6.442,0,11.977,0,18.419,0v10.419H213.631z M179.758,335.999V325.58c6.442,0,11.977,0,18.419,0v10.419
	H179.758z M78.141,335.999V325.58c19.527,0,33.173,0,52.292,0v10.419C113.795,335.999,94.778,335.999,78.141,335.999z
	 M409.139,273.836h26.146v10.418h-43.082h-9.209v-10.418H409.139z M435.285,310.127H399.93v-10.419h35.356L435.285,310.127
	L435.285,310.127z M366.057,310.127v-10.419c6.594,0,11.831,0,18.419,0v10.419C378.034,310.127,372.499,310.127,366.057,310.127z
	 M332.185,310.127v-10.419c6.442,0,11.977,0,18.419,0v10.419C344.162,310.127,338.627,310.127,332.185,310.127z M298.312,310.127
	v-10.419c6.442,0,11.977,0,18.419,0v10.419C310.289,310.127,304.754,310.127,298.312,310.127z M264.44,310.127v-10.419
	c6.442,0,11.977,0,18.419,0v10.419C276.417,310.127,270.882,310.127,264.44,310.127z M230.567,310.127v-10.419
	c6.442,0,11.977,0,18.419,0v10.419C242.544,310.127,237.009,310.127,230.567,310.127z M205.904,310.127h-9.21v-10.419h9.21h9.21
	v10.419H205.904z M162.822,310.127v-10.419c6.442,0,11.977,0,18.419,0v10.419C174.799,310.127,169.264,310.127,162.822,310.127z
	 M128.949,310.127v-10.419c6.442,0,11.977,0,18.419,0v10.419C140.927,310.127,135.391,310.127,128.949,310.127z M78.141,310.127
	v-10.419c8.508,0,26.959,0,35.355,0v10.419H78.141z M367.54,284.254h-9.21h-9.209v-10.418h18.419L367.54,284.254L367.54,284.254z
	 M333.668,284.254c-6.442,0-11.977,0-18.419,0v-10.418h18.419V284.254z M299.795,284.254c-6.442,0-11.977,0-18.419,0v-10.418h18.419
	V284.254z M265.923,284.254h-9.21h-9.21v-10.418h18.419v10.418H265.923z M232.05,284.254h-9.209h-9.21v-10.418h18.419V284.254z
	 M198.178,284.254c-6.442,0-11.977,0-18.419,0v-10.418h18.419V284.254z M164.305,284.254c-6.442,0-11.977,0-18.419,0v-10.418h18.419
	V284.254z M130.432,284.254c-6.442,0-11.977,0-18.419,0v-10.418h18.419V284.254z M96.56,284.254H78.141v-10.418H96.56V284.254z
	 M145.886,325.58c6.442,0,11.977,0,18.419,0v10.419h-18.419V325.58z M315.249,325.58c6.442,0,11.977,0,18.419,0v10.419h-18.419
	V325.58z M349.121,325.58c6.442,0,11.977,0,18.419,0v10.419h-18.419V325.58z M435.285,258.383h-18.419V247.43h18.419V258.383z
	 M401.413,258.383h-18.419V247.43h18.419V258.383z M367.54,258.383h-18.419V247.43h18.419V258.383z M333.668,258.383h-18.419V247.43
	h18.419V258.383z M299.795,258.383h-18.419V247.43h18.419V258.383z M265.923,258.383h-18.419V247.43h18.419V258.383z
	 M232.05,258.383h-18.419V247.43h18.419V258.383z M198.178,258.383h-18.419V247.43h18.419V258.383z M164.305,258.383h-18.419V247.43
	h18.419V258.383z M130.432,258.383h-18.419V247.43h18.419V258.383z M78.141,247.43H96.56v10.953H78.141V247.43z M78.141,351.452
	H96.56v12.236H78.141V351.452z M112.013,351.452h18.419v12.236h-18.419C112.013,363.688,112.013,351.452,112.013,351.452z
	 M145.886,351.452h18.419v12.236h-18.419V351.452z M179.758,351.452c31.3,0,119.13,0,153.909,0v12.236H179.758V351.452z
	 M349.121,351.452h18.419v12.236h-18.419V351.452z M382.993,351.452h18.419v12.236h-18.419V351.452z M435.285,363.688h-18.419
	v-12.236h18.419V363.688z"/>
<path style="fill:#BABABA;" d="M96.556,371.415v-7.727H78.141v-12.236h18.415c0-5.405,0-10.049,0-15.453H78.141V325.58h18.415
	c0-5.405,0-10.049,0-15.453H78.141v-10.419h18.415c0-5.405,0-10.049,0-15.453H78.141v-10.418h18.415c0-5.405,0-10.049,0-15.453
	H78.141V247.43h18.415v-7.727c0-4.268,3.459-7.727,7.727-7.727H70.414c-4.267,0-7.727,3.459-7.727,7.727c0,41.121,0,89.3,0,131.712
	c0,4.268,3.459,7.727,7.727,7.727h33.869C100.016,379.142,96.556,375.683,96.556,371.415z"/>
<path style="fill:#CCCCCC;" d="M190.394,396.508c-4.957,0-8.975,4.018-8.975,8.975v61.116c0,4.957,4.018,8.975,8.975,8.975
	c8.97,0,133.656,0,129.108,0c4.957,0,8.975-4.018,8.975-8.975v-61.116c0-4.957-4.018-8.975-8.975-8.975
	C310.531,396.508,185.846,396.508,190.394,396.508z"/>
<path style="fill:#BABABA;" d="M212.325,466.599v-61.116c0-4.957,4.018-8.975,8.975-8.975c-8.188,0-23.277,0-30.907,0
	c-4.957,0-8.975,4.018-8.975,8.975v61.116c0,4.957,4.018,8.975,8.975,8.975c7.688,0,22.772,0,30.907,0
	C216.344,475.574,212.325,471.556,212.325,466.599z"/>
<path style="fill:#A4D9F4;" d="M446.476,167.02H65.524c-2.576,0-4.809-1.785-5.376-4.298L33.504,44.728
	c-0.778-3.447,1.843-6.726,5.376-6.726h434.24c3.534,0,6.155,3.279,5.376,6.726l-26.644,117.995
	C451.285,165.236,449.052,167.02,446.476,167.02z"/>
<path style="fill:#7CC9E8;" d="M91.054,162.723L64.41,44.728c-0.778-3.447,1.843-6.726,5.376-6.726H38.88
	c-3.534,0-6.155,3.279-5.376,6.726l26.644,117.995c0.567,2.513,2.8,4.298,5.376,4.298h30.907
	C93.855,167.02,91.622,165.236,91.054,162.723z"/>
<path style="fill:#70B5E8;" d="M478.496,44.728c0.778-3.447-1.842-6.725-5.375-6.726H38.879c-3.533,0.001-6.154,3.279-5.375,6.726
	l5.081,22.502c8.202,0,185.843,0,200.485,0h234.345L478.496,44.728z"/>
<path style="fill:#52A5D8;" d="M69.786,38.002H38.879c-3.533,0.001-6.154,3.279-5.376,6.726l5.081,22.502h30.907L64.41,44.728
	C63.632,41.281,66.253,38.003,69.786,38.002z"/>
<path style="fill:#535454;" d="M397.586,189.12c-14.094,0-272.09,0-283.173,0c-6.791,0-12.296,5.505-12.296,12.296
	s5.505,12.296,12.296,12.296c11.027,0,269.057,0,283.173,0c6.791,0,12.296-5.505,12.296-12.296S404.378,189.12,397.586,189.12z"/>
<path style="fill:#444443;" d="M133.025,201.416c0-6.791,5.505-12.296,12.296-12.296c-7.767,0-22.905,0-30.907,0
	c-6.791,0-12.296,5.505-12.296,12.296s5.505,12.296,12.296,12.296c8.002,0,23.139,0,30.907,0
	C138.529,213.713,133.025,208.208,133.025,201.416z"/>
<g>
</g>
<g>
</g>
<g>
</g>
<g>
</g>
<g>
</g>
<g>
</g>
<g>
</g>
<g>
</g>
<g>
</g>
<g>
</g>
<g>
</g>
<g>
</g>
<g>
</g>
<g>
</g>
<g>
</g>
</svg>
