<?xml version="1.0" encoding="iso-8859-1"?>
<!-- Generator: Adobe Illustrator 19.0.0, SVG Export Plug-In . SVG Version: 6.00 Build 0)  -->
<svg version="1.1" id="Capa_1" xmlns="http://www.w3.org/2000/svg" xmlns:xlink="http://www.w3.org/1999/xlink" x="0px" y="0px"
	 viewBox="0 0 512 512" style="enable-background:new 0 0 512 512;" xml:space="preserve">
<path style="fill:#898989;" d="M402.7,512H109.3c-25.321,0-46.039-20.718-46.039-46.039V46.039C63.261,20.718,83.978,0,109.3,0
	h293.4c25.321,0,46.039,20.718,46.039,46.039v419.922C448.739,491.282,428.022,512,402.7,512z"/>
<path style="fill:#777777;" d="M98.373,465.961V46.039C98.373,20.718,119.09,0,144.411,0H109.3
	C83.978,0,63.261,20.718,63.261,46.039v419.922C63.261,491.282,83.978,512,109.3,512h35.112
	C119.09,512,98.373,491.282,98.373,465.961z"/>
<path style="fill:#666666;" d="M209.377,308.328c-44.599,25.749-59.879,82.777-34.13,127.376
	c25.749,44.598,82.777,59.879,127.376,34.13s59.879-82.777,34.13-127.376S253.976,282.578,209.377,308.328z M278.279,427.669
	c-21.312,12.304-48.563,5.002-60.868-16.309c-12.305-21.312-5.002-48.563,16.309-60.868s48.563-5.003,60.868,16.309
	C306.893,388.113,299.591,415.365,278.279,427.669z"/>
<path style="fill:#535454;" d="M202.014,420.25c-23.116-40.039-13.159-90.09,21.388-118.539c-4.773,1.787-9.464,3.984-14.024,6.616
	c-44.599,25.749-59.879,82.777-34.13,127.376c25.749,44.598,82.777,59.879,127.376,34.13c4.56-2.633,8.808-5.597,12.742-8.837
	C273.455,476.69,225.13,460.288,202.014,420.25z"/>
<path style="fill:#EFEFEF;" d="M320.995,34.514H112.676c-7.9,0-14.304,6.404-14.304,14.304v202.167
	c0,7.9,6.404,14.304,14.304,14.304h208.319V34.514z"/>
<path style="fill:#DDDDDD;" d="M127.38,250.985V48.818c0-7.9,6.404-14.304,14.304-14.304h-29.008c-7.9,0-14.304,6.404-14.304,14.304
	v202.167c0,7.9,6.404,14.304,14.304,14.304h29.008C133.784,265.289,127.38,258.885,127.38,250.985z"/>
<g>
	<path style="fill:#EFEFEF;" d="M258.962,327.962h-5.924c-4.267,0-7.727-3.459-7.727-7.727c0-4.268,3.459-7.727,7.727-7.727h5.924
		c4.267,0,7.727,3.459,7.727,7.727S263.229,327.962,258.962,327.962z"/>
	<path style="fill:#EFEFEF;" d="M258.962,464.985h-5.924c-4.267,0-7.727-3.459-7.727-7.727c0-4.268,3.459-7.727,7.727-7.727h5.924
		c4.267,0,7.727,3.459,7.727,7.727C266.689,461.526,263.229,464.985,258.962,464.985z"/>
	<path style="fill:#EFEFEF;" d="M327.173,396.808h-5.924c-4.267,0-7.727-3.459-7.727-7.727c0-4.268,3.459-7.727,7.727-7.727h5.924
		c4.267,0,7.727,3.459,7.727,7.727S331.44,396.808,327.173,396.808z"/>
	<path style="fill:#EFEFEF;" d="M190.751,396.808h-5.924c-4.267,0-7.727-3.459-7.727-7.727c0-4.268,3.459-7.727,7.727-7.727h5.924
		c4.267,0,7.727,3.459,7.727,7.727S195.018,396.808,190.751,396.808z"/>
</g>
<g>
	<path style="fill:#70B5E8;" d="M275.664,152.987H135.107c-4.267,0-7.727-3.459-7.727-7.727s3.459-7.727,7.727-7.727h140.557
		c4.267,0,7.727,3.459,7.727,7.727C283.391,149.529,279.932,152.987,275.664,152.987z"/>
	<path style="fill:#70B5E8;" d="M275.664,191.195H135.107c-4.267,0-7.727-3.459-7.727-7.727s3.459-7.727,7.727-7.727h140.557
		c4.267,0,7.727,3.459,7.727,7.727S279.932,191.195,275.664,191.195z"/>
	<path style="fill:#70B5E8;" d="M275.664,114.78H135.107c-4.267,0-7.727-3.459-7.727-7.727s3.459-7.727,7.727-7.727h140.557
		c4.267,0,7.727,3.459,7.727,7.727S279.932,114.78,275.664,114.78z"/>
	<path style="fill:#70B5E8;" d="M275.664,229.402H135.107c-4.267,0-7.727-3.459-7.727-7.727s3.459-7.727,7.727-7.727h140.557
		c4.267,0,7.727,3.459,7.727,7.727S279.932,229.402,275.664,229.402z"/>
	<path style="fill:#70B5E8;" d="M399.323,265.289c7.9,0,14.304-6.404,14.304-14.304V48.818c0-7.9-6.404-14.304-14.304-14.304h-86.57
		v230.775H399.323z"/>
</g>
<rect x="312.75" y="34.514" style="fill:#52A5D8;" width="30.907" height="230.78"/>
<path style="fill:#CCCCCC;" d="M98.373,63.742h214.381V34.514H112.676c-3.95,0-7.526,1.601-10.114,4.19
	c-0.647,0.647-1.233,1.356-1.747,2.117c-1.542,2.283-2.443,5.035-2.443,7.997L98.373,63.742L98.373,63.742z"/>
<path style="fill:#BABABA;" d="M110.305,34.727c-0.412,0.069-0.817,0.156-1.217,0.259c-2.506,0.648-4.752,1.943-6.527,3.718
	c-0.647,0.647-1.233,1.356-1.747,2.117l-0.001,0.003c-0.23,0.341-0.441,0.696-0.642,1.057c-0.06,0.108-0.116,0.219-0.174,0.329
	c-0.142,0.271-0.275,0.547-0.399,0.828c-0.051,0.115-0.103,0.228-0.151,0.345c-0.159,0.385-0.306,0.777-0.431,1.178
	c0,0-0.002,0.007-0.003,0.01c-0.124,0.4-0.226,0.811-0.315,1.225c-0.027,0.125-0.049,0.252-0.072,0.377
	c-0.058,0.31-0.106,0.624-0.144,0.941c-0.015,0.129-0.033,0.259-0.045,0.389c-0.039,0.431-0.066,0.865-0.066,1.306
	c0,0,0,0.007,0,0.01v14.924h29.008V48.818c0-7.9,6.404-14.304,14.304-14.304h-29.008c-0.075,0-0.147,0.01-0.222,0.011
	C111.723,34.536,111.007,34.609,110.305,34.727z"/>
<g>
</g>
<g>
</g>
<g>
</g>
<g>
</g>
<g>
</g>
<g>
</g>
<g>
</g>
<g>
</g>
<g>
</g>
<g>
</g>
<g>
</g>
<g>
</g>
<g>
</g>
<g>
</g>
<g>
</g>
</svg>
