<?xml version="1.0" encoding="iso-8859-1"?>
<!-- Generator: Adobe Illustrator 19.0.0, SVG Export Plug-In . SVG Version: 6.00 Build 0)  -->
<svg version="1.1" id="Capa_1" xmlns="http://www.w3.org/2000/svg" xmlns:xlink="http://www.w3.org/1999/xlink" x="0px" y="0px"
	 viewBox="0 0 512 512" style="enable-background:new 0 0 512 512;" xml:space="preserve">
<path style="fill:#EFEFEF;" d="M95.162,7.711c-17.458,0-31.743,14.284-31.743,31.743v433.092c0,17.458,14.284,31.743,31.743,31.743
	h140.211V7.711H95.162z"/>
<path style="fill:#DDDDDD;" d="M102.054,472.546V39.454c0-17.458,14.284-31.743,31.743-31.743H95.162
	c-17.458,0-31.743,14.284-31.743,31.743v433.092c0,17.458,14.284,31.743,31.743,31.743h38.635
	C116.338,504.289,102.054,490.004,102.054,472.546z"/>
<path style="fill:#CCCCCC;" d="M235.373,74.87c4.259,0,7.711-3.453,7.711-7.711s-3.453-7.711-7.711-7.711H71.13V39.454
	c0-11.18,7.675-20.602,18.033-23.274c5.352-1.38-0.748-0.49,146.21-0.758c4.259,0,7.711-3.453,7.711-7.711S239.632,0,235.373,0
	H95.162C73.455,0,55.708,17.65,55.708,39.454c0,3.476,0,24.258,0,27.705c0,16.6,0,391.352,0,405.387
	c0,21.755,17.699,39.454,39.454,39.454h140.211c4.259,0,7.711-3.452,7.711-7.711s-3.453-7.711-7.711-7.711H95.162
	c-13.251,0-24.032-10.781-24.032-24.032v-19.993h164.242c4.259,0,7.711-3.452,7.711-7.711s-3.453-7.711-7.711-7.711H71.13V74.87
	H235.373z"/>
<circle style="fill:#666666;" cx="105.019" cy="37.817" r="11.178"/>
<path style="fill:#535454;" d="M105.019,26.648c-8.523-0.012-14.013,9.262-9.685,16.758c4.329,7.497,15.106,7.376,19.355-0.009
	C106.092,43.384,100.723,34.114,105.019,26.648z"/>
<path style="fill:#EFEFEF;" d="M139.358,45.666c-0.504,0-1.008-0.051-1.512-0.154c-0.483-0.103-0.976-0.247-1.439-0.442
	c-0.463-0.195-0.915-0.432-1.326-0.709c-1.207-0.795-2.238-1.988-2.848-3.465c-3.158-7.89,6.689-14.286,12.575-8.401
	c1.784,1.785,2.635,4.422,2.108,6.961c-0.093,0.494-0.247,0.977-0.432,1.44c-0.195,0.473-0.432,0.915-0.709,1.336
	c-0.288,0.422-0.606,0.812-0.966,1.172C143.378,44.843,141.383,45.666,139.358,45.666z"/>
<path style="fill:#F9D698;" d="M161.978,45.666c-2.026,0-4.02-0.822-5.45-2.262c-0.359-0.36-0.678-0.751-0.966-1.172
	c-0.278-0.422-0.514-0.863-0.709-1.336c-0.185-0.463-0.339-0.946-0.432-1.44c-0.103-0.493-0.154-1.008-0.154-1.511
	c0-6.207,6.959-9.801,11.988-6.406c0.857,0.564,1.558,1.277,2.139,2.128c0.278,0.422,0.514,0.863,0.709,1.337
	c0.185,0.462,0.339,0.946,0.432,1.439c0.102,0.493,0.154,1.008,0.154,1.501c0,0.504-0.052,1.018-0.154,1.511
	c-0.093,0.494-0.247,0.977-0.432,1.44c-0.195,0.473-0.432,0.915-0.709,1.336c-0.288,0.422-0.606,0.812-0.966,1.172
	c-0.349,0.349-0.751,0.678-1.172,0.956c-0.411,0.278-0.863,0.514-1.326,0.709c-0.463,0.196-0.956,0.339-1.44,0.442
	C162.986,45.614,162.482,45.666,161.978,45.666z"/>
<path style="fill:#535454;" d="M424.547,511.486H226.119c-17.458,0-31.743-14.284-31.743-31.743V32.257
	c0-17.458,14.284-31.743,31.743-31.743h198.429c17.458,0,31.743,14.284,31.743,31.743v447.486
	C456.29,497.202,442.006,511.486,424.547,511.486z"/>
<path style="fill:#444443;" d="M217.375,479.743V32.257c0-17.458,14.284-31.743,31.743-31.743h-22.999
	c-17.458,0-31.743,14.284-31.743,31.743v447.486c0,17.458,14.284,31.743,31.743,31.743h22.998
	C231.659,511.486,217.375,497.202,217.375,479.743z"/>
<path style="fill:#A4D9F4;" d="M427.906,435.191H222.761c-2.975,0-5.386-2.411-5.386-5.386V73.23c0-2.975,2.411-5.386,5.386-5.386
	h205.145c2.975,0,5.386,2.411,5.386,5.386v356.575C433.292,432.779,430.88,435.191,427.906,435.191z"/>
<path style="fill:#7CC9E8;" d="M239.223,429.805V73.23c0-2.975,2.411-5.386,5.386-5.386H222.76c-2.975,0-5.386,2.411-5.386,5.386
	v356.575c0,2.975,2.411,5.386,5.386,5.386h21.849C241.635,435.191,239.223,432.779,239.223,429.805z"/>
<g>
	<path style="fill:#666666;" d="M325.847,498.136c-13.678,0-24.805-11.127-24.805-24.805s11.127-24.805,24.805-24.805
		c13.678,0,24.805,11.127,24.805,24.805S339.525,498.136,325.847,498.136z M325.847,463.949c-5.174,0-9.382,4.209-9.382,9.382
		c0,5.173,4.209,9.382,9.382,9.382c5.173,0,9.382-4.209,9.382-9.382C335.229,468.158,331.021,463.949,325.847,463.949z"/>
	<path style="fill:#666666;" d="M360.587,51.222h-48.54c-4.259,0-7.711-3.453-7.711-7.711s3.453-7.711,7.711-7.711h48.54
		c4.259,0,7.711,3.453,7.711,7.711S364.846,51.222,360.587,51.222z"/>
	<path style="fill:#666666;" d="M276.085,45.018c-1.718-9.134,11.258-13.04,14.682-4.462c1.831,4.431-0.73,9.499-5.614,10.518
		C280.899,51.871,276.956,49.196,276.085,45.018z"/>
	<path style="fill:#666666;" d="M326.312,23.858c-0.834-4.524,2.199-8.347,6.056-9.068c8.146-1.681,12.807,9.18,5.789,13.973
		c-0.904,0.595-1.846,0.967-2.776,1.141C331.406,30.732,327.239,28.238,326.312,23.858z"/>
</g>
<path style="fill:#70B5E8;" d="M217.375,73.23v26.964h215.917V73.23c0-2.975-2.411-5.386-5.386-5.386H222.761
	C219.786,67.844,217.375,70.255,217.375,73.23z"/>
<path style="fill:#52A5D8;" d="M239.223,73.23c0-2.975,2.411-5.386,5.386-5.386H222.76c-2.962,0-5.386,2.399-5.386,5.386v26.964
	h21.849V73.23z"/>
<path style="fill:#70B5E8;" d="M263.297,297.18h-20.635c-1.892,0-3.439-1.548-3.439-3.439v-20.635c0-1.892,1.548-3.439,3.439-3.439
	h20.635c1.892,0,3.439,1.548,3.439,3.439v20.635C266.736,295.632,265.189,297.18,263.297,297.18z"/>
<path style="fill:#FFB70D;" d="M311.875,297.18H291.24c-1.892,0-3.439-1.548-3.439-3.439v-20.635c0-1.892,1.547-3.439,3.439-3.439
	h20.635c1.892,0,3.439,1.548,3.439,3.439v20.635C315.315,295.632,313.767,297.18,311.875,297.18z"/>
<path style="fill:#70B5E8;" d="M263.297,148.732h-20.635c-1.892,0-3.439-1.548-3.439-3.439v-20.635c0-1.892,1.548-3.439,3.439-3.439
	h20.635c1.892,0,3.439,1.548,3.439,3.439v20.635C266.736,147.185,265.189,148.732,263.297,148.732z"/>
<path style="fill:#EFEFEF;" d="M311.876,148.732h-20.635c-1.891,0-3.439-1.548-3.439-3.439v-20.635c0-1.892,1.548-3.439,3.439-3.439
	h20.635c1.892,0,3.439,1.548,3.439,3.439v20.635C315.315,147.185,313.767,148.732,311.876,148.732z"/>
<path style="fill:#F94A46;" d="M360.454,148.732h-20.635c-1.892,0-3.439-1.548-3.439-3.439v-20.635c0-1.892,1.548-3.439,3.439-3.439
	h20.635c1.892,0,3.439,1.548,3.439,3.439v20.635C363.893,147.185,362.345,148.732,360.454,148.732z"/>
<path style="fill:#EFEFEF;" d="M409.032,148.732h-20.635c-1.892,0-3.439-1.548-3.439-3.439v-20.635c0-1.892,1.548-3.439,3.439-3.439
	h20.635c1.892,0,3.439,1.548,3.439,3.439v20.635C412.471,147.185,410.924,148.732,409.032,148.732z"/>
<path style="fill:#DDA36F;" d="M263.297,197.789h-20.635c-1.892,0-3.439-1.548-3.439-3.439v-20.635c0-1.892,1.548-3.439,3.439-3.439
	h20.635c1.892,0,3.439,1.548,3.439,3.439v20.635C266.736,196.242,265.189,197.789,263.297,197.789z"/>
<path style="fill:#CCCCCC;" d="M311.876,197.789h-20.635c-1.891,0-3.439-1.548-3.439-3.439v-20.635c0-1.892,1.548-3.439,3.439-3.439
	h20.635c1.892,0,3.439,1.548,3.439,3.439v20.635C315.315,196.242,313.767,197.789,311.876,197.789z"/>
<path style="fill:#70B5E8;" d="M360.454,197.789h-20.635c-1.892,0-3.439-1.548-3.439-3.439v-20.635c0-1.892,1.548-3.439,3.439-3.439
	h20.635c1.892,0,3.439,1.548,3.439,3.439v20.635C363.893,196.242,362.345,197.789,360.454,197.789z"/>
<path style="fill:#FFB70D;" d="M409.032,197.789h-20.635c-1.892,0-3.439-1.548-3.439-3.439v-20.635c0-1.892,1.548-3.439,3.439-3.439
	h20.635c1.892,0,3.439,1.548,3.439,3.439v20.635C412.471,196.242,410.924,197.789,409.032,197.789z"/>
<path style="fill:#F9D698;" d="M263.297,247.485h-20.635c-1.892,0-3.439-1.548-3.439-3.439v-20.635c0-1.892,1.548-3.439,3.439-3.439
	h20.635c1.892,0,3.439,1.548,3.439,3.439v20.635C266.736,245.937,265.189,247.485,263.297,247.485z"/>
<path style="fill:#FFB70D;" d="M311.876,247.485h-20.635c-1.891,0-3.439-1.548-3.439-3.439v-20.635c0-1.892,1.548-3.439,3.439-3.439
	h20.635c1.892,0,3.439,1.548,3.439,3.439v20.635C315.315,245.937,313.767,247.485,311.876,247.485z"/>
<path style="fill:#EFEFEF;" d="M360.454,247.485h-20.635c-1.892,0-3.439-1.548-3.439-3.439v-20.635c0-1.892,1.548-3.439,3.439-3.439
	h20.635c1.892,0,3.439,1.548,3.439,3.439v20.635C363.893,245.937,362.345,247.485,360.454,247.485z"/>
<path style="fill:#898989;" d="M409.032,247.485h-20.635c-1.892,0-3.439-1.548-3.439-3.439v-20.635c0-1.892,1.548-3.439,3.439-3.439
	h20.635c1.892,0,3.439,1.548,3.439,3.439v20.635C412.471,245.937,410.924,247.485,409.032,247.485z"/>
<path style="fill:#FFB70D;" d="M263.297,346.875h-20.635c-1.892,0-3.439-1.548-3.439-3.439v-20.635c0-1.892,1.548-3.439,3.439-3.439
	h20.635c1.892,0,3.439,1.548,3.439,3.439v20.635C266.736,345.328,265.189,346.875,263.297,346.875z"/>
<path style="fill:#F94A46;" d="M311.876,346.875h-20.635c-1.891,0-3.439-1.548-3.439-3.439v-20.635c0-1.892,1.548-3.439,3.439-3.439
	h20.635c1.892,0,3.439,1.548,3.439,3.439v20.635C315.315,345.328,313.767,346.875,311.876,346.875z"/>
<path style="fill:#898989;" d="M360.454,346.875h-20.635c-1.892,0-3.439-1.548-3.439-3.439v-20.635c0-1.892,1.548-3.439,3.439-3.439
	h20.635c1.892,0,3.439,1.548,3.439,3.439v20.635C363.893,345.328,362.345,346.875,360.454,346.875z"/>
<path style="fill:#92B620;" d="M360.454,297.18h-20.635c-1.892,0-3.439-1.548-3.439-3.439v-20.635c0-1.892,1.548-3.439,3.439-3.439
	h20.635c1.892,0,3.439,1.548,3.439,3.439v20.635C363.893,295.632,362.345,297.18,360.454,297.18z"/>
<path style="fill:#70B5E8;" d="M409.032,297.18h-20.635c-1.892,0-3.439-1.548-3.439-3.439v-20.635c0-1.892,1.548-3.439,3.439-3.439
	h20.635c1.892,0,3.439,1.548,3.439,3.439v20.635C412.471,295.632,410.924,297.18,409.032,297.18z"/>
<path style="fill:#92B620;" d="M263.297,414.339h-20.635c-1.891,0-3.439-1.548-3.439-3.439v-20.635c0-1.892,1.548-3.439,3.439-3.439
	h20.635c1.892,0,3.439,1.548,3.439,3.439V410.9C266.736,412.792,265.189,414.339,263.297,414.339z"/>
<path style="fill:#70B5E8;" d="M311.876,414.339h-20.635c-1.892,0-3.439-1.548-3.439-3.439v-20.635c0-1.892,1.548-3.439,3.439-3.439
	h20.635c1.892,0,3.439,1.548,3.439,3.439V410.9C315.315,412.792,313.767,414.339,311.876,414.339z"/>
<path style="fill:#92B620;" d="M360.454,414.339h-20.635c-1.892,0-3.439-1.548-3.439-3.439v-20.635c0-1.892,1.548-3.439,3.439-3.439
	h20.635c1.891,0,3.439,1.548,3.439,3.439V410.9C363.893,412.792,362.345,414.339,360.454,414.339z"/>
<path style="fill:#EFEFEF;" d="M409.032,414.339h-20.635c-1.892,0-3.439-1.548-3.439-3.439v-20.635c0-1.892,1.548-3.439,3.439-3.439
	h20.635c1.892,0,3.439,1.548,3.439,3.439V410.9C412.471,412.792,410.924,414.339,409.032,414.339z"/>
<g>
</g>
<g>
</g>
<g>
</g>
<g>
</g>
<g>
</g>
<g>
</g>
<g>
</g>
<g>
</g>
<g>
</g>
<g>
</g>
<g>
</g>
<g>
</g>
<g>
</g>
<g>
</g>
<g>
</g>
</svg>
