<?xml version="1.0" encoding="iso-8859-1"?>
<!-- Generator: Adobe Illustrator 19.0.0, SVG Export Plug-In . SVG Version: 6.00 Build 0)  -->
<svg version="1.1" id="Capa_1" xmlns="http://www.w3.org/2000/svg" xmlns:xlink="http://www.w3.org/1999/xlink" x="0px" y="0px"
	 viewBox="0 0 512 512" style="enable-background:new 0 0 512 512;" xml:space="preserve">
<path style="fill:#CCCCCC;" d="M195.683,458.343c-0.867,7.146-4.784,15.629-10.741,19.67l-9.796,6.645c14.041,0,140.854,0,161.709,0
	l-9.796-6.645c-5.958-4.041-9.875-12.524-10.742-19.671l-4.759-41.293H200.442L195.683,458.343z"/>
<path style="fill:#BABABA;" d="M226.776,462.877l4.759-45.827h-31.093l-4.759,41.293c-0.867,7.146-4.784,15.629-10.741,19.67
	l-9.796,6.645c14.594,0,24.891,0,40.949,0C222.018,480.155,225.912,470.781,226.776,462.877z"/>
<path style="fill:#EFEFEF;" d="M467.521,0H44.479C28.457,0,15.346,13.11,15.346,29.133c0,18.021,0,343.202,0,360.845
	c0,16.024,13.109,29.133,29.133,29.133h423.041c16.023,0,29.133-13.109,29.133-29.133c0-17.257,0-343.254,0-360.845
	C496.654,13.11,483.544,0,467.521,0z"/>
<path style="fill:#DDDDDD;" d="M44.795,389.978c0-27.798,0-347.404,0-360.845C44.795,13.109,57.906,0,73.928,0H44.479
	C28.457,0,15.346,13.109,15.346,29.133c0,42.198,0,305.386,0,360.845c0,16.024,13.109,29.133,29.133,29.133h29.449
	C57.906,419.111,44.795,406.002,44.795,389.978z"/>
<path style="fill:#A4D9F4;" d="M462.233,29.242H49.768c-2.746,0-4.971,2.226-4.971,4.971c0,8.239,0,240.426,0,254.441
	c0,2.746,2.226,4.971,4.971,4.971h412.466c2.746,0,4.971-2.226,4.971-4.971c0-8.379,0-241.598,0-254.441
	C467.205,31.468,464.979,29.242,462.233,29.242z"/>
<path style="fill:#7CC9E8;" d="M75.558,288.655c0-13.128,0-248.874,0-254.442c0-2.746,2.226-4.971,4.971-4.971H49.768
	c-2.746,0-4.971,2.225-4.971,4.971c0,8.239,0,240.426,0,254.442c0,2.746,2.226,4.971,4.971,4.971h30.763
	C77.784,293.626,75.558,291.401,75.558,288.655z"/>
<path style="fill:#EFEFEF;" d="M351.32,482.597c-54.211,0-136.132,0-190.639,0c-8.086,0-14.701,6.616-14.701,14.701l0,0
	c0,8.086,6.615,14.701,14.701,14.701c55.291,0,136.668,0,190.639,0c8.086,0,14.701-6.616,14.701-14.701l0,0
	C366.021,489.212,359.405,482.597,351.32,482.597z"/>
<path style="fill:#DDDDDD;" d="M203.34,497.299L203.34,497.299c0-8.086,6.615-14.702,14.701-14.702c-9.077,0-43.029,0-57.362,0
	c-8.086,0-14.701,6.616-14.701,14.701v0.001c0,8.085,6.615,14.701,14.701,14.701c14.239,0,48.153,0,57.362,0
	C209.956,512,203.34,505.384,203.34,497.299z"/>
<path style="fill:#70B5E8;" d="M44.795,34.214v24.271h422.409V34.214c0-2.746-2.226-4.971-4.972-4.971H49.768
	C47.021,29.242,44.795,31.468,44.795,34.214z"/>
<path style="fill:#52A5D8;" d="M44.795,34.213v24.271h30.763V34.213c0-2.746,2.226-4.971,4.971-4.971
	c-32.374,0.138-31.046-0.308-32.698,0.391C46.047,30.388,44.795,32.154,44.795,34.213z"/>
<circle style="fill:#CCCCCC;" cx="255.998" cy="357.751" r="18.041"/>
<path style="fill:#BABABA;" d="M256.008,339.729c-13.755-0.02-22.616,14.949-15.632,27.047c6.987,12.102,24.383,11.903,31.239-0.014
	C257.729,366.74,249.079,351.77,256.008,339.729z"/>
<path style="fill:#52A5D8;" d="M145.812,270.821h-20.686c-1.896,0-3.447-1.551-3.447-3.448v-20.686c0-1.896,1.551-3.447,3.447-3.447
	h20.686c1.896,0,3.447,1.551,3.447,3.447v20.686C149.259,269.269,147.708,270.821,145.812,270.821z"/>
<path style="fill:#898989;" d="M242.237,270.821h-20.686c-1.896,0-3.447-1.551-3.447-3.448v-20.686c0-1.896,1.551-3.447,3.447-3.447
	h20.686c1.896,0,3.447,1.551,3.447,3.447v20.686C245.684,269.269,244.133,270.821,242.237,270.821z"/>
<path style="fill:#52A5D8;" d="M338.662,270.821h-20.686c-1.896,0-3.447-1.551-3.447-3.448v-20.686c0-1.896,1.551-3.447,3.447-3.447
	h20.686c1.896,0,3.447,1.551,3.447,3.447v20.686C342.11,269.269,340.558,270.821,338.662,270.821z"/>
<path style="fill:#F94A46;" d="M194.024,270.821h-20.686c-1.896,0-3.447-1.551-3.447-3.448v-20.686c0-1.896,1.551-3.447,3.447-3.447
	h20.686c1.896,0,3.447,1.551,3.447,3.447v20.686C197.471,269.269,195.92,270.821,194.024,270.821z"/>
<path style="fill:#FFB70D;" d="M290.449,270.821h-20.686c-1.896,0-3.447-1.551-3.447-3.448v-20.686c0-1.896,1.551-3.447,3.447-3.447
	h20.686c1.896,0,3.447,1.551,3.447,3.447v20.686C293.897,269.269,292.345,270.821,290.449,270.821z"/>
<path style="fill:#92B620;" d="M386.875,270.821h-20.686c-1.896,0-3.447-1.551-3.447-3.448v-20.686c0-1.896,1.551-3.447,3.447-3.447
	h20.686c1.896,0,3.447,1.551,3.447,3.447v20.686C390.322,269.269,388.771,270.821,386.875,270.821z"/>
<g>
</g>
<g>
</g>
<g>
</g>
<g>
</g>
<g>
</g>
<g>
</g>
<g>
</g>
<g>
</g>
<g>
</g>
<g>
</g>
<g>
</g>
<g>
</g>
<g>
</g>
<g>
</g>
<g>
</g>
</svg>
