<?xml version="1.0" encoding="iso-8859-1"?>
<!-- Generator: Adobe Illustrator 19.0.0, SVG Export Plug-In . SVG Version: 6.00 Build 0)  -->
<svg version="1.1" id="Capa_1" xmlns="http://www.w3.org/2000/svg" xmlns:xlink="http://www.w3.org/1999/xlink" x="0px" y="0px"
	 viewBox="0 0 512 512" style="enable-background:new 0 0 512 512;" xml:space="preserve">
<g>
	<path style="fill:#EFEFEF;" d="M255.262,344.448c-4.142,0-7.5,3.358-7.5,7.5v112.806c0,17.78-15.851,32.245-35.333,32.245
		c-19.483,0-35.333-14.465-35.333-32.245v-43.734c0-4.143-3.358-7.5-7.5-7.5c-4.142,0-7.5,3.357-7.5,7.5v43.734
		c0,26.052,22.58,47.246,50.335,47.246c27.754,0,50.334-21.194,50.334-47.246V351.948
		C262.763,347.805,259.405,344.448,255.262,344.448z"/>
	<path style="fill:#EFEFEF;" d="M181.788,368.395h-24.852c-0.737,0-1.456-0.077-2.161-0.196v6.296v39.64v6.296
		c0,8.056,6.53,14.587,14.587,14.587s14.587-6.53,14.587-14.587v-6.296v-39.64v-6.296
		C183.245,368.319,182.526,368.395,181.788,368.395z"/>
</g>
<g>
	<path style="fill:#DDDDDD;" d="M183.949,368.199c-0.705,0.12-1.423,0.196-2.161,0.196h2.161V368.199z"/>
	<path style="fill:#DDDDDD;" d="M169.362,414.137v-39.64v-6.1h-12.426c-0.738,0-1.456-0.077-2.161-0.196v6.296v39.64v6.296
		c0,8.056,6.53,14.587,14.587,14.587c2.66,0,5.146-0.724,7.293-1.967C167.012,427.467,169.836,416.779,169.362,414.137z"/>
</g>
<path style="fill:#CCCCCC;" d="M143.971,321.676v5.473v29.102v5.474c0,7.13,5.834,12.966,12.966,12.966h24.852
	c7.131,0,12.966-5.835,12.966-12.966v-5.474c0-13.027,0-22.214,0-34.576h-50.783V321.676z"/>
<path style="fill:#BABABA;" d="M169.362,361.727v-5.474c0-13.027,0-22.214,0-34.576h-25.392v5.473c0,13.027,0,22.214,0,34.576
	c0,7.13,5.834,12.966,12.966,12.966h24.852c0.091,0,0.179-0.012,0.27-0.014C175.052,374.533,169.362,368.766,169.362,361.727z"/>
<path style="fill:#EFEFEF;" d="M247.652,327.15H91.539c-21.908,0-39.731-17.823-39.731-39.731v-73.777
	c0-11.46,4.946-22.358,13.57-29.903l77.838-68.099c14.877-13.017,37.337-13.044,52.248-0.065l78.276,68.139
	c8.672,7.549,13.645,18.472,13.645,29.968v73.738C287.383,309.327,269.56,327.15,247.652,327.15z"/>
<path style="fill:#DDDDDD;" d="M78.809,299.715v-73.777c0-11.46,4.946-22.358,13.57-29.903l77.838-68.099
	c8.015-7.013,18.233-10.249,28.285-9.718l-3.038-2.645c-14.91-12.979-37.372-12.951-52.248,0.065l-77.838,68.099
	c-8.624,7.544-13.57,18.443-13.57,29.903v73.777c0,21.325,16.889,38.773,37.993,39.688
	C82.998,319.972,78.809,310.327,78.809,299.715z"/>
<path style="fill:#CCCCCC;" d="M160.994,135.96l-77.838,68.099c-2.763,2.417-4.348,5.909-4.348,9.582v73.777
	c0,7.02,5.71,12.73,12.73,12.73h156.113c7.018,0,12.73-5.71,12.73-12.73V213.68c0-3.683-1.593-7.183-4.372-9.602l-78.276-68.139
	C172.974,131.796,165.775,131.776,160.994,135.96z"/>
<path style="fill:#BABABA;" d="M109.218,227.391c0-3.672,1.584-7.164,4.348-9.582c83.093-72.645,77.708-68.098,78.98-68.977
	c-12.87-10.206-15.405-16.006-23.169-16.006c-2.998,0-5.995,1.044-8.383,3.133l-77.838,68.099c-2.763,2.417-4.347,5.909-4.347,9.582
	v73.777c0,7.02,5.71,12.73,12.73,12.73h17.679C109.218,300.147,109.218,227.391,109.218,227.391z"/>
<path style="fill:#EFEFEF;" d="M426.598,345.311c-4.142,0-7.5,3.358-7.5,7.5v47.19c0,17.78-15.851,32.246-35.333,32.246
	c-19.483,0-35.333-14.466-35.333-32.246c0-12.179,0-329.001,0-352.754C348.43,21.194,325.851,0,298.096,0
	s-50.334,21.194-50.334,47.246v86.232c0,4.143,3.358,7.5,7.5,7.5c4.142,0,7.5-3.357,7.5-7.5V47.246
	c0-17.78,15.851-32.245,35.333-32.245c19.482,0,35.333,14.465,35.333,32.245c0,17.792,0,337.158,0,352.754
	c0,26.053,22.58,47.247,50.335,47.247c27.754,0,50.334-21.194,50.334-47.247v-47.19C434.098,348.669,430.74,345.311,426.598,345.311
	z"/>
<path style="fill:#666666;" d="M169.362,212.357c4.142,0,7.5-3.357,7.5-7.5v-21.001c0-4.143-3.358-7.5-7.5-7.5
	c-4.142,0-7.5,3.357-7.5,7.5v21.001C161.862,208.999,165.22,212.357,169.362,212.357z"/>
<path style="fill:#535454;" d="M169.362,194.356c-4.142,0-7.5-3.357-7.5-7.5v18.001c0,4.143,3.358,7.5,7.5,7.5
	c4.142,0,7.5-3.357,7.5-7.5v-18.001C176.863,190.998,173.505,194.356,169.362,194.356z"/>
<path style="fill:#666666;" d="M143.971,250.859h-21.001c-4.142,0-7.5,3.357-7.5,7.5c0,4.143,3.358,7.5,7.5,7.5h21.001
	c4.142,0,7.5-3.357,7.5-7.5S148.113,250.859,143.971,250.859z"/>
<path style="fill:#535454;" d="M133.47,258.36c0-4.143,3.358-7.5,7.5-7.5h-18.001c-4.142,0-7.5,3.357-7.5,7.5
	c0,4.143,3.358,7.5,7.5,7.5h18.001C136.828,265.86,133.47,262.502,133.47,258.36z"/>
<path style="fill:#F9D698;" d="M436.862,181.144h-20.529c-7.131,0-12.966,5.835-12.966,12.966c0,17.724,0,22.608,0,39.915h46.462
	c0-11.978,0-13.009,0-33.496v-6.42C449.829,186.978,443.994,181.144,436.862,181.144z"/>
<path style="fill:#EFBB81;" d="M426.598,194.109c0-6.674,5.112-12.213,11.616-12.894c-0.444-0.046-0.895-0.072-1.351-0.072h-20.529
	c-7.131,0-12.966,5.834-12.966,12.966c0,17.724,0,22.608,0,39.915h23.23C426.598,216.793,426.598,211.915,426.598,194.109z"/>
<path style="fill:#CCCCCC;" d="M412.011,306.057c0,8.04,0,24.234,0,37.168c0,8.056,6.53,14.587,14.587,14.587
	s14.587-6.53,14.587-14.587c0-8.04,0-24.234,0-37.168L412.011,306.057L412.011,306.057z"/>
<path style="fill:#BABABA;" d="M426.598,339.558c0-13.121,0-27.802,0-33.501h-14.587c0,8.04,0,24.234,0,37.168
	c0,11.298,12.259,18.192,21.88,12.62C424.727,350.535,426.882,340.887,426.598,339.558z"/>
<path style="fill:#F9E8CD;" d="M427.611,195.793h-2.026c-4.142,0-7.5,3.357-7.5,7.5c0,4.143,3.358,7.5,7.5,7.5h2.026
	c4.142,0,7.5-3.357,7.5-7.5C435.111,199.151,431.753,195.793,427.611,195.793z"/>
<path style="fill:#EFEFEF;" d="M448.674,227.605h-44.154c-6.335,0-11.518,5.183-11.518,11.519c0,22.519,0,36.728,0,59.082
	c0,6.335,5.183,11.519,11.518,11.519h44.154c6.335,0,11.519-5.183,11.519-11.519c0-22.519,0-36.728,0-59.082
	C460.193,232.788,455.01,227.605,448.674,227.605z"/>
<path style="fill:#DDDDDD;" d="M427.211,298.205c0-22.3,0-46.91,0-59.082c0-6.335,5.183-11.519,11.518-11.519h-34.208
	c-6.335,0-11.518,5.183-11.518,11.519c0,21.053,0,38.183,0,59.082c0,6.335,5.183,11.519,11.518,11.519h34.208
	C432.393,309.724,427.211,304.54,427.211,298.205z"/>
<path style="fill:#666666;" d="M215.755,250.859h-21.001c-4.142,0-7.5,3.357-7.5,7.5c0,4.143,3.358,7.5,7.5,7.5h21.001
	c4.142,0,7.5-3.357,7.5-7.5S219.898,250.859,215.755,250.859z"/>
<path style="fill:#535454;" d="M205.254,258.36c0-4.143,3.358-7.5,7.5-7.5h-18.001c-4.142,0-7.5,3.357-7.5,7.5
	c0,4.143,3.358,7.5,7.5,7.5h18.001C208.613,265.86,205.254,262.502,205.254,258.36z"/>
<g>
</g>
<g>
</g>
<g>
</g>
<g>
</g>
<g>
</g>
<g>
</g>
<g>
</g>
<g>
</g>
<g>
</g>
<g>
</g>
<g>
</g>
<g>
</g>
<g>
</g>
<g>
</g>
<g>
</g>
</svg>
