<?xml version="1.0" encoding="iso-8859-1"?>
<!-- Generator: Adobe Illustrator 19.0.0, SVG Export Plug-In . SVG Version: 6.00 Build 0)  -->
<svg version="1.1" id="Capa_1" xmlns="http://www.w3.org/2000/svg" xmlns:xlink="http://www.w3.org/1999/xlink" x="0px" y="0px"
	 viewBox="0 0 512 512" style="enable-background:new 0 0 512 512;" xml:space="preserve">
<path style="fill:#EFEFEF;" d="M193.513,7.5c-8.056,0-14.587,6.53-14.587,14.587c0,13.525,0,81.359,0,93.613H208.1
	c0-12.121,0-80.089,0-93.613C208.1,14.031,201.57,7.5,193.513,7.5z"/>
<path style="fill:#DDDDDD;" d="M193.513,22.087c0-5.396,2.937-10.097,7.293-12.62c-9.627-5.575-21.88,1.326-21.88,12.62v9.334
	c0,13.206,0,74.83,0,84.279h14.587C193.513,103.579,193.513,35.612,193.513,22.087z"/>
<path style="fill:#EFEFEF;" d="M113.555,7.5c-8.056,0-14.587,6.53-14.587,14.587c0,12.121,0,80.089,0,93.613h29.174
	c0-12.121,0-80.089,0-93.613C128.142,14.031,121.612,7.5,113.555,7.5z"/>
<path style="fill:#DDDDDD;" d="M113.555,22.087c0-5.396,2.937-10.097,7.293-12.62c-2.147-1.244-4.633-1.967-7.293-1.967
	c-8.056,0-14.587,6.53-14.587,14.587c0,12.121,0,80.089,0,93.613h14.587C113.555,102.176,113.555,34.342,113.555,22.087z"/>
<path style="fill:#EFEFEF;" d="M239.435,345.448c-4.142,0-7.5,3.358-7.5,7.5v111.806c0,17.78-15.851,32.245-35.333,32.245
	c-19.483,0-35.333-14.465-35.333-32.245V418.02c0-4.143-3.358-7.5-7.5-7.5c-4.142,0-7.5,3.357-7.5,7.5v46.734
	c0,26.052,22.58,47.246,50.334,47.246c27.755,0,50.334-21.194,50.334-47.246V352.948
	C246.935,348.805,243.577,345.448,239.435,345.448z"/>
<path style="fill:#CCCCCC;" d="M165.961,368.396c-26.003-0.076-24.881,0.166-27.013-0.196c0,9.66,0,36.298,0,45.938v6.296
	c0,8.056,6.53,14.587,14.587,14.587s14.587-6.53,14.587-14.587c0-17.462,0-34.843,0-52.234
	C167.417,368.319,166.698,368.396,165.961,368.396z"/>
<g>
	<path style="fill:#BABABA;" d="M168.122,368.199c-0.705,0.12-1.423,0.196-2.161,0.196h2.161V368.199z"/>
	<path style="fill:#BABABA;" d="M153.535,414.137c0-6.923,0-38.834,0-45.741c-12.332-0.068-12.529,0.153-14.587-0.196
		c0,9.66,0,36.297,0,45.938v6.296c0,11.298,12.259,18.192,21.88,12.62C151.184,427.467,154.008,416.779,153.535,414.137z"/>
</g>
<path style="fill:#EFEFEF;" d="M410.769,331.31c-4.142,0-7.5,3.357-7.5,7.5v61.191c0,17.78-15.851,32.246-35.334,32.246
	c-19.482,0-35.333-14.466-35.333-32.246c0-18.298,0-335.494,0-352.754C332.603,21.194,310.022,0,282.269,0
	s-50.334,21.194-50.334,47.246v33.41c0,4.143,3.358,7.5,7.5,7.5c4.142,0,7.5-3.357,7.5-7.5v-33.41
	c0-17.78,15.851-32.245,35.333-32.245c19.483,0,35.333,14.465,35.333,32.245c0,17.259,0,334.457,0,352.754
	c0,26.053,22.58,47.247,50.334,47.247c27.755,0,50.334-21.194,50.334-47.247v-61.19C418.27,334.667,414.912,331.31,410.769,331.31z"
	/>
<path style="fill:#F9D698;" d="M113.555,7.5c-8.056,0-14.587,6.53-14.587,14.587v18.008h29.174V22.087
	C128.142,14.031,121.612,7.5,113.555,7.5z"/>
<path style="fill:#EFBB81;" d="M113.555,22.087c0-5.396,2.937-10.097,7.293-12.62c-2.137-1.238-4.691-1.967-7.293-1.967l0,0
	c-6.62,0-12.525,4.534-14.144,11.076c-0.734,2.965-0.322,4.183-0.443,12.846v8.675h14.587
	C113.555,33.795,113.555,28.413,113.555,22.087z"/>
<path style="fill:#F9D698;" d="M193.513,7.5c-8.056,0-14.587,6.53-14.587,14.587v18.008H208.1V22.087
	C208.1,14.031,201.57,7.5,193.513,7.5z"/>
<path style="fill:#EFBB81;" d="M178.926,22.087v9.334v8.675h14.587c0-6.3,0-11.683,0-18.008c0-5.396,2.937-10.097,7.293-12.62
	c-0.25-0.145-0.504-0.28-0.763-0.411c-1.633-0.817-3.374-1.323-5.222-1.491c-0.432-0.038-0.867-0.066-1.308-0.066
	C185.457,7.5,178.926,14.031,178.926,22.087z"/>
<path style="fill:#EFEFEF;" d="M128.142,321.676c0,12.225,0,27.229,0,40.049c0,7.13,5.834,12.966,12.966,12.966h24.852
	c7.131,0,12.966-5.835,12.966-12.966v-5.474c0-13.027,0-22.214,0-34.576h-50.783V321.676z"/>
<path style="fill:#DDDDDD;" d="M153.535,361.727c0-12.22,0-27.214,0-40.049h-25.392c0,12.225,0,27.229,0,40.049
	c0,7.13,5.834,12.966,12.966,12.966c9.365-0.004,23.986,0.011,25.122-0.014C159.223,374.533,153.535,368.766,153.535,361.727z"/>
<path style="fill:#F9D698;" d="M421.035,181.144h-20.529c-7.131,0-12.966,5.835-12.966,12.966c0,17.232,0,22.11,0,39.915h46.462
	c0-17.724,0-22.608,0-39.915C434.001,186.978,428.165,181.144,421.035,181.144z"/>
<path style="fill:#EFBB81;" d="M410.769,194.11c0-6.674,5.112-12.213,11.616-12.894c-1.299-0.136-0.586-0.047-21.88-0.072
	c-7.131,0-12.966,5.834-12.966,12.966c0,17.232,0,22.11,0,39.915h23.23C410.769,216.301,410.769,211.417,410.769,194.11z"/>
<path style="fill:#CCCCCC;" d="M396.182,306.057c0,8.04,0,24.234,0,37.168c0,8.056,6.53,14.587,14.587,14.587
	s14.587-6.53,14.587-14.587c0-12.935,0-29.119,0-37.168L396.182,306.057L396.182,306.057z"/>
<path style="fill:#BABABA;" d="M410.769,339.558c0-13.121,0-27.802,0-33.501h-14.587c0,8.04,0,24.234,0,37.168
	c0,11.298,12.259,18.192,21.88,12.62C408.898,350.535,411.053,340.887,410.769,339.558z"/>
<path style="fill:#F9E8CD;" d="M411.782,195.793h-2.026c-4.142,0-7.5,3.357-7.5,7.5c0,4.143,3.358,7.5,7.5,7.5h2.026
	c4.142,0,7.5-3.357,7.5-7.5C419.283,199.151,415.925,195.793,411.782,195.793z"/>
<path style="fill:#EFEFEF;" d="M226.468,106.366H80.6c-7.131,0-12.966,5.834-12.966,12.966c0,4.911,0,189.331,0,194.852
	c0,7.13,5.834,12.966,12.966,12.966h145.868c7.131,0,12.966-5.835,12.966-12.966c0-4.911,0-189.331,0-194.852
	C239.435,112.202,233.6,106.366,226.468,106.366z"/>
<path style="fill:#DDDDDD;" d="M96.807,314.184c0-11.462,0-186.358,0-194.851c0-7.131,5.834-12.966,12.966-12.966H80.6
	c-7.131,0-12.966,5.834-12.966,12.966c0,4.911,0,189.331,0,194.851c0,7.13,5.834,12.966,12.966,12.966h29.174
	C102.643,327.15,96.807,321.314,96.807,314.184z"/>
<rect x="113.556" y="106.366" style="fill:#CCCCCC;" width="79.957" height="220.783"/>
<rect x="113.556" y="106.366" style="fill:#BABABA;" width="29.588" height="220.783"/>
<path style="fill:#EFEFEF;" d="M432.846,227.606h-44.153c-6.335,0-11.518,5.183-11.518,11.519c0,22.519,0,36.728,0,59.082
	c0,6.335,5.183,11.519,11.518,11.519h44.154c6.335,0,11.519-5.183,11.519-11.519c0-22.519,0-36.728,0-59.082
	C444.364,232.788,439.181,227.606,432.846,227.606z"/>
<path style="fill:#DDDDDD;" d="M411.382,298.206c0-22.3,0-46.91,0-59.082c0-6.335,5.183-11.519,11.518-11.519h-34.207
	c-6.335,0-11.518,5.183-11.518,11.519c0,21.053,0,38.183,0,59.082c0,6.335,5.183,11.519,11.518,11.519h34.208
	C416.566,309.724,411.382,304.54,411.382,298.206z"/>
<g>
</g>
<g>
</g>
<g>
</g>
<g>
</g>
<g>
</g>
<g>
</g>
<g>
</g>
<g>
</g>
<g>
</g>
<g>
</g>
<g>
</g>
<g>
</g>
<g>
</g>
<g>
</g>
<g>
</g>
</svg>
