<?xml version="1.0" encoding="iso-8859-1"?>
<!-- Generator: Adobe Illustrator 19.0.0, SVG Export Plug-In . SVG Version: 6.00 Build 0)  -->
<svg version="1.1" id="Capa_1" xmlns="http://www.w3.org/2000/svg" xmlns:xlink="http://www.w3.org/1999/xlink" x="0px" y="0px"
	 viewBox="0 0 512.001 512.001" style="enable-background:new 0 0 512.001 512.001;" xml:space="preserve">
<path style="fill:#C69675;" d="M241.482,411.301v-30.588c0-5.217-2.539-9.446-5.67-9.446H67.531c-3.132,0-5.67,4.229-5.67,9.446
	v30.588c0,5.218,2.538,9.447,5.67,9.447h168.281C238.943,420.748,241.482,416.519,241.482,411.301z"/>
<path style="fill:#BA8867;" d="M92.86,411.301v-30.588c0-5.217,2.538-9.446,5.67-9.446H67.531c-3.132,0-5.67,4.23-5.67,9.446v30.588
	c0,5.218,2.538,9.447,5.67,9.447H98.53C95.398,420.748,92.86,416.519,92.86,411.301z"/>
<path style="fill:#DBB395;" d="M270.874,374.141v-22.486H32.47v22.486c0,3.983,3.229,7.212,7.212,7.212h223.98
	C267.645,381.353,270.874,378.124,270.874,374.141z"/>
<path style="fill:#C69675;" d="M63.377,374.141v-22.486H32.47v22.486c0,3.983,3.229,7.212,7.212,7.212h30.907
	C66.606,381.352,63.377,378.124,63.377,374.141z"/>
<path style="fill:#DBB395;" d="M254.498,451.655H48.845c-2.275,0-4.119-1.844-4.119-4.119v-32.367c0-2.275,1.844-4.119,4.119-4.119
	h205.653c2.275,0,4.119,1.844,4.119,4.119v32.367C258.617,449.811,256.773,451.655,254.498,451.655z"/>
<path style="fill:#C69675;" d="M72.8,447.05v-36H48.845c-2.275,0-4.119,1.844-4.119,4.119v32.367c0,2.275,1.844,4.119,4.119,4.119
	h28.561C74.862,451.655,72.8,449.594,72.8,447.05z"/>
<g>
	<path style="fill:#B27E5B;" d="M108.916,432.596c4.267,0,7.727-3.459,7.727-7.727V411.05H101.19v13.819
		C101.19,429.137,104.649,432.596,108.916,432.596z"/>
	<path style="fill:#B27E5B;" d="M80.413,432.596c4.267,0,7.727-3.459,7.727-7.727V411.05H72.686v13.819
		C72.686,429.137,76.146,432.596,80.413,432.596z"/>
	<path style="fill:#B27E5B;" d="M137.42,432.596c4.267,0,7.727-3.459,7.727-7.727V411.05h-15.454v13.819
		C129.693,429.137,133.152,432.596,137.42,432.596z"/>
	<path style="fill:#B27E5B;" d="M215.203,411.05v13.819c0,4.268,3.459,7.727,7.727,7.727s7.727-3.459,7.727-7.727V411.05H215.203z"
		/>
	<path style="fill:#B27E5B;" d="M165.924,432.596c4.267,0,7.727-3.459,7.727-7.727V411.05h-15.454v13.819
		C158.197,429.137,161.656,432.596,165.924,432.596z"/>
	<path style="fill:#B27E5B;" d="M194.427,432.596c4.267,0,7.727-3.459,7.727-7.727V411.05H186.7v13.819
		C186.7,429.137,190.16,432.596,194.427,432.596z"/>
</g>
<path style="fill:#E5C0A8;" d="M497.011,59.316H346.475c-8.278,0-14.989,6.711-14.989,14.988c0,20.331,0,348.659,0,363.393
	c0,8.278,6.711,14.988,14.989,14.988h150.537c8.278,0,14.989-6.711,14.989-14.988c0-6.256,0-347.575,0-363.393
	C512,66.027,505.289,59.316,497.011,59.316z"/>
<path style="fill:#DBB395;" d="M363.5,437.698c0-6.256,0-347.575,0-363.393c0-8.278,6.711-14.988,14.989-14.988h-32.014
	c-8.278,0-14.989,6.711-14.989,14.988c0,20.331,0,348.659,0,363.393c0,8.277,6.711,14.988,14.989,14.988h32.014
	C370.21,452.685,363.5,445.975,363.5,437.698z"/>
<path style="fill:#E5C0A8;" d="M290.363,352.685H12.981C5.812,352.685,0,346.873,0,339.704V103.586
	c0-7.169,5.812-12.981,12.981-12.981h277.382c7.169,0,12.981,5.812,12.981,12.981v236.118
	C303.343,346.873,297.532,352.685,290.363,352.685z"/>
<path style="fill:#DBB395;" d="M30.409,339.704V103.586c0-7.169,5.812-12.981,12.981-12.981H12.981C5.812,90.605,0,96.417,0,103.586
	v236.119c0,7.169,5.812,12.981,12.981,12.981H43.39C36.221,352.685,30.409,346.873,30.409,339.704z"/>
<path style="fill:#898989;" d="M265.722,310.347H37.621c-3.983,0-7.212-3.229-7.212-7.212V128.158c0-3.983,3.229-7.212,7.212-7.212
	h228.102c3.983,0,7.212,3.229,7.212,7.212v174.977C272.934,307.118,269.705,310.347,265.722,310.347z"/>
<path style="fill:#777777;" d="M61.317,303.135V128.158c0-3.983,3.229-7.211,7.212-7.211H37.621c-3.983,0-7.212,3.229-7.212,7.211
	v174.977c0,3.983,3.229,7.212,7.212,7.212h30.907C64.545,310.347,61.317,307.118,61.317,303.135z"/>
<path style="fill:#898989;" d="M466.078,87.514h-25.792c-4.923,0-58.648,0-62.878,0c-7.682,0-13.908,6.227-13.908,13.908
	c0,7.682,6.227,13.908,13.908,13.908h22.354h18.169h7.624h14.731h25.792c7.682,0,13.908-6.227,13.908-13.908
	S473.76,87.514,466.078,87.514z"/>
<path style="fill:#777777;" d="M394.407,101.423c0-7.682,6.227-13.908,13.908-13.908c-7.806,0-23.089,0-30.907,0
	c-7.682,0-13.908,6.227-13.908,13.908s6.227,13.908,13.908,13.908h22.354h8.553C400.634,115.331,394.407,109.104,394.407,101.423z"
	/>
<path style="fill:#666666;" d="M272.934,303.135v-22.486H30.409v22.486c0,3.983,3.229,7.212,7.212,7.212h228.101
	C269.705,310.347,272.934,307.118,272.934,303.135z"/>
<path style="fill:#535454;" d="M61.317,303.135v-22.486H30.409v22.486c0,1.991,0.807,3.794,2.112,5.099s3.108,2.112,5.099,2.112
	h30.907C64.545,310.347,61.317,307.118,61.317,303.135z"/>
<g>
	<path style="fill:#F94A46;" d="M37.689,339.524c-2.029,0-4.018-0.824-5.46-2.256c-1.432-1.433-2.256-3.431-2.256-5.46
		c0-0.505,0.051-1.02,0.144-1.515c0.103-0.494,0.247-0.979,0.443-1.442c0.196-0.474,0.433-0.918,0.711-1.34s0.608-0.814,0.958-1.174
		c1.792-1.793,4.461-2.617,6.975-2.112c0.495,0.103,0.978,0.248,1.442,0.443c0.474,0.196,0.917,0.433,1.339,0.711
		c0.423,0.278,0.814,0.608,1.175,0.958c1.432,1.443,2.267,3.431,2.267,5.471c0,0.504-0.052,1.009-0.154,1.504
		c-0.103,0.494-0.248,0.978-0.443,1.442c-0.196,0.474-0.433,0.918-0.711,1.339c-0.278,0.423-0.608,0.814-0.958,1.175
		c-0.361,0.35-0.752,0.68-1.175,0.958c-0.422,0.279-0.865,0.515-1.339,0.711c-0.464,0.195-0.948,0.34-1.442,0.443
		C38.709,339.483,38.194,339.524,37.689,339.524z"/>
	<path style="fill:#F94A46;" d="M418.787,396.724c-4.998-2.006-6.443-8.677-2.504-12.59c2.851-2.93,7.864-3.075,10.921,0
		c0.738,0.719,1.345,1.694,1.669,2.504c0.196,0.464,0.35,0.948,0.443,1.442c0.103,0.505,0.155,1.01,0.155,1.515
		C429.471,395.124,423.804,398.835,418.787,396.724z"/>
</g>
<g>
	<rect x="331.49" y="135.881" style="fill:#DBB395;" width="180.51" height="15.454"/>
	<rect x="331.49" y="192.891" style="fill:#DBB395;" width="180.51" height="15.454"/>
	<rect x="331.49" y="249.901" style="fill:#DBB395;" width="180.51" height="15.454"/>
</g>
<g>
	<rect x="331.49" y="135.881" style="fill:#C69675;" width="32.01" height="15.454"/>
	<rect x="331.49" y="192.891" style="fill:#C69675;" width="32.01" height="15.454"/>
	<rect x="331.49" y="249.901" style="fill:#C69675;" width="32.01" height="15.454"/>
	<path style="fill:#C69675;" d="M479.986,179.499H363.499c-4.267,0-7.727-3.459-7.727-7.727s3.459-7.727,7.727-7.727h116.487
		c4.267,0,7.727,3.459,7.727,7.727S484.254,179.499,479.986,179.499z"/>
	<path style="fill:#C69675;" d="M445.44,293.341h-47.393c-4.267,0-7.727-3.459-7.727-7.727c0-4.268,3.459-7.727,7.727-7.727h47.393
		c4.267,0,7.727,3.459,7.727,7.727C453.167,289.882,449.707,293.341,445.44,293.341z"/>
</g>
<path style="fill:#898989;" d="M445.44,419.807h-47.393c-4.267,0-7.727-3.459-7.727-7.727c0-4.268,3.459-7.727,7.727-7.727h47.393
	c4.267,0,7.727,3.459,7.727,7.727S449.707,419.807,445.44,419.807z"/>
<g>
</g>
<g>
</g>
<g>
</g>
<g>
</g>
<g>
</g>
<g>
</g>
<g>
</g>
<g>
</g>
<g>
</g>
<g>
</g>
<g>
</g>
<g>
</g>
<g>
</g>
<g>
</g>
<g>
</g>
</svg>
