<?xml version="1.0" encoding="iso-8859-1"?>
<!-- Generator: Adobe Illustrator 19.0.0, SVG Export Plug-In . SVG Version: 6.00 Build 0)  -->
<svg version="1.1" id="Capa_1" xmlns="http://www.w3.org/2000/svg" xmlns:xlink="http://www.w3.org/1999/xlink" x="0px" y="0px"
	 viewBox="0 0 512 512" style="enable-background:new 0 0 512 512;" xml:space="preserve">
<path style="fill:#DBB395;" d="M91.501,439.514v61.832c0,5.867,4.756,10.623,10.624,10.623h25.576
	c5.867,0,10.623-4.757,10.623-10.623v-0.001c0-5.867,4.756-10.623,10.624-10.623h214.106c5.867,0,10.624,4.756,10.624,10.623v0.001
	c0,5.867,4.756,10.623,10.623,10.623h25.575c5.867,0,10.623-4.757,10.623-10.623v-61.832H91.501z"/>
<path style="fill:#C69675;" d="M125.497,501.346v-61.832H91.501v61.832c0,5.867,4.756,10.623,10.624,10.623
	c25.603-0.281,26.264,0.652,29.786-0.871C128.139,509.468,125.497,505.717,125.497,501.346z"/>
<path style="fill:#E5C0A8;" d="M420.499,445.245V10.623C420.499,4.756,415.742,0,409.875,0h-307.75
	c-5.867,0-10.623,4.756-10.623,10.623v434.622H420.499z"/>
<path style="fill:#DBB395;" d="M136.007,0h-33.882c-5.867,0-10.623,4.756-10.623,10.623v434.622h33.882V10.623
	C125.383,4.756,130.14,0,136.007,0z"/>
<path style="fill:#898989;" d="M372.709,292.556H139.291c-7.681,0-13.907-6.226-13.907-13.908V63.353
	c0-7.681,6.226-13.907,13.907-13.907h233.418c7.681,0,13.908,6.226,13.908,13.907v215.295
	C386.617,286.33,380.39,292.556,372.709,292.556z"/>
<path style="fill:#777777;" d="M153.198,278.649V63.353c0-7.681,6.226-13.907,13.907-13.907H139.29
	c-7.681,0-13.907,6.226-13.907,13.907v215.295c0,7.681,6.226,13.907,13.907,13.907h27.815
	C159.425,292.556,153.198,286.33,153.198,278.649z"/>
<path style="fill:#C69675;" d="M364.816,472.995h-0.103c-4.267,0-7.726-3.459-7.726-7.726s3.459-7.726,7.726-7.726h0.103
	c4.267,0,7.726,3.459,7.726,7.726S369.083,472.995,364.816,472.995z M328.656,472.995h-0.103c-4.267,0-7.726-3.459-7.726-7.726
	s3.459-7.726,7.726-7.726h0.103c4.267,0,7.726,3.459,7.726,7.726S332.924,472.995,328.656,472.995z M292.497,472.995h-0.103
	c-4.267,0-7.726-3.459-7.726-7.726s3.459-7.726,7.726-7.726h0.103c4.267,0,7.726,3.459,7.726,7.726S296.764,472.995,292.497,472.995
	z M256.337,472.995h-0.103c-4.267,0-7.726-3.459-7.726-7.726s3.459-7.726,7.726-7.726h0.103c4.267,0,7.726,3.459,7.726,7.726
	S260.604,472.995,256.337,472.995z M220.178,472.995c-4.267,0-7.778-3.459-7.778-7.726s3.408-7.726,7.675-7.726h0.103
	c4.267,0,7.726,3.459,7.726,7.726S224.445,472.995,220.178,472.995z M184.019,472.995h-0.103c-4.267,0-7.726-3.459-7.726-7.726
	s3.459-7.726,7.726-7.726h0.103c4.267,0,7.726,3.459,7.726,7.726S188.286,472.995,184.019,472.995z M147.859,472.995h-0.103
	c-4.267,0-7.726-3.459-7.726-7.726s3.459-7.726,7.726-7.726h0.103c4.267,0,7.726,3.459,7.726,7.726S152.126,472.995,147.859,472.995
	z"/>
<g>
	<path style="fill:#666666;" d="M260.122,34.136c-2.04,0-4.028-0.824-5.47-2.267c-1.432-1.432-2.256-3.419-2.256-5.46
		c0-0.505,0.051-1.009,0.144-1.514c0.103-0.484,0.258-0.979,0.443-1.443c0.196-0.463,0.433-0.916,0.711-1.329
		c0.289-0.422,0.608-0.824,0.958-1.174c0.361-0.36,0.752-0.68,1.175-0.969c0.422-0.278,0.875-0.515,1.339-0.71
		c0.464-0.185,0.948-0.34,1.442-0.433c0.999-0.206,2.03-0.206,3.019,0c0.494,0.093,0.978,0.248,1.453,0.433
		c0.463,0.195,0.906,0.433,1.328,0.71c0.423,0.289,0.824,0.609,1.174,0.969c0.361,0.35,0.68,0.753,0.958,1.174
		c0.278,0.412,0.525,0.866,0.711,1.329c0.196,0.464,0.34,0.959,0.443,1.443c0.103,0.505,0.154,1.009,0.154,1.514
		c0,2.04-0.824,4.028-2.267,5.46C264.14,33.312,262.151,34.136,260.122,34.136z"/>
	<path style="fill:#666666;" d="M386.616,346.283h-84.604c-4.267,0-7.726-3.459-7.726-7.726s3.459-7.726,7.726-7.726h84.604
		c4.267,0,7.726,3.459,7.726,7.726S390.883,346.283,386.616,346.283z"/>
</g>
<circle style="fill:#EFEFEF;" cx="151.89" cy="338.56" r="13.907"/>
<path style="fill:#DDDDDD;" d="M151.893,324.66c-10.604-0.015-17.435,11.524-12.05,20.85c5.386,9.329,18.796,9.176,24.082-0.011
	C153.228,345.484,146.547,333.95,151.893,324.66z"/>
<path style="fill:#666666;" d="M162.249,264.741H349.75c4.999,0,9.051-4.052,9.051-9.051V86.312c0-4.999-4.052-9.051-9.051-9.051
	H162.249c-4.999,0-9.051,4.052-9.051,9.051V255.69C153.198,260.689,157.251,264.741,162.249,264.741z"/>
<path style="fill:#535454;" d="M184.104,255.69V86.312c0-4.999,4.052-9.051,9.051-9.051h-30.906c-4.999,0-9.051,4.052-9.051,9.051
	V255.69c0,4.999,4.052,9.051,9.051,9.051h30.906C188.156,264.741,184.104,260.689,184.104,255.69z"/>
<circle style="fill:#EFEFEF;" cx="204.89" cy="338.56" r="13.907"/>
<path style="fill:#DDDDDD;" d="M204.893,338.556c-2.572-4.455-2.387-9.737,0.006-13.897c-2.366-0.003-4.764,0.584-6.96,1.852
	c-6.652,3.84-8.931,12.346-5.09,18.998c3.841,6.652,12.346,8.931,18.998,5.091c2.196-1.268,3.904-3.05,5.084-5.101
	C212.131,345.492,207.465,343.012,204.893,338.556z"/>
<g>
</g>
<g>
</g>
<g>
</g>
<g>
</g>
<g>
</g>
<g>
</g>
<g>
</g>
<g>
</g>
<g>
</g>
<g>
</g>
<g>
</g>
<g>
</g>
<g>
</g>
<g>
</g>
<g>
</g>
</svg>
