<?xml version="1.0" encoding="iso-8859-1"?>
<!-- Generator: Adobe Illustrator 19.0.0, SVG Export Plug-In . SVG Version: 6.00 Build 0)  -->
<svg version="1.1" id="Capa_1" xmlns="http://www.w3.org/2000/svg" xmlns:xlink="http://www.w3.org/1999/xlink" x="0px" y="0px"
	 viewBox="0 0 512 512" style="enable-background:new 0 0 512 512;" xml:space="preserve">
<rect x="166.18" y="310.38" style="fill:#C69675;" width="179.65" height="56.915"/>
<rect x="166.18" y="310.38" style="fill:#BA8867;" width="31.16" height="56.915"/>
<path style="fill:#DBB395;" d="M129.518,279.551v7.037v14.964v7.037c0,4.877,3.953,8.83,8.829,8.83h235.304
	c4.876,0,8.83-3.953,8.83-8.83v-7.037v-14.964v-7.037H129.518z"/>
<path style="fill:#C69675;" d="M160.374,308.59v-7.037v-14.965v-7.037h-30.856v7.037v14.965v7.037c0,4.877,3.953,8.83,8.829,8.83
	h30.856C164.327,317.42,160.374,313.466,160.374,308.59z"/>
<path style="fill:#E5C0A8;" d="M408.08,0H103.92c-7.851,0-14.215,6.364-14.215,14.215v258.158c0,7.851,6.364,14.215,14.215,14.215
	h304.16c7.851,0,14.215-6.364,14.215-14.215V14.215C422.296,6.364,415.931,0,408.08,0z"/>
<path style="fill:#DBB395;" d="M124.239,272.373V14.215C124.239,6.364,130.604,0,138.454,0H103.92
	c-7.851,0-14.215,6.364-14.215,14.215v258.158c0,7.851,6.364,14.215,14.215,14.215h34.535
	C130.604,286.588,124.239,280.224,124.239,272.373z"/>
<path style="fill:#898989;" d="M373.876,244.518H138.125c-7.669,0-13.885-6.216-13.885-13.885V46.703
	c0-7.669,6.216-13.885,13.885-13.885h235.751c7.669,0,13.885,6.216,13.885,13.885v183.929
	C387.761,238.301,381.544,244.518,373.876,244.518z"/>
<path style="fill:#777777;" d="M152.01,230.633V46.703c0-7.669,6.217-13.885,13.885-13.885h-27.771
	c-7.669,0-13.885,6.216-13.885,13.885v183.929c0,7.669,6.217,13.885,13.885,13.885h27.771
	C158.226,244.518,152.01,238.301,152.01,230.633z"/>
<path style="fill:#E5C0A8;" d="M438.757,512H73.244c-8.887,0-16.091-7.204-16.091-16.091v-119.86
	c0-8.887,7.204-16.091,16.091-16.091h365.511c8.887,0,16.091,7.204,16.091,16.091v119.86C454.847,504.796,447.643,512,438.757,512z"
	/>
<path style="fill:#DBB395;" d="M92.249,495.909v-119.86c0-8.887,7.204-16.091,16.091-16.091H73.244
	c-8.887,0-16.091,7.204-16.091,16.091v119.86c0,8.887,7.204,16.091,16.091,16.091h35.096C99.454,512,92.249,504.796,92.249,495.909z
	"/>
<path style="fill:#F94A46;" d="M139.197,273.137c-0.504,0-1.008-0.051-1.502-0.144c-0.494-0.102-0.988-0.247-1.45-0.442
	c-0.463-0.196-0.915-0.432-1.327-0.71c-0.422-0.277-0.823-0.607-1.173-0.956c-1.44-1.44-2.262-3.425-2.262-5.451
	c0-2.037,0.823-4.022,2.262-5.462c0.35-0.36,0.751-0.679,1.173-0.956c0.411-0.278,0.864-0.514,1.327-0.71
	c0.463-0.195,0.957-0.34,1.45-0.442c2.499-0.504,5.163,0.318,6.953,2.108c0.36,0.361,0.679,0.751,0.967,1.173
	c0.278,0.421,0.514,0.864,0.71,1.337c0.185,0.463,0.34,0.946,0.432,1.439c0.103,0.494,0.155,1.008,0.155,1.513
	c0,0.493-0.052,1.007-0.155,1.502c-0.092,0.493-0.247,0.977-0.432,1.439c-0.195,0.473-0.432,0.916-0.71,1.338
	c-0.288,0.421-0.607,0.812-0.967,1.172c-0.349,0.35-0.751,0.679-1.173,0.956c-0.411,0.278-0.864,0.514-1.327,0.71
	c-0.463,0.195-0.956,0.339-1.44,0.442C140.205,273.085,139.701,273.137,139.197,273.137z"/>
<g>
	<path style="fill:#B27E5B;" d="M92.249,418.756c-4.26,0-7.714-3.453-7.714-7.714v-20.64c0-4.261,3.454-7.714,7.714-7.714
		s7.714,3.453,7.714,7.714v20.64C99.963,415.303,96.51,418.756,92.249,418.756z"/>
	<path style="fill:#B27E5B;" d="M152.024,418.756c-4.26,0-7.714-3.453-7.714-7.714v-20.64c0-4.261,3.454-7.714,7.714-7.714
		c4.26,0,7.714,3.453,7.714,7.714v20.64C159.739,415.303,156.285,418.756,152.024,418.756z"/>
	<path style="fill:#B27E5B;" d="M122.137,418.756c-4.26,0-7.714-3.453-7.714-7.714v-20.64c0-4.261,3.454-7.714,7.714-7.714
		s7.714,3.453,7.714,7.714v20.64C129.851,415.303,126.397,418.756,122.137,418.756z"/>
	<path style="fill:#B27E5B;" d="M181.912,418.756c-4.26,0-7.714-3.453-7.714-7.714v-20.64c0-4.261,3.454-7.714,7.714-7.714
		s7.714,3.453,7.714,7.714v20.64C189.626,415.303,186.173,418.756,181.912,418.756z"/>
	<path style="fill:#B27E5B;" d="M211.8,418.756c-4.26,0-7.714-3.453-7.714-7.714v-20.64c0-4.261,3.454-7.714,7.714-7.714
		s7.714,3.453,7.714,7.714v20.64C219.514,415.303,216.06,418.756,211.8,418.756z"/>
	<path style="fill:#B27E5B;" d="M241.688,418.756c-4.26,0-7.714-3.453-7.714-7.714v-20.64c0-4.261,3.454-7.714,7.714-7.714
		c4.26,0,7.714,3.453,7.714,7.714v20.64C249.402,415.303,245.948,418.756,241.688,418.756z"/>
	<path style="fill:#B27E5B;" d="M301.464,418.756c-4.26,0-7.714-3.453-7.714-7.714v-20.64c0-4.261,3.454-7.714,7.714-7.714
		c4.26,0,7.714,3.453,7.714,7.714v20.64C309.177,415.303,305.723,418.756,301.464,418.756z"/>
	<path style="fill:#B27E5B;" d="M271.576,418.756c-4.26,0-7.714-3.453-7.714-7.714v-20.64c0-4.261,3.454-7.714,7.714-7.714
		s7.714,3.453,7.714,7.714v20.64C279.289,415.303,275.835,418.756,271.576,418.756z"/>
	<path style="fill:#B27E5B;" d="M331.352,418.756c-4.26,0-7.714-3.453-7.714-7.714v-20.64c0-4.261,3.454-7.714,7.714-7.714
		c4.26,0,7.714,3.453,7.714,7.714v20.64C339.065,415.303,335.611,418.756,331.352,418.756z"/>
	<path style="fill:#B27E5B;" d="M361.238,418.756c-4.26,0-7.714-3.453-7.714-7.714v-20.64c0-4.261,3.454-7.714,7.714-7.714
		c4.26,0,7.714,3.453,7.714,7.714v20.64C368.952,415.303,365.498,418.756,361.238,418.756z"/>
	<path style="fill:#B27E5B;" d="M391.126,418.756c-4.26,0-7.714-3.453-7.714-7.714v-20.64c0-4.261,3.454-7.714,7.714-7.714
		c4.26,0,7.714,3.453,7.714,7.714v20.64C398.84,415.303,395.386,418.756,391.126,418.756z"/>
	<path style="fill:#B27E5B;" d="M421.013,418.756c-4.26,0-7.714-3.453-7.714-7.714v-20.64c0-4.261,3.454-7.714,7.714-7.714
		c4.26,0,7.714,3.453,7.714,7.714v20.64C428.727,415.303,425.273,418.756,421.013,418.756z"/>
</g>
<path style="fill:#DBB395;" d="M397.229,440.582H116.034c-5.357,0-9.74,4.383-9.74,9.74c0,5.082,0,17.988,0,23.058
	c0,5.357,4.383,9.74,9.74,9.74h281.195c5.357,0,9.74-4.383,9.74-9.74c0-13.155,0-7.62,0-23.058
	C406.969,444.965,402.586,440.582,397.229,440.582z"/>
<path style="fill:#C69675;" d="M137.565,473.379c0-5.082,0-17.988,0-23.058c0-5.357,4.383-9.74,9.74-9.74h-31.271
	c-5.357,0-9.74,4.383-9.74,9.74c0,13.148,0,9.467,0,23.058c0,5.357,4.383,9.74,9.74,9.74h31.271
	C141.948,483.119,137.565,478.736,137.565,473.379z"/>
<path style="fill:#666666;" d="M161.142,216.747h189.716c5.044,0,9.132-4.089,9.132-9.132V69.721c0-5.044-4.089-9.132-9.132-9.132
	H161.142c-5.044,0-9.132,4.089-9.132,9.132v137.895C152.01,212.659,156.098,216.747,161.142,216.747z"/>
<path style="fill:#535454;" d="M182.866,207.615V69.721c0-5.044,4.089-9.132,9.132-9.132h-30.856c-5.044,0-9.132,4.089-9.132,9.132
	v137.895c0,5.043,4.089,9.132,9.132,9.132h30.856C186.954,216.747,182.866,212.659,182.866,207.615z"/>
<g>
</g>
<g>
</g>
<g>
</g>
<g>
</g>
<g>
</g>
<g>
</g>
<g>
</g>
<g>
</g>
<g>
</g>
<g>
</g>
<g>
</g>
<g>
</g>
<g>
</g>
<g>
</g>
<g>
</g>
</svg>
