<?xml version="1.0" encoding="iso-8859-1"?>
<!-- Generator: Adobe Illustrator 19.0.0, SVG Export Plug-In . SVG Version: 6.00 Build 0)  -->
<svg version="1.1" id="Capa_1" xmlns="http://www.w3.org/2000/svg" xmlns:xlink="http://www.w3.org/1999/xlink" x="0px" y="0px"
	 viewBox="0 0 512.001 512.001" style="enable-background:new 0 0 512.001 512.001;" xml:space="preserve">
<path style="fill:#EFEFEF;" d="M384.408,512H127.594c-15.248,0-27.724-12.476-27.724-27.724V27.724
	C99.87,12.476,112.346,0,127.594,0h256.814c15.248,0,27.724,12.476,27.724,27.724v456.553C412.131,499.524,399.656,512,384.408,512z
	"/>
<path style="fill:#DDDDDD;" d="M130.778,484.276V27.724C130.778,12.476,143.253,0,158.501,0h-30.907
	C112.346,0,99.87,12.476,99.87,27.724v456.553c0,15.248,12.476,27.724,27.724,27.724h30.907
	C143.253,512,130.778,499.524,130.778,484.276z"/>
<path style="fill:#CCCCCC;" d="M286.699,246.136c-63.165-16.926-128.325,20.694-145.249,83.86
	c-16.926,63.167,20.694,128.325,83.86,145.251c63.166,16.925,128.325-20.695,145.25-83.861
	C387.484,328.219,349.865,263.061,286.699,246.136z M296.363,371.505c-5.972,22.289-28.883,35.517-51.173,29.545
	s-35.517-28.883-29.545-51.173c5.972-22.29,28.883-35.517,51.173-29.545C289.107,326.304,302.335,349.215,296.363,371.505z"/>
<path style="fill:#BABABA;" d="M252.076,459.792c-95.233-25.518-118.822-149.405-41.453-208.612
	c-32.86,13.661-59.272,41.863-69.173,78.815c-16.926,63.167,20.694,128.325,83.86,145.251c36.952,9.901,74.582,1.129,102.843-20.498
	C304.842,464.438,278.289,466.816,252.076,459.792z"/>
<rect x="149.801" y="80.22" style="fill:#92B620;" width="42.478" height="44.922"/>
<rect x="192.281" y="80.22" style="fill:#FFB70D;" width="42.478" height="44.922"/>
<rect x="234.761" y="80.22" style="fill:#F9D698;" width="42.478" height="44.922"/>
<rect x="277.241" y="80.22" style="fill:#FC6868;" width="42.478" height="44.922"/>
<rect x="149.801" y="125.14" style="fill:#F9D698;" width="42.478" height="41.4"/>
<rect x="192.281" y="125.14" style="fill:#8970E5;" width="42.478" height="41.4"/>
<rect x="234.761" y="125.14" style="fill:#A4D9F4;" width="42.478" height="41.4"/>
<rect x="277.241" y="125.14" style="fill:#898989;" width="42.478" height="41.4"/>
<rect x="319.721" y="125.14" style="fill:#70B5E8;" width="42.478" height="41.4"/>
<path style="fill:#F94A46;" d="M149.805,166.539v30.763c0,5.848,4.784,10.632,10.632,10.632h31.846v-41.395H149.805z"/>
<rect x="192.281" y="166.54" style="fill:#70B5E8;" width="42.478" height="41.4"/>
<rect x="234.761" y="166.54" style="fill:#92B620;" width="42.478" height="41.4"/>
<rect x="277.241" y="166.54" style="fill:#FFB70D;" width="42.478" height="41.4"/>
<path style="fill:#FC6868;" d="M319.718,207.935h31.846c5.848,0,10.632-4.785,10.632-10.632V166.54h-42.478V207.935z"/>
<g>
	<path style="fill:#EFEFEF;" d="M265.499,292.27h-18.991c-4.267,0-7.727-3.459-7.727-7.727c0-4.268,3.459-7.727,7.727-7.727h18.991
		c4.267,0,7.727,3.459,7.727,7.727C273.226,288.811,269.767,292.27,265.499,292.27z"/>
	<path style="fill:#EFEFEF;" d="M265.499,445.743h-18.991c-4.267,0-7.727-3.459-7.727-7.727c0-4.268,3.459-7.727,7.727-7.727h18.991
		c4.267,0,7.727,3.459,7.727,7.727C273.226,442.284,269.767,445.743,265.499,445.743z"/>
	<path style="fill:#EFEFEF;" d="M345.172,368.417h-18.991c-4.267,0-7.727-3.459-7.727-7.727c0-4.268,3.459-7.727,7.727-7.727h18.991
		c4.267,0,7.727,3.459,7.727,7.727C352.899,364.958,349.439,368.417,345.172,368.417z"/>
	<path style="fill:#EFEFEF;" d="M186.858,368.417h-18.992c-4.267,0-7.727-3.459-7.727-7.727c0-4.268,3.46-7.727,7.727-7.727h18.992
		c4.267,0,7.727,3.459,7.727,7.727C194.585,364.958,191.125,368.417,186.858,368.417z"/>
</g>
<rect x="319.721" y="80.22" style="fill:#92B620;" width="42.478" height="44.922"/>
<path style="fill:#70B5E8;" d="M351.564,33.499H160.438c-5.848,0-10.632,4.785-10.632,10.632c0,13.849,0,25.126,0,39.616h212.391
	c0-13.85,0-25.126,0-39.616C362.197,38.284,357.412,33.499,351.564,33.499z"/>
<path style="fill:#52A5D8;" d="M192.284,44.132c0-5.848,4.785-10.632,10.632-10.632h-42.478c-5.848,0-10.632,4.785-10.632,10.632
	c0,14.474,0,25.758,0,39.616h42.478v-16.75C192.284,61.582,192.284,49.504,192.284,44.132z"/>
<g>
	<path style="fill:#A4D9F4;" d="M328.503,66.35h-21.635c-4.267,0-7.727-3.459-7.727-7.727s3.46-7.727,7.727-7.727h21.635
		c4.267,0,7.727,3.459,7.727,7.727S332.77,66.35,328.503,66.35z"/>
	<path style="fill:#A4D9F4;" d="M266.818,66.35h-21.635c-4.267,0-7.727-3.459-7.727-7.727s3.459-7.727,7.727-7.727h21.635
		c4.267,0,7.727,3.459,7.727,7.727C274.545,62.891,271.086,66.35,266.818,66.35z"/>
</g>
<g>
</g>
<g>
</g>
<g>
</g>
<g>
</g>
<g>
</g>
<g>
</g>
<g>
</g>
<g>
</g>
<g>
</g>
<g>
</g>
<g>
</g>
<g>
</g>
<g>
</g>
<g>
</g>
<g>
</g>
</svg>
