<?xml version="1.0" encoding="iso-8859-1"?>
<!-- Generator: Adobe Illustrator 19.0.0, SVG Export Plug-In . SVG Version: 6.00 Build 0)  -->
<svg version="1.1" id="Capa_1" xmlns="http://www.w3.org/2000/svg" xmlns:xlink="http://www.w3.org/1999/xlink" x="0px" y="0px"
	 viewBox="0 0 512 512" style="enable-background:new 0 0 512 512;" xml:space="preserve">
<path style="fill:#EFEFEF;" d="M438.188,0c-28.054,0-18.55,0-45.18,0c-4.486,0-8.123,3.637-8.123,8.123c0,5.5,0,15.916,0,21.447
	v3.091c43.491,0,17.746,0,61.273,0V29.57V11.06V7.969C446.158,3.568,442.59,0,438.188,0z"/>
<path style="fill:#DDDDDD;" d="M415.521,8.123c0-4.486,3.637-8.123,8.123-8.123c-11.116,0-20.313,0-30.636,0
	c-4.486,0-8.123,3.637-8.123,8.123c0,6.172,0,18.364,0,24.538c10.254,0,19.458,0,30.637,0V29.57
	C415.521,24.039,415.521,13.623,415.521,8.123z"/>
<path style="fill:#EFEFEF;" d="M346.814,0h-14.423h-16.333h-14.423c-4.486,0-8.123,3.637-8.123,8.123v3.091V29.57v3.091h14.423
	h32.426h14.423c0-6.199,0-18.468,0-24.691C354.784,3.568,351.216,0,346.814,0z"/>
<path style="fill:#DDDDDD;" d="M324.148,11.213v-3.09c0-4.486,3.637-8.123,8.123-8.123h-16.213h-14.423
	c-4.486,0-8.123,3.637-8.123,8.123v3.091V29.57v3.091h14.423h16.213V29.57V11.213z"/>
<path style="fill:#70B5E8;" d="M497.215,483.817v-20.862V78.614V57.753c0-15.5-12.682-28.183-28.183-28.183H42.968
	c-15.5,0-28.183,12.682-28.183,28.183c0,18.002,0,414.092,0,426.064c0,15.501,12.682,28.183,28.183,28.183h426.065
	C484.533,512,497.215,499.318,497.215,483.817z"/>
<path style="fill:#52A5D8;" d="M45.692,483.817c0-14.055,0-404.658,0-426.064c0-15.5,12.682-28.183,28.183-28.183H42.968
	c-15.5,0-28.183,12.682-28.183,28.183c0,18.002,0,414.092,0,426.064c0,15.501,12.682,28.183,28.183,28.183h30.907
	C58.375,512,45.692,499.318,45.692,483.817z"/>
<path style="fill:#EFEFEF;" d="M344.897,435.467c-90.806,52.427-207.334,21.203-259.761-69.603S63.934,158.53,154.74,106.104
	S362.073,84.9,414.5,175.706S435.704,383.04,344.897,435.467z M192.29,171.143c-54.943,31.721-73.835,102.227-42.114,157.17
	s102.227,73.835,157.17,42.114s73.835-102.227,42.113-157.17S247.233,139.422,192.29,171.143z"/>
<path style="fill:#DDDDDD;" d="M111.903,350.41c-49.825-86.3-24.089-195.826,56.535-251.487
	C67.566,146.772,29.974,270.319,85.137,365.864c52.427,90.806,168.954,122.029,259.76,69.603c4.506-2.602,8.859-5.367,13.068-8.273
	C269.45,469.186,161.729,436.711,111.903,350.41z"/>
<g>
	<path style="fill:#CCCCCC;" d="M258.627,127.368h-17.616c-4.267,0-7.727-3.459-7.727-7.727s3.459-7.727,7.727-7.727h17.616
		c4.267,0,7.727,3.459,7.727,7.727S262.894,127.368,258.627,127.368z"/>
	<path style="fill:#CCCCCC;" d="M258.627,429.165h-17.616c-4.267,0-7.727-3.459-7.727-7.727s3.459-7.727,7.727-7.727h17.616
		c4.267,0,7.727,3.459,7.727,7.727S262.894,429.165,258.627,429.165z"/>
	<path style="fill:#CCCCCC;" d="M410.585,278.512h-17.616c-4.267,0-7.727-3.459-7.727-7.727c0-4.268,3.46-7.727,7.727-7.727h17.616
		c4.267,0,7.727,3.459,7.727,7.727C418.312,275.053,414.852,278.512,410.585,278.512z"/>
</g>
<g>
	<path style="fill:#EFEFEF;" d="M271.314,294.165c-4.267,0-7.727-3.459-7.727-7.727v-31.414c0-4.268,3.459-7.727,7.727-7.727
		c4.267,0,7.727,3.459,7.727,7.727v31.414C279.041,290.706,275.582,294.165,271.314,294.165z"/>
	<path style="fill:#EFEFEF;" d="M299.454,294.165c-4.267,0-7.727-3.459-7.727-7.727v-31.414c0-4.268,3.459-7.727,7.727-7.727
		c4.267,0,7.727,3.459,7.727,7.727v31.414C307.181,290.706,303.722,294.165,299.454,294.165z"/>
</g>
<path style="fill:#CCCCCC;" d="M105.543,278.512H87.926c-4.267,0-7.727-3.459-7.727-7.727c0-4.268,3.46-7.727,7.727-7.727h17.617
	c4.267,0,7.727,3.459,7.727,7.727C113.27,275.053,109.81,278.512,105.543,278.512z"/>
<path style="fill:#EFEFEF;" d="M209.028,297.109c-6.419,3.559-14.288-1.144-14.193-8.482l0.462-36.037
	c0.094-7.339,8.081-11.838,14.406-8.116l31.304,18.423c6.375,3.752,6.256,13.011-0.213,16.598
	C240.563,279.623,207.93,297.718,209.028,297.109z"/>
<path style="fill:#DDDDDD;" d="M241.008,262.897l-5.617-3.306c-6.162,3.417-19.938,11.055-26.362,14.617
	c-5.707,3.165-12.547-0.21-13.93-6.154l-0.264,20.572c-0.094,7.338,7.775,12.041,14.193,8.482c8.203-4.548-4.88,2.706,31.766-17.614
	C247.263,275.908,247.382,266.648,241.008,262.897z"/>
<path style="fill:#A4D9F4;" d="M469.032,29.57h-1.046V512h1.046c15.5,0,28.183-12.682,28.183-28.183v-20.862V78.614V57.753
	C497.215,42.253,484.533,29.57,469.032,29.57z"/>
<g>
</g>
<g>
</g>
<g>
</g>
<g>
</g>
<g>
</g>
<g>
</g>
<g>
</g>
<g>
</g>
<g>
</g>
<g>
</g>
<g>
</g>
<g>
</g>
<g>
</g>
<g>
</g>
<g>
</g>
</svg>
