<?xml version="1.0" encoding="iso-8859-1"?>
<!-- Generator: Adobe Illustrator 19.0.0, SVG Export Plug-In . SVG Version: 6.00 Build 0)  -->
<svg version="1.1" id="Capa_1" xmlns="http://www.w3.org/2000/svg" xmlns:xlink="http://www.w3.org/1999/xlink" x="0px" y="0px"
	 viewBox="0 0 512.001 512.001" style="enable-background:new 0 0 512.001 512.001;" xml:space="preserve">
<path style="fill:#EFEFEF;" d="M384.408,512H127.594c-15.248,0-27.724-12.476-27.724-27.724V27.724
	C99.87,12.476,112.346,0,127.594,0h256.814c15.248,0,27.724,12.476,27.724,27.724v456.553C412.132,499.524,399.656,512,384.408,512z
	"/>
<path style="fill:#DDDDDD;" d="M130.778,484.276V27.724C130.778,12.476,143.253,0,158.501,0h-30.907
	C112.346,0,99.87,12.476,99.87,27.724v456.553c0,15.248,12.476,27.724,27.724,27.724h30.907
	C143.253,512,130.778,499.524,130.778,484.276z"/>
<circle style="fill:#CCCCCC;" cx="155.381" cy="258.5" r="19.894"/>
<path style="fill:#BABABA;" d="M167.459,267.772c-10.613-2.843-16.911-13.752-14.067-24.365c0.46-1.718,1.151-3.308,1.998-4.779
	c-8.792-0.009-16.843,5.831-19.227,14.726c-2.844,10.613,3.454,21.521,14.067,24.365c8.895,2.384,17.979-1.669,22.366-9.288
	C170.9,268.43,169.177,268.233,167.459,267.772z"/>
<path style="fill:#CCCCCC;" d="M277.032,312.16c-43.278-11.596-87.921,14.179-99.517,57.456
	c-11.597,43.278,14.178,87.922,57.456,99.518s87.921-14.179,99.518-57.457C346.084,368.4,320.309,323.757,277.032,312.16z
	 M283.243,398.53c-4.053,15.126-19.601,24.102-34.727,20.049c-15.126-4.053-24.102-19.601-20.049-34.727
	c4.053-15.126,19.601-24.102,34.727-20.049C278.32,367.857,287.296,383.404,283.243,398.53z"/>
<path style="fill:#BABABA;" d="M261.737,453.681c-43.278-11.596-69.053-56.24-57.456-99.518
	c4.356-16.255,13.374-30.04,25.231-40.304c-24.632,8.538-44.757,28.735-51.998,55.758c-11.597,43.278,14.178,87.922,57.456,99.518
	c27.022,7.241,54.576-0.09,74.286-17.152C294.439,457.118,277.992,458.037,261.737,453.681z"/>
<path style="fill:#A4D9F4;" d="M351.564,207.935H160.438c-5.848,0-10.632-4.785-10.632-10.633V44.132
	c0-5.848,4.785-10.632,10.632-10.632h191.126c5.848,0,10.632,4.785,10.632,10.632v153.17
	C362.197,203.15,357.412,207.935,351.564,207.935z"/>
<path style="fill:#7CC9E8;" d="M180.713,197.302V44.132c0-5.848,4.785-10.632,10.632-10.632h-30.907
	c-5.848,0-10.632,4.785-10.632,10.632v153.17c0,5.848,4.785,10.632,10.632,10.632h30.907
	C185.498,207.935,180.713,203.15,180.713,197.302z"/>
<path style="fill:#70B5E8;" d="M351.564,33.499H160.438c-5.848,0-10.632,4.785-10.632,10.632v16.75v6.117v16.75h212.391v-16.75
	v-6.117v-16.75C362.197,38.284,357.412,33.499,351.564,33.499z"/>
<path style="fill:#52A5D8;" d="M149.806,44.132v39.616h30.907V44.132c0-5.848,4.785-10.632,10.632-10.632h-30.907
	C154.59,33.499,149.806,38.284,149.806,44.132z"/>
<g>
	<path style="fill:#70B5E8;" d="M333.366,122.325h-154.73c-4.267,0-7.727-3.459-7.727-7.727s3.459-7.727,7.727-7.727h154.73
		c4.267,0,7.727,3.459,7.727,7.727C341.093,118.866,337.633,122.325,333.366,122.325z"/>
	<path style="fill:#70B5E8;" d="M333.366,153.458h-154.73c-4.267,0-7.727-3.459-7.727-7.727s3.459-7.727,7.727-7.727h154.73
		c4.267,0,7.727,3.459,7.727,7.727S337.633,153.458,333.366,153.458z"/>
	<path style="fill:#70B5E8;" d="M333.366,184.592h-154.73c-4.267,0-7.727-3.459-7.727-7.727s3.459-7.727,7.727-7.727h154.73
		c4.267,0,7.727,3.459,7.727,7.727S337.633,184.592,333.366,184.592z"/>
</g>
<g>
	<path style="fill:#A4D9F4;" d="M328.503,66.35h-21.635c-4.267,0-7.727-3.459-7.727-7.727s3.459-7.727,7.727-7.727h21.635
		c4.267,0,7.727,3.459,7.727,7.727S332.77,66.35,328.503,66.35z"/>
	<path style="fill:#A4D9F4;" d="M266.819,66.35h-21.635c-4.267,0-7.727-3.459-7.727-7.727s3.459-7.727,7.727-7.727h21.635
		c4.267,0,7.727,3.459,7.727,7.727S271.086,66.35,266.819,66.35z"/>
</g>
<circle style="fill:#CCCCCC;" cx="222.101" cy="258.5" r="19.894"/>
<path style="fill:#BABABA;" d="M234.184,267.772c-10.613-2.843-16.911-13.752-14.067-24.365c0.46-1.718,1.151-3.308,1.998-4.779
	c-8.792-0.009-16.843,5.831-19.227,14.726c-2.844,10.613,3.454,21.521,14.067,24.365c8.895,2.384,17.979-1.669,22.366-9.288
	C237.624,268.43,235.902,268.233,234.184,267.772z"/>
<circle style="fill:#CCCCCC;" cx="288.831" cy="258.5" r="19.894"/>
<path style="fill:#BABABA;" d="M300.914,267.772c-10.613-2.843-16.911-13.752-14.067-24.365c0.46-1.718,1.151-3.308,1.998-4.779
	c-8.792-0.009-16.843,5.831-19.227,14.726c-2.844,10.613,3.454,21.521,14.067,24.365c8.895,2.384,17.979-1.669,22.366-9.288
	C304.354,268.43,302.631,268.233,300.914,267.772z"/>
<circle style="fill:#CCCCCC;" cx="355.561" cy="258.5" r="19.894"/>
<path style="fill:#BABABA;" d="M367.638,267.772c-10.613-2.843-16.911-13.752-14.067-24.365c0.46-1.718,1.151-3.308,1.998-4.779
	c-8.792-0.009-16.843,5.831-19.227,14.726c-2.844,10.613,3.454,21.521,14.067,24.365c8.895,2.384,17.979-1.669,22.366-9.288
	C371.079,268.43,369.356,268.233,367.638,267.772z"/>
<g>
</g>
<g>
</g>
<g>
</g>
<g>
</g>
<g>
</g>
<g>
</g>
<g>
</g>
<g>
</g>
<g>
</g>
<g>
</g>
<g>
</g>
<g>
</g>
<g>
</g>
<g>
</g>
<g>
</g>
</svg>
