<?xml version="1.0" encoding="iso-8859-1"?>
<!-- Generator: Adobe Illustrator 19.0.0, SVG Export Plug-In . SVG Version: 6.00 Build 0)  -->
<svg version="1.1" id="Capa_1" xmlns="http://www.w3.org/2000/svg" xmlns:xlink="http://www.w3.org/1999/xlink" x="0px" y="0px"
	 viewBox="0 0 512.001 512.001" style="enable-background:new 0 0 512.001 512.001;" xml:space="preserve">
<path style="fill:#F7CF9C;" d="M190.648,474.835V37.165C190.648,16.724,207.372,0,227.813,0H96.08
	C75.639,0,58.915,16.724,58.915,37.165v437.671c0,20.44,16.724,37.165,37.165,37.165h131.733
	C207.372,512,190.648,495.276,190.648,474.835z"/>
<path style="fill:#EFBB81;" d="M89.822,474.835V37.165C89.822,16.724,106.547,0,126.987,0H96.08
	C75.639,0,58.915,16.724,58.915,37.165v437.671c0,20.44,16.724,37.165,37.165,37.165h30.907
	C106.547,512,89.822,495.276,89.822,474.835z"/>
<path style="fill:#EFEFEF;" d="M58.915,37.165v39.063h131.733V37.165C190.648,16.724,207.372,0,227.813,0H96.08
	C75.639,0,58.915,16.724,58.915,37.165z"/>
<path style="fill:#DDDDDD;" d="M58.915,76.228h30.907V37.165C89.822,16.724,106.547,0,126.987,0H96.08
	C75.71,0,58.915,16.642,58.915,37.165V76.228z"/>
<path style="fill:#EFEFEF;" d="M58.915,474.835v-39.063h131.733v39.063c0,20.44,16.724,37.165,37.165,37.165H96.08
	C75.639,512,58.915,495.276,58.915,474.835z"/>
<path style="fill:#DDDDDD;" d="M89.822,474.835v-39.063H58.915v39.063C58.915,495.253,75.617,512,96.08,512h30.907
	C106.547,512,89.822,495.276,89.822,474.835z"/>
<circle style="fill:#666666;" cx="102.07" cy="41.02" r="14.244"/>
<path style="fill:#535454;" d="M102.079,26.792c-2.423-0.004-4.879,0.599-7.129,1.897c-6.813,3.933-9.147,12.645-5.214,19.458
	s12.645,9.147,19.458,5.214c2.249-1.299,3.999-3.124,5.207-5.225C103.437,48.12,96.608,36.299,102.079,26.792z"/>
<path style="fill:#CCCCCC;" d="M139.078,48.756c-0.505,0-1.01-0.051-1.514-0.154c-0.484-0.103-0.979-0.247-1.442-0.443
	c-0.464-0.196-0.917-0.433-1.329-0.711c-0.423-0.278-0.825-0.608-1.175-0.958c-0.361-0.36-0.68-0.752-0.968-1.174
	c-0.278-0.423-0.515-0.866-0.701-1.329c-0.196-0.474-0.35-0.958-0.443-1.453c-0.103-0.495-0.155-1.01-0.155-1.504
	c0-0.505,0.052-1.02,0.155-1.515c0.093-0.495,0.247-0.978,0.443-1.442c0.186-0.463,0.423-0.917,0.701-1.339
	c0.288-0.423,0.608-0.814,0.968-1.175c0.35-0.35,0.752-0.68,1.175-0.958c0.412-0.278,0.865-0.515,1.329-0.711
	c0.463-0.196,0.958-0.34,1.442-0.443c0.999-0.196,2.029-0.196,3.029,0c0.484,0.103,0.979,0.247,1.442,0.443
	c0.464,0.196,0.917,0.433,1.329,0.711c0.423,0.278,0.824,0.608,1.175,0.958c0.361,0.361,0.68,0.752,0.968,1.175
	c0.278,0.422,0.515,0.876,0.711,1.339c0.186,0.464,0.34,0.948,0.433,1.442c0.103,0.495,0.154,1.01,0.154,1.515
	c0,0.495-0.051,1.01-0.154,1.504c-0.093,0.495-0.247,0.979-0.433,1.453c-0.196,0.463-0.433,0.906-0.711,1.329
	c-0.289,0.422-0.608,0.814-0.968,1.174c-0.351,0.351-0.752,0.68-1.175,0.958c-0.412,0.278-0.865,0.515-1.329,0.711
	c-0.463,0.196-0.958,0.34-1.442,0.443C140.088,48.704,139.583,48.756,139.078,48.756z"/>
<path style="fill:#F9D698;" d="M162.087,56.171c-4.267,0-7.727-3.459-7.727-7.727V33.605c0-4.267,3.46-7.727,7.727-7.727
	s7.727,3.459,7.727,7.727v14.839C169.814,52.712,166.354,56.171,162.087,56.171z"/>
<path style="fill:#EFEFEF;" d="M415.921,512H226.783c-20.44,0-37.165-16.724-37.165-37.165V37.165
	C189.618,16.724,206.342,0,226.783,0h189.137c20.44,0,37.165,16.724,37.165,37.165v437.671C453.085,495.276,436.361,512,415.921,512
	z"/>
<path style="fill:#DDDDDD;" d="M212.026,474.835V37.165C212.026,16.724,228.75,0,249.191,0h-22.408
	c-20.44,0-37.165,16.724-37.165,37.165v437.671c0,20.44,16.724,37.165,37.165,37.165h22.408
	C228.75,512,212.026,495.276,212.026,474.835z"/>
<path style="fill:#A4D9F4;" d="M422.509,421.87H220.195c-4.445,0-8.049-3.604-8.049-8.049V90.458c0-4.445,3.604-8.049,8.049-8.049
	h202.314c4.445,0,8.049,3.604,8.049,8.049V413.82C430.559,418.266,426.954,421.87,422.509,421.87z"/>
<path style="fill:#7CC9E8;" d="M234.553,413.821V90.458c0-4.445,3.604-8.049,8.049-8.049h-22.408c-4.445,0-8.049,3.604-8.049,8.049
	V413.82c0,4.445,3.604,8.049,8.049,8.049h22.408C238.157,421.87,234.553,418.266,234.553,413.821z"/>
<g>
	<path style="fill:#CCCCCC;" d="M352.301,60.935h-33.444c-4.267,0-7.727-3.459-7.727-7.727c0-4.267,3.459-7.727,7.727-7.727h33.444
		c4.267,0,7.727,3.459,7.727,7.727C360.029,57.476,356.568,60.935,352.301,60.935z"/>
	<path style="fill:#CCCCCC;" d="M283.271,56.163c-2.388-5.661,2.609-11.741,8.644-10.529c8.33,1.728,8.15,13.455,0,15.155
		C289.171,61.293,284.564,59.392,283.271,56.163z"/>
	<path style="fill:#CCCCCC;" d="M318.341,28.068c0-8.33,11.55-10.811,14.867-2.957c1.245,3.111,0.403,6.35-1.679,8.418
		C326.693,38.398,318.341,34.903,318.341,28.068z"/>
</g>
<path style="fill:#F9D698;" d="M321.352,493.624c-14.958,0-27.127-12.17-27.127-27.128c0-14.958,12.169-27.127,27.127-27.127
	s27.128,12.17,27.128,27.127C348.479,481.454,336.31,493.624,321.352,493.624z M321.352,454.822
	c-6.437,0-11.674,5.237-11.674,11.674s5.237,11.674,11.674,11.674s11.674-5.237,11.674-11.674
	C333.025,460.059,327.789,454.822,321.352,454.822z"/>
<path style="fill:#70B5E8;" d="M212.145,90.458v24.366h218.412V90.458c0-4.445-3.604-8.049-8.049-8.049H220.195
	C215.749,82.409,212.145,86.013,212.145,90.458z"/>
<path style="fill:#52A5D8;" d="M212.146,90.458v24.366h22.408V90.458c0-4.445,3.604-8.049,8.049-8.049
	c-22.804,0.209-22.917-0.477-25.541,0.633C214.173,84.264,212.146,87.124,212.146,90.458z"/>
<path style="fill:#F94A46;" d="M258.676,313.481H238c-1.895,0-3.446-1.551-3.446-3.446v-20.676c0-1.895,1.551-3.446,3.446-3.446
	h20.676c1.895,0,3.446,1.551,3.446,3.446v20.676C262.122,311.93,260.572,313.481,258.676,313.481z"/>
<path style="fill:#898989;" d="M307.352,313.481h-20.676c-1.895,0-3.446-1.551-3.446-3.446v-20.676c0-1.895,1.551-3.446,3.446-3.446
	h20.676c1.895,0,3.446,1.551,3.446,3.446v20.676C310.798,311.93,309.247,313.481,307.352,313.481z"/>
<path style="fill:#92B620;" d="M258.676,164.735H238c-1.895,0-3.446-1.551-3.446-3.446v-20.676c0-1.895,1.551-3.446,3.446-3.446
	h20.676c1.895,0,3.446,1.551,3.446,3.446v20.676C262.122,163.184,260.572,164.735,258.676,164.735z"/>
<path style="fill:#F94A46;" d="M307.352,164.735h-20.676c-1.895,0-3.446-1.551-3.446-3.446v-20.676c0-1.895,1.551-3.446,3.446-3.446
	h20.676c1.895,0,3.446,1.551,3.446,3.446v20.676C310.798,163.184,309.247,164.735,307.352,164.735z"/>
<path style="fill:#FFB70D;" d="M356.029,164.735h-20.676c-1.895,0-3.446-1.551-3.446-3.446v-20.676c0-1.895,1.551-3.446,3.446-3.446
	h20.676c1.895,0,3.446,1.551,3.446,3.446v20.676C359.474,163.184,357.923,164.735,356.029,164.735z"/>
<path style="fill:#EFEFEF;" d="M404.704,164.735h-20.676c-1.895,0-3.446-1.551-3.446-3.446v-20.676c0-1.895,1.551-3.446,3.446-3.446
	h20.676c1.895,0,3.446,1.551,3.446,3.446v20.676C408.15,163.184,406.599,164.735,404.704,164.735z"/>
<path style="fill:#DDA36F;" d="M258.676,213.891H238c-1.895,0-3.446-1.551-3.446-3.446v-20.676c0-1.895,1.551-3.446,3.446-3.446
	h20.676c1.895,0,3.446,1.551,3.446,3.446v20.676C262.122,212.34,260.572,213.891,258.676,213.891z"/>
<path style="fill:#70B5E8;" d="M307.352,213.891h-20.676c-1.895,0-3.446-1.551-3.446-3.446v-20.676c0-1.895,1.551-3.446,3.446-3.446
	h20.676c1.895,0,3.446,1.551,3.446,3.446v20.676C310.798,212.34,309.247,213.891,307.352,213.891z"/>
<path style="fill:#F9D698;" d="M356.029,213.891h-20.676c-1.895,0-3.446-1.551-3.446-3.446v-20.676c0-1.895,1.551-3.446,3.446-3.446
	h20.676c1.895,0,3.446,1.551,3.446,3.446v20.676C359.474,212.34,357.923,213.891,356.029,213.891z"/>
<path style="fill:#70B5E8;" d="M404.704,213.891h-20.676c-1.895,0-3.446-1.551-3.446-3.446v-20.676c0-1.895,1.551-3.446,3.446-3.446
	h20.676c1.895,0,3.446,1.551,3.446,3.446v20.676C408.15,212.34,406.599,213.891,404.704,213.891z"/>
<path style="fill:#EFEFEF;" d="M258.676,263.686H238c-1.895,0-3.446-1.551-3.446-3.446v-20.676c0-1.895,1.551-3.446,3.446-3.446
	h20.676c1.895,0,3.446,1.551,3.446,3.446v20.676C262.122,262.135,260.572,263.686,258.676,263.686z"/>
<path style="fill:#FFB70D;" d="M307.352,263.686h-20.676c-1.895,0-3.446-1.551-3.446-3.446v-20.676c0-1.895,1.551-3.446,3.446-3.446
	h20.676c1.895,0,3.446,1.551,3.446,3.446v20.676C310.798,262.135,309.247,263.686,307.352,263.686z"/>
<path style="fill:#70B5E8;" d="M356.029,263.686h-20.676c-1.895,0-3.446-1.551-3.446-3.446v-20.676c0-1.895,1.551-3.446,3.446-3.446
	h20.676c1.895,0,3.446,1.551,3.446,3.446v20.676C359.474,262.135,357.923,263.686,356.029,263.686z"/>
<path style="fill:#EFEFEF;" d="M404.704,263.686h-20.676c-1.895,0-3.446-1.551-3.446-3.446v-20.676c0-1.895,1.551-3.446,3.446-3.446
	h20.676c1.895,0,3.446,1.551,3.446,3.446v20.676C408.15,262.135,406.599,263.686,404.704,263.686z"/>
<path style="fill:#92B620;" d="M258.675,399.204h-20.676c-1.895,0-3.446-1.551-3.446-3.446v-20.676c0-1.895,1.551-3.446,3.446-3.446
	h20.676c1.895,0,3.446,1.551,3.446,3.446v20.676C262.122,397.654,260.572,399.204,258.675,399.204z"/>
<path style="fill:#70B5E8;" d="M307.352,399.204h-20.676c-1.895,0-3.446-1.551-3.446-3.446v-20.676c0-1.895,1.551-3.446,3.446-3.446
	h20.676c1.895,0,3.446,1.551,3.446,3.446v20.676C310.798,397.654,309.247,399.204,307.352,399.204z"/>
<path style="fill:#52A5D8;" d="M356.029,399.204h-20.676c-1.895,0-3.446-1.551-3.446-3.446v-20.676c0-1.895,1.551-3.446,3.446-3.446
	h20.676c1.895,0,3.446,1.551,3.446,3.446v20.676C359.474,397.654,357.923,399.204,356.029,399.204z"/>
<path style="fill:#EFEFEF;" d="M404.704,399.204h-20.676c-1.895,0-3.446-1.551-3.446-3.446v-20.676c0-1.895,1.551-3.446,3.446-3.446
	h20.676c1.895,0,3.446,1.551,3.446,3.446v20.676C408.15,397.654,406.599,399.204,404.704,399.204z"/>
<g>
</g>
<g>
</g>
<g>
</g>
<g>
</g>
<g>
</g>
<g>
</g>
<g>
</g>
<g>
</g>
<g>
</g>
<g>
</g>
<g>
</g>
<g>
</g>
<g>
</g>
<g>
</g>
<g>
</g>
</svg>
