<?xml version="1.0" encoding="iso-8859-1"?>
<!-- Generator: Adobe Illustrator 19.0.0, SVG Export Plug-In . SVG Version: 6.00 Build 0)  -->
<svg version="1.1" id="Capa_1" xmlns="http://www.w3.org/2000/svg" xmlns:xlink="http://www.w3.org/1999/xlink" x="0px" y="0px"
	 viewBox="0 0 512 512" style="enable-background:new 0 0 512 512;" xml:space="preserve">
<path style="fill:#70B5E8;" d="M499.1,512H12.9C5.805,512,0,506.195,0,499.1V12.9C0,5.805,5.805,0,12.9,0h486.2
	c7.095,0,12.9,5.805,12.9,12.9v486.2C512,506.195,506.195,512,499.1,512z"/>
<path style="fill:#52A5D8;" d="M32.063,499.1V12.9c0-7.095,5.805-12.9,12.9-12.9H12.9C5.805,0,0,5.805,0,12.9v486.2
	c0,7.095,5.805,12.9,12.9,12.9h32.063C37.869,512,32.063,506.195,32.063,499.1z"/>
<path style="fill:#EFEFEF;" d="M459.332,479.937H52.668c-11.38,0-20.605-9.225-20.605-20.605V52.668
	c0-11.38,9.225-20.605,20.605-20.605h406.664c11.38,0,20.605,9.225,20.605,20.605v406.664
	C479.937,470.712,470.712,479.937,459.332,479.937z"/>
<path style="fill:#DDDDDD;" d="M73.273,459.332V52.668c0-11.38,9.225-20.605,20.605-20.605h-41.21
	c-11.38,0-20.605,9.225-20.605,20.605v406.664c0,11.38,9.225,20.605,20.605,20.605h41.21
	C82.498,479.937,73.273,470.712,73.273,459.332z"/>
<path style="fill:#A4D9F4;" d="M79.94,438.727h352.12c3.682,0,6.667-2.985,6.667-6.667V79.94c0-3.682-2.985-6.667-6.667-6.667H79.94
	c-3.682,0-6.667,2.985-6.667,6.667v352.12C73.273,435.742,76.258,438.727,79.94,438.727z"/>
<path style="fill:#F94A46;" d="M212.769,389.87h-67.545c-6.38,0-11.6-5.22-11.6-11.599v-67.545c0-6.38,5.22-11.599,11.6-11.599
	h67.545c6.38,0,11.6,5.22,11.6,11.599v67.545C224.369,384.65,219.149,389.87,212.769,389.87z"/>
<path style="fill:#FFB70D;" d="M212.769,241.138h-67.545c-6.38,0-11.6-5.22-11.6-11.6v-67.545c0-6.38,5.22-11.6,11.6-11.6h67.545
	c6.38,0,11.6,5.22,11.6,11.6v67.545C224.369,235.918,219.149,241.138,212.769,241.138z"/>
<path style="fill:#8970E5;" d="M366.776,389.87h-67.545c-6.38,0-11.6-5.22-11.6-11.599v-67.545c0-6.38,5.22-11.599,11.6-11.599
	h67.545c6.38,0,11.6,5.22,11.6,11.599v67.545C378.376,384.65,373.156,389.87,366.776,389.87z"/>
<path style="fill:#705DD1;" d="M318.539,378.27v-67.545c0-6.38,5.22-11.599,11.6-11.599h-30.907c-6.38,0-11.6,5.22-11.6,11.599
	v67.545c0,6.38,5.22,11.6,11.6,11.6h30.907C323.759,389.87,318.539,384.65,318.539,378.27z"/>
<path style="fill:#70B5E8;" d="M366.776,241.138h-67.545c-6.38,0-11.6-5.22-11.6-11.6v-67.545c0-6.38,5.22-11.6,11.6-11.6h67.545
	c6.38,0,11.6,5.22,11.6,11.6v67.545C378.376,235.918,373.156,241.138,366.776,241.138z"/>
<path style="fill:#7CC9E8;" d="M104.181,432.06V79.94c0-3.682,2.985-6.666,6.667-6.666H79.94c-3.682,0-6.667,2.985-6.667,6.666
	v352.12c0,3.682,2.985,6.666,6.667,6.666h30.907C107.165,438.727,104.181,435.742,104.181,432.06z"/>
<path style="fill:#EA3939;" d="M164.532,378.27v-67.545c0-6.38,5.22-11.599,11.6-11.599h-30.907c-6.38,0-11.6,5.22-11.6,11.599
	v67.545c0,6.38,5.22,11.6,11.6,11.6h30.907C169.752,389.87,164.532,384.65,164.532,378.27z"/>
<path style="fill:#EDA20C;" d="M164.532,229.538v-67.545c0-6.38,5.22-11.599,11.6-11.599h-30.907c-6.38,0-11.6,5.22-11.6,11.599
	v67.545c0,6.38,5.22,11.6,11.6,11.6h30.907C169.752,241.138,164.532,235.918,164.532,229.538z"/>
<path style="fill:#52A5D8;" d="M318.539,229.538v-67.545c0-6.38,5.22-11.599,11.6-11.599h-30.907c-6.38,0-11.6,5.22-11.6,11.599
	v67.545c0,6.38,5.22,11.6,11.6,11.6h30.907C323.759,241.138,318.539,235.918,318.539,229.538z"/>
<path style="fill:#70B5E8;" d="M73.273,79.94v22.562h365.454V79.94c0-3.682-2.985-6.667-6.667-6.667H79.94
	C76.258,73.273,73.273,76.258,73.273,79.94z"/>
<path style="fill:#52A5D8;" d="M104.181,79.94c0-3.682,2.985-6.666,6.667-6.666H79.94c-0.46,0-0.91,0.047-1.344,0.135
	c-0.434,0.089-0.853,0.22-1.251,0.389c-1.595,0.675-2.873,1.953-3.548,3.548c-0.337,0.798-0.524,1.674-0.524,2.595v22.562h30.907
	L104.181,79.94L104.181,79.94z"/>
<g>
</g>
<g>
</g>
<g>
</g>
<g>
</g>
<g>
</g>
<g>
</g>
<g>
</g>
<g>
</g>
<g>
</g>
<g>
</g>
<g>
</g>
<g>
</g>
<g>
</g>
<g>
</g>
<g>
</g>
</svg>
