<?xml version="1.0" encoding="iso-8859-1"?>
<!-- Generator: Adobe Illustrator 19.0.0, SVG Export Plug-In . SVG Version: 6.00 Build 0)  -->
<svg version="1.1" id="Capa_1" xmlns="http://www.w3.org/2000/svg" xmlns:xlink="http://www.w3.org/1999/xlink" x="0px" y="0px"
	 viewBox="0 0 512 512" style="enable-background:new 0 0 512 512;" xml:space="preserve">
<path style="fill:#CCCCCC;" d="M195.71,422.933c-1.885,15.542-15.364,19.751-20.528,24.243c20.891,0,148.192,0,161.637,0
	c-5.062-4.402-18.647-8.728-20.529-24.243l-4.757-48.729H200.467L195.71,422.933z"/>
<path style="fill:#BABABA;" d="M226.617,427.739l4.757-53.535h-30.907l-4.757,48.729c-1.885,15.542-15.36,19.748-20.528,24.242
	c13.687,0,24.303,0,40.565,0C215.852,447.053,225.146,441.063,226.617,427.739z"/>
<path style="fill:#EFEFEF;" d="M351.277,446.146c-55.266,0-136.607,0-190.554,0c-8.082,0-14.695,6.613-14.695,14.695l0,0
	c0,8.082,6.613,14.695,14.695,14.695c54.187,0,136.071,0,190.554,0c8.082,0,14.695-6.613,14.695-14.695l0,0
	C365.972,452.758,359.359,446.146,351.277,446.146z"/>
<path style="fill:#DDDDDD;" d="M203.278,460.841L203.278,460.841c0-8.082,6.612-14.695,14.695-14.695c-9.037,0-42.924,0-57.25,0
	c-8.082,0-14.695,6.613-14.695,14.695l0,0c0,8.082,6.613,14.695,14.695,14.695c14.326,0,48.023,0,57.25,0
	C209.89,475.536,203.278,468.923,203.278,460.841z"/>
<path style="fill:#666666;" d="M486.652,36.464H25.348C11.371,36.464,0,47.836,0,61.812C0,75.216,0,336.04,0,349.886
	c0,13.976,11.371,25.348,25.348,25.348h461.304c13.977,0,25.348-11.371,25.348-25.348v-2.06V63.873v-2.061
	C512,47.836,500.629,36.464,486.652,36.464z"/>
<path style="fill:#535454;" d="M36.904,349.886v-2.06c0-12.364,0-273.688,0-286.014c0-13.976,11.371-25.348,25.348-25.348H25.348
	C11.371,36.464,0,47.836,0,61.812c0,13.406,0,274.23,0,288.074c0,13.976,11.371,25.348,25.348,25.348h36.904
	C48.275,375.234,36.904,363.862,36.904,349.886z"/>
<path style="fill:#A4D9F4;" d="M42.737,334.209h426.526c3.221,0,5.833-2.612,5.833-5.833V81.262c0-3.221-2.611-5.833-5.833-5.833
	H42.737c-3.221,0-5.833,2.611-5.833,5.833v247.114C36.904,331.597,39.515,334.209,42.737,334.209z"/>
<path style="fill:#7CC9E8;" d="M67.811,328.376V81.262c0-3.222,2.612-5.833,5.833-5.833H42.737c-3.221,0-5.833,2.612-5.833,5.833
	v247.114c0,3.222,2.612,5.833,5.833,5.833h30.907C70.423,334.209,67.811,331.597,67.811,328.376z"/>
<path style="fill:#898989;" d="M256.005,362.22c-0.505,0-1.02-0.051-1.514-0.155c-0.494-0.103-0.979-0.246-1.442-0.443
	c-0.474-0.195-0.917-0.433-1.34-0.71c-0.422-0.279-0.814-0.598-1.174-0.959c-0.351-0.36-0.68-0.752-0.958-1.174
	c-0.278-0.423-0.515-0.865-0.711-1.339c-0.196-0.464-0.34-0.948-0.443-1.443c-0.103-0.494-0.144-1.009-0.144-1.504
	c0-0.505,0.041-1.02,0.144-1.514c0.103-0.495,0.247-0.979,0.443-1.443c0.196-0.474,0.433-0.917,0.711-1.339s0.608-0.814,0.958-1.174
	c0.36-0.351,0.752-0.68,1.174-0.959c0.423-0.278,0.866-0.515,1.34-0.71c0.463-0.196,0.948-0.34,1.442-0.444
	c0.999-0.195,2.019-0.195,3.018,0c0.495,0.104,0.979,0.247,1.443,0.444c0.474,0.195,0.917,0.433,1.339,0.71
	c0.423,0.279,0.814,0.608,1.175,0.959c1.432,1.442,2.266,3.43,2.266,5.47c0,0.495-0.051,1.01-0.154,1.504
	c-0.103,0.495-0.247,0.979-0.443,1.443c-0.196,0.474-0.433,0.917-0.711,1.339c-0.278,0.423-0.608,0.814-0.958,1.174
	C260.024,361.396,258.035,362.22,256.005,362.22z"/>
<path style="fill:#70B5E8;" d="M36.904,81.261v23.396h438.192V81.261c0-3.221-2.611-5.833-5.833-5.833H42.737
	C39.515,75.429,36.904,78.04,36.904,81.261z"/>
<g>
	<path style="fill:#52A5D8;" d="M36.904,81.261v23.396h30.907V81.262c0-3.222,2.612-5.833,5.833-5.833
		c-32.117,0.249-31.367-0.557-33.688,0.704C38.421,76.967,36.904,78.934,36.904,81.261z"/>
	<path style="fill:#52A5D8;" d="M145.86,309.878h-20.676c-1.895,0-3.446-1.551-3.446-3.446v-20.676c0-1.895,1.551-3.446,3.446-3.446
		h20.676c1.895,0,3.446,1.551,3.446,3.446v20.676C149.306,308.327,147.755,309.878,145.86,309.878z"/>
</g>
<path style="fill:#898989;" d="M242.243,309.878h-20.676c-1.895,0-3.446-1.551-3.446-3.446v-20.676c0-1.895,1.551-3.446,3.446-3.446
	h20.676c1.895,0,3.446,1.551,3.446,3.446v20.676C245.688,308.327,244.138,309.878,242.243,309.878z"/>
<path style="fill:#52A5D8;" d="M338.625,309.878h-20.676c-1.895,0-3.446-1.551-3.446-3.446v-20.676c0-1.895,1.551-3.446,3.446-3.446
	h20.676c1.895,0,3.446,1.551,3.446,3.446v20.676C342.071,308.327,340.52,309.878,338.625,309.878z"/>
<path style="fill:#F94A46;" d="M194.051,309.878h-20.676c-1.895,0-3.446-1.551-3.446-3.446v-20.676c0-1.895,1.551-3.446,3.446-3.446
	h20.676c1.895,0,3.446,1.551,3.446,3.446v20.676C197.497,308.327,195.947,309.878,194.051,309.878z"/>
<path style="fill:#FFB70D;" d="M290.434,309.878h-20.676c-1.895,0-3.446-1.551-3.446-3.446v-20.676c0-1.895,1.551-3.446,3.446-3.446
	h20.676c1.895,0,3.446,1.551,3.446,3.446v20.676C293.88,308.327,292.329,309.878,290.434,309.878z"/>
<path style="fill:#92B620;" d="M386.816,309.878H366.14c-1.895,0-3.446-1.551-3.446-3.446v-20.676c0-1.895,1.551-3.446,3.446-3.446
	h20.676c1.895,0,3.446,1.551,3.446,3.446v20.676C390.262,308.327,388.711,309.878,386.816,309.878z"/>
<g>
</g>
<g>
</g>
<g>
</g>
<g>
</g>
<g>
</g>
<g>
</g>
<g>
</g>
<g>
</g>
<g>
</g>
<g>
</g>
<g>
</g>
<g>
</g>
<g>
</g>
<g>
</g>
<g>
</g>
</svg>
