<?xml version="1.0" encoding="iso-8859-1"?>
<!-- Generator: Adobe Illustrator 19.0.0, SVG Export Plug-In . SVG Version: 6.00 Build 0)  -->
<svg version="1.1" id="Capa_1" xmlns="http://www.w3.org/2000/svg" xmlns:xlink="http://www.w3.org/1999/xlink" x="0px" y="0px"
	 viewBox="0 0 512 512" style="enable-background:new 0 0 512 512;" xml:space="preserve">
<g>
	<path style="fill:#EFEFEF;" d="M299.01,0c-24.76,0-44.904,20.144-44.904,44.904c0,12.053,0,90.953,0,100.947
		c0,16.373-13.321,29.694-29.694,29.694s-29.694-13.32-29.694-29.694c0-14.108,0-28.21,0-42.288
		c0-24.759-20.144-44.903-44.904-44.903s-44.904,20.144-44.904,44.903v16.525c0,4.201,3.405,7.605,7.605,7.605
		c4.2,0,7.605-3.404,7.605-7.605v-16.525c0-16.373,13.321-29.694,29.694-29.694s29.694,13.32,29.694,29.694
		c0,13.968,0,26.584,0,42.288c0,24.76,20.144,44.904,44.904,44.904s44.903-20.144,44.903-44.904c0-26.081,0-85.153,0-100.947
		c0-16.373,13.321-29.695,29.694-29.695s29.694,13.321,29.694,29.695v153.593c0,4.201,3.405,7.605,7.605,7.605
		s7.605-3.404,7.605-7.605V44.904C343.914,20.144,323.77,0,299.01,0z"/>
	<path style="fill:#EFEFEF;" d="M336.309,511.962L336.309,511.962c-50.011,0-90.553-40.542-90.553-90.553V282.967
		c0-50.011,40.542-90.553,90.553-90.553l0,0c50.011,0,90.553,40.542,90.553,90.553v138.441
		C426.863,471.419,386.321,511.962,336.309,511.962z"/>
</g>
<path style="fill:#DDDDDD;" d="M306.595,421.408V282.967c0-39.339,25.087-72.812,60.134-85.31
	c-9.508-3.391-19.747-5.243-30.42-5.243l0,0c-50.011,0-90.553,40.542-90.553,90.553v138.441c0,63.277,62.838,106.042,120.973,85.311
	C331.682,494.221,306.595,460.747,306.595,421.408z"/>
<circle style="fill:#CCCCCC;" cx="336.31" cy="260" r="14.196"/>
<path style="fill:#BABABA;" d="M336.309,260.002c-2.626-4.548-2.437-9.939,0.006-14.185c-2.415-0.003-4.862,0.597-7.104,1.891
	c-6.79,3.92-9.116,12.602-5.196,19.392c3.92,6.79,12.602,9.116,19.392,5.196c2.242-1.294,3.985-3.114,5.19-5.207
	C343.698,267.082,338.935,264.55,336.309,260.002z"/>
<path style="fill:#CCCCCC;" d="M112.515,115.018c-7.56,0-13.689,6.128-13.689,13.689c0,7.28,0,16.219,0,28.899h27.378
	c0-12.665,0-21.621,0-28.899C126.204,121.146,120.075,115.018,112.515,115.018z"/>
<path style="fill:#BABABA;" d="M112.515,132.256c0.258-1.217-1.677-10.456,6.844-15.392c-9.032-5.231-20.533,1.243-20.533,11.843
	c0,12.665,0,21.621,0,28.899h13.689C112.515,151.117,112.515,138.717,112.515,132.256z"/>
<path style="fill:#F9D698;" d="M93.249,189.039c0,6.798,0,15.144,0,26.982c0,1.889,1.532,3.421,3.421,3.421
	c27.665,0,3.988,0,31.69,0c1.889,0,3.421-1.532,3.421-3.421c0-6.047,0-17.612,0-23.687v-3.295H93.249z"/>
<path style="fill:#EFBB81;" d="M112.515,216.021c0-11.825,0-20.191,0-26.983H93.249c0,11.825,0,20.191,0,26.983
	c0,1.889,1.532,3.421,3.421,3.421c6.686,0,12.563,0,19.266,0C114.047,219.442,112.515,217.911,112.515,216.021z"/>
<path style="fill:#EFEFEF;" d="M88.558,154.056c-1.889,0-3.421,1.532-3.421,3.421v31.436c0,1.889,1.532,3.421,3.421,3.421
	c1.632,0,49.463,0,47.913,0c1.889,0,3.421-1.532,3.421-3.421v-31.436c0-1.889-1.532-3.421-3.421-3.421
	C134.839,154.056,87.008,154.056,88.558,154.056z"/>
<path style="fill:#DDDDDD;" d="M112.515,188.913v-31.436c0-1.889,1.532-3.421,3.421-3.421c-6.823,0-20.194,0-27.378,0
	c-1.889,0-3.421,1.532-3.421,3.421v31.436c0,1.889,1.532,3.421,3.421,3.421c7.245,0,20.601,0,27.378,0
	C114.047,192.334,112.515,190.803,112.515,188.913z"/>
<g>
</g>
<g>
</g>
<g>
</g>
<g>
</g>
<g>
</g>
<g>
</g>
<g>
</g>
<g>
</g>
<g>
</g>
<g>
</g>
<g>
</g>
<g>
</g>
<g>
</g>
<g>
</g>
<g>
</g>
</svg>
