<?xml version="1.0" encoding="iso-8859-1"?>
<!-- Generator: Adobe Illustrator 19.0.0, SVG Export Plug-In . SVG Version: 6.00 Build 0)  -->
<svg version="1.1" id="Capa_1" xmlns="http://www.w3.org/2000/svg" xmlns:xlink="http://www.w3.org/1999/xlink" x="0px" y="0px"
	 viewBox="0 0 511.999 511.999" style="enable-background:new 0 0 511.999 511.999;" xml:space="preserve">
<path style="fill:#EFEFEF;" d="M499.821,0.874h-29.762c-2.89,0-5.233,2.343-5.233,5.233c0,10.563-8.563,21.155-19.125,21.155H218
	c-11.635,0-21.155-11.549-21.155-23.185c0-1.769-1.434-3.203-3.203-3.203H161.85c-6.699,0-12.179,5.481-12.179,12.179
	c0,15.721,0,332.186,0,347.106h63.703c1.491-0.401,3.038,0,4.626,0h227.7c10.563,0,19.125,10.593,19.125,21.155
	c0,2.89,2.343,5.233,5.233,5.233h29.762c6.698,0,12.179-5.481,12.179-12.179V13.053C512,6.355,506.519,0.874,499.821,0.874z"/>
<path style="fill:#DDDDDD;" d="M180.118,13.053c0-6.698,5.481-12.179,12.179-12.179h-30.448c-6.699,0-12.179,5.481-12.179,12.179
	c0,15.721,0,332.186,0,347.106h30.448C180.118,345.237,180.118,28.774,180.118,13.053z"/>
<rect x="7.612" y="145.24" style="fill:#EFEFEF;" width="205.76" height="330.87"/>
<rect x="7.612" y="145.24" style="fill:#DDDDDD;" width="35.13" height="330.87"/>
<g>
	<path style="fill:#CCCCCC;" d="M171.613,207.412H49.372c-3.659,0-6.626-2.966-6.626-6.626v-14.151c0-3.659,2.967-6.626,6.626-6.626
		h122.241c3.659,0,6.626,2.967,6.626,6.626v14.151C178.239,204.447,175.273,207.412,171.613,207.412z"/>
	<path style="fill:#CCCCCC;" d="M82.807,342.647h-5.582h-0.45H63.523h-0.45H49.372c-3.659,0-6.626,2.967-6.626,6.626v84.441
		c0,3.659,2.967,6.626,6.626,6.626h13.702h0.45h13.252h0.45h5.582c3.659,0,6.626-2.966,6.626-6.626v-84.441
		C89.433,345.614,86.466,342.647,82.807,342.647z"/>
</g>
<path style="fill:#BABABA;" d="M66.09,433.714v-84.441c0-3.659,2.966-6.626,6.626-6.626h-9.192h-0.449H49.372
	c-3.66,0-6.626,2.966-6.626,6.626v84.441c0,3.659,2.966,6.626,6.626,6.626h13.702h0.449h9.192
	C69.056,440.34,66.09,437.372,66.09,433.714z"/>
<path style="fill:#CCCCCC;" d="M171.834,262.219H49.151c-3.537,0-6.405-2.867-6.405-6.405V241.22c0-3.537,2.868-6.405,6.405-6.405
	h122.683c3.537,0,6.405,2.868,6.405,6.405v14.593C178.239,259.352,175.372,262.219,171.834,262.219z"/>
<g>
	<path style="fill:#BABABA;" d="M73.793,200.786v-14.151c0-3.66,2.966-6.626,6.626-6.626H49.372c-3.659,0-6.626,2.966-6.626,6.626
		v14.151c0,3.659,2.966,6.626,6.626,6.626h31.047C76.759,207.412,73.793,204.447,73.793,200.786z"/>
	<path style="fill:#BABABA;" d="M73.793,255.813V241.22c0-3.537,2.868-6.405,6.405-6.405H49.151c-3.537,0-6.405,2.868-6.405,6.405
		v14.593c0,3.537,2.868,6.405,6.405,6.405h31.047C76.661,262.219,73.793,259.352,73.793,255.813z"/>
</g>
<g>
	<path style="fill:#666666;" d="M66.181,420.126h-0.155c-4.204,0-7.612-3.408-7.612-7.612s3.408-7.612,7.612-7.612h0.155
		c4.204,0,7.612,3.408,7.612,7.612C73.793,416.719,70.385,420.126,66.181,420.126z"/>
	<path style="fill:#666666;" d="M66.181,398.728h-0.155c-4.204,0-7.612-3.408-7.612-7.612s3.408-7.612,7.612-7.612h0.155
		c4.204,0,7.612,3.408,7.612,7.612S70.385,398.728,66.181,398.728z"/>
	<path style="fill:#666666;" d="M66.181,377.329h-0.155c-4.204,0-7.612-3.408-7.612-7.612s3.408-7.612,7.612-7.612h0.155
		c4.204,0,7.612,3.408,7.612,7.612S70.385,377.329,66.181,377.329z"/>
</g>
<path style="fill:#CCCCCC;" d="M355.864,192.065c0.064-6.874,3.532-12.917,8.788-16.549c0.928-0.641,1.017-1.957,0.168-2.7
	c-4.317-3.779-9.952-6.093-16.14-6.15c-1.207-0.011-2.391,0.074-3.553,0.23c-1.226,0.165-2.427,0.409-3.59,0.746
	c-0.287,0.083-0.568,0.18-0.851,0.273c-0.164,0.054-0.33,0.101-0.492,0.158c-0.395,0.139-0.784,0.292-1.169,0.45
	c-0.046,0.019-0.094,0.035-0.14,0.054c-0.43,0.18-0.854,0.371-1.272,0.574v-0.001h-0.001l0,0c-1.715,0.894-3.169,1.289-4.531,1.292
	c-1.362-0.028-2.808-0.449-4.506-1.375v0.001l-0.001-0.001l-0.001,0.001c-0.414-0.21-0.835-0.41-1.262-0.597
	c-0.045-0.02-0.093-0.037-0.138-0.056c-0.383-0.165-0.768-0.325-1.161-0.472c-0.161-0.06-0.327-0.11-0.489-0.167
	c-0.281-0.098-0.56-0.2-0.845-0.289c-1.157-0.359-2.353-0.625-3.576-0.812c-1.159-0.177-2.341-0.285-3.548-0.296
	c-13.391-0.124-24.405,10.356-25.075,23.607c-2.192,23.405,16.495,43.427,16.509,43.441c1.905,2.248,4.734,3.692,7.912,3.721
	c0.364,0.003,0.723-0.017,1.078-0.05c0.082-0.008,0.163-0.021,0.245-0.03c0.289-0.034,0.573-0.078,0.854-0.134
	c0.061-0.012,0.121-0.026,0.182-0.039c0.332-0.073,0.658-0.16,0.978-0.264c0.002-0.001,0.003-0.001,0.005-0.002
	c0.35-0.114,0.694-0.241,1.027-0.389v0.001l0.033-0.015c0.026-0.011,0.051-0.022,0.077-0.034l0.493-0.217
	c6.768-2.988,14.495-2.916,21.206,0.196l0.488,0.226c0.025,0.012,0.051,0.024,0.077,0.036l0.033,0.015l0.001-0.001
	c0.33,0.155,0.671,0.288,1.019,0.408c0.002,0,0.003,0.001,0.005,0.002c0.318,0.11,0.642,0.203,0.973,0.282
	c0.06,0.015,0.12,0.029,0.181,0.042c0.28,0.062,0.564,0.111,0.852,0.15c0.082,0.011,0.162,0.026,0.244,0.035
	c0.354,0.04,0.713,0.066,1.077,0.07c3.178,0.029,6.033-1.362,7.98-3.574c0.009-0.009,8.08-8.352,13.233-20.636
	c0.363-0.865-0.042-1.853-0.906-2.216C360.943,207.908,355.785,200.574,355.864,192.065z"/>
<path style="fill:#BABABA;" d="M339.959,234.424c-0.014-0.015-19.286-20.663-17.025-44.799c0.397-7.851,4.319-14.754,10.2-19.186
	c-0.018,0-0.036,0.004-0.054,0.004c-1.361-0.028-2.808-0.449-4.506-1.375v0.001l-0.001-0.001l-0.001,0.001
	c-0.414-0.211-0.835-0.41-1.261-0.598c-0.046-0.02-0.093-0.037-0.139-0.057c-0.383-0.165-0.768-0.325-1.161-0.471
	c-0.161-0.06-0.327-0.111-0.489-0.167c-0.281-0.098-0.56-0.2-0.845-0.289c-1.156-0.359-2.353-0.625-3.575-0.813
	c-1.159-0.177-2.341-0.285-3.548-0.296c-13.391-0.124-24.405,10.355-25.075,23.607c-2.192,23.405,16.495,43.427,16.509,43.441
	c1.905,2.248,4.734,3.691,7.912,3.721c0.364,0.003,0.723-0.017,1.078-0.05c0.082-0.008,0.163-0.021,0.245-0.03
	c0.288-0.033,0.573-0.078,0.854-0.135c0.061-0.012,0.122-0.026,0.182-0.039c0.332-0.073,0.658-0.16,0.978-0.264
	c0.001-0.001,0.003-0.001,0.005-0.001c0.35-0.114,0.694-0.241,1.027-0.389v0.001l0.033-0.015c0.026-0.011,0.052-0.022,0.077-0.034
	l0.493-0.217c5.983-2.641,12.715-2.887,18.833-0.759C340.443,234.964,340.193,234.701,339.959,234.424z"/>
<g>
	<path style="fill:#CCCCCC;" d="M335.122,144.1c-4.204,4.823-5.59,11.291-4.472,17.885c0.177,1.042,1.25,1.978,2.307,2.01
		c6.685,0.207,12.903-2.049,17.107-6.872c4.204-4.823,5.59-11.292,4.472-17.885c-0.177-1.042-1.25-1.978-2.307-2.01
		C345.544,137.02,339.326,139.275,335.122,144.1z"/>
	<path style="fill:#CCCCCC;" d="M192.158,511.125H28.827C12.932,511.125,0,498.194,0,482.299V139.055
		c0-15.896,12.932-28.827,28.827-28.827h163.331c15.895,0,28.827,12.931,28.827,28.827v343.243
		C220.985,498.194,208.053,511.125,192.158,511.125z M28.827,125.451c-7.501,0-13.603,6.102-13.603,13.604v343.243
		c0,7.5,6.102,13.602,13.603,13.602h163.331c7.501,0,13.603-6.102,13.603-13.602V139.055c0-7.501-6.102-13.604-13.603-13.604
		C192.158,125.451,28.827,125.451,28.827,125.451z"/>
</g>
<g>
</g>
<g>
</g>
<g>
</g>
<g>
</g>
<g>
</g>
<g>
</g>
<g>
</g>
<g>
</g>
<g>
</g>
<g>
</g>
<g>
</g>
<g>
</g>
<g>
</g>
<g>
</g>
<g>
</g>
</svg>
