<?xml version="1.0" encoding="iso-8859-1"?>
<!-- Generator: Adobe Illustrator 19.0.0, SVG Export Plug-In . SVG Version: 6.00 Build 0)  -->
<svg version="1.1" id="Capa_1" xmlns="http://www.w3.org/2000/svg" xmlns:xlink="http://www.w3.org/1999/xlink" x="0px" y="0px"
	 viewBox="0 0 512 512" style="enable-background:new 0 0 512 512;" xml:space="preserve">
<path style="fill:#DBB395;" d="M83.512,428.603v70.5c0,7.093,5.804,12.897,12.897,12.897h319.183
	c7.093,0,12.897-5.804,12.897-12.897v-70.5C426.971,428.795,84.601,428.741,83.512,428.603z"/>
<g>
	<path style="fill:#C69675;" d="M115.323,499.103v-70.387c-31.952-0.047-30.122,0.102-31.811-0.113v70.5
		c0,7.093,5.804,12.897,12.897,12.897h31.811C121.127,512,115.323,506.196,115.323,499.103z"/>
	<path style="fill:#C69675;" d="M306.792,428.603v51.75c0,3.715,3.04,6.755,6.755,6.755h82.975c3.715,0,6.755-3.04,6.755-6.755
		v-51.75H306.792z"/>
</g>
<path style="fill:#BA8867;" d="M337.699,480.353v-51.75h-30.907v51.75c0,3.715,3.04,6.755,6.755,6.755h30.907
	C340.74,487.108,337.699,484.068,337.699,480.353z"/>
<path style="fill:#666666;" d="M374.273,467.643h-19.238c-4.267,0-7.727-3.459-7.727-7.727s3.459-7.727,7.727-7.727h19.238
	c4.267,0,7.727,3.459,7.727,7.727S378.54,467.643,374.273,467.643z"/>
<path style="fill:#E5C0A8;" d="M426.876,432.837H85.124c-7.093,0-12.897-5.804-12.897-12.897V12.897C72.227,5.804,78.031,0,85.124,0
	h341.751c7.093,0,12.897,5.804,12.897,12.897V419.94C439.773,427.033,433.969,432.837,426.876,432.837z"/>
<path style="fill:#DBB395;" d="M107.692,419.94V12.897C107.692,5.804,113.496,0,120.589,0H85.124
	c-7.093,0-12.897,5.804-12.897,12.897V419.94c0,7.093,5.804,12.897,12.897,12.897h35.465
	C113.496,432.837,107.692,427.033,107.692,419.94z"/>
<path style="fill:#898989;" d="M393.378,274.602H118.623c-6.037,0-10.931-4.894-10.931-10.931V58.405
	c0-6.037,4.894-10.931,10.931-10.931h274.754c6.037,0,10.931,4.894,10.931,10.931v205.266
	C404.309,269.708,399.414,274.602,393.378,274.602z"/>
<path style="fill:#777777;" d="M138.601,292.794c0-7.633,0-221.776,0-234.389c0-6.037,4.894-10.931,10.931-10.931h-30.907
	c-6.037,0-10.931,4.894-10.931,10.931c0,7.363,0,222.184,0,234.389c0,6.037,4.894,10.931,10.931,10.931h30.907
	C143.495,303.725,138.601,298.831,138.601,292.794z"/>
<path style="fill:#EFEFEF;" d="M131.262,400.784h-11.206c-6.8,0-12.363-5.563-12.363-12.363v-11.206
	c0-6.8,5.563-12.363,12.363-12.363h11.206c6.8,0,12.363,5.563,12.363,12.363v11.206
	C143.624,395.221,138.062,400.784,131.262,400.784z"/>
<path style="fill:#DDDDDD;" d="M125.658,388.422v-11.206c0-5.627,3.815-10.398,8.983-11.879c-2.837-0.813-3.887-0.345-14.586-0.484
	c-6.8,0-12.363,5.563-12.363,12.363v11.206c0,6.799,5.563,12.363,12.363,12.363c10.681-0.139,11.747,0.329,14.586-0.484
	C129.474,398.819,125.658,394.049,125.658,388.422z"/>
<path style="fill:#535454;" d="M355.035,372.579H256c-4.267,0-7.727-3.459-7.727-7.727c0-4.268,3.459-7.727,7.727-7.727h99.035
	c4.267,0,7.727,3.459,7.727,7.727S359.302,372.579,355.035,372.579z"/>
<path style="fill:#666666;" d="M404.309,364.852c0-7.682-6.227-13.908-13.908-13.908h-42.913c-7.682,0-13.908,6.227-13.908,13.908
	c0,7.682,6.227,13.908,13.908,13.908h42.913C398.081,378.761,404.309,372.534,404.309,364.852z"/>
<path style="fill:#535454;" d="M368.943,364.852c0-7.681,6.227-13.908,13.908-13.908h-35.365c-7.682,0-13.908,6.227-13.908,13.908
	c0,7.682,6.227,13.908,13.908,13.908h35.365C375.171,378.76,368.943,372.534,368.943,364.852z"/>
<path style="fill:#666666;" d="M393.378,274.602H118.623c-6.037,0-10.931-4.894-10.931-10.931v29.122
	c0,6.037,4.894,10.931,10.931,10.931h274.754c6.037,0,10.931-4.894,10.931-10.931v-29.122
	C404.309,269.708,399.414,274.602,393.378,274.602z"/>
<path style="fill:#535454;" d="M118.623,303.725h30.907c-6.037,0-10.931-4.894-10.931-10.931v-18.192h-19.977
	c-6.037,0-10.931-4.894-10.931-10.931l0,0v29.122C107.692,298.831,112.586,303.725,118.623,303.725z"/>
<g>
</g>
<g>
</g>
<g>
</g>
<g>
</g>
<g>
</g>
<g>
</g>
<g>
</g>
<g>
</g>
<g>
</g>
<g>
</g>
<g>
</g>
<g>
</g>
<g>
</g>
<g>
</g>
<g>
</g>
</svg>
