<?xml version="1.0" encoding="iso-8859-1"?>
<!-- Generator: Adobe Illustrator 19.0.0, SVG Export Plug-In . SVG Version: 6.00 Build 0)  -->
<svg version="1.1" id="Capa_1" xmlns="http://www.w3.org/2000/svg" xmlns:xlink="http://www.w3.org/1999/xlink" x="0px" y="0px"
	 viewBox="0 0 512 512" style="enable-background:new 0 0 512 512;" xml:space="preserve">
<path style="fill:#EFEFEF;" d="M438.076,459.486c-19.915,0-36.117-16.202-36.117-36.117V321.314c0-9.812-7.982-17.794-17.794-17.794
	h-25.869c-4.282,0-7.754-3.471-7.754-7.754s3.472-7.754,7.754-7.754h25.869c18.363,0,33.302,14.94,33.302,33.302v102.055
	c0,11.364,9.245,20.609,20.609,20.609c11.865,0,21.519-9.653,21.519-21.519V174.495c0-4.283,3.472-7.754,7.754-7.754
	s7.754,3.471,7.754,7.754v247.964C475.103,442.877,458.493,459.486,438.076,459.486z"/>
<path style="fill:#CCCCCC;" d="M353.644,280.625h-3.231h-22.156h-3.231v27.915h3.231h22.156h3.231
	c7.709,0,13.957-6.249,13.957-13.957C367.601,286.874,361.353,280.625,353.644,280.625z"/>
<path style="fill:#BABABA;" d="M353.644,295.253h-3.231h-22.156h-3.231v13.286h3.231h22.156h3.231
	c7.709,0,13.957-6.249,13.957-13.957c0-2.405-0.609-4.668-1.68-6.643C363.56,292.295,358.948,295.253,353.644,295.253z"/>
<path style="fill:#F9D698;" d="M497.462,52.514h-7.885c-1.165,0-29.147,0-27.915,0c-13.589,0-10.688,0-24.427,0
	c-1.926,0-3.488,1.562-3.488,3.488v2.585c0,9.461,0,20.202,0,24.152c10.457,0,56.865,0,67.202,0c0-5.695,0-16.82,0-26.736
	C500.95,54.075,499.388,52.514,497.462,52.514z"/>
<path style="fill:#EFBB81;" d="M464.764,56.002c0-1.926,1.562-3.488,3.488-3.488c-0.142,0-6.83,0-6.59,0
	c-13.589,0-10.688,0-24.427,0c-1.926,0-3.488,1.562-3.488,3.488v2.585c0,9.461,0,20.202,0,24.152c12.165,0,25.989,0,31.016,0
	C464.764,77.043,464.764,65.918,464.764,56.002z"/>
<path style="fill:#CCCCCC;" d="M453.391,138.964c0,16.336,0,10.922,0,27.777c0,7.709,6.249,13.957,13.957,13.957
	s13.957-6.249,13.957-13.957c0-16.336,0-10.922,0-27.777L453.391,138.964L453.391,138.964z"/>
<path style="fill:#BABABA;" d="M467.349,160.021c0-11.739,0-9.065,0-21.057h-13.957c0,16.823,0,11.53,0,27.777
	c0,7.709,6.249,13.957,13.957,13.957c2.545,0,4.924-0.692,6.979-1.882C464.939,173.379,467.882,163.131,467.349,160.021z"/>
<path style="fill:#EFEFEF;" d="M506.421,80.154c-21.05,0-65.881,0-78.144,0c-3.081,0-5.579,2.498-5.579,5.579v3.102
	c0,14.837,0,36.726,0,51.27c0,3.081,2.498,5.579,5.579,5.579c21.05,0,65.882,0,78.144,0c3.081,0,5.579-2.498,5.579-5.579v-3.102
	c0-14.837,0-36.726,0-51.27C512,82.652,509.502,80.154,506.421,80.154z"/>
<path style="fill:#DDDDDD;" d="M453.391,140.105v-3.102c0-14.837,0-36.726,0-51.27c0-3.082,2.498-5.58,5.579-5.58h-30.694
	c-3.082,0-5.579,2.498-5.579,5.58v3.102c0,14.837,0,36.726,0,51.27c0,3.081,2.498,5.579,5.579,5.579h30.694
	C455.889,145.684,453.391,143.186,453.391,140.105z"/>
<path style="fill:#92B620;" d="M461.869,111.743c-4.297-4.309-2.242-11.774,3.96-13.089c8.235-1.699,12.888,9.39,5.821,14.05
	c-0.837,0.564-1.77,0.942-2.781,1.158C468.362,113.956,463.569,113.443,461.869,111.743z"/>
<path style="fill:#EFEFEF;" d="M288.295,137.433H53.919c-21.979,0-39.961,17.983-39.961,39.962v8.13c0,43.079,0,112.146,0,226.246
	l0,0c0,21.979,17.983,39.962,39.961,39.962c52.496,0,181.899,0,234.376,0c21.979,0,39.961-17.983,39.961-39.962l0,0
	c0-51.8,0-211.388,0-234.376C328.257,155.415,310.274,137.433,288.295,137.433z"/>
<path style="fill:#DDDDDD;" d="M44.974,411.77c0-51.8,0-211.388,0-234.376c0-21.979,17.983-39.962,39.962-39.962H53.919
	c-21.979,0-39.961,17.983-39.961,39.962v8.13c0,43.079,0,112.146,0,226.246c0,21.979,17.983,39.962,39.961,39.962
	c19.199,0,11.814,0,31.016,0C62.956,451.732,44.974,433.749,44.974,411.77z"/>
<path style="fill:#CCCCCC;" d="M53.919,137.433c-21.979,0-39.962,17.983-39.962,39.961v2.854v5.276c0,18.426,0,66.213,0,85.935
	H79.88c7.728,0,14.051-6.323,14.051-14.051V137.433H53.919z"/>
<path style="fill:#BABABA;" d="M44.974,177.394c0-21.979,17.983-39.962,39.962-39.962c-30.119,0.302-33.555-0.889-42.054,1.573
	c-6.945,2.011-13.428,5.944-18.6,11.659c-1.909,2.113-3.526,4.352-4.925,6.757c-6.529,11.225-5.223,21.326-5.398,22.827v5.276
	c0,18.426,0,66.213,0,85.935h31.016C44.974,261.489,44.974,189.109,44.974,177.394z"/>
<path style="fill:#CCCCCC;" d="M196.603,294.582c0.065-7.002,3.598-13.158,8.952-16.858c0.945-0.653,1.036-1.993,0.172-2.75
	c-4.397-3.85-10.138-6.207-16.441-6.265c-1.229-0.011-2.436,0.076-3.619,0.235c-1.249,0.168-2.472,0.417-3.657,0.76
	c-0.292,0.085-0.579,0.183-0.867,0.278c-0.167,0.055-0.336,0.103-0.501,0.161c-0.402,0.142-0.798,0.297-1.191,0.458
	c-0.047,0.019-0.095,0.035-0.142,0.055c-0.438,0.183-0.87,0.378-1.296,0.585v-0.001h-0.001l0,0
	c-1.747,0.911-3.228,1.313-4.615,1.316c-1.387-0.028-2.861-0.458-4.591-1.401v0.001l-0.001-0.001v0.001
	c-0.422-0.214-0.85-0.417-1.285-0.609c-0.046-0.02-0.095-0.037-0.141-0.057c-0.39-0.169-0.783-0.331-1.182-0.48
	c-0.164-0.061-0.333-0.112-0.498-0.17c-0.286-0.1-0.57-0.204-0.861-0.294c-1.178-0.365-2.397-0.637-3.642-0.828
	c-1.181-0.181-2.385-0.29-3.614-0.302c-13.641-0.126-24.861,10.549-25.544,24.048c-2.233,23.842,16.803,44.238,16.817,44.252
	c1.941,2.29,4.823,3.761,8.06,3.79c0.371,0.003,0.736-0.017,1.098-0.051c0.084-0.008,0.166-0.021,0.249-0.031
	c0.294-0.034,0.584-0.079,0.87-0.137c0.062-0.013,0.124-0.026,0.185-0.04c0.338-0.074,0.671-0.163,0.996-0.269
	c0.002,0,0.003-0.001,0.005-0.001c0.356-0.116,0.707-0.245,1.046-0.396v0.001l0.034-0.015c0.026-0.012,0.053-0.023,0.079-0.035
	l0.502-0.221c6.894-3.044,14.765-2.971,21.602,0.2l0.497,0.23c0.026,0.012,0.052,0.024,0.078,0.036l0.033,0.015v-0.001
	c0.336,0.158,0.684,0.293,1.038,0.416c0.002,0.001,0.003,0.001,0.005,0.002c0.324,0.112,0.654,0.207,0.991,0.287
	c0.061,0.015,0.123,0.029,0.184,0.043c0.285,0.063,0.574,0.114,0.868,0.153c0.083,0.012,0.165,0.026,0.249,0.036
	c0.361,0.04,0.726,0.068,1.097,0.071c3.237,0.03,6.146-1.387,8.129-3.641c0.009-0.01,8.231-8.507,13.48-21.022
	c0.369-0.881-0.043-1.887-0.923-2.257C201.777,310.721,196.523,303.249,196.603,294.582z"/>
<path style="fill:#BABABA;" d="M180.659,338.223c-0.014-0.015-19.933-21.357-17.597-46.304c0.398-7.861,4.214-14.804,9.978-19.396
	c-1.285-0.088-2.651-0.504-4.236-1.368v0.001l-0.001-0.001l-0.001,0.001c-0.422-0.214-0.85-0.417-1.285-0.609
	c-0.046-0.02-0.095-0.037-0.141-0.058c-0.39-0.168-0.783-0.331-1.182-0.48c-0.164-0.061-0.333-0.112-0.498-0.17
	c-0.286-0.1-0.57-0.204-0.861-0.294c-1.178-0.365-2.397-0.637-3.642-0.827c-1.181-0.181-2.385-0.29-3.614-0.302
	c-13.641-0.126-24.861,10.549-25.544,24.048c-2.233,23.842,16.803,44.238,16.817,44.253c1.941,2.29,4.823,3.76,8.06,3.79
	c0.371,0.003,0.736-0.017,1.098-0.051c0.084-0.008,0.166-0.021,0.25-0.031c0.294-0.034,0.584-0.079,0.87-0.137
	c0.062-0.013,0.124-0.026,0.185-0.04c0.338-0.074,0.671-0.163,0.996-0.269c0.002-0.001,0.003-0.001,0.005-0.001
	c0.357-0.116,0.707-0.245,1.046-0.397l0.001,0.001l0.033-0.015c0.026-0.012,0.053-0.023,0.079-0.035l0.502-0.221
	c5.996-2.647,12.73-2.934,18.881-0.879C180.793,338.361,180.721,338.296,180.659,338.223z"/>
<path style="fill:#CCCCCC;" d="M175.474,245.72c-4.283,4.913-5.694,11.502-4.556,18.219c0.18,1.061,1.274,2.015,2.35,2.048
	c6.809,0.211,13.144-2.087,17.427-7c4.283-4.913,5.694-11.502,4.556-18.219c-0.18-1.062-1.273-2.015-2.349-2.048
	C186.091,238.509,179.756,240.807,175.474,245.72z"/>
<path style="fill:#EFEFEF;" d="M13.957,239.803C6.249,239.803,0,233.554,0,225.846v-26.364c0-7.709,6.249-13.957,13.957-13.957
	c7.709,0,13.957,6.249,13.957,13.957v26.364C27.915,233.554,21.666,239.803,13.957,239.803z"/>
<path style="fill:#DDDDDD;" d="M13.957,214.731C6.249,214.731,0,208.483,0,200.774v25.072c0,7.709,6.249,13.957,13.957,13.957
	s13.957-6.249,13.957-13.957v-25.072C27.915,208.483,21.666,214.731,13.957,214.731z"/>
<g>
</g>
<g>
</g>
<g>
</g>
<g>
</g>
<g>
</g>
<g>
</g>
<g>
</g>
<g>
</g>
<g>
</g>
<g>
</g>
<g>
</g>
<g>
</g>
<g>
</g>
<g>
</g>
<g>
</g>
</svg>
