<?xml version="1.0" encoding="iso-8859-1"?>
<!-- Generator: Adobe Illustrator 19.0.0, SVG Export Plug-In . SVG Version: 6.00 Build 0)  -->
<svg version="1.1" id="Capa_1" xmlns="http://www.w3.org/2000/svg" xmlns:xlink="http://www.w3.org/1999/xlink" x="0px" y="0px"
	 viewBox="0 0 512.001 512.001" style="enable-background:new 0 0 512.001 512.001;" xml:space="preserve">
<rect x="81.956" y="182.06" style="fill:#444443;" width="343.96" height="13.386"/>
<path style="fill:#F7CF9C;" d="M454.423,195.446h-2.774h-15.257h-27.984l0,0H103.595l0,0c-15.347,0-30.702,0-46.015,0
	c-12.13,0-22.055,9.925-22.055,22.056c0,10.962,0,246.945,0,257.747c0,14.935,12.219,27.155,27.155,27.155h0.063
	c15.906,0,372.155,0,386.581,0c14.935,0,27.155-12.22,27.155-27.155c0-12.034,0-244.644,0-257.747
	C476.479,205.371,466.554,195.446,454.423,195.446z"/>
<path style="fill:#EFBB81;" d="M74.202,475.249c0-10.804,0-246.785,0-257.747c0-12.13,9.925-22.056,22.055-22.056
	c-21.584,0-16.835,0-38.677,0c-12.13,0-22.055,9.925-22.055,22.056c0,13.112,0,244.323,0,257.684v0.063
	c0,14.935,12.22,27.155,27.155,27.155c22.295,0,16.555,0,38.677,0C86.421,502.403,74.202,490.184,74.202,475.249z"/>
<path style="fill:#898989;" d="M430.048,228.655L430.048,228.655h-38.677l0,0h-38.677l0,0h-38.677l0,0h-38.676l0,0
	c-54.879,0-184.604,0-232.061,0c0,34.563,0,113.397,0,146.955c22.467,0,163.996,0,193.384,0l0,0h38.677l0,0h38.677l0,0h38.677l0,0
	h38.677l0,0c25.802,0,51.552,0,77.354,0c0-31.185,0-115.855,0-146.955C468.725,228.655,453.993,228.655,430.048,228.655z"/>
<path style="fill:#777777;" d="M74.202,228.655c-19.143,0-11.782,0-30.923,0c0,34.563,0,113.397,0,146.955
	c19.141,0,11.779,0,30.923,0V228.655z"/>
<path style="fill:#666666;" d="M497.391,9.596H14.609c-10.012,0-16.182,8.813-14.258,17.337l35.55,157.435
	c1.463,6.478,7.218,11.078,13.859,11.078h53.915c2.102-3.765,6.12-6.314,10.739-6.314c11.442,0,245.388,0,256.248,0h26.929
	c4.618,0,8.637,2.549,10.739,6.314h53.914c6.641,0,12.395-4.6,13.858-11.078l35.55-157.435
	C513.559,18.486,507.49,9.596,497.391,9.596z"/>
<path style="fill:#535454;" d="M65.005,184.368L29.456,26.933C27.545,18.466,33.64,9.596,43.714,9.596H14.609
	c-10.013,0-16.182,8.813-14.258,17.337l35.55,157.435c1.463,6.478,7.218,11.078,13.858,11.078h29.104
	C72.223,195.446,66.469,190.846,65.005,184.368z"/>
<path style="fill:#666666;" d="M468.725,220.929h-38.677h-38.677h-38.677h-38.676h-38.677c-50.776,0-180.692,0-232.061,0
	c-4.283,0-7.754,3.459-7.754,7.727c0,49.044,0,98.002,0,146.955c0,4.268,3.472,7.727,7.754,7.727c33.461,0,299.68,0,309.415,0
	h38.677c20.764,0,64.768,0,77.354,0c4.283,0,7.754-3.459,7.754-7.727c0-54.909,0-63.756,0-117.493v-29.463
	C476.479,224.388,473.007,220.929,468.725,220.929z M399.125,336.99v-13.413h11.584h50.261v13.413
	C453.492,336.99,406.653,336.99,399.125,336.99z M283.095,336.99v-13.413h11.584h11.584v13.413H283.095z M244.418,336.99v-13.413
	c8.103,0,15.066,0,23.169,0v13.413H244.418z M205.741,336.99v-13.413c8.103,0,15.066,0,23.169,0v13.413H205.741z M167.064,336.99
	v-13.413c8.103,0,15.066,0,23.169,0v13.413H167.064z M51.033,336.99v-13.413h50.261h11.584v13.413
	C105.4,336.99,58.561,336.99,51.033,336.99z M460.971,265.845v13.412H410.71h-11.584v-13.412
	C406.604,265.845,453.443,265.845,460.971,265.845z M460.971,308.123h-42.507v-13.412h42.507V308.123z M391.371,308.123h-11.584
	v-13.412h11.584h11.584v13.412H391.371z M352.694,308.123H341.11v-13.412h11.584h11.584v13.412H352.694z M314.017,308.123h-11.584
	v-13.412h11.584h11.584v13.412H314.017z M275.34,308.123h-11.584v-13.412c8.103,0,15.066,0,23.169,0v13.412H275.34z
	 M225.079,308.123v-13.412c8.103,0,15.066,0,23.169,0v13.412C240.145,308.123,233.182,308.123,225.079,308.123z M186.402,308.123
	v-13.412c8.103,0,15.066,0,23.169,0v13.412C201.468,308.123,194.505,308.123,186.402,308.123z M147.726,308.123v-13.412
	c8.103,0,15.065,0,23.168,0v13.412C162.791,308.123,155.828,308.123,147.726,308.123z M109.049,308.123v-13.412
	c8.103,0,15.066,0,23.169,0v13.412C124.114,308.123,117.152,308.123,109.049,308.123z M51.033,308.123v-13.412
	c10.093,0,31.683,0,42.507,0v13.412H51.033z M383.617,279.257h-11.584h-11.584v-13.412h23.169v13.412H383.617z M344.94,279.257
	h-11.584h-11.584v-13.412h23.168V279.257z M306.263,279.257h-11.584h-11.584v-13.412h23.169v13.412H306.263z M267.586,279.257
	c-8.103,0-15.066,0-23.169,0v-13.412h23.169V279.257z M228.909,279.257c-8.103,0-15.066,0-23.169,0v-13.412h23.169V279.257z
	 M190.232,279.257c-8.103,0-15.066,0-23.169,0v-13.412h23.169V279.257z M151.555,279.257c-8.103,0-15.065,0-23.168,0v-13.412h23.168
	V279.257z M112.879,279.257c-8.103,0-15.066,0-23.169,0v-13.412h23.169V279.257z M74.202,279.257H51.033v-13.412h23.169
	C74.202,265.845,74.202,279.257,74.202,279.257z M128.387,323.576c8.103,0,15.065,0,23.168,0v13.413h-23.168V323.576z
	 M321.772,323.576h11.584h11.584v13.413h-23.168L321.772,323.576L321.772,323.576z M360.448,323.576h11.584h11.584v13.413h-23.169
	v-13.413H360.448z M460.971,250.391h-23.169v-14.009h23.169V250.391z M422.294,250.391h-23.169v-14.009h23.169V250.391z
	 M383.617,250.391h-23.169v-14.009h23.169V250.391z M344.94,250.391h-23.168v-14.009h23.168V250.391z M306.263,250.391h-23.169
	v-14.009h23.169V250.391z M267.586,250.391h-23.169v-14.009h23.169V250.391z M228.909,250.391h-23.168v-14.009h23.169v14.009
	H228.909z M190.232,250.391h-23.169v-14.009h23.169V250.391z M151.555,250.391h-23.168v-14.009h23.168V250.391z M112.879,250.391
	H89.71v-14.009h23.169V250.391z M51.033,236.382h23.169v14.009H51.033V236.382z M51.033,352.443h23.169v15.441H51.033V352.443z
	 M89.71,352.443h23.169v15.441H89.71V352.443z M128.387,352.443h23.168v15.441h-23.168V352.443z M167.064,352.443
	c10.726,0,98.455,0,108.277,0h38.677h30.922v15.441H167.064V352.443z M360.448,352.443h23.169v15.441h-23.169V352.443z
	 M399.125,352.443h23.169v15.441h-23.169V352.443z M460.971,367.884h-23.169v-15.441h23.169V367.884z"/>
<path style="fill:#535454;" d="M74.202,367.884H51.033v-15.441h23.169V336.99H51.033v-13.413h23.169v-15.454H51.033v-13.412h23.169
	v-15.454H51.033v-13.412h23.169v-15.454H51.033v-14.009h23.169v-15.454H43.279c-4.282,0-7.754,3.458-7.754,7.726v146.958
	c0.001,4.267,3.472,7.726,7.754,7.726h30.923C74.202,383.338,74.202,367.884,74.202,367.884z"/>
<path style="fill:#EAB883;" d="M338.757,404.351c-6.368,0-179.27,0-174.206,0c-4.841,0-8.766,3.924-8.766,8.766v89.287
	c13.013,0,192.636,0,200.434,0v-88.838c0-5.089-4.126-9.215-9.215-9.215L338.757,404.351L338.757,404.351z"/>
<path style="fill:#DDA36F;" d="M203.227,404.351c-13.125,0-27.348,0-38.677,0c-4.841,0-8.766,3.925-8.766,8.766v89.287
	c9.952,0,29.039,0,38.677,0v-89.287C194.462,408.275,198.386,404.351,203.227,404.351z"/>
<path style="fill:#898989;" d="M307.081,179.909H204.923c-4.267,0-7.727-3.459-7.727-7.727s3.459-7.727,7.727-7.727h102.158
	c4.267,0,7.727,3.459,7.727,7.727S311.348,179.909,307.081,179.909z"/>
<path style="fill:#777777;" d="M228.103,172.182c0-4.268,3.459-7.727,7.727-7.727h-30.907c-4.267,0-7.727,3.459-7.727,7.727
	s3.459,7.727,7.727,7.727h30.907C231.563,179.909,228.103,176.45,228.103,172.182z"/>
<path style="fill:#A4D9F4;" d="M456.655,141.484l22.084-97.801c0.656-2.907-1.554-5.672-4.534-5.672H37.798
	c-2.98,0-5.191,2.765-4.534,5.672l22.084,97.801c0.479,2.119,2.361,3.624,4.534,3.624h392.239
	C454.294,145.109,456.177,143.604,456.655,141.484z"/>
<path style="fill:#7CC9E8;" d="M86.255,141.484L64.171,43.683c-0.656-2.907,1.554-5.672,4.534-5.672H37.798
	c-2.98,0-5.191,2.765-4.534,5.672l22.084,97.801c0.479,2.119,2.361,3.624,4.534,3.624h30.907
	C88.617,145.109,86.734,143.604,86.255,141.484z"/>
<path style="fill:#70B5E8;" d="M478.74,43.683c0.656-2.906-1.553-5.671-4.532-5.672H37.796c-2.979,0.002-5.188,2.766-4.532,5.672
	l5.041,22.323h435.394L478.74,43.683z"/>
<path style="fill:#52A5D8;" d="M33.264,43.683c1.711,7.576,3.564,15.784,5.041,22.323h30.907l-5.041-22.323
	c-0.656-2.907,1.554-5.672,4.534-5.672c-8.874,0.003-30.71-0.012-31.184,0.016C34.61,38.196,32.643,40.935,33.264,43.683z"/>
<g>
</g>
<g>
</g>
<g>
</g>
<g>
</g>
<g>
</g>
<g>
</g>
<g>
</g>
<g>
</g>
<g>
</g>
<g>
</g>
<g>
</g>
<g>
</g>
<g>
</g>
<g>
</g>
<g>
</g>
</svg>
