<?xml version="1.0" encoding="iso-8859-1"?>
<!-- Generator: Adobe Illustrator 19.0.0, SVG Export Plug-In . SVG Version: 6.00 Build 0)  -->
<svg version="1.1" id="Capa_1" xmlns="http://www.w3.org/2000/svg" xmlns:xlink="http://www.w3.org/1999/xlink" x="0px" y="0px"
	 viewBox="0 0 512 512" style="enable-background:new 0 0 512 512;" xml:space="preserve">
<path style="fill:#EFEFEF;" d="M494.306,22.335c-4.244,0-482.226,0-476.612,0C7.962,22.335,0,30.297,0,40.029v431.949
	c0,9.732,7.962,17.694,17.694,17.694c36.503,0,497.779,0,476.612,0c9.732,0,17.694-7.962,17.694-17.694V40.029
	C512,30.297,504.038,22.335,494.306,22.335z"/>
<path style="fill:#DDDDDD;" d="M30.29,471.977V40.029c0-9.732,7.962-17.694,17.694-17.694h-30.29C7.962,22.335,0,30.297,0,40.029
	v431.949c0,9.732,7.962,17.694,17.694,17.694h30.29C38.252,489.671,30.29,481.709,30.29,471.977z"/>
<path style="fill:#CCCCCC;" d="M512,85.846V40.029c0-9.732-7.962-17.694-17.694-17.694c-23.697,0-453.389,0-476.612,0
	C7.962,22.335,0,30.297,0,40.029v45.818L512,85.846L512,85.846z"/>
<path style="fill:#BABABA;" d="M30.29,40.029c0-9.732,7.962-17.694,17.694-17.694c-31.937,0.034-30.182-0.076-31.902,0.082
	C7.036,23.224,0,30.926,0,40.029v45.818h30.29V40.029z"/>
<g>
	<path style="fill:#CCCCCC;" d="M80.207,145.149c-4.267,0-7.727-3.459-7.727-7.727s3.459-7.752,7.727-7.752s7.727,3.433,7.727,7.701
		v0.051C87.934,141.69,84.475,145.149,80.207,145.149z"/>
	<path style="fill:#CCCCCC;" d="M80.207,367.69c-4.267,0-7.727-3.459-7.727-7.727v-0.115c0-4.268,3.459-7.727,7.727-7.727
		s7.727,3.459,7.727,7.727v0.115C87.934,364.23,84.475,367.69,80.207,367.69z M80.207,293.509c-4.267,0-7.727-3.459-7.727-7.727
		v-0.114c0-4.268,3.459-7.727,7.727-7.727s7.727,3.459,7.727,7.727v0.114C87.934,290.049,84.475,293.509,80.207,293.509z
		 M80.207,219.329c-4.267,0-7.727-3.459-7.727-7.727v-0.114c0-4.268,3.459-7.727,7.727-7.727s7.727,3.459,7.727,7.727v0.114
		C87.934,215.87,84.475,219.329,80.207,219.329z"/>
	<path style="fill:#CCCCCC;" d="M80.207,441.808c-4.267,0-7.727-3.459-7.727-7.727c0-4.268,3.459-7.753,7.727-7.753
		s7.727,3.433,7.727,7.701v0.052C87.934,438.349,84.475,441.808,80.207,441.808z"/>
	<path style="fill:#CCCCCC;" d="M151.014,145.149c-4.267,0-7.727-3.459-7.727-7.727s3.459-7.752,7.727-7.752
		s7.727,3.433,7.727,7.701v0.051C158.741,141.69,155.282,145.149,151.014,145.149z"/>
	<path style="fill:#CCCCCC;" d="M151.014,367.69c-4.267,0-7.727-3.459-7.727-7.727v-0.115c0-4.268,3.459-7.727,7.727-7.727
		s7.727,3.459,7.727,7.727v0.115C158.741,364.23,155.282,367.69,151.014,367.69z M151.014,293.509c-4.267,0-7.727-3.459-7.727-7.727
		v-0.114c0-4.268,3.459-7.727,7.727-7.727s7.727,3.459,7.727,7.727v0.114C158.741,290.049,155.282,293.509,151.014,293.509z
		 M151.014,219.329c-4.267,0-7.727-3.459-7.727-7.727v-0.114c0-4.268,3.459-7.727,7.727-7.727s7.727,3.459,7.727,7.727v0.114
		C158.741,215.87,155.282,219.329,151.014,219.329z"/>
	<path style="fill:#CCCCCC;" d="M151.014,441.808c-4.267,0-7.727-3.459-7.727-7.727c0-4.268,3.459-7.753,7.727-7.753
		s7.727,3.433,7.727,7.701v0.052C158.741,438.349,155.282,441.808,151.014,441.808z"/>
	<path style="fill:#CCCCCC;" d="M221.821,145.149c-4.267,0-7.727-3.459-7.727-7.727s3.459-7.752,7.727-7.752
		s7.727,3.433,7.727,7.701v0.051C229.548,141.69,226.089,145.149,221.821,145.149z"/>
	<path style="fill:#CCCCCC;" d="M221.821,367.69c-4.267,0-7.727-3.459-7.727-7.727v-0.115c0-4.268,3.459-7.727,7.727-7.727
		s7.727,3.459,7.727,7.727v0.115C229.548,364.23,226.089,367.69,221.821,367.69z M221.821,293.509c-4.267,0-7.727-3.459-7.727-7.727
		v-0.114c0-4.268,3.459-7.727,7.727-7.727s7.727,3.459,7.727,7.727v0.114C229.548,290.049,226.089,293.509,221.821,293.509z
		 M221.821,219.329c-4.267,0-7.727-3.459-7.727-7.727v-0.114c0-4.268,3.459-7.727,7.727-7.727s7.727,3.459,7.727,7.727v0.114
		C229.548,215.87,226.089,219.329,221.821,219.329z"/>
	<path style="fill:#CCCCCC;" d="M221.821,441.808c-4.267,0-7.727-3.459-7.727-7.727c0-4.268,3.459-7.753,7.727-7.753
		s7.727,3.433,7.727,7.701v0.052C229.548,438.349,226.089,441.808,221.821,441.808z"/>
	<path style="fill:#CCCCCC;" d="M292.628,145.149c-4.267,0-7.727-3.459-7.727-7.727s3.459-7.752,7.727-7.752
		c4.267,0,7.727,3.433,7.727,7.701v0.051C300.355,141.69,296.896,145.149,292.628,145.149z"/>
	<path style="fill:#CCCCCC;" d="M292.628,367.69c-4.267,0-7.727-3.459-7.727-7.727v-0.115c0-4.268,3.459-7.727,7.727-7.727
		c4.267,0,7.727,3.459,7.727,7.727v0.115C300.355,364.23,296.896,367.69,292.628,367.69z M292.628,293.509
		c-4.267,0-7.727-3.459-7.727-7.727v-0.114c0-4.268,3.459-7.727,7.727-7.727c4.267,0,7.727,3.459,7.727,7.727v0.114
		C300.355,290.049,296.896,293.509,292.628,293.509z M292.628,219.329c-4.267,0-7.727-3.459-7.727-7.727v-0.114
		c0-4.268,3.459-7.727,7.727-7.727c4.267,0,7.727,3.459,7.727,7.727v0.114C300.355,215.87,296.896,219.329,292.628,219.329z"/>
	<path style="fill:#CCCCCC;" d="M292.628,441.808c-4.267,0-7.727-3.459-7.727-7.727c0-4.268,3.459-7.753,7.727-7.753
		c4.267,0,7.727,3.433,7.727,7.701v0.052C300.355,438.349,296.896,441.808,292.628,441.808z"/>
	<path style="fill:#CCCCCC;" d="M363.435,145.149c-4.267,0-7.727-3.459-7.727-7.727s3.459-7.752,7.727-7.752
		c4.267,0,7.727,3.433,7.727,7.701v0.051C371.162,141.69,367.703,145.149,363.435,145.149z"/>
	<path style="fill:#CCCCCC;" d="M363.435,367.69c-4.267,0-7.727-3.459-7.727-7.727v-0.115c0-4.268,3.459-7.727,7.727-7.727
		c4.267,0,7.727,3.459,7.727,7.727v0.115C371.162,364.23,367.703,367.69,363.435,367.69z M363.435,293.509
		c-4.267,0-7.727-3.459-7.727-7.727v-0.114c0-4.268,3.459-7.727,7.727-7.727c4.267,0,7.727,3.459,7.727,7.727v0.114
		C371.162,290.049,367.703,293.509,363.435,293.509z M363.435,219.329c-4.267,0-7.727-3.459-7.727-7.727v-0.114
		c0-4.268,3.459-7.727,7.727-7.727c4.267,0,7.727,3.459,7.727,7.727v0.114C371.162,215.87,367.703,219.329,363.435,219.329z"/>
	<path style="fill:#CCCCCC;" d="M363.435,441.808c-4.267,0-7.727-3.459-7.727-7.727c0-4.268,3.459-7.753,7.727-7.753
		c4.267,0,7.727,3.433,7.727,7.701v0.052C371.162,438.349,367.703,441.808,363.435,441.808z"/>
	<path style="fill:#CCCCCC;" d="M434.242,145.149c-4.267,0-7.727-3.459-7.727-7.727s3.459-7.752,7.727-7.752
		c4.267,0,7.727,3.433,7.727,7.701v0.051C441.969,141.69,438.509,145.149,434.242,145.149z"/>
	<path style="fill:#CCCCCC;" d="M434.242,367.69c-4.267,0-7.727-3.459-7.727-7.727v-0.115c0-4.268,3.459-7.727,7.727-7.727
		c4.267,0,7.727,3.459,7.727,7.727v0.115C441.969,364.23,438.509,367.69,434.242,367.69z M434.242,293.509
		c-4.267,0-7.727-3.459-7.727-7.727v-0.114c0-4.268,3.459-7.727,7.727-7.727c4.267,0,7.727,3.459,7.727,7.727v0.114
		C441.969,290.049,438.509,293.509,434.242,293.509z M434.242,219.329c-4.267,0-7.727-3.459-7.727-7.727v-0.114
		c0-4.268,3.459-7.727,7.727-7.727c4.267,0,7.727,3.459,7.727,7.727v0.114C441.969,215.87,438.509,219.329,434.242,219.329z"/>
	<path style="fill:#CCCCCC;" d="M434.242,441.808c-4.267,0-7.727-3.459-7.727-7.727c0-4.268,3.459-7.753,7.727-7.753
		c4.267,0,7.727,3.433,7.727,7.701v0.052C441.969,438.349,438.509,441.808,434.242,441.808z"/>
</g>
<g>
</g>
<g>
</g>
<g>
</g>
<g>
</g>
<g>
</g>
<g>
</g>
<g>
</g>
<g>
</g>
<g>
</g>
<g>
</g>
<g>
</g>
<g>
</g>
<g>
</g>
<g>
</g>
<g>
</g>
</svg>
