<?xml version="1.0" encoding="iso-8859-1"?>
<!-- Generator: Adobe Illustrator 19.0.0, SVG Export Plug-In . SVG Version: 6.00 Build 0)  -->
<svg version="1.1" id="Capa_1" xmlns="http://www.w3.org/2000/svg" xmlns:xlink="http://www.w3.org/1999/xlink" x="0px" y="0px"
	 viewBox="0 0 512 512" style="enable-background:new 0 0 512 512;" xml:space="preserve">
<path style="fill:#EFEFEF;" d="M386.585,504.5H125.415c-7.521,0-13.619-6.097-13.619-13.619V21.119
	c0-7.521,6.097-13.619,13.619-13.619h261.171c7.521,0,13.619,6.097,13.619,13.619v469.761
	C400.204,498.402,394.107,504.5,386.585,504.5z"/>
<path style="fill:#DDDDDD;" d="M139.82,490.881V21.119c0-7.521,6.097-13.619,13.619-13.619h-28.024
	c-7.521,0-13.619,6.097-13.619,13.619v469.761c0,7.521,6.097,13.619,13.619,13.619h28.024
	C145.917,504.5,139.82,498.402,139.82,490.881z"/>
<path style="fill:#70B5E8;" d="M386.585,512H125.415c-11.646,0-21.119-9.475-21.119-21.119V21.119C104.295,9.475,113.77,0,125.415,0
	h261.171c11.646,0,21.119,9.475,21.119,21.119v469.76C407.705,502.525,398.231,512,386.585,512z M125.415,15.001
	c-3.373,0-6.118,2.744-6.118,6.118v469.76c0,3.374,2.745,6.118,6.118,6.118h261.171c3.373,0,6.118-2.744,6.118-6.118V21.119
	c0-3.374-2.745-6.118-6.118-6.118H125.415z"/>
<path style="fill:#52A5D8;" d="M141.341,496.999h-15.926c-3.374,0-6.118-2.744-6.118-6.118V21.119c0-3.374,2.745-6.118,6.118-6.118
	h15.926C143.971,6.331,152.031,0,161.549,0h-36.134c-11.646,0-21.119,9.475-21.119,21.119v469.76
	c0,11.646,9.475,21.119,21.119,21.119h36.134C152.031,512,143.971,505.669,141.341,496.999z"/>
<path style="fill:#A4D9F4;" d="M351.714,34.738H160.286c-11.738,0-21.252,9.515-21.252,21.252c0,10.364,0,301.217,0,320.94
	c0,11.738,9.515,21.252,21.252,21.252h191.429c11.738,0,21.252-9.515,21.252-21.252c0-12.885,0-278.411,0-290.939V55.99
	C372.967,44.253,363.451,34.738,351.714,34.738z"/>
<path style="fill:#7CC9E8;" d="M169.035,376.93c0-13.727,0-293.491,0-320.94c0-11.738,9.515-21.252,21.252-21.252h-30.002
	c-11.738,0-21.252,9.515-21.252,21.252c0,10.364,0,301.217,0,320.94c0,11.738,9.515,21.252,21.252,21.252h30.002
	C178.551,398.183,169.035,388.668,169.035,376.93z"/>
<circle style="fill:#CCCCCC;" cx="255.995" cy="451.307" r="28.022"/>
<path style="fill:#BABABA;" d="M251.846,423.593c-19.446,2.908-30.02,24.57-20.115,41.725c9.913,17.168,33.958,18.82,46.193,3.442
	C252.826,472.515,236.011,443.496,251.846,423.593z"/>
<circle style="fill:#70B5E8;" cx="208.303" cy="307.079" r="29.406"/>
<path style="fill:#52A5D8;" d="M208.31,277.682c-22.447-0.023-36.834,24.417-25.468,44.105c11.365,19.685,39.726,19.448,50.93-0.004
	C211.135,321.759,197.014,297.293,208.31,277.682z"/>
<circle style="fill:#F94A46;" cx="208.303" cy="215.463" r="29.406"/>
<path style="fill:#EA3939;" d="M208.31,186.058c-22.447-0.023-36.834,24.417-25.468,44.105c11.365,19.685,39.726,19.448,50.93-0.004
	C211.132,230.136,197.016,205.665,208.31,186.058z"/>
<circle style="fill:#FFB70D;" cx="208.303" cy="123.838" r="29.406"/>
<path style="fill:#EDA20C;" d="M208.31,94.435c-22.447-0.023-36.834,24.417-25.468,44.105c11.365,19.684,39.725,19.448,50.93-0.004
	C211.132,138.513,197.016,114.042,208.31,94.435z"/>
<circle style="fill:#898989;" cx="303.688" cy="307.079" r="29.406"/>
<path style="fill:#777777;" d="M303.692,307.084c-5.441-9.425-5.065-20.604,0.002-29.402c-22.446-0.024-36.835,24.416-25.469,44.105
	c8.12,14.065,26.105,18.883,40.168,10.764c4.64-2.679,8.267-6.435,10.761-10.767C319.004,321.772,309.134,316.508,303.692,307.084z"
	/>
<circle style="fill:#8970E5;" cx="303.688" cy="215.463" r="29.406"/>
<path style="fill:#705DD1;" d="M303.694,186.058c-22.446-0.024-36.835,24.416-25.469,44.105
	c8.12,14.065,26.105,18.883,40.168,10.764c4.64-2.679,8.267-6.435,10.761-10.767C306.518,230.136,292.401,205.665,303.694,186.058z"
	/>
<circle style="fill:#70B5E8;" cx="303.688" cy="123.838" r="29.406"/>
<path style="fill:#52A5D8;" d="M303.692,123.838c-5.441-9.425-5.065-20.604,0.002-29.402c-4.998-0.005-10.065,1.257-14.705,3.936
	c-14.065,8.12-18.883,26.105-10.764,40.168c8.119,14.064,26.105,18.883,40.168,10.763c4.64-2.679,8.267-6.435,10.761-10.767
	C319.004,138.525,309.134,133.261,303.692,123.838z"/>
<path style="fill:#898989;" d="M261.416,459.238h-10.832c-1.383,0-2.515-1.132-2.515-2.516V445.89c0-1.383,1.132-2.516,2.515-2.516
	h10.832c1.384,0,2.516,1.132,2.516,2.516v10.832C263.931,458.106,262.799,459.238,261.416,459.238z"/>
<path style="fill:#70B5E8;" d="M139.033,55.99v5.984h233.933V55.99c0-11.738-9.515-21.252-21.252-21.252H160.286
	C148.549,34.738,139.033,44.253,139.033,55.99z"/>
<path style="fill:#52A5D8;" d="M139.033,61.975h30.002V55.99c0-11.737,9.515-21.251,21.251-21.252h-30.001
	c-11.573,0-21.252,9.364-21.252,21.252V61.975z"/>
<path style="fill:#EFEFEF;" d="M223.073,362.817c2.534-6.137,11.301-6.157,13.851,0c1.768,4.183-0.658,9.224-5.46,10.221
	C225.328,374.184,220.839,368.1,223.073,362.817z"/>
<g>
	<path style="fill:#70B5E8;" d="M251.835,371.918c-5.412-3.561-4.003-12.198,2.7-13.591c4.663-0.916,8.961,2.651,8.961,7.35
		c0,3.526-2.433,6.614-6.03,7.36C256.471,373.223,253.5,373.016,251.835,371.918z"/>
	<path style="fill:#70B5E8;" d="M280.537,358.327c0.96-0.19,1.96-0.19,2.93,0c0.48,0.1,0.95,0.24,1.4,0.43
		c0.45,0.19,0.89,0.42,1.3,0.69c0.41,0.27,0.79,0.58,1.14,0.93c0.34,0.35,0.66,0.73,0.93,1.14c0.27,0.41,0.5,0.841,0.69,1.301
		c0.19,0.449,0.33,0.92,0.43,1.399c0.1,0.48,0.15,0.98,0.15,1.46c0,0.49-0.05,0.99-0.15,1.471c-0.1,0.479-0.24,0.949-0.43,1.399
		c-0.19,0.46-0.42,0.891-0.69,1.3c-0.27,0.41-0.59,0.79-0.93,1.141c-0.35,0.34-0.73,0.66-1.14,0.93c-0.41,0.271-0.85,0.5-1.3,0.69
		c-0.45,0.19-0.92,0.33-1.4,0.43C273.712,374.861,270.854,360.338,280.537,358.327z"/>
</g>
<g>
</g>
<g>
</g>
<g>
</g>
<g>
</g>
<g>
</g>
<g>
</g>
<g>
</g>
<g>
</g>
<g>
</g>
<g>
</g>
<g>
</g>
<g>
</g>
<g>
</g>
<g>
</g>
<g>
</g>
</svg>
