<?xml version="1.0" encoding="iso-8859-1"?>
<!-- Generator: Adobe Illustrator 19.0.0, SVG Export Plug-In . SVG Version: 6.00 Build 0)  -->
<svg version="1.1" id="Capa_1" xmlns="http://www.w3.org/2000/svg" xmlns:xlink="http://www.w3.org/1999/xlink" x="0px" y="0px"
	 viewBox="0 0 512 512" style="enable-background:new 0 0 512 512;" xml:space="preserve">
<path style="fill:#EFEFEF;" d="M143.851,62.529H61.029c-4.486,0-8.123,3.637-8.123,8.123c0,5.539,0,17.531,0,26.856h98.914
	c0-5.564,0-17.631,0-27.01C151.82,66.097,148.252,62.529,143.851,62.529z"/>
<path style="fill:#DDDDDD;" d="M83.814,70.652c0-4.486,3.637-8.123,8.123-8.123H61.029c-4.486,0-8.123,3.637-8.123,8.123
	c0,11.213,0,21.824,0,26.856h30.907v-5.409C83.814,85.604,83.814,77.085,83.814,70.652z"/>
<path style="fill:#70B5E8;" d="M491.123,92.1H20.877C9.395,92.1,0,101.494,0,112.977c0,13.358,0,294.728,0,315.617
	c0,11.483,9.395,20.877,20.877,20.877h470.246c11.482,0,20.877-9.394,20.877-20.877c0-6.44,0-283.719,0-300.164v-15.454
	C512,101.494,502.605,92.1,491.123,92.1z"/>
<path style="fill:#52A5D8;" d="M61.815,428.594c0-13.141,0-306.705,0-315.617c0-11.482,9.395-20.877,20.877-20.877H20.877
	C9.395,92.099,0,101.494,0,112.976c0,13.358,0,294.728,0,315.617c0,11.483,9.395,20.877,20.877,20.877h61.815
	C71.209,449.471,61.815,440.077,61.815,428.594z"/>
<path style="fill:#EFEFEF;" d="M401.589,392.777c-67.267,38.836-153.587,15.707-192.424-51.56s-15.707-153.587,51.56-192.424
	s153.587-15.707,192.424,51.56S468.855,353.941,401.589,392.777z M288.541,196.973c-40.7,23.498-54.695,75.727-31.197,116.427
	s75.727,54.695,116.427,31.197c40.7-23.498,54.695-75.727,31.197-116.427S329.241,173.475,288.541,196.973z"/>
<path style="fill:#DDDDDD;" d="M235.708,325.892c-36.247-62.782-18.509-142.156,38.706-184.037
	c-76.666,33.808-107.12,126.84-65.25,199.362c38.836,67.267,125.157,90.396,192.424,51.56c4.485-2.589,8.766-5.396,12.853-8.387
	C349.565,413,271.956,388.674,235.708,325.892z"/>
<g>
	<path style="fill:#CCCCCC;" d="M337.682,166.549h-13.05c-4.267,0-7.727-3.459-7.727-7.727s3.459-7.727,7.727-7.727h13.05
		c4.267,0,7.727,3.459,7.727,7.727C345.408,163.09,341.949,166.549,337.682,166.549z"/>
	<path style="fill:#CCCCCC;" d="M337.682,390.112h-13.05c-4.267,0-7.727-3.459-7.727-7.727c0-4.268,3.459-7.727,7.727-7.727h13.05
		c4.267,0,7.727,3.459,7.727,7.727C345.408,386.653,341.949,390.112,337.682,390.112z"/>
	<path style="fill:#CCCCCC;" d="M450.248,278.512h-13.05c-4.267,0-7.727-3.459-7.727-7.727c0-4.268,3.459-7.727,7.727-7.727h13.05
		c4.267,0,7.727,3.459,7.727,7.727C457.975,275.053,454.515,278.512,450.248,278.512z"/>
</g>
<g>
	<path style="fill:#EFEFEF;" d="M345.164,289.859c-4.267,0-7.727-3.459-7.727-7.727v-22.875c0-4.268,3.459-7.727,7.727-7.727
		c4.267,0,7.727,3.459,7.727,7.727v22.875C352.891,286.4,349.431,289.859,345.164,289.859z"/>
	<path style="fill:#EFEFEF;" d="M368.345,289.859c-4.267,0-7.727-3.459-7.727-7.727v-22.875c0-4.268,3.459-7.727,7.727-7.727
		c4.267,0,7.727,3.459,7.727,7.727v22.875C376.071,286.4,372.612,289.859,368.345,289.859z"/>
</g>
<path style="fill:#CCCCCC;" d="M224.281,278.512h-13.05c-4.267,0-7.727-3.459-7.727-7.727c0-4.268,3.459-7.727,7.727-7.727h13.05
	c4.267,0,7.727,3.459,7.727,7.727C232.008,275.053,228.548,278.512,224.281,278.512z"/>
<path style="fill:#EFEFEF;" d="M304.021,286.445c-3.82,2.118-8.504-0.681-8.448-5.049l0.275-21.449
	c0.056-4.368,4.81-7.046,8.574-4.83l18.632,10.965c3.794,2.233,3.724,7.744-0.127,9.879
	C322.809,276.027,303.917,286.503,304.021,286.445z"/>
<path style="fill:#DDDDDD;" d="M323.054,266.082l-3.082-1.814c-3.747,2.078-12.216,6.774-15.952,8.845
	c-3.403,1.887-7.481-0.132-8.294-3.681l-0.153,11.964c-0.056,4.368,4.627,7.167,8.448,5.049c4.882-2.707-2.904,1.61,18.907-10.484
	C326.778,273.826,326.848,268.315,323.054,266.082z"/>
<g>
</g>
<g>
</g>
<g>
</g>
<g>
</g>
<g>
</g>
<g>
</g>
<g>
</g>
<g>
</g>
<g>
</g>
<g>
</g>
<g>
</g>
<g>
</g>
<g>
</g>
<g>
</g>
<g>
</g>
</svg>
