<?xml version="1.0" encoding="iso-8859-1"?>
<!-- Generator: Adobe Illustrator 19.0.0, SVG Export Plug-In . SVG Version: 6.00 Build 0)  -->
<svg version="1.1" id="Capa_1" xmlns="http://www.w3.org/2000/svg" xmlns:xlink="http://www.w3.org/1999/xlink" x="0px" y="0px"
	 viewBox="0 0 512.001 512.001" style="enable-background:new 0 0 512.001 512.001;" xml:space="preserve">
<path style="fill:#EFEFEF;" d="M95.565,0C75.124,0,58.4,16.724,58.4,37.165v437.671C58.4,495.276,75.124,512,95.565,512
	c4.009,0,129.258,0,131.733,0V0C222.787,0,114.316,0,95.565,0z"/>
<path style="fill:#DDDDDD;" d="M89.307,474.835V37.165C89.307,16.724,106.031,0,126.472,0H95.565C75.124,0,58.4,16.724,58.4,37.165
	v437.671C58.4,495.276,75.124,512,95.565,512h30.907C106.031,512,89.307,495.276,89.307,474.835z"/>
<circle style="fill:#666666;" cx="109.95" cy="49.27" r="17.49"/>
<path style="fill:#535454;" d="M109.962,31.79c-13.336-0.019-21.927,14.494-15.155,26.222c6.774,11.732,23.638,11.541,30.287-0.014
	C111.63,57.979,103.245,43.465,109.962,31.79z"/>
<circle style="fill:#CCCCCC;" cx="154.53" cy="49.27" r="7.391"/>
<path style="fill:#EFEFEF;" d="M416.435,512H227.298c-20.44,0-37.165-16.724-37.165-37.165V37.165
	C190.133,16.724,206.857,0,227.298,0h189.138c20.44,0,37.165,16.724,37.165,37.165v437.671C453.6,495.276,436.876,512,416.435,512z"
	/>
<path style="fill:#DDDDDD;" d="M212.583,474.835V37.165C212.583,16.724,229.307,0,249.747,0h-22.449
	c-20.44,0-37.165,16.724-37.165,37.165v437.671c0,20.44,16.724,37.165,37.165,37.165h22.449
	C229.307,512,212.583,495.276,212.583,474.835z"/>
<path style="fill:#A4D9F4;" d="M423.024,406.416H220.71c-4.445,0-8.049-3.604-8.049-8.049V84.277c0-4.445,3.604-8.049,8.049-8.049
	h202.314c4.445,0,8.049,3.604,8.049,8.049v314.09C431.073,402.812,427.469,406.416,423.024,406.416z"/>
<path style="fill:#7CC9E8;" d="M235.068,398.367V84.277c0-4.445,3.604-8.049,8.049-8.049H220.71c-4.445,0-8.049,3.604-8.049,8.049
	v314.09c0,4.445,3.604,8.049,8.049,8.049h22.408C238.672,406.416,235.068,402.812,235.068,398.367z"/>
<g>
	<path style="fill:#CCCCCC;" d="M352.816,50.635h-33.444c-4.267,0-7.727-3.459-7.727-7.727c0-4.267,3.459-7.727,7.727-7.727h33.444
		c4.267,0,7.727,3.459,7.727,7.727S357.083,50.635,352.816,50.635z"/>
	<path style="fill:#CCCCCC;" d="M289.406,50.487c-0.982-0.205-1.914-0.582-2.782-1.154c-0.805-0.53-1.576-1.287-2.132-2.133
		c-0.571-0.866-0.948-1.794-1.154-2.781c-0.197-1.051-0.187-2.017,0-3.019c0.21-1.006,0.571-1.897,1.154-2.781
		c0.533-0.81,1.294-1.581,2.132-2.133c0.423-0.278,0.876-0.515,1.339-0.711c0.464-0.196,0.948-0.34,1.443-0.443
		c0.999-0.196,2.029-0.196,3.018,0c1.002,0.208,1.895,0.57,2.782,1.153c0.828,0.546,1.565,1.271,2.132,2.133
		c0.519,0.788,0.92,1.658,1.154,2.781c0.207,0.992,0.205,2.038,0,3.019c-0.218,1.047-0.605,1.948-1.154,2.781
		c-0.573,0.871-1.313,1.593-2.132,2.133c-0.892,0.587-1.785,0.946-2.782,1.154C291.93,50.589,290.439,50.697,289.406,50.487z"/>
</g>
<circle style="fill:#DDDDDD;" cx="321.87" cy="458.06" r="28.87"/>
<path style="fill:#CCCCCC;" d="M317.354,429.542c-3.401,0.537-6.763,1.689-9.922,3.513c-13.808,7.972-18.539,25.629-10.567,39.437
	c10.156,17.59,34.764,19.397,47.441,3.731C318.245,480.34,300.737,450.078,317.354,429.542z"/>
<path style="fill:#898989;" d="M327.446,466.228h-11.158c-1.425,0-2.592-1.166-2.592-2.592v-11.158c0-1.425,1.166-2.592,2.592-2.592
	h11.158c1.425,0,2.592,1.166,2.592,2.592v11.158C330.037,465.062,328.871,466.228,327.446,466.228z"/>
<path style="fill:#70B5E8;" d="M212.661,84.277v24.366h218.412V84.277c0-4.445-3.604-8.049-8.049-8.049H220.71
	C216.264,76.228,212.661,79.831,212.661,84.277z"/>
<path style="fill:#52A5D8;" d="M235.068,84.277c0-4.445,3.604-8.049,8.049-8.049H220.71c-1.111,0-2.17,0.225-3.133,0.633
	c-1.445,0.611-2.673,1.632-3.541,2.916c-0.289,0.428-0.539,0.886-0.742,1.367c-0.407,0.963-0.633,2.022-0.633,3.133v24.366h22.408
	V84.277H235.068z"/>
<path style="fill:#898989;" d="M259.191,307.017h-20.676c-1.895,0-3.446-1.551-3.446-3.446v-20.676c0-1.895,1.551-3.446,3.446-3.446
	h20.676c1.895,0,3.446,1.551,3.446,3.446v20.676C262.637,305.466,261.086,307.017,259.191,307.017z"/>
<path style="fill:#92B620;" d="M259.191,384.247h-20.676c-1.895,0-3.446-1.551-3.446-3.446v-20.676c0-1.895,1.551-3.446,3.446-3.446
	h20.676c1.895,0,3.446,1.551,3.446,3.446v20.676C262.637,382.696,261.086,384.247,259.191,384.247z"/>
<path style="fill:#70B5E8;" d="M307.867,384.247h-20.676c-1.895,0-3.446-1.551-3.446-3.446v-20.676c0-1.895,1.551-3.446,3.446-3.446
	h20.676c1.895,0,3.446,1.551,3.446,3.446v20.676C311.313,382.696,309.762,384.247,307.867,384.247z"/>
<path style="fill:#52A5D8;" d="M356.543,384.247h-20.676c-1.895,0-3.446-1.551-3.446-3.446v-20.676c0-1.895,1.551-3.446,3.446-3.446
	h20.676c1.895,0,3.446,1.551,3.446,3.446v20.676C359.989,382.696,358.438,384.247,356.543,384.247z"/>
<path style="fill:#FFB70D;" d="M405.219,384.247h-20.676c-1.895,0-3.446-1.551-3.446-3.446v-20.676c0-1.895,1.551-3.446,3.446-3.446
	h20.676c1.895,0,3.446,1.551,3.446,3.446v20.676C408.665,382.696,407.114,384.247,405.219,384.247z"/>
<path style="fill:#92B620;" d="M259.191,158.271h-20.676c-1.895,0-3.446-1.551-3.446-3.446v-20.676c0-1.895,1.551-3.446,3.446-3.446
	h20.676c1.895,0,3.446,1.551,3.446,3.446v20.676C262.637,156.72,261.086,158.271,259.191,158.271z"/>
<path style="fill:#F94A46;" d="M307.867,158.271h-20.676c-1.895,0-3.446-1.551-3.446-3.446v-20.676c0-1.895,1.551-3.446,3.446-3.446
	h20.676c1.895,0,3.446,1.551,3.446,3.446v20.676C311.313,156.72,309.762,158.271,307.867,158.271z"/>
<path style="fill:#FFB70D;" d="M356.543,158.271h-20.676c-1.895,0-3.446-1.551-3.446-3.446v-20.676c0-1.895,1.551-3.446,3.446-3.446
	h20.676c1.895,0,3.446,1.551,3.446,3.446v20.676C359.989,156.72,358.438,158.271,356.543,158.271z"/>
<path style="fill:#EFEFEF;" d="M405.219,158.271h-20.676c-1.895,0-3.446-1.551-3.446-3.446v-20.676c0-1.895,1.551-3.446,3.446-3.446
	h20.676c1.895,0,3.446,1.551,3.446,3.446v20.676C408.665,156.72,407.114,158.271,405.219,158.271z"/>
<path style="fill:#DDA36F;" d="M259.191,207.427h-20.676c-1.895,0-3.446-1.551-3.446-3.446v-20.676c0-1.895,1.551-3.446,3.446-3.446
	h20.676c1.895,0,3.446,1.551,3.446,3.446v20.676C262.637,205.876,261.086,207.427,259.191,207.427z"/>
<path style="fill:#70B5E8;" d="M307.867,207.427h-20.676c-1.895,0-3.446-1.551-3.446-3.446v-20.676c0-1.895,1.551-3.446,3.446-3.446
	h20.676c1.895,0,3.446,1.551,3.446,3.446v20.676C311.313,205.876,309.762,207.427,307.867,207.427z"/>
<path style="fill:#F9D698;" d="M356.543,207.427h-20.676c-1.895,0-3.446-1.551-3.446-3.446v-20.676c0-1.895,1.551-3.446,3.446-3.446
	h20.676c1.895,0,3.446,1.551,3.446,3.446v20.676C359.989,205.876,358.438,207.427,356.543,207.427z"/>
<path style="fill:#70B5E8;" d="M405.219,207.427h-20.676c-1.895,0-3.446-1.551-3.446-3.446v-20.676c0-1.895,1.551-3.446,3.446-3.446
	h20.676c1.895,0,3.446,1.551,3.446,3.446v20.676C408.665,205.876,407.114,207.427,405.219,207.427z"/>
<path style="fill:#EFEFEF;" d="M259.191,257.222h-20.676c-1.895,0-3.446-1.551-3.446-3.446V233.1c0-1.895,1.551-3.446,3.446-3.446
	h20.676c1.895,0,3.446,1.551,3.446,3.446v20.676C262.637,255.671,261.086,257.222,259.191,257.222z"/>
<path style="fill:#FFB70D;" d="M307.867,257.222h-20.676c-1.895,0-3.446-1.551-3.446-3.446V233.1c0-1.895,1.551-3.446,3.446-3.446
	h20.676c1.895,0,3.446,1.551,3.446,3.446v20.676C311.313,255.671,309.762,257.222,307.867,257.222z"/>
<path style="fill:#70B5E8;" d="M356.543,257.222h-20.676c-1.895,0-3.446-1.551-3.446-3.446V233.1c0-1.895,1.551-3.446,3.446-3.446
	h20.676c1.895,0,3.446,1.551,3.446,3.446v20.676C359.989,255.671,358.438,257.222,356.543,257.222z"/>
<path style="fill:#EFEFEF;" d="M405.219,257.222h-20.676c-1.895,0-3.446-1.551-3.446-3.446V233.1c0-1.895,1.551-3.446,3.446-3.446
	h20.676c1.895,0,3.446,1.551,3.446,3.446v20.676C408.665,255.671,407.114,257.222,405.219,257.222z"/>
<g>
</g>
<g>
</g>
<g>
</g>
<g>
</g>
<g>
</g>
<g>
</g>
<g>
</g>
<g>
</g>
<g>
</g>
<g>
</g>
<g>
</g>
<g>
</g>
<g>
</g>
<g>
</g>
<g>
</g>
</svg>
