<?xml version="1.0" encoding="iso-8859-1"?>
<!-- Generator: Adobe Illustrator 19.0.0, SVG Export Plug-In . SVG Version: 6.00 Build 0)  -->
<svg version="1.1" id="Capa_1" xmlns="http://www.w3.org/2000/svg" xmlns:xlink="http://www.w3.org/1999/xlink" x="0px" y="0px"
	 viewBox="0 0 512.001 512.001" style="enable-background:new 0 0 512.001 512.001;" xml:space="preserve">
<path style="fill:#70B5E8;" d="M356.682,0H155.32c-10.743,0-19.534,8.79-19.534,19.534v472.933c0,10.743,8.79,19.534,19.534,19.534
	h201.362c10.743,0,19.534-8.79,19.534-19.534V19.534C376.216,8.79,367.426,0,356.682,0z"/>
<path style="fill:#52A5D8;" d="M164.052,492.466V19.533C164.052,8.79,172.842,0,183.585,0H155.32
	c-10.743,0-19.534,8.79-19.534,19.533v472.933c0,10.743,8.79,19.534,19.534,19.534h28.265
	C172.842,512,164.052,503.21,164.052,492.466z"/>
<path style="fill:#666666;" d="M210.026,293.462c-43.979,25.391-59.047,81.626-33.656,125.605s81.627,59.047,125.605,33.656
	c43.979-25.391,59.047-81.627,33.656-125.605C310.24,283.139,254.005,268.071,210.026,293.462z M271.237,399.483
	c-14.575,8.415-33.212,3.421-41.627-11.154c-8.415-14.575-3.421-33.212,11.154-41.627c14.575-8.415,33.212-3.421,41.627,11.154
	S285.813,391.068,271.237,399.483z"/>
<path style="fill:#535454;" d="M203.137,403.614c-22.758-39.417-13.008-88.676,20.922-116.753
	c-4.777,1.776-9.472,3.968-14.033,6.601c-43.979,25.391-59.047,81.626-33.656,125.605s81.627,59.047,125.605,33.656
	c4.561-2.634,8.807-5.603,12.733-8.853C273.429,459.217,225.895,443.031,203.137,403.614z"/>
<rect x="164.051" y="50.27" style="fill:#EFEFEF;" width="183.9" height="145.78"/>
<rect x="164.051" y="50.27" style="fill:#DDDDDD;" width="30.907" height="145.78"/>
<path style="fill:#898989;" d="M339.926,27.815h-167.85c-4.432,0-8.024,3.593-8.024,8.024v19.519h183.899V35.839
	C347.95,31.407,344.358,27.815,339.926,27.815z"/>
<path style="fill:#777777;" d="M194.959,35.839c0-4.432,3.593-8.024,8.024-8.024h-30.907c-4.431,0-8.024,3.591-8.024,8.024v19.519
	h30.907V35.839z"/>
<path style="fill:#CCCCCC;" d="M164.052,190.114v40.757c0,4.432,3.593,8.024,8.024,8.024h167.85c4.432,0,8.024-3.593,8.024-8.024
	v-40.757H164.052z"/>
<path style="fill:#BABABA;" d="M194.959,230.871v-40.757h-30.907v40.757c0,2.216,0.898,4.222,2.35,5.674
	c1.452,1.452,3.458,2.35,5.674,2.35h30.907C198.552,238.895,194.959,235.303,194.959,230.871z"/>
<path style="fill:#EFEFEF;" d="M316.317,222.231H195.092c-4.267,0-7.727-3.459-7.727-7.727s3.459-7.727,7.727-7.727h121.225
	c4.267,0,7.727,3.459,7.727,7.727S320.584,222.231,316.317,222.231z"/>
<g>
	<path style="fill:#CCCCCC;" d="M201.617,380.82h-13.05c-4.267,0-7.727-3.459-7.727-7.727c0-4.268,3.459-7.727,7.727-7.727h13.05
		c4.267,0,7.727,3.459,7.727,7.727S205.884,380.82,201.617,380.82z"/>
	<path style="fill:#CCCCCC;" d="M322.842,380.82h-13.05c-4.267,0-7.727-3.459-7.727-7.727c0-4.268,3.459-7.727,7.727-7.727h13.05
		c4.267,0,7.727,3.459,7.727,7.727S327.11,380.82,322.842,380.82z"/>
	<path style="fill:#CCCCCC;" d="M262.526,320.441h-13.05c-4.267,0-7.727-3.459-7.727-7.727c0-4.268,3.459-7.727,7.727-7.727h13.05
		c4.267,0,7.727,3.459,7.727,7.727C270.253,316.982,266.793,320.441,262.526,320.441z"/>
	<path style="fill:#CCCCCC;" d="M262.526,440.807h-13.05c-4.267,0-7.727-3.459-7.727-7.727c0-4.268,3.459-7.727,7.727-7.727h13.05
		c4.267,0,7.727,3.459,7.727,7.727C270.253,437.348,266.793,440.807,262.526,440.807z"/>
</g>
<g>
</g>
<g>
</g>
<g>
</g>
<g>
</g>
<g>
</g>
<g>
</g>
<g>
</g>
<g>
</g>
<g>
</g>
<g>
</g>
<g>
</g>
<g>
</g>
<g>
</g>
<g>
</g>
<g>
</g>
</svg>
