<?xml version="1.0" encoding="iso-8859-1"?>
<!-- Generator: Adobe Illustrator 19.0.0, SVG Export Plug-In . SVG Version: 6.00 Build 0)  -->
<svg version="1.1" id="Capa_1" xmlns="http://www.w3.org/2000/svg" xmlns:xlink="http://www.w3.org/1999/xlink" x="0px" y="0px"
	 viewBox="0 0 512 512" style="enable-background:new 0 0 512 512;" xml:space="preserve">
<path style="fill:#BABABA;" d="M269.908,400.213v-78.985h-27.816v78.924C251.037,398.622,260.343,398.534,269.908,400.213z"/>
<path style="fill:#CCCCCC;" d="M406.697,334.683H105.303c-30.144,0-54.668-24.524-54.668-54.667V54.667
	C50.635,24.524,75.159,0,105.303,0h301.394c30.144,0,54.668,24.524,54.668,54.667v225.349
	C461.365,310.16,436.841,334.683,406.697,334.683z"/>
<path style="fill:#BABABA;" d="M78.452,280.016V54.667C78.452,24.524,102.976,0,133.119,0h-27.816
	C75.159,0,50.635,24.524,50.635,54.667v225.349c0,30.144,24.524,54.667,54.668,54.667h27.816
	C102.976,334.683,78.452,310.16,78.452,280.016z"/>
<path style="fill:#EFEFEF;" d="M105.303,27.817c-14.806,0-26.851,12.045-26.851,26.851v225.349
	c0,14.806,12.045,26.851,26.851,26.851h301.394c14.806,0,26.852-12.045,26.852-26.851V54.667c0-14.806-12.045-26.851-26.852-26.851
	L105.303,27.817L105.303,27.817z"/>
<path style="fill:#DDDDDD;" d="M110.393,280.016V54.667c0-14.806,12.045-26.851,26.851-26.851h-31.941
	c-14.806,0-26.851,12.045-26.851,26.851v225.349c0,14.806,12.045,26.851,26.851,26.851h31.941
	C122.438,306.867,110.393,294.822,110.393,280.016z"/>
<path style="fill:#EFEFEF;" d="M369.151,490.2c-6.504-56.827-54.755-100.967-113.323-100.967
	c-57.455,0-104.982,42.478-112.908,97.742c-0.385,3.526-0.808,17.652,16.591,19.641c62.408,7.267,132.816,7.192,195.249-0.309
	C369.554,504.502,369.341,492.556,369.151,490.2z"/>
<path style="fill:#DDDDDD;" d="M173.814,499.14c6.624-58.832,44.587-104.77,91.655-109.497
	c-61.239-5.126-114.13,38.636-122.548,97.332c-0.385,3.526-0.808,17.652,16.591,19.641c4.905,0.571,9.891,1.096,14.938,1.581
	C173.532,504.352,173.676,500.756,173.814,499.14z"/>
<path style="fill:#CCCCCC;" d="M365.044,470.31c-2.154,2.098-5.396,3.804-10.283,4.4c-62.383,7.495-132.789,7.582-195.249,0.309
	c-6.19-0.707-10.116-2.954-12.599-5.709c-1.78,5.709-3.124,11.61-3.992,17.665c-0.385,3.526-0.808,17.652,16.591,19.64
	c62.41,7.267,132.816,7.192,195.249-0.309c14.793-1.804,14.581-13.75,14.391-16.106C368.369,483.368,366.978,476.721,365.044,470.31
	z"/>
<path style="fill:#BABABA;" d="M177.938,476.929c-18.848-1.726-25.87-1.897-31.025-7.619c-1.938,6.216-3.026,11.447-3.992,17.665
	c-0.285,2.609-0.058,5.604,0.794,8.28c3.651,11.453,14.748,11.531,30.735,12.941c-0.918-3.845-0.774-7.441-0.636-9.057
	C174.675,491.497,176.069,484.074,177.938,476.929z"/>
<path style="fill:#A4D9F4;" d="M393.276,274.19H118.724c-4.602,0-8.332-3.73-8.332-8.332V68.918c0-4.601,3.73-8.332,8.332-8.332
	h274.551c4.602,0,8.332,3.73,8.332,8.332v196.94C401.607,270.459,397.877,274.19,393.276,274.19z"/>
<path style="fill:#7CC9E8;" d="M141.3,265.858V68.918c0-4.602,3.73-8.332,8.332-8.332h-30.907c-4.602,0-8.332,3.73-8.332,8.332
	v196.94c0,4.601,3.73,8.332,8.332,8.332h30.907C145.03,274.19,141.3,270.459,141.3,265.858z"/>
<path style="fill:#70B5E8;" d="M110.393,68.918v19.663h291.215V68.918c0-4.601-3.73-8.332-8.332-8.332H118.724
	C114.123,60.586,110.393,64.317,110.393,68.918z"/>
<path style="fill:#52A5D8;" d="M149.632,60.586h-30.907c-2.164,0-4.129,0.832-5.61,2.184c-1.669,1.524-2.722,3.71-2.722,6.147
	v19.664H141.3V68.918C141.3,64.317,145.03,60.586,149.632,60.586z"/>
<circle style="fill:#CCCCCC;" cx="256" cy="433.44" r="14.423"/>
<path style="fill:#BABABA;" d="M255.705,419.024c-10.789,0.211-17.743,12.023-12.196,21.631c5.521,9.563,19.221,9.545,24.831,0.253
	C257.001,441.129,249.819,428.773,255.705,419.024z"/>
<path style="fill:#52A5D8;" d="M169.956,253.108H149.28c-1.895,0-3.446-1.551-3.446-3.446v-20.676c0-1.895,1.551-3.446,3.446-3.446
	h20.676c1.895,0,3.446,1.551,3.446,3.446v20.676C173.402,251.557,171.851,253.108,169.956,253.108z"/>
<path style="fill:#898989;" d="M266.338,253.108h-20.676c-1.895,0-3.446-1.551-3.446-3.446v-20.676c0-1.895,1.551-3.446,3.446-3.446
	h20.676c1.895,0,3.446,1.551,3.446,3.446v20.676C269.784,251.557,268.233,253.108,266.338,253.108z"/>
<path style="fill:#52A5D8;" d="M362.72,253.108h-20.676c-1.895,0-3.446-1.551-3.446-3.446v-20.676c0-1.895,1.551-3.446,3.446-3.446
	h20.676c1.895,0,3.446,1.551,3.446,3.446v20.676C366.166,251.557,364.615,253.108,362.72,253.108z"/>
<path style="fill:#92B620;" d="M218.147,253.108h-20.676c-1.895,0-3.446-1.551-3.446-3.446v-20.676c0-1.895,1.551-3.446,3.446-3.446
	h20.676c1.895,0,3.446,1.551,3.446,3.446v20.676C221.593,251.557,220.042,253.108,218.147,253.108z"/>
<path style="fill:#FFB70D;" d="M314.529,253.108h-20.676c-1.895,0-3.446-1.551-3.446-3.446v-20.676c0-1.895,1.551-3.446,3.446-3.446
	h20.676c1.895,0,3.446,1.551,3.446,3.446v20.676C317.975,251.557,316.424,253.108,314.529,253.108z"/>
<g>
</g>
<g>
</g>
<g>
</g>
<g>
</g>
<g>
</g>
<g>
</g>
<g>
</g>
<g>
</g>
<g>
</g>
<g>
</g>
<g>
</g>
<g>
</g>
<g>
</g>
<g>
</g>
<g>
</g>
</svg>
