<?xml version="1.0" encoding="iso-8859-1"?>
<!-- Generator: Adobe Illustrator 19.0.0, SVG Export Plug-In . SVG Version: 6.00 Build 0)  -->
<svg version="1.1" id="Capa_1" xmlns="http://www.w3.org/2000/svg" xmlns:xlink="http://www.w3.org/1999/xlink" x="0px" y="0px"
	 viewBox="0 0 512.001 512.001" style="enable-background:new 0 0 512.001 512.001;" xml:space="preserve">
<path style="fill:#EFEFEF;" d="M384.408,512H127.594c-15.248,0-27.724-12.476-27.724-27.724V27.724
	C99.87,12.476,112.346,0,127.594,0h256.814c15.248,0,27.724,12.476,27.724,27.724v456.553C412.132,499.524,399.656,512,384.408,512z
	"/>
<path style="fill:#DDDDDD;" d="M130.778,484.276V27.724C130.778,12.476,143.253,0,158.501,0h-30.907
	C112.346,0,99.87,12.476,99.87,27.724v456.553c0,15.248,12.476,27.724,27.724,27.724h30.907
	C143.253,512,130.778,499.524,130.778,484.276z"/>
<path style="fill:#F9D698;" d="M351.564,207.935H160.438c-5.848,0-10.632-4.785-10.632-10.633V44.132
	c0-5.848,4.785-10.632,10.632-10.632h191.126c5.848,0,10.632,4.785,10.632,10.632v153.17
	C362.197,203.15,357.412,207.935,351.564,207.935z"/>
<path style="fill:#EFBB81;" d="M180.713,197.302V44.132c0-5.848,4.785-10.632,10.632-10.632h-30.907
	c-5.848,0-10.632,4.785-10.632,10.632v153.17c0,5.848,4.785,10.632,10.632,10.632h30.907
	C185.498,207.935,180.713,203.15,180.713,197.302z"/>
<path style="fill:#EAB883;" d="M351.564,33.499H160.438c-5.848,0-10.632,4.785-10.632,10.632c0,14.796,0,24.702,0,39.616h212.391
	c0-13.849,0-25.126,0-39.616C362.197,38.284,357.412,33.499,351.564,33.499z"/>
<path style="fill:#DDA36F;" d="M149.806,44.132v39.616h30.907V44.132c0-5.848,4.785-10.632,10.632-10.632h-30.907
	C154.59,33.499,149.806,38.284,149.806,44.132z"/>
<g>
	<path style="fill:#F9E8CD;" d="M333.366,122.325h-154.73c-4.267,0-7.727-3.459-7.727-7.727s3.459-7.727,7.727-7.727h154.73
		c4.267,0,7.727,3.459,7.727,7.727C341.093,118.866,337.633,122.325,333.366,122.325z"/>
	<path style="fill:#F9E8CD;" d="M333.366,153.458h-154.73c-4.267,0-7.727-3.459-7.727-7.727s3.459-7.727,7.727-7.727h154.73
		c4.267,0,7.727,3.459,7.727,7.727S337.633,153.458,333.366,153.458z"/>
	<path style="fill:#F9E8CD;" d="M333.366,184.592h-154.73c-4.267,0-7.727-3.459-7.727-7.727s3.459-7.727,7.727-7.727h154.73
		c4.267,0,7.727,3.459,7.727,7.727C341.093,181.133,337.633,184.592,333.366,184.592z"/>
</g>
<g>
	<path style="fill:#F9D698;" d="M328.503,66.35h-21.635c-4.267,0-7.727-3.459-7.727-7.727s3.459-7.727,7.727-7.727h21.635
		c4.267,0,7.727,3.459,7.727,7.727S332.77,66.35,328.503,66.35z"/>
	<path style="fill:#F9D698;" d="M266.819,66.35h-21.635c-4.267,0-7.727-3.459-7.727-7.727s3.459-7.727,7.727-7.727h21.635
		c4.267,0,7.727,3.459,7.727,7.727S271.086,66.35,266.819,66.35z"/>
</g>
<circle style="fill:#EFEFEF;" cx="256.401" cy="361.23" r="31.766"/>
<path style="fill:#DDDDDD;" d="M256.453,329.381c-24.335-0.103-39.898,26.368-27.614,47.645
	c12.267,21.248,42.832,20.997,54.967,0.084C272.875,377.064,244.191,350.512,256.453,329.381z"/>
<path style="fill:#CCCCCC;" d="M255.556,400.523c-34.842,0-52.739-42.375-27.864-67.252c24.67-24.668,67.269-7.145,67.269,27.864
	C294.961,383.006,277.251,400.523,255.556,400.523z M238.619,344.2c-9.339,9.338-9.338,24.534,0.001,33.873
	c9.338,9.338,24.534,9.339,33.872-0.001c9.361-9.359,9.362-24.512,0-33.872l0,0C263.155,334.862,247.959,334.859,238.619,344.2z"/>
<path style="fill:#DDDDDD;" d="M177.48,408.644c-30.643-53.074-15.941-119.877,32.075-155.575
	c-65.993,28.517-91.841,107.831-56.226,169.518c35.657,61.759,117.296,78.908,174.92,36.066
	C273.326,482.387,208.123,461.718,177.48,408.644z"/>
<path style="fill:#CCCCCC;" d="M345.327,271.364c-49.254-49.252-129.397-49.253-178.652,0
	c-49.255,49.256-49.255,129.398-0.001,178.653c49.254,49.252,129.396,49.254,178.652,0
	C394.581,400.762,394.581,320.619,345.327,271.364z M339.67,433.432l-8.783-8.783c31.399-36.715,31.399-91.201,0-127.917
	l8.783-8.783C375.863,329.523,375.863,391.858,339.67,433.432z M183.277,444.342l8.762-8.762
	c36.816,31.493,91.356,31.322,127.942,0.018l8.761,8.762C286.332,481.226,224.06,479.851,183.277,444.342z M328.742,277.022
	l-8.76,8.761c-36.17-30.972-90.772-31.763-127.942,0.019l-8.762-8.762C225.771,240.053,287.98,241.605,328.742,277.022z
	 M256,443.707c-73.442-0.007-111.158-89.315-58.728-141.745c32.435-32.435,85.121-32.338,117.459,0
	C367.234,354.466,329.352,443.72,256,443.707z M172.35,287.967l8.742,8.743c-31.489,36.801-31.261,91.423-0.001,127.962
	l-8.742,8.743C135.943,391.599,136.382,329.284,172.35,287.967z"/>
<g>
</g>
<g>
</g>
<g>
</g>
<g>
</g>
<g>
</g>
<g>
</g>
<g>
</g>
<g>
</g>
<g>
</g>
<g>
</g>
<g>
</g>
<g>
</g>
<g>
</g>
<g>
</g>
<g>
</g>
</svg>
