<?xml version="1.0" encoding="iso-8859-1"?>
<!-- Generator: Adobe Illustrator 19.0.0, SVG Export Plug-In . SVG Version: 6.00 Build 0)  -->
<svg version="1.1" id="Capa_1" xmlns="http://www.w3.org/2000/svg" xmlns:xlink="http://www.w3.org/1999/xlink" x="0px" y="0px"
	 viewBox="0 0 512.001 512.001" style="enable-background:new 0 0 512.001 512.001;" xml:space="preserve">
<g>
	<rect x="117.291" y="295.49" style="fill:#EFEFEF;" width="30.85" height="28.23"/>
	<rect x="148.141" y="295.49" style="fill:#EFEFEF;" width="30.85" height="28.23"/>
	<rect x="178.991" y="295.49" style="fill:#EFEFEF;" width="30.85" height="28.23"/>
	<rect x="209.841" y="295.49" style="fill:#EFEFEF;" width="30.85" height="28.23"/>
	<rect x="240.691" y="295.49" style="fill:#EFEFEF;" width="30.85" height="28.23"/>
	<rect x="271.541" y="295.49" style="fill:#EFEFEF;" width="30.85" height="28.23"/>
	<rect x="302.391" y="295.49" style="fill:#EFEFEF;" width="30.85" height="28.23"/>
	<rect x="163.561" y="323.72" style="fill:#EFEFEF;" width="30.85" height="28.23"/>
	<rect x="194.411" y="323.72" style="fill:#EFEFEF;" width="30.85" height="28.23"/>
	<rect x="225.271" y="323.72" style="fill:#EFEFEF;" width="30.85" height="28.23"/>
	<rect x="256.121" y="323.72" style="fill:#EFEFEF;" width="30.85" height="28.23"/>
	<rect x="286.971" y="323.72" style="fill:#EFEFEF;" width="30.85" height="28.23"/>
	<rect x="178.991" y="351.96" style="fill:#EFEFEF;" width="30.85" height="28.23"/>
	<rect x="209.841" y="351.96" style="fill:#EFEFEF;" width="30.85" height="28.23"/>
	<rect x="240.691" y="351.96" style="fill:#EFEFEF;" width="30.85" height="28.23"/>
	<rect x="271.541" y="351.96" style="fill:#EFEFEF;" width="30.85" height="28.23"/>
	<rect x="302.391" y="351.96" style="fill:#EFEFEF;" width="30.85" height="28.23"/>
	<rect x="317.821" y="323.72" style="fill:#EFEFEF;" width="30.85" height="28.23"/>
	<path style="fill:#EFEFEF;" d="M333.242,295.486v28.235c7.481,0,54.188,0,61.7,0v-28.235
		C387.461,295.486,340.755,295.486,333.242,295.486z"/>
	<path style="fill:#EFEFEF;" d="M117.291,380.19v21.127c0,5.021,4.074,9.091,9.099,9.091h21.751V380.19H117.291z"/>
	<rect x="148.141" y="380.19" style="fill:#EFEFEF;" width="30.85" height="30.22"/>
	<path style="fill:#EFEFEF;" d="M178.991,380.19v30.219c7.481,0,54.188,0,61.7,0c9.038,0,83.572,0,92.55,0V380.19
		C296.291,380.19,209.667,380.19,178.991,380.19z"/>
	<rect x="333.241" y="380.19" style="fill:#EFEFEF;" width="30.85" height="30.22"/>
	<path style="fill:#EFEFEF;" d="M364.092,410.409h20.344c5.803,0,10.507-4.7,10.507-10.498V380.19h-30.85L364.092,410.409
		L364.092,410.409z"/>
	<rect x="117.291" y="323.72" style="fill:#EFEFEF;" width="46.27" height="28.23"/>
	<rect x="117.291" y="351.96" style="fill:#EFEFEF;" width="61.7" height="28.23"/>
	<path style="fill:#EFEFEF;" d="M348.667,323.721v28.235c15.432,0,30.854,0,46.275,0v-28.235
		C379.52,323.721,364.089,323.721,348.667,323.721z"/>
	<path style="fill:#EFEFEF;" d="M333.242,351.956v28.235c7.481,0,54.188,0,61.7,0v-28.235
		C387.461,351.956,340.755,351.956,333.242,351.956z"/>
	<path style="fill:#EFEFEF;" d="M148.141,295.486h-30.85v-19.552c0-5.118,4.149-9.266,9.266-9.266h21.584V295.486z"/>
	<rect x="148.141" y="266.67" style="fill:#EFEFEF;" width="30.85" height="28.818"/>
	<rect x="178.991" y="266.67" style="fill:#EFEFEF;" width="30.85" height="28.818"/>
	<rect x="209.841" y="266.67" style="fill:#EFEFEF;" width="30.85" height="28.818"/>
	<rect x="240.691" y="266.67" style="fill:#EFEFEF;" width="30.85" height="28.818"/>
	<rect x="271.541" y="266.67" style="fill:#EFEFEF;" width="30.85" height="28.818"/>
	<rect x="302.391" y="266.67" style="fill:#EFEFEF;" width="30.85" height="28.818"/>
	<rect x="333.241" y="266.67" style="fill:#EFEFEF;" width="30.85" height="28.818"/>
	<path style="fill:#EFEFEF;" d="M394.942,295.486h-30.85v-28.818h20.712c5.599,0,10.138,4.539,10.138,10.138V295.486z"/>
</g>
<path style="fill:#A4D9F4;" d="M387.903,512c-7.439,0-256.366,0-263.805,0c-39.729,0-71.936-32.269-71.936-72.074v-93.704
	c0-49.563,17.955-97.441,50.53-134.741l10.96-12.55h142.349h142.348c3.886,6.176,61.49,56.248,61.49,147.291v93.704
	C459.84,479.731,427.632,512,387.903,512z"/>
<path style="fill:#7CC9E8;" d="M83.128,439.926v-93.704c0-91.053,57.645-141.179,61.49-147.291h-30.966l-10.96,12.55
	c-32.575,37.3-50.53,85.178-50.53,134.741v93.704c0,39.805,32.207,72.074,71.936,72.074h30.966
	C115.335,512,83.128,479.731,83.128,439.926z"/>
<path style="fill:#EFEFEF;" d="M372.995,512c-28.477,0-205.476,0-233.987,0c-35.239,0-63.805-32.269-63.805-72.074v-93.704
	c0-91.56,50.714-140.436,54.54-147.291h126.258H382.26c3.631,6.506,54.54,55.869,54.54,147.291v93.704
	C436.8,479.731,408.233,512,372.995,512z"/>
<path style="fill:#DDDDDD;" d="M109.564,439.926v-93.704c0-91.56,50.77-140.535,54.54-147.291h-34.362
	c-3.631,6.506-54.54,55.868-54.54,147.291v93.704c0,39.805,28.567,72.074,63.806,72.074h34.362
	C138.131,512,109.564,479.731,109.564,439.926z"/>
<path style="fill:#CCCCCC;" d="M256.001,198.931H140.614v13.419c0,6.812,5.563,12.387,12.363,12.387h206.049
	c6.8,0,12.363-5.574,12.363-12.387v-13.419H256.001z"/>
<path style="fill:#BABABA;" d="M171.521,212.35v-13.419h-30.907v13.419c0,6.813,5.563,12.387,12.363,12.387h30.907
	C177.084,224.736,171.521,219.162,171.521,212.35z"/>
<g>
	<path style="fill:#CCCCCC;" d="M149.675,252.768c-5.741-3.922-3.915-12.772,2.782-14.028c4.669-0.971,9.231,2.641,9.231,7.587
		c0,3.736-2.671,6.907-6.212,7.586C154.461,254.122,151.247,253.832,149.675,252.768z"/>
	<path style="fill:#CCCCCC;" d="M294.658,438.15h-77.313c-6.8,0-12.363,5.574-12.363,12.387v49.077
		c0,6.813,5.563,12.387,12.363,12.387h77.313c6.8,0,12.363-5.574,12.363-12.387v-49.077
		C307.021,443.724,301.457,438.15,294.658,438.15z"/>
</g>
<path style="fill:#BABABA;" d="M235.889,499.613v-49.077c0-6.813,5.563-12.387,12.363-12.387h-30.907
	c-6.8,0-12.363,5.574-12.363,12.387v49.077c0,6.813,5.563,12.387,12.363,12.387h30.907C241.452,512,235.889,506.426,235.889,499.613
	z"/>
<path style="fill:#A4D9F4;" d="M204.982,483.364v16.25c0,6.812,5.563,12.386,12.361,12.387h24.081h29.154h24.081
	c6.799-0.001,12.362-5.575,12.362-12.387v-16.25C275.403,483.364,236.713,483.364,204.982,483.364z"/>
<path style="fill:#7CC9E8;" d="M241.424,512h6.827c-6.799-0.001-12.362-5.575-12.362-12.387v-16.25c-11.505,0-19.264,0-30.907,0
	c0.648,13.373-1.711,18.606,2.832,24.116c0.159,0.193,0.334,0.372,0.504,0.556c0.1,0.107,0.192,0.222,0.295,0.325
	c0.219,0.219,0.451,0.422,0.685,0.625c0.066,0.057,0.126,0.12,0.193,0.176c0.254,0.21,0.521,0.404,0.791,0.594
	c0.055,0.039,0.106,0.083,0.162,0.121c0.19,0.129,0.392,0.242,0.59,0.36c0.144,0.087,0.282,0.182,0.429,0.262
	c0.253,0.138,0.517,0.258,0.781,0.378c0.101,0.046,0.197,0.101,0.299,0.145c0.199,0.085,0.406,0.151,0.61,0.225
	c0.175,0.064,0.346,0.137,0.525,0.193c0.129,0.04,0.264,0.066,0.394,0.102c0.261,0.072,0.521,0.149,0.788,0.204
	c0.252,0.052,0.511,0.082,0.768,0.118c0.152,0.021,0.301,0.054,0.455,0.07c0.36,0.037,0.726,0.051,1.094,0.056
	c0.056,0.001,0.11,0.009,0.166,0.009h24.081V512z"/>
<path style="fill:#A4D9F4;" d="M387.903,0c-7.439,0-256.366,0-263.805,0C84.37,0,52.162,20.566,52.162,45.935v59.721
	c0,31.588,17.955,62.103,50.53,85.875l10.96,7.998h142.349h142.348c3.745-3.793,61.49-35.869,61.49-93.873V45.935
	C459.84,20.566,427.632,0,387.903,0z"/>
<path style="fill:#7CC9E8;" d="M83.07,105.656V45.935C83.07,20.566,115.277,0,155.006,0h-30.907
	C84.37,0,52.162,20.566,52.162,45.935v59.721c0,31.588,17.955,62.102,50.53,85.875l10.96,7.998h30.907
	C140.815,195.736,83.07,163.66,83.07,105.656z"/>
<path style="fill:#EFEFEF;" d="M399.607,24.612H112.395c-8.361,0-15.139,6.778-15.139,15.139v147.635
	c1.766,1.402,3.575,2.786,5.437,4.145l10.96,7.999h142.348h142.348c9.871-7.246,11.94-8.605,16.397-12.143V39.751
	C414.746,31.39,407.968,24.612,399.607,24.612z"/>
<path style="fill:#DDDDDD;" d="M124.808,170.052v-130.3c0-8.361,6.778-15.139,15.139-15.139h-27.552
	c-8.361,0-15.139,6.778-15.139,15.139v147.635c1.766,1.402,3.575,2.786,5.437,4.145l10.96,7.998h27.552
	c-0.383-0.279-1.225-0.897-2.339-1.715C130.031,191.325,124.808,181.014,124.808,170.052z"/>
<path style="fill:#898989;" d="M378.204,153.428H133.798c-4.965,0-8.991-4.025-8.991-8.99V58.364c0-4.965,4.025-8.991,8.991-8.991
	h244.406c4.965,0,8.991,4.025,8.991,8.991v86.074C387.194,149.403,383.169,153.428,378.204,153.428z"/>
<path style="fill:#777777;" d="M155.774,144.437V58.364c0-4.965,4.025-8.991,8.991-8.991h-30.966c-4.965,0-8.991,4.025-8.991,8.991
	v86.074c0,4.965,4.025,8.991,8.991,8.991h30.966C159.799,153.428,155.774,149.403,155.774,144.437z"/>
<path style="fill:#70B5E8;" d="M255.996,184.341c-2.03,0-4.018-0.824-5.46-2.267c-1.432-1.443-2.267-3.431-2.267-5.46
	c0-0.505,0.051-1.02,0.154-1.514c0.103-0.495,0.247-0.979,0.443-1.443c0.196-0.474,0.433-0.917,0.711-1.339
	c0.278-0.423,0.608-0.814,0.958-1.175c1.442-1.442,3.43-2.266,5.46-2.266c2.04,0,4.028,0.824,5.471,2.266
	c0.35,0.361,0.68,0.753,0.958,1.175c0.278,0.423,0.515,0.865,0.711,1.339c0.196,0.464,0.34,0.948,0.443,1.443
	c0.103,0.494,0.144,1.009,0.144,1.514c0,2.029-0.824,4.017-2.256,5.46C260.025,183.517,258.036,184.341,255.996,184.341z"/>
<rect x="124.281" y="274.18" style="fill:#DDDDDD;" width="16.426" height="130.5"/>
<path style="fill:#CCCCCC;" d="M384.814,258.927c-172.052,0-50.179,0-258.266,0c-9.365,0-16.984,7.634-16.984,17.016
	c0,27.602,0,100.499,0,125.374c0,9.282,7.548,16.833,16.826,16.833c37.08,0,225.541,0,258.045,0
	c10.054,0,18.233-8.182,18.233-18.239c0-38.48,0-83.845,0-123.095C402.669,266.952,394.659,258.927,384.814,258.927z
	 M340.969,372.449v-12.752c9.283,0,30.279,0,46.246,0v12.752C371.795,372.449,356.379,372.449,340.969,372.449z M279.269,372.449
	v-12.752c5.385,0,10.012,0,15.397,0v12.752H279.269z M248.418,372.449v-12.752c5.385,0,10.012,0,15.396,0v12.752H248.418z
	 M217.568,372.449v-12.752c5.385,0,10.012,0,15.396,0v12.752H217.568z M186.718,372.449v-12.752c5.385,0,10.012,0,15.396,0v12.752
	H186.718z M125.018,372.449v-12.752c16.444,0,37.451,0,46.247,0v12.752C155.843,372.449,140.429,372.449,125.018,372.449z
	 M279.269,274.41h15.396v13.334h-15.396V274.41z M387.215,303.228v12.752c-16.444,0-37.451,0-46.246,0v-12.752
	C356.39,303.228,371.805,303.228,387.215,303.228z M387.215,344.214h-30.821v-12.752h30.821V344.214z M125.018,344.214v-12.752
	c9.391,0,21.797,0,30.822,0v12.752H125.018z M279.269,303.228h15.396v12.752c-5.385,0-10.012,0-15.396,0V303.228z M171.293,344.214
	v-12.752c5.385,0,10.012,0,15.396,0v12.752C181.305,344.214,176.678,344.214,171.293,344.214z M202.143,344.214v-12.752
	c5.385,0,10.012,0,15.396,0v12.752C212.155,344.214,207.528,344.214,202.143,344.214z M232.993,344.214v-12.752
	c5.385,0,10.012,0,15.396,0v12.752C243.005,344.214,238.378,344.214,232.993,344.214z M263.843,344.214v-12.752
	c5.385,0,10.012,0,15.396,0v12.752C273.855,344.214,269.228,344.214,263.843,344.214z M294.693,344.214v-12.752
	c5.512,0,9.889,0,15.396,0v12.752C304.705,344.214,300.078,344.214,294.693,344.214z M325.544,344.214v-12.752
	c5.385,0,10.012,0,15.397,0v12.752C335.556,344.214,330.928,344.214,325.544,344.214z M325.515,315.979c-5.385,0-10.012,0-15.396,0
	v-12.752h15.396V315.979z M263.815,315.979c-5.385,0-10.012,0-15.396,0v-12.752h15.396V315.979z M232.965,315.979
	c-5.385,0-10.012,0-15.396,0v-12.752h15.396V315.979z M202.115,315.979c-5.385,0-10.012,0-15.396,0v-12.752h15.396V315.979z
	 M171.265,315.979c-5.385,0-10.012,0-15.396,0v-12.752h15.396V315.979z M140.414,315.979h-15.396v-12.752h15.396V315.979z
	 M310.119,359.697c5.385,0,10.012,0,15.396,0v12.752h-15.396V359.697z M387.215,276.816v10.928h-15.396V274.41h12.995
	C386.138,274.41,387.215,275.49,387.215,276.816z M356.365,287.744h-15.396V274.41h15.396V287.744z M325.515,287.744h-15.396V274.41
	h15.396V287.744z M263.815,287.744h-15.396V274.41h15.396V287.744z M232.965,287.744h-15.396V274.41h15.396V287.744z
	 M202.115,287.744h-15.396V274.41h15.396V287.744z M155.868,274.41h15.396v13.334h-15.396V274.41z M125.018,275.943
	c0-0.846,0.687-1.533,1.53-1.533h13.866v13.334h-15.396V275.943z M125.018,401.318v-13.386h15.396v14.735H126.39
	C125.634,402.667,125.018,402.062,125.018,401.318z M155.868,387.932h15.397v14.735h-15.397V387.932z M186.718,387.932
	c18.85,0,120.25,0,138.797,0v14.735H186.718V387.932z M340.969,387.932h15.396v14.735h-15.396V387.932z M387.215,399.911
	c0,1.52-1.247,2.756-2.78,2.756h-12.616v-14.735h15.396V399.911z"/>
<path style="fill:#BABABA;" d="M140.414,401.318c0-6.827,0-22.059,0-28.869h-15.397v-12.752h15.397c0-5.415,0-10.068,0-15.483
	h-15.397v-12.751h15.397c0-17.193,0-38.324,0-55.519c0-9.383,7.619-17.016,16.984-17.016c-0.139,0-9.402,0-9.257,0
	c-13.366,0-8.225,0-21.593,0c-9.365,0-16.984,7.634-16.984,17.016c0,27.602,0,100.499,0,125.375c0,9.282,7.548,16.833,16.826,16.833
	c2.342,0,22.901,0,30.85,0C147.963,418.151,140.414,410.6,140.414,401.318z M125.018,275.943c0-0.846,0.687-1.533,1.53-1.533h13.866
	v13.334h-15.396V275.943z M125.018,303.228h15.396v12.752h-15.396V303.228z M140.414,402.667H126.39
	c-0.757,0-1.372-0.606-1.372-1.35v-13.386h15.396V402.667z"/>
<g>
</g>
<g>
</g>
<g>
</g>
<g>
</g>
<g>
</g>
<g>
</g>
<g>
</g>
<g>
</g>
<g>
</g>
<g>
</g>
<g>
</g>
<g>
</g>
<g>
</g>
<g>
</g>
<g>
</g>
</svg>
