<?xml version="1.0" encoding="iso-8859-1"?>
<!-- Generator: Adobe Illustrator 19.0.0, SVG Export Plug-In . SVG Version: 6.00 Build 0)  -->
<svg version="1.1" id="Capa_1" xmlns="http://www.w3.org/2000/svg" xmlns:xlink="http://www.w3.org/1999/xlink" x="0px" y="0px"
	 viewBox="0 0 512 512" style="enable-background:new 0 0 512 512;" xml:space="preserve">
<path style="fill:#EFEFEF;" d="M419.287,453.588v19.536c0,7.369-6.029,13.398-13.397,13.398h-27.81c-11.575,0-261.336,0-273.628,0
	c-6.646,0-12.083-5.437-12.083-12.083v-20.851c-24.017-0.03-23.076,0.066-25.519-0.078v26.537C66.849,497.621,81.228,512,98.802,512
	h314.394c17.574,0,31.953-14.379,31.953-31.953V453.51C443.325,453.618,419.393,453.589,419.287,453.588z"/>
<path style="fill:#DDDDDD;" d="M92.407,480.047c-0.079-17.518-0.013-1.745-0.039-26.458c-24.017-0.03-23.076,0.066-25.519-0.078
	v26.537c0,17.573,14.379,31.952,31.953,31.952h25.559C106.786,512,92.407,497.621,92.407,480.047z"/>
<path style="fill:#A4D9F4;" d="M442.721,455.648H69.277c-22.573,0-41.042-18.469-41.042-41.042V41.162
	c0-22.573,18.469-41.042,41.042-41.042h373.445c22.573,0,41.042,18.469,41.042,41.042v373.445
	C483.763,437.179,465.295,455.648,442.721,455.648z"/>
<path style="fill:#7CC9E8;" d="M73.029,414.606V41.162c0-22.573,18.469-41.042,41.042-41.042H69.277
	c-22.573,0-41.042,18.469-41.042,41.042v373.445c0,22.573,18.469,41.042,41.042,41.042h44.794
	C91.497,455.648,73.029,437.18,73.029,414.606z"/>
<path style="fill:#EFEFEF;" d="M442.722,0.12H69.277c-22.573,0-41.042,18.469-41.042,41.042v324.285h455.529V41.162
	C483.764,18.589,465.295,0.12,442.722,0.12z"/>
<path style="fill:#DDDDDD;" d="M33.471,21.183c-3.497,6.221-5.236,13.041-5.236,19.979v324.285h44.794V41.162
	c0-22.573,18.469-41.042,41.042-41.042C66.138,0.275,60.142-1.824,46.966,6.771C44.69,8.256,36.654,15.517,33.471,21.183z"/>
<path style="fill:#898989;" d="M428.964,46.512H83.034c-5.526,0-10.006,4.48-10.006,10.006v252.576
	c0,5.526,4.48,10.006,10.006,10.006h345.929c5.526,0,10.006-4.48,10.006-10.006V56.517C438.969,50.991,434.49,46.512,428.964,46.512
	z"/>
<path style="fill:#777777;" d="M103.929,309.093V56.517c0-5.526,4.48-10.006,10.006-10.006h-30.9
	c-5.526,0-10.006,4.48-10.006,10.006v252.576c0,5.526,4.48,10.006,10.006,10.006h30.9
	C108.408,319.099,103.929,314.619,103.929,309.093z"/>
<path style="fill:#666666;" d="M438.969,56.517v19.216H73.029V56.517c0-5.526,4.48-10.006,10.006-10.006h345.929
	C434.49,46.512,438.969,50.991,438.969,56.517z"/>
<path style="fill:#535454;" d="M103.929,56.517c0-5.525,4.479-10.005,10.005-10.006h-30.9c-5.607,0-10.006,4.603-10.006,10.006
	v19.216h30.9L103.929,56.517L103.929,56.517z"/>
<path style="fill:#70B5E8;" d="M323.601,390.924H188.397c-7.035,0-12.739-5.703-12.739-12.739l0,0
	c0-7.035,5.703-12.739,12.739-12.739H323.6c7.035,0,12.739,5.703,12.739,12.739l0,0
	C336.339,385.221,330.636,390.924,323.601,390.924z"/>
<path style="fill:#52A5D8;" d="M206.559,378.186L206.559,378.186c0-7.036,5.703-12.739,12.739-12.739h-30.9
	c-7.035,0-12.739,5.703-12.739,12.739l0,0c0,7.035,5.703,12.739,12.739,12.739h30.9
	C212.262,390.924,206.559,385.221,206.559,378.186z"/>
<circle style="fill:#70B5E8;" cx="76.649" cy="408.79" r="22.453"/>
<path style="fill:#52A5D8;" d="M76.647,386.341c-3.817-0.004-7.685,0.96-11.228,3.005c-10.739,6.2-14.418,19.932-8.218,30.671
	c8.678,15.03,30.333,14.85,38.888-0.003C78.803,419.997,68.024,401.313,76.647,386.341z"/>
<g>
	<path style="fill:#666666;" d="M382.079,416.363c-1.051-0.218-1.972-0.608-2.781-1.153c-0.821-0.541-1.51-1.205-2.143-2.132
		c-0.608-0.923-0.989-1.955-1.143-2.781c-0.205-0.982-0.208-1.998,0-3.018c0.173-0.924,0.605-1.964,1.143-2.781
		c0.578-0.847,1.283-1.565,2.143-2.132c0.412-0.278,0.865-0.515,1.329-0.71c0.474-0.196,0.958-0.34,1.452-0.444
		c0.989-0.195,2.019-0.195,3.018,0c0.484,0.104,0.978,0.247,1.442,0.444c0.464,0.195,0.917,0.433,1.329,0.71
		c0.422,0.279,0.824,0.608,1.174,0.959c0.361,0.36,0.679,0.751,0.968,1.174c0.278,0.423,0.515,0.875,0.711,1.339
		c0.186,0.464,0.34,0.948,0.433,1.442c0.817,4.001-1.663,8.152-6.056,9.084C384.086,416.571,383.06,416.569,382.079,416.363z"/>
	<path style="fill:#666666;" d="M122.611,415.921c-0.913-0.364-1.875-1.021-2.503-1.669c-1.442-1.441-2.266-3.43-2.266-5.459
		c0-0.505,0.052-1.009,0.155-1.514c0.092-0.495,0.247-0.979,0.442-1.442c0.186-0.464,0.433-0.916,0.711-1.339
		s0.598-0.814,0.958-1.174c0.35-0.351,0.752-0.68,1.174-0.959c0.412-0.278,0.865-0.515,1.329-0.71
		c0.463-0.196,0.958-0.34,1.452-0.444c0.989-0.195,2.019-0.195,3.018,0c0.484,0.104,0.979,0.247,1.442,0.444
		c0.464,0.195,0.917,0.433,1.329,0.71c5.416,3.489,4.337,12.491-2.771,13.998C126.07,416.571,123.925,416.477,122.611,415.921z"/>
	<path style="fill:#666666;" d="M147.331,415.921c-6.877-2.744-6.2-13.105,1.452-14.709c4.773-0.942,9.229,2.706,9.229,7.581
		c0,3.512-2.399,6.762-6.211,7.57C151.296,416.467,148.751,416.509,147.331,415.921z"/>
</g>
<path style="fill:#CCCCCC;" d="M274.282,349.704h-36.565c-4.266,0-7.725-3.458-7.725-7.725s3.459-7.725,7.725-7.725h36.565
	c4.266,0,7.725,3.458,7.725,7.725S278.548,349.704,274.282,349.704z"/>
<path style="fill:#EFEFEF;" d="M362.695,270.413c-33.711,0-150.837,0-213.391,0c-1.895,0-3.445,1.55-3.445,3.445v6.134
	c0,5.103,0,9.295,0,14.538c0,1.895,1.55,3.445,3.445,3.445c24.707,0,187.782,0,213.391,0c1.895,0,3.445-1.55,3.445-3.445v-20.672
	C366.14,271.963,364.589,270.413,362.695,270.413z"/>
<path style="fill:#DDDDDD;" d="M176.758,294.53c0-4.685,0-15.407,0-20.672c0-1.895,1.55-3.445,3.445-3.445c-9.317,0-21.6,0-30.9,0
	c-1.895,0-3.445,1.55-3.445,3.445v6.133c0,5.103,0,9.295,0,14.538c0,1.895,1.55,3.445,3.445,3.445c9.301,0,21.587,0,30.9,0
	C178.309,297.975,176.758,296.424,176.758,294.53z"/>
<circle style="fill:#70B5E8;" cx="435.349" cy="408.79" r="22.453"/>
<path style="fill:#52A5D8;" d="M435.354,386.341c-17.14-0.018-28.125,18.644-19.446,33.676c8.678,15.03,30.333,14.85,38.888-0.003
	C437.509,419.997,426.73,401.313,435.354,386.341z"/>
<g>
</g>
<g>
</g>
<g>
</g>
<g>
</g>
<g>
</g>
<g>
</g>
<g>
</g>
<g>
</g>
<g>
</g>
<g>
</g>
<g>
</g>
<g>
</g>
<g>
</g>
<g>
</g>
<g>
</g>
</svg>
