<?xml version="1.0" encoding="iso-8859-1"?>
<!-- Generator: Adobe Illustrator 19.0.0, SVG Export Plug-In . SVG Version: 6.00 Build 0)  -->
<svg version="1.1" id="Capa_1" xmlns="http://www.w3.org/2000/svg" xmlns:xlink="http://www.w3.org/1999/xlink" x="0px" y="0px"
	 viewBox="0 0 512 512" style="enable-background:new 0 0 512 512;" xml:space="preserve">
<path style="fill:#70B5E8;" d="M124.362,499.609V12.395c0-6.799-5.563-12.361-12.361-12.361H99.19
	c-20.438,0-37.16,16.722-37.16,37.16V474.81c0,20.438,16.722,37.16,37.16,37.16h12.811
	C118.799,511.97,124.362,506.408,124.362,499.609z"/>
<path style="fill:#52A5D8;" d="M93.196,474.81V37.193c0-16.33,10.68-30.277,25.396-35.229c-4.866-3.093-8.65-1.491-19.402-1.931
	c-20.438,0-37.16,16.722-37.16,37.16V474.81c0,20.438,16.722,37.16,37.16,37.16c10.838-0.444,14.547,1.155,19.402-1.931
	C103.876,505.088,93.196,491.14,93.196,474.81z"/>
<path style="fill:#535454;" d="M412.81,511.97H223.696c-20.438,0-37.16-16.722-37.16-37.16V37.193
	c0-20.438,16.722-37.16,37.16-37.16H412.81c20.438,0,37.16,16.722,37.16,37.16V474.81C449.97,495.248,433.248,511.97,412.81,511.97z
	"/>
<path style="fill:#444443;" d="M209.06,474.81V37.193c0-20.438,16.722-37.16,37.16-37.16h-22.524
	c-20.438,0-37.16,16.722-37.16,37.16V474.81c0,20.438,16.722,37.16,37.16,37.16h22.524C225.782,511.97,209.06,495.248,209.06,474.81
	z"/>
<path style="fill:#A4D9F4;" d="M419.398,413.61H217.109c-4.445,0-8.048-3.603-8.048-8.048V88.42c0-4.445,3.603-8.048,8.048-8.048
	h202.289c4.445,0,8.048,3.603,8.048,8.048v317.142C427.446,410.007,423.842,413.61,419.398,413.61z"/>
<path style="fill:#7CC9E8;" d="M231.466,405.562V88.42c0-4.445,3.603-8.048,8.048-8.048h-22.405c-4.445,0-8.048,3.603-8.048,8.048
	v317.142c0,4.445,3.603,8.048,8.048,8.048h22.405C235.069,413.61,231.466,410.007,231.466,405.562z"/>
<g>
	<path style="fill:#666666;" d="M349.198,60.961h-33.44c-4.267,0-7.726-3.459-7.726-7.726s3.459-7.726,7.726-7.726h33.44
		c4.267,0,7.726,3.459,7.726,7.726C356.924,57.503,353.465,60.961,349.198,60.961z"/>
	<path style="fill:#666666;" d="M283.023,59.656c-4.576-3.018-4.582-9.825,0-12.846c2.043-1.378,4.798-1.722,7.242-0.71
		c7.171,3.018,5.856,13.328-1.453,14.71C287.86,61.007,284.655,60.755,283.023,59.656z"/>
	<path style="fill:#666666;" d="M318.676,34.52c-6.841-4.495-2.552-15.723,5.799-13.999c8.259,1.715,8.247,13.442,0,15.153
		C323.981,35.777,320.419,35.67,318.676,34.52z"/>
</g>
<g>
	<path style="fill:#A4D9F4;" d="M92.681,124.472c-4.267,0-7.726-3.459-7.726-7.726V92.891c0-4.267,3.459-7.726,7.726-7.726
		s7.726,3.459,7.726,7.726v23.855C100.407,121.013,96.948,124.472,92.681,124.472z"/>
	<path style="fill:#A4D9F4;" d="M92.681,185.851c-4.267,0-7.726-3.459-7.726-7.726V154.27c0-4.267,3.459-7.726,7.726-7.726
		s7.726,3.459,7.726,7.726v23.855C100.407,182.393,96.948,185.851,92.681,185.851z"/>
	<path style="fill:#A4D9F4;" d="M92.681,247.23c-4.267,0-7.726-3.459-7.726-7.726v-23.855c0-4.267,3.459-7.726,7.726-7.726
		s7.726,3.459,7.726,7.726v23.855C100.407,243.771,96.948,247.23,92.681,247.23z"/>
</g>
<path style="fill:#70B5E8;" d="M209.06,88.42v24.363h218.385V88.42c0-4.445-3.603-8.048-8.048-8.048H217.109
	C212.664,80.372,209.06,83.975,209.06,88.42z"/>
<path style="fill:#52A5D8;" d="M209.06,112.783h22.405V88.42c0-4.445,3.603-8.048,8.048-8.048
	c-22.051,0.366-23.281-0.876-26.644,1.216c-1.365,0.849-2.374,1.969-3.066,3.47C209.312,86.126,209.295,87.951,209.06,112.783z"/>
<circle style="fill:#666666;" cx="318.25" cy="462.82" r="25.71"/>
<path style="fill:#5E5E5E;" d="M314.234,437.431c-17.726,2.801-27.292,22.582-18.247,38.249
	c9.045,15.666,30.959,17.274,42.248,3.323C315.028,482.669,299.435,455.719,314.234,437.431z"/>
<path style="fill:#898989;" d="M323.222,470.102h-9.937c-1.269,0-2.308-1.039-2.308-2.308v-9.937c0-1.269,1.039-2.308,2.308-2.308
	h9.937c1.269,0,2.308,1.039,2.308,2.308v9.937C325.53,469.063,324.491,470.102,323.222,470.102z"/>
<path style="fill:#F94A46;" d="M255.585,311.065h-20.674c-1.895,0-3.446-1.551-3.446-3.446v-20.674c0-1.895,1.55-3.446,3.446-3.446
	h20.674c1.895,0,3.446,1.551,3.446,3.446v20.674C259.03,309.514,257.48,311.065,255.585,311.065z"/>
<path style="fill:#898989;" d="M304.255,311.065h-20.674c-1.895,0-3.446-1.551-3.446-3.446v-20.674c0-1.895,1.55-3.446,3.446-3.446
	h20.674c1.895,0,3.446,1.551,3.446,3.446v20.674C307.7,309.514,306.15,311.065,304.255,311.065z"/>
<path style="fill:#92B620;" d="M255.585,162.337h-20.674c-1.895,0-3.446-1.551-3.446-3.446v-20.674c0-1.895,1.551-3.446,3.446-3.446
	h20.674c1.895,0,3.446,1.551,3.446,3.446v20.674C259.03,160.786,257.48,162.337,255.585,162.337z"/>
<path style="fill:#F94A46;" d="M304.255,162.337h-20.674c-1.895,0-3.446-1.551-3.446-3.446v-20.674c0-1.895,1.551-3.446,3.446-3.446
	h20.674c1.895,0,3.446,1.551,3.446,3.446v20.674C307.701,160.786,306.15,162.337,304.255,162.337z"/>
<path style="fill:#FFB70D;" d="M352.925,162.337h-20.674c-1.895,0-3.446-1.551-3.446-3.446v-20.674c0-1.895,1.551-3.446,3.446-3.446
	h20.674c1.895,0,3.446,1.551,3.446,3.446v20.674C356.371,160.786,354.82,162.337,352.925,162.337z"/>
<path style="fill:#EFEFEF;" d="M401.595,162.337h-20.674c-1.895,0-3.446-1.551-3.446-3.446v-20.674c0-1.895,1.551-3.446,3.446-3.446
	h20.674c1.895,0,3.446,1.551,3.446,3.446v20.674C405.041,160.786,403.49,162.337,401.595,162.337z"/>
<path style="fill:#DDA36F;" d="M255.585,211.487h-20.674c-1.895,0-3.446-1.551-3.446-3.446v-20.674c0-1.895,1.551-3.446,3.446-3.446
	h20.674c1.895,0,3.446,1.551,3.446,3.446v20.674C259.03,209.936,257.48,211.487,255.585,211.487z"/>
<path style="fill:#70B5E8;" d="M304.255,211.487h-20.674c-1.895,0-3.446-1.551-3.446-3.446v-20.674c0-1.895,1.551-3.446,3.446-3.446
	h20.674c1.895,0,3.446,1.551,3.446,3.446v20.674C307.701,209.936,306.15,211.487,304.255,211.487z"/>
<path style="fill:#F9D698;" d="M352.925,211.487h-20.674c-1.895,0-3.446-1.551-3.446-3.446v-20.674c0-1.895,1.551-3.446,3.446-3.446
	h20.674c1.895,0,3.446,1.551,3.446,3.446v20.674C356.371,209.936,354.82,211.487,352.925,211.487z"/>
<path style="fill:#70B5E8;" d="M401.595,211.487h-20.674c-1.895,0-3.446-1.551-3.446-3.446v-20.674c0-1.895,1.551-3.446,3.446-3.446
	h20.674c1.895,0,3.446,1.551,3.446,3.446v20.674C405.041,209.936,403.49,211.487,401.595,211.487z"/>
<path style="fill:#EFEFEF;" d="M255.585,261.276h-20.674c-1.895,0-3.446-1.551-3.446-3.446v-20.674c0-1.895,1.551-3.446,3.446-3.446
	h20.674c1.895,0,3.446,1.551,3.446,3.446v20.674C259.03,259.725,257.48,261.276,255.585,261.276z"/>
<path style="fill:#FFB70D;" d="M304.255,261.276h-20.674c-1.895,0-3.446-1.551-3.446-3.446v-20.674c0-1.895,1.551-3.446,3.446-3.446
	h20.674c1.895,0,3.446,1.551,3.446,3.446v20.674C307.701,259.725,306.15,261.276,304.255,261.276z"/>
<path style="fill:#70B5E8;" d="M352.925,261.276h-20.674c-1.895,0-3.446-1.551-3.446-3.446v-20.674c0-1.895,1.551-3.446,3.446-3.446
	h20.674c1.895,0,3.446,1.551,3.446,3.446v20.674C356.371,259.725,354.82,261.276,352.925,261.276z"/>
<path style="fill:#EFEFEF;" d="M401.595,261.276h-20.674c-1.895,0-3.446-1.551-3.446-3.446v-20.674c0-1.895,1.551-3.446,3.446-3.446
	h20.674c1.895,0,3.446,1.551,3.446,3.446v20.674C405.041,259.725,403.49,261.276,401.595,261.276z"/>
<path style="fill:#92B620;" d="M255.585,391.936h-20.674c-1.895,0-3.446-1.55-3.446-3.446v-20.674c0-1.895,1.551-3.446,3.446-3.446
	h20.674c1.895,0,3.446,1.551,3.446,3.446v20.674C259.03,390.385,257.48,391.936,255.585,391.936z"/>
<path style="fill:#70B5E8;" d="M304.255,391.936h-20.674c-1.895,0-3.446-1.55-3.446-3.446v-20.674c0-1.895,1.551-3.446,3.446-3.446
	h20.674c1.895,0,3.446,1.551,3.446,3.446v20.674C307.7,390.385,306.15,391.936,304.255,391.936z"/>
<path style="fill:#52A5D8;" d="M352.925,391.936h-20.674c-1.895,0-3.446-1.55-3.446-3.446v-20.674c0-1.895,1.551-3.446,3.446-3.446
	h20.674c1.895,0,3.446,1.551,3.446,3.446v20.674C356.37,390.385,354.82,391.936,352.925,391.936z"/>
<path style="fill:#EFEFEF;" d="M401.595,391.936h-20.674c-1.895,0-3.446-1.55-3.446-3.446v-20.674c0-1.895,1.55-3.446,3.446-3.446
	h20.674c1.895,0,3.446,1.551,3.446,3.446v20.674C405.041,390.385,403.49,391.936,401.595,391.936z"/>
<g>
</g>
<g>
</g>
<g>
</g>
<g>
</g>
<g>
</g>
<g>
</g>
<g>
</g>
<g>
</g>
<g>
</g>
<g>
</g>
<g>
</g>
<g>
</g>
<g>
</g>
<g>
</g>
<g>
</g>
</svg>
