<?xml version="1.0" encoding="iso-8859-1"?>
<!-- Generator: Adobe Illustrator 19.0.0, SVG Export Plug-In . SVG Version: 6.00 Build 0)  -->
<svg version="1.1" id="Capa_1" xmlns="http://www.w3.org/2000/svg" xmlns:xlink="http://www.w3.org/1999/xlink" x="0px" y="0px"
	 viewBox="0 0 512.002 512.002" style="enable-background:new 0 0 512.002 512.002;" xml:space="preserve">
<path style="fill:#F94A46;" d="M325.91,98.469c-174.141,0.898-169.654-2.025-184.697,2.635h-0.441
	c23.714-7.272,28.379-28.279,28.97-31.241l3.708-55.31c0.557-3.901,3.498-7.363,7.632-8.275c37.321-8.233,87.33-8.116,122.626-1.124
	c3.307,0.656,5.839,3.329,6.313,6.667l4.021,57.637c0,0,3.151,22.746,27.303,31.068C336.422,99.193,331.25,98.469,325.91,98.469z"/>
<path style="fill:#EA3939;" d="M214.67,8.197l-3.708,61.812c-0.473,2.647-3.562,18.184-16.904,28.461
	c-30.664,0.599-39.205-1.591-52.845,2.635h-0.441c23.714-7.272,28.379-28.279,28.97-31.241c0.992-14.561,3.604-54.726,3.827-55.85
	c1.321-6.628,7.644-7.802,7.541-7.742c12.725-2.805,24.365-4.264,37.255-5.226C216.291,2.885,215.004,5.587,214.67,8.197z"/>
<g>
	<path style="fill:#CCCCCC;" d="M399.808,177.735h-3.16c-6.953,0-12.641,5.689-12.641,12.641v18.962
		c0,6.953,5.689,12.641,12.641,12.641h3.16c6.953,0,12.641-5.688,12.641-12.641v-18.962
		C412.45,183.424,406.761,177.735,399.808,177.735z"/>
	<path style="fill:#CCCCCC;" d="M399.808,266.926h-3.16c-6.953,0-12.641,5.688-12.641,12.641c0,15.002,0,35.139,0,48.809
		c0,6.953,5.689,12.641,12.641,12.641h3.16c6.953,0,12.641-5.688,12.641-12.641c0-32.145,0-20.493,0-48.809
		C412.45,272.615,406.761,266.926,399.808,266.926z"/>
</g>
<path style="fill:#BABABA;" d="M399.808,307.213h-3.16c-6.953,0-12.641-5.688-12.641-12.641c0,12.536,0,22.421,0,33.805
	c0,6.953,5.689,12.641,12.641,12.641h3.16c6.953,0,12.641-5.688,12.641-12.641c0-11.26,0-22.532,0-33.805
	C412.45,301.525,406.761,307.213,399.808,307.213z"/>
<path style="fill:#F94A46;" d="M158.681,413.541c-6.078,0-11.944-0.924-17.467-2.635h-0.441
	c23.714,7.272,28.379,28.279,28.97,31.241c0.989,14.525,3.605,54.729,3.827,55.85c1.321,6.628,7.644,7.802,7.541,7.742
	c37.297,8.222,87.392,8.092,122.597,1.118c3.307-0.656,5.839-3.329,6.313-6.667l4.021-57.637c0,0,3.151-22.746,27.303-31.068
	C327.834,415.142,333.996,412.827,158.681,413.541z"/>
<path style="fill:#EA3939;" d="M214.67,503.813l-3.708-61.812c-0.473-2.647-3.562-18.184-16.904-28.461
	c-30.664-0.599-39.205,1.591-52.845-2.635h-0.441c23.714,7.272,28.379,28.279,28.97,31.241l3.708,55.31
	c0.557,3.893,3.49,7.362,7.632,8.275c12.627,2.785,24.231,4.258,37.284,5.232C216.291,509.126,215.004,506.423,214.67,503.813z"/>
<path style="fill:#EFEFEF;" d="M325.91,415.601H158.68c-32.603,0-59.127-26.524-59.127-59.126v-200.94
	c0-32.602,26.524-59.127,59.127-59.127h167.23c32.603,0,59.126,26.524,59.126,59.127v200.94
	C385.037,389.077,358.513,415.601,325.91,415.601z"/>
<path style="fill:#DDDDDD;" d="M127.997,356.475v-200.94c0-32.602,26.524-59.126,59.126-59.126H158.68
	c-32.603,0-59.126,26.524-59.126,59.126v200.94c0,32.602,26.524,59.126,59.126,59.126h28.443
	C154.521,415.601,127.997,389.077,127.997,356.475z"/>
<path style="fill:#CCCCCC;" d="M158.681,124.852c-16.919,0-30.684,13.765-30.684,30.684v200.94
	c0,16.919,13.765,30.684,30.684,30.684h167.23c16.919,0,30.684-13.765,30.684-30.684v-200.94c0-16.919-13.765-30.684-30.684-30.684
	C325.911,124.852,158.681,124.852,158.681,124.852z"/>
<path style="fill:#BABABA;" d="M158.793,356.475v-200.94c0-16.919,13.765-30.683,30.683-30.683h-30.795
	c-16.919,0-30.684,13.765-30.684,30.683v200.94c0,16.919,13.765,30.684,30.684,30.684h30.795
	C172.557,387.159,158.793,373.394,158.793,356.475z"/>
<g>
	<path style="fill:#EFEFEF;" d="M298.549,366.994H186.042c-4.267,0-7.727-3.459-7.727-7.727s3.459-7.727,7.727-7.727h112.507
		c4.267,0,7.727,3.459,7.727,7.727S302.816,366.994,298.549,366.994z"/>
	<circle style="fill:#EFEFEF;" cx="166.972" cy="163.581" r="14.158"/>
</g>
<path style="fill:#DDDDDD;" d="M166.975,163.577c-2.619-4.536-2.43-9.912,0.006-14.147c-2.409-0.004-4.849,0.595-7.085,1.886
	c-6.771,3.909-9.091,12.568-5.182,19.34c3.91,6.771,12.568,9.092,19.34,5.182c2.236-1.291,3.974-3.106,5.176-5.193
	C174.343,170.638,169.593,168.113,166.975,163.577z"/>
<circle style="fill:#898989;" cx="241.932" cy="255.401" r="78.31"/>
<path style="fill:#777777;" d="M200.882,279.1c-18.978-32.871-11.409-73.777,16.045-97.914
	c-47.052,15.908-67.432,70.724-42.812,113.368c21.624,37.453,69.515,50.285,106.968,28.662c4.582-2.646,8.79-5.689,12.617-9.054
	C259.07,325.869,219.86,311.971,200.882,279.1z"/>
<g>
	<path style="fill:#535454;" d="M240.9,263.732c-4.267,0-7.727-3.459-7.727-7.727v-39.942c0-4.268,3.459-7.727,7.727-7.727
		c4.267,0,7.727,3.459,7.727,7.727v39.942C248.627,260.273,245.168,263.732,240.9,263.732z"/>
	<path style="fill:#535454;" d="M277.197,298.24c-1.81,0-3.628-0.632-5.095-1.921l-36.3-31.875
		c-3.206-2.816-3.523-7.698-0.708-10.904c2.816-3.207,7.698-3.525,10.905-0.708l36.3,31.875c3.206,2.816,3.523,7.698,0.708,10.904
		C281.479,297.351,279.343,298.24,277.197,298.24z"/>
</g>
<circle style="fill:#EFEFEF;" cx="316.882" cy="163.581" r="14.158"/>
<path style="fill:#DDDDDD;" d="M316.886,163.577c-2.619-4.536-2.43-9.912,0.006-14.147c-10.797-0.016-17.748,11.733-12.267,21.225
	c3.91,6.771,12.568,9.092,19.34,5.182c2.236-1.291,3.974-3.106,5.176-5.193C324.255,170.638,319.505,168.113,316.886,163.577z"/>
<circle style="fill:#EFEFEF;" cx="241.332" cy="256.011" r="14.158"/>
<path style="fill:#DDDDDD;" d="M241.336,241.861c-10.797-0.016-17.748,11.733-12.267,21.225c3.91,6.772,12.568,9.092,19.34,5.182
	c2.236-1.291,3.974-3.106,5.176-5.193C242.695,263.059,235.894,251.318,241.336,241.861z"/>
<g>
</g>
<g>
</g>
<g>
</g>
<g>
</g>
<g>
</g>
<g>
</g>
<g>
</g>
<g>
</g>
<g>
</g>
<g>
</g>
<g>
</g>
<g>
</g>
<g>
</g>
<g>
</g>
<g>
</g>
</svg>
