<?xml version="1.0" encoding="iso-8859-1"?>
<!-- Generator: Adobe Illustrator 19.0.0, SVG Export Plug-In . SVG Version: 6.00 Build 0)  -->
<svg version="1.1" id="Capa_1" xmlns="http://www.w3.org/2000/svg" xmlns:xlink="http://www.w3.org/1999/xlink" x="0px" y="0px"
	 viewBox="0 0 512.001 512.001" style="enable-background:new 0 0 512.001 512.001;" xml:space="preserve">
<path style="fill:#CCCCCC;" d="M195.683,458.343c-0.867,7.146-4.784,15.629-10.741,19.67l-9.796,6.645c14.042,0,140.854,0,161.709,0
	l-9.796-6.645c-5.958-4.041-9.875-12.524-10.742-19.671l-4.759-41.293H200.442L195.683,458.343z"/>
<path style="fill:#BABABA;" d="M227.119,462.73l4.759-45.68h-31.436l-4.759,41.294c-0.867,7.146-4.784,15.629-10.741,19.67
	l-9.796,6.645c14.614,0,24.927,0,41.008,0C216.228,484.555,225.405,478.359,227.119,462.73z"/>
<path style="fill:#EFEFEF;" d="M467.521,0H44.479C28.456,0,15.347,13.11,15.347,29.133c0,76.596,0,285.422,0,360.845
	c0,16.023,13.11,29.133,29.133,29.133h423.041c16.023,0,29.133-13.11,29.133-29.133c0-16.922,0-347.112,0-360.845
	C496.653,13.11,483.544,0,467.521,0z"/>
<path style="fill:#DDDDDD;" d="M44.796,389.978c0-78.737,0-282.035,0-360.845C44.796,13.11,57.905,0,73.928,0H44.48
	C28.456,0,15.347,13.11,15.347,29.133c0,76.596,0,285.422,0,360.845c0,16.023,13.11,29.133,29.133,29.133h29.449
	C57.905,419.111,44.796,406.001,44.796,389.978z"/>
<path style="fill:#666666;" d="M467.521,0H44.479C28.456,0,15.347,13.11,15.347,29.133c0,8.132,0,223.085,0,235.702v29.242
	c0,16.023,13.11,29.133,29.133,29.133h423.041c16.023,0,29.133-13.11,29.133-29.133c0-11.327,0-252.118,0-264.944
	C496.653,13.11,483.544,0,467.521,0z"/>
<path style="fill:#535454;" d="M44.638,294.077v-29.242c0-7.221,0-223.419,0-235.702C44.638,13.11,57.747,0,73.77,0H44.48
	C28.456,0,15.347,13.11,15.347,29.133c0,8.132,0,223.085,0,235.702v29.242c0,16.023,13.11,29.133,29.133,29.133h29.29
	C57.747,323.21,44.638,310.1,44.638,294.077z"/>
<path style="fill:#A4D9F4;" d="M462.233,29.242H49.767c-2.746,0-4.971,2.226-4.971,4.972c0,8.24,0,240.426,0,254.441
	c0,2.746,2.226,4.971,4.971,4.971h412.466c2.746,0,4.971-2.226,4.971-4.971v-11.54c0-10.549,0-222.235,0-242.901
	C467.205,31.468,464.979,29.242,462.233,29.242z"/>
<path style="fill:#7CC9E8;" d="M75.479,288.655v-11.54c0-10.549,0-222.235,0-242.901c0-2.746,2.226-4.972,4.972-4.972H49.767
	c-2.746,0-4.971,2.226-4.971,4.972c0,8.24,0,240.426,0,254.442c0,2.746,2.225,4.971,4.971,4.971h30.684
	C77.705,293.626,75.479,291.401,75.479,288.655z"/>
<path style="fill:#EFEFEF;" d="M351.319,482.597c-54.211,0-136.132,0-190.639,0c-8.086,0-14.702,6.616-14.702,14.702l0,0
	c0,8.086,6.615,14.702,14.702,14.702c54.211,0,136.132,0,190.639,0c8.086,0,14.702-6.616,14.702-14.702l0,0
	C366.021,489.212,359.406,482.597,351.319,482.597z"/>
<path style="fill:#DDDDDD;" d="M205.76,497.298L205.76,497.298c0-8.086,6.616-14.702,14.702-14.702c-17.674,0-50.957,0-59.781,0
	c-8.086,0-14.702,6.616-14.702,14.702l0,0c0,8.086,6.616,14.702,14.702,14.702c16.744,0,50.693,0,59.781,0
	C212.375,512,205.76,505.384,205.76,497.298z"/>
<path style="fill:#70B5E8;" d="M44.795,34.213v24.27h422.409v-24.27c0-2.746-2.226-4.972-4.972-4.972H49.767
	C47.021,29.242,44.795,31.468,44.795,34.213z"/>
<path style="fill:#52A5D8;" d="M80.45,29.242c-30.719,0.513-31.596-1.146-34.198,1.456c-2.57,2.57-0.963,3.954-1.456,27.786H75.48
	v-24.27C75.479,31.468,77.704,29.243,80.45,29.242z"/>
<circle style="fill:#CCCCCC;" cx="256" cy="369.61" r="14.43"/>
<path style="fill:#52A5D8;" d="M145.811,269.79h-20.685c-1.896,0-3.448-1.551-3.448-3.448v-20.685c0-1.896,1.551-3.448,3.448-3.448
	h20.685c1.896,0,3.448,1.551,3.448,3.448v20.685C149.259,268.239,147.707,269.79,145.811,269.79z"/>
<path style="fill:#898989;" d="M242.236,269.79h-20.685c-1.896,0-3.448-1.551-3.448-3.448v-20.685c0-1.896,1.551-3.448,3.448-3.448
	h20.685c1.896,0,3.448,1.551,3.448,3.448v20.685C245.684,268.239,244.132,269.79,242.236,269.79z"/>
<path style="fill:#52A5D8;" d="M338.662,269.79h-20.685c-1.896,0-3.448-1.551-3.448-3.448v-20.685c0-1.896,1.551-3.448,3.448-3.448
	h20.685c1.896,0,3.448,1.551,3.448,3.448v20.685C342.109,268.239,340.558,269.79,338.662,269.79z"/>
<path style="fill:#F94A46;" d="M194.024,269.79h-20.685c-1.896,0-3.448-1.551-3.448-3.448v-20.685c0-1.896,1.551-3.448,3.448-3.448
	h20.685c1.896,0,3.448,1.551,3.448,3.448v20.685C197.471,268.239,195.92,269.79,194.024,269.79z"/>
<path style="fill:#FFB70D;" d="M290.449,269.79h-20.685c-1.896,0-3.448-1.551-3.448-3.448v-20.685c0-1.896,1.551-3.448,3.448-3.448
	h20.685c1.896,0,3.448,1.551,3.448,3.448v20.685C293.897,268.239,292.345,269.79,290.449,269.79z"/>
<path style="fill:#92B620;" d="M386.874,269.79h-20.685c-1.896,0-3.448-1.551-3.448-3.448v-20.685c0-1.896,1.551-3.448,3.448-3.448
	h20.685c1.896,0,3.447,1.551,3.447,3.448v20.685C390.322,268.239,388.771,269.79,386.874,269.79z"/>
<g>
</g>
<g>
</g>
<g>
</g>
<g>
</g>
<g>
</g>
<g>
</g>
<g>
</g>
<g>
</g>
<g>
</g>
<g>
</g>
<g>
</g>
<g>
</g>
<g>
</g>
<g>
</g>
<g>
</g>
</svg>
