<?xml version="1.0" encoding="iso-8859-1"?>
<!-- Generator: Adobe Illustrator 19.0.0, SVG Export Plug-In . SVG Version: 6.00 Build 0)  -->
<svg version="1.1" id="Capa_1" xmlns="http://www.w3.org/2000/svg" xmlns:xlink="http://www.w3.org/1999/xlink" x="0px" y="0px"
	 viewBox="0 0 512 512" style="enable-background:new 0 0 512 512;" xml:space="preserve">
<path style="fill:#EFEFEF;" d="M498.165,94.047L498.165,94.047c-6.341-27.427-12.937-38.533-13.247-39.337l0,0
	c-3.225-6.202-4.02-6.219-7.16-11.046l-0.008,0.009c-16.887-25.071-42.558-39.302-77.101-39.552c-0.377,0-3.187,0-3.043,0
	c-0.198,0-5.242,0-5.071,0c-45.307,0-89.799-6.839-121.047,39.552l-0.008-0.009c-0.128,0.184-2.909,4.167-2.731,3.913
	c-1.665,2.138-3.178,4.726-4.429,7.133l0,0c-0.941,2.37-6.987,12.262-13.247,39.336c-1.308,8.528-11.907,45.352-13.58,137.106
	c-0.569,49.47,0.435,194.664,31.252,233.522c1.408,2.017,2.818,4.038,2.734,3.917l0.008-0.009
	c31.372,46.575,81.336,38.609,84.973,39.552h0.242c0.19,0,15.612,0,15.229,0c0.123,0,2.71,0,2.574,0c0.12,0,0.588,0,0.468,0
	c0.123,0,2.71,0,2.574,0c0.152,0,2.622,0,2.497,0c0.533,0,18.998,0,17.803,0c0.377,0,3.187,0,3.043,0
	c31.505,0,58.831-12.787,76.859-39.552l0.008,0.009c0.191-0.274,2.815-4.033,2.73-3.912
	C520.25,413.135,517.864,179.1,498.165,94.047z"/>
<path style="fill:#DDDDDD;" d="M297.604,114.235l-0.001-0.001c-2.883-18.814-7.984-41.907-14.943-60.435h-0.001
	c-3.569-9.672-6.663-15.073-7.009-15.856c-1.259,1.602-2.286,2.944-4.163,5.73l-0.008-0.009c-2.617,4.023-4.124,5.21-7.16,11.046
	l0,0c-0.611,1.538-6.91,11.945-13.247,39.336c-1.458,9.506-11.907,45.289-13.58,137.106c-0.681,59.255,0.487,165.338,23.78,219.908
	c3.472,7.826,5.18,10.274,5.107,10.154c0.551,0.902,5.185,7.499,5.1,7.377l0.008-0.009c1.832,2.72,2.89,4.112,4.162,5.729
	c11.257-21.495,18.296-52.424,21.953-76.29l0.001-0.001c0.019-0.119,0.099-0.623,0.08-0.504
	C311.276,302.371,308.539,183.74,297.604,114.235z"/>
<path style="fill:#CCCCCC;" d="M452.056,89.545c-18.968,0-135.972,0-155.824,0c-11.89,0-21.618,9.728-21.618,21.618v282.839
	c0,11.89,9.728,21.618,21.618,21.618c5.084,0,30.747,0,35.816,0h15.52h53.152c18.863,0,32.473,0,51.336,0
	c11.89,0,21.618-9.729,21.618-21.618V111.164C473.674,99.274,463.946,89.545,452.056,89.545z"/>
<circle style="fill:#A4D9F4;" cx="367.58" cy="133.82" r="16.258"/>
<path style="fill:#7CC9E8;" d="M367.577,133.819c-3.007-5.208-2.791-11.382,0.007-16.245c-12.396-0.017-20.381,13.472-14.087,24.374
	c4.49,7.776,14.433,10.44,22.209,5.951c2.568-1.482,4.564-3.566,5.943-5.963C376.039,141.927,370.584,139.028,367.577,133.819z"/>
<g>
	<path style="fill:#EFEFEF;" d="M411.685,159.031c-4.945,0-8.954-4.008-8.954-8.954v-32.515c0-4.946,4.009-8.954,8.954-8.954
		s8.954,4.008,8.954,8.954v32.515C420.639,155.022,416.63,159.031,411.685,159.031z"/>
	<path style="fill:#EFEFEF;" d="M390.999,387.064h-32.516c-4.945,0-8.954-4.008-8.954-8.954s4.009-8.954,8.954-8.954h32.516
		c4.945,0,8.954,4.008,8.954,8.954S395.944,387.064,390.999,387.064z"/>
</g>
<g>
	<path style="fill:#666666;" d="M452.056,89.545h-10.898v326.076h10.898c11.89,0,21.618-9.729,21.618-21.618V111.164
		C473.674,99.274,463.946,89.545,452.056,89.545z"/>
	<path style="fill:#666666;" d="M296.231,415.621h10.898V89.545h-10.898c-11.89,0-21.618,9.728-21.618,21.618v282.839
		C274.613,405.892,284.341,415.621,296.231,415.621z"/>
</g>
<path style="fill:#535454;" d="M297.604,114.235l-0.001-0.001c-0.917-5.982-2.73-15.919-4.595-24.42
	c-10.372,1.571-18.396,10.557-18.396,21.349v282.839c0,11.291,8.778,20.616,19.844,21.528c1.304-6.514,2.543-13.575,3.146-17.509
	l0.001-0.001c0.001-0.006,0.002-0.013,0.003-0.02c2.532-15.959,3.937-29.555,3.923-29.435c0.012-0.104,0.009-0.085,0.01-0.098
	C309.593,294.786,308.669,184.572,297.604,114.235z"/>
<path style="fill:#EFEFEF;" d="M274.635,256.128c0-155.384-24.425-192.919-27.051-201.418l0,0c-3.243-6.23-4.005-6.197-7.16-11.046
	l-0.008,0.009c-31.511-46.79-80.512-38.526-84.973-39.552c-0.548,0-18.896,0-17.803,0c-0.348,0-3.165,0-3.043,0
	c-0.561,0-24.901,0-23.342,0c-32.352,0-59.245,13.4-76.859,39.552l-0.008-0.009c-0.191,0.274-2.815,4.033-2.73,3.912
	c-0.068,0.096-1.899,2.267-4.43,7.134l0,0c-0.704,1.857-9.558,16.83-16.888,57.222c-13.822,79.351-14.882,225.671,3.534,305.804
	c9.322,40.594,18.727,47.343,20.514,50.854l0.008-0.009c17.475,25.946,44.24,39.552,76.859,39.552c0.155,0,8.345,0,8.113,0
	c0.205,0,19.492,0,18.271,0c27.444,0,32.105,0.253,41.414-1.087c25.804-3.707,46.848-16.913,61.362-38.465l0.008,0.009
	c0.128-0.183,2.908-4.167,2.73-3.912c6.821-8.844,12.379-26.947,12.334-26.806C271.615,387.566,274.635,308.815,274.635,256.128z"/>
<path style="fill:#DDDDDD;" d="M70.212,468.582l-0.008,0.009c-0.128-0.184-2.908-4.167-2.731-3.913
	C28.163,413.69,25.989,159.9,56.531,70.214c3.437-9.884,6.415-15.274,6.512-15.504l0,0c2.152-4.14,7.244-11.166,7.16-11.046
	l0.008,0.009c18.115-26.893,45.443-39.552,76.86-39.552c-0.616,0-10.164,0-9.899,0c-0.377,0-5.229,0-5.071,0
	c-25.467,0-68.291-4.118-97.705,39.552l-0.008-0.009c-0.128,0.183-2.908,4.167-2.73,3.912c-0.048,0.068-1.899,2.266-4.43,7.134l0,0
	c-2.277,6.003-9.674,17.475-16.888,57.223C-6.526,208.759-4.416,406.035,29.283,461.205c2.186,3.327,0.78,1.281,5.105,7.386
	l0.008-0.009c14.202,21.086,34.755,34.334,60.21,38.296c12.114,1.88,42.686,1.256,42.566,1.256c0.348,0,3.165,0,3.043,0
	c0.183,0,6.977,0,6.857,0C113.286,508.134,87.062,493.599,70.212,468.582z"/>
<path style="fill:#CCCCCC;" d="M168.918,396.609c0.865-0.598,0.948-1.823,0.157-2.516c-7.088-6.205-17.102-7.42-25.353-3.415v-0.001
	h-0.001l0,0c-3.081,1.607-5.333,1.606-8.422-0.078l0,0h-0.001v0.001c-14.586-7.424-32.771,2.399-33.636,19.493
	c-2.043,21.811,15.372,40.469,15.384,40.483c2.962,3.495,7.685,4.298,11.444,2.621v0.001c11.245-4.931,19.737-0.07,20.88,0.193
	v-0.001c3.877,1.817,8.565,0.916,11.491-2.409c0.008-0.009,7.53-7.783,12.331-19.231c0.338-0.806-0.039-1.727-0.845-2.065
	C158.567,423.899,156.587,405.131,168.918,396.609z"/>
<path style="fill:#BABABA;" d="M152.22,450.576c-0.013-0.013-17.427-18.672-15.384-40.482c0.551-10.893,8.605-19.765,19.061-21.629
	c-4.144-0.369-8.331,0.35-12.174,2.214v-0.001h-0.001l0,0c-3.081,1.606-5.333,1.606-8.422-0.078l0,0h-0.001l-0.001,0.001
	c-14.622-7.438-32.774,2.446-33.636,19.493c-2.043,21.811,15.372,40.469,15.384,40.482c2.955,3.486,7.678,4.302,11.444,2.621v0.001
	c0.121-0.054,0.683-0.301,0.562-0.248c10.542-4.654,20.197,0.413,20.318,0.441v-0.001c2.182,1.023,4.965,1.289,7.631,0.266
	C155.113,453.115,153.455,452.033,152.22,450.576z"/>
<path style="fill:#CCCCCC;" d="M137.105,382.894c0.208,1.226,1.471,2.326,2.713,2.365c16.979,0.525,28.223-12.368,25.384-29.122
	c-0.208-1.226-1.47-2.326-2.713-2.365C145.511,353.246,134.265,366.139,137.105,382.894z"/>
<g>
</g>
<g>
</g>
<g>
</g>
<g>
</g>
<g>
</g>
<g>
</g>
<g>
</g>
<g>
</g>
<g>
</g>
<g>
</g>
<g>
</g>
<g>
</g>
<g>
</g>
<g>
</g>
<g>
</g>
</svg>
