<?xml version="1.0" encoding="iso-8859-1"?>
<!-- Generator: Adobe Illustrator 19.0.0, SVG Export Plug-In . SVG Version: 6.00 Build 0)  -->
<svg version="1.1" id="Capa_1" xmlns="http://www.w3.org/2000/svg" xmlns:xlink="http://www.w3.org/1999/xlink" x="0px" y="0px"
	 viewBox="0 0 512 512" style="enable-background:new 0 0 512 512;" xml:space="preserve">
<path style="fill:#666666;" d="M98.649,0c-30.84,0-55.841,25.001-55.841,55.84v400.32C42.808,487,67.809,512,98.649,512h135.034V0
	H98.649z"/>
<g>
	<path style="fill:#535454;" d="M73.715,456.16V55.84C73.715,25.001,98.716,0,129.556,0H98.649c-30.84,0-55.841,25.001-55.841,55.84
		v400.32C42.808,487,67.809,512,98.649,512h30.907C98.716,512,73.715,486.999,73.715,456.16z"/>
	<circle style="fill:#535454;" cx="96.07" cy="53.39" r="13.57"/>
</g>
<path style="fill:#444443;" d="M96.072,39.828C85.725,39.813,79.06,51.073,84.314,60.173c3.747,6.491,12.047,8.715,18.537,4.967
	c2.143-1.237,3.81-2.977,4.961-4.978C97.374,60.147,90.857,48.892,96.072,39.828z"/>
<path style="fill:#535454;" d="M412.87,0H241.258c-31.106,0-56.322,25.216-56.322,56.322v399.356
	c0,31.106,25.216,56.322,56.322,56.322H412.87c31.106,0,56.322-25.216,56.322-56.322V56.322C469.192,25.216,443.976,0,412.87,0z"/>
<path style="fill:#444443;" d="M211.955,455.678V56.322C211.955,25.216,237.172,0,268.277,0h-27.019
	c-31.106,0-56.322,25.216-56.322,56.322v399.356c0,31.106,25.216,56.322,56.322,56.322h27.019
	C237.171,512,211.955,486.784,211.955,455.678z"/>
<path style="fill:#A4D9F4;" d="M433.458,81.445H220.67c-4.813,0-8.715,3.902-8.715,8.715c0,14.204,0,305.345,0,300.08
	c0,4.813,3.902,8.715,8.715,8.715h212.787c4.813,0,8.715-3.902,8.715-8.715c0-25.476,0-304.222,0-300.08
	C442.173,85.347,438.271,81.445,433.458,81.445z"/>
<path style="fill:#7CC9E8;" d="M240.395,390.24v-10.814c0-4.274,0-282.739,0-289.267c0-4.813,3.902-8.715,8.715-8.715h-28.44
	c-4.813,0-8.715,3.902-8.715,8.715c0,6.499,0,284.965,0,289.267v10.814c0,4.813,3.902,8.715,8.715,8.715h28.44
	C244.297,398.956,240.395,395.054,240.395,390.24z"/>
<path style="fill:#666666;" d="M358.013,47.545h-61.898c-4.267,0-7.727-3.459-7.727-7.727c0-4.267,3.459-7.727,7.727-7.727h61.898
	c4.267,0,7.727,3.459,7.727,7.727C365.74,44.085,362.28,47.545,358.013,47.545z"/>
<path style="fill:#EFEFEF;" d="M211.955,90.16c0,10.783,0,20.433,0,31.27h230.218c0-10.833,0-20.486,0-31.27
	c0-4.813-3.902-8.715-8.715-8.715H220.671C215.857,81.445,211.955,85.347,211.955,90.16z"/>
<path style="fill:#DDDDDD;" d="M240.395,90.16c0-4.813,3.902-8.715,8.715-8.715h-28.44c-4.822,0-8.715,3.91-8.715,8.715
	c0,10.783,0,20.433,0,31.27h28.44C240.395,110.597,240.395,100.945,240.395,90.16z"/>
<path style="fill:#92B620;" d="M264.684,371.884h-20.676c-1.895,0-3.446-1.551-3.446-3.446v-20.676c0-1.895,1.551-3.446,3.446-3.446
	h20.676c1.895,0,3.446,1.551,3.446,3.446v20.676C268.13,370.333,266.579,371.884,264.684,371.884z"/>
<path style="fill:#70B5E8;" d="M313.36,371.884h-20.676c-1.895,0-3.446-1.551-3.446-3.446v-20.676c0-1.895,1.551-3.446,3.446-3.446
	h20.676c1.895,0,3.446,1.551,3.446,3.446v20.676C316.806,370.333,315.255,371.884,313.36,371.884z"/>
<path style="fill:#52A5D8;" d="M362.036,371.884H341.36c-1.895,0-3.446-1.551-3.446-3.446v-20.676c0-1.895,1.551-3.446,3.446-3.446
	h20.676c1.895,0,3.446,1.551,3.446,3.446v20.676C365.482,370.333,363.931,371.884,362.036,371.884z"/>
<path style="fill:#FFB70D;" d="M410.712,371.884h-20.676c-1.895,0-3.446-1.551-3.446-3.446v-20.676c0-1.895,1.551-3.446,3.446-3.446
	h20.676c1.895,0,3.446,1.551,3.446,3.446v20.676C414.158,370.333,412.607,371.884,410.712,371.884z"/>
<path style="fill:#92B620;" d="M264.518,177.014h-20.676c-1.895,0-3.446-1.551-3.446-3.446v-20.676c0-1.895,1.551-3.446,3.446-3.446
	h20.676c1.895,0,3.446,1.551,3.446,3.446v20.676C267.964,175.464,266.413,177.014,264.518,177.014z"/>
<path style="fill:#F94A46;" d="M313.194,177.014h-20.676c-1.895,0-3.446-1.551-3.446-3.446v-20.676c0-1.895,1.551-3.446,3.446-3.446
	h20.676c1.895,0,3.446,1.551,3.446,3.446v20.676C316.64,175.464,315.089,177.014,313.194,177.014z"/>
<path style="fill:#FFB70D;" d="M361.87,177.014h-20.676c-1.895,0-3.446-1.551-3.446-3.446v-20.676c0-1.895,1.551-3.446,3.446-3.446
	h20.676c1.895,0,3.446,1.551,3.446,3.446v20.676C365.316,175.464,363.765,177.014,361.87,177.014z"/>
<path style="fill:#EFEFEF;" d="M410.546,177.014H389.87c-1.895,0-3.446-1.551-3.446-3.446v-20.676c0-1.895,1.551-3.446,3.446-3.446
	h20.676c1.895,0,3.446,1.551,3.446,3.446v20.676C413.992,175.464,412.441,177.014,410.546,177.014z"/>
<path style="fill:#DDA36F;" d="M264.518,226.17h-20.676c-1.895,0-3.446-1.551-3.446-3.446v-20.676c0-1.895,1.551-3.446,3.446-3.446
	h20.676c1.895,0,3.446,1.551,3.446,3.446v20.676C267.964,224.62,266.413,226.17,264.518,226.17z"/>
<path style="fill:#70B5E8;" d="M313.194,226.17h-20.676c-1.895,0-3.446-1.551-3.446-3.446v-20.676c0-1.895,1.551-3.446,3.446-3.446
	h20.676c1.895,0,3.446,1.551,3.446,3.446v20.676C316.64,224.62,315.089,226.17,313.194,226.17z"/>
<path style="fill:#F9D698;" d="M361.87,226.17h-20.676c-1.895,0-3.446-1.551-3.446-3.446v-20.676c0-1.895,1.551-3.446,3.446-3.446
	h20.676c1.895,0,3.446,1.551,3.446,3.446v20.676C365.316,224.62,363.765,226.17,361.87,226.17z"/>
<path style="fill:#70B5E8;" d="M410.546,226.17H389.87c-1.895,0-3.446-1.551-3.446-3.446v-20.676c0-1.895,1.551-3.446,3.446-3.446
	h20.676c1.895,0,3.446,1.551,3.446,3.446v20.676C413.992,224.62,412.441,226.17,410.546,226.17z"/>
<path style="fill:#EFEFEF;" d="M264.518,275.966h-20.676c-1.895,0-3.446-1.551-3.446-3.446v-20.676c0-1.895,1.551-3.446,3.446-3.446
	h20.676c1.895,0,3.446,1.551,3.446,3.446v20.676C267.964,274.415,266.413,275.966,264.518,275.966z"/>
<path style="fill:#FFB70D;" d="M313.194,275.966h-20.676c-1.895,0-3.446-1.551-3.446-3.446v-20.676c0-1.895,1.551-3.446,3.446-3.446
	h20.676c1.895,0,3.446,1.551,3.446,3.446v20.676C316.64,274.415,315.089,275.966,313.194,275.966z"/>
<path style="fill:#70B5E8;" d="M361.87,275.966h-20.676c-1.895,0-3.446-1.551-3.446-3.446v-20.676c0-1.895,1.551-3.446,3.446-3.446
	h20.676c1.895,0,3.446,1.551,3.446,3.446v20.676C365.316,274.415,363.765,275.966,361.87,275.966z"/>
<path style="fill:#EFEFEF;" d="M410.546,275.966H389.87c-1.895,0-3.446-1.551-3.446-3.446v-20.676c0-1.895,1.551-3.446,3.446-3.446
	h20.676c1.895,0,3.446,1.551,3.446,3.446v20.676C413.992,274.415,412.441,275.966,410.546,275.966z"/>
<g>
	<circle style="fill:#666666;" cx="327.06" cy="454.97" r="28.87"/>
	<circle style="fill:#666666;" cx="327.06" cy="454.97" r="28.87"/>
</g>
<path style="fill:#5E5E5E;" d="M322.552,426.451c-19.904,3.145-30.647,25.357-20.49,42.95c10.156,17.591,34.764,19.397,47.441,3.731
	C323.418,477.254,305.947,446.971,322.552,426.451z"/>
<path style="fill:#898989;" d="M332.643,463.137h-11.158c-1.425,0-2.592-1.166-2.592-2.592v-11.158c0-1.425,1.166-2.592,2.592-2.592
	h11.158c1.425,0,2.592,1.166,2.592,2.592v11.158C335.235,461.971,334.068,463.137,332.643,463.137z"/>
<g>
</g>
<g>
</g>
<g>
</g>
<g>
</g>
<g>
</g>
<g>
</g>
<g>
</g>
<g>
</g>
<g>
</g>
<g>
</g>
<g>
</g>
<g>
</g>
<g>
</g>
<g>
</g>
<g>
</g>
</svg>
