<?xml version="1.0" encoding="iso-8859-1"?>
<!-- Generator: Adobe Illustrator 19.0.0, SVG Export Plug-In . SVG Version: 6.00 Build 0)  -->
<svg version="1.1" id="Capa_1" xmlns="http://www.w3.org/2000/svg" xmlns:xlink="http://www.w3.org/1999/xlink" x="0px" y="0px"
	 viewBox="0 0 512 512" style="enable-background:new 0 0 512 512;" xml:space="preserve">
<path style="fill:#CCCCCC;" d="M195.71,433.916c-0.867,7.143-4.782,14.592-10.737,18.631l-9.792,6.642c14.036,0,140.791,0,161.637,0
	l-9.792-6.642c-5.955-4.039-9.871-11.488-10.737-18.632l-4.757-40.244H200.467L195.71,433.916z"/>
<path style="fill:#BABABA;" d="M227.304,438.768l4.757-45.097h-31.594l-4.757,40.245c-0.867,7.143-4.782,14.592-10.737,18.631
	l-9.791,6.642c22.644,0,19.335,0,41.945,0C222.763,454.575,226.465,446.516,227.304,438.768z"/>
<path style="fill:#EFEFEF;" d="M482.88,394.701H29.12c-16.016,0-29.12-13.104-29.12-29.12V53.659c0-16.016,13.104-29.12,29.12-29.12
	h453.76c16.016,0,29.12,13.104,29.12,29.12v311.922C512,381.597,498.896,394.701,482.88,394.701z"/>
<path style="fill:#DDDDDD;" d="M29.436,365.581V53.659c0-16.016,13.104-29.12,29.12-29.12H29.12C13.104,24.539,0,37.643,0,53.659
	v311.923c0,16.016,13.104,29.12,29.12,29.12h29.436C42.54,394.701,29.436,381.597,29.436,365.581z"/>
<path style="fill:#666666;" d="M482.88,24.539H29.12C13.104,24.539,0,37.643,0,53.659V335.89h512V53.659
	C512,37.643,498.896,24.539,482.88,24.539z"/>
<path style="fill:#535454;" d="M0,53.659V335.89h29.435V53.659c0-16.016,13.104-29.12,29.12-29.12
	c-30.348,0.05-34.415-1.026-42.641,3.196C6.491,32.571,0,42.391,0,53.659z"/>
<path style="fill:#A4D9F4;" d="M477.595,306.5H34.405c-2.744,0-4.969-2.225-4.969-4.969V58.737c0-2.745,2.225-4.969,4.969-4.969
	h443.19c2.744,0,4.969,2.225,4.969,4.969V301.53C482.564,304.275,480.34,306.5,477.595,306.5z"/>
<path style="fill:#7CC9E8;" d="M60.343,301.53V58.737c0-2.745,2.225-4.969,4.969-4.969H34.405c-2.744,0-4.969,2.225-4.969,4.969
	V301.53c0,2.744,2.225,4.969,4.969,4.969h30.907C62.568,306.5,60.343,304.275,60.343,301.53z"/>
<path style="fill:#EFEFEF;" d="M351.277,458.158c-54.187,0-136.071,0-190.554,0c-8.083,0-14.695,6.613-14.695,14.695l0,0
	c0,8.082,6.613,14.695,14.695,14.695c55.266,0,136.607,0,190.554,0c8.082,0,14.695-6.613,14.695-14.695l0,0
	C365.972,464.771,359.359,458.158,351.277,458.158z"/>
<path style="fill:#DDDDDD;" d="M203.621,472.854L203.621,472.854c0-8.082,6.613-14.695,14.695-14.695c-9.188,0-43.352,0-57.594,0
	c-8.083,0-14.695,6.613-14.695,14.695l0,0c0,8.082,6.613,14.695,14.695,14.695c14.149,0,48.273,0,57.594,0
	C210.234,487.549,203.621,480.936,203.621,472.854z"/>
<circle style="fill:#CCCCCC;" cx="256" cy="365.26" r="7.782"/>
<path style="fill:#70B5E8;" d="M29.436,58.737v24.26h453.129v-24.26c0-2.744-2.225-4.969-4.97-4.969H34.405
	C31.66,53.768,29.436,55.993,29.436,58.737z"/>
<g>
	<path style="fill:#52A5D8;" d="M29.436,82.997h30.907v-24.26c0-2.745,2.225-4.969,4.969-4.969H34.405
		c-2.478,0-4.516,1.82-4.891,4.192C29.357,58.951,29.475,57.102,29.436,82.997z"/>
	<path style="fill:#52A5D8;" d="M145.86,283.763h-20.676c-1.895,0-3.446-1.551-3.446-3.446v-20.676c0-1.895,1.551-3.446,3.446-3.446
		h20.676c1.895,0,3.446,1.551,3.446,3.446v20.676C149.306,282.212,147.755,283.763,145.86,283.763z"/>
</g>
<path style="fill:#898989;" d="M242.243,283.763h-20.676c-1.895,0-3.446-1.551-3.446-3.446v-20.676c0-1.895,1.551-3.446,3.446-3.446
	h20.676c1.895,0,3.446,1.551,3.446,3.446v20.676C245.689,282.212,244.138,283.763,242.243,283.763z"/>
<path style="fill:#52A5D8;" d="M338.625,283.763h-20.676c-1.895,0-3.446-1.551-3.446-3.446v-20.676c0-1.895,1.551-3.446,3.446-3.446
	h20.676c1.895,0,3.446,1.551,3.446,3.446v20.676C342.071,282.212,340.52,283.763,338.625,283.763z"/>
<path style="fill:#F94A46;" d="M194.051,283.763h-20.676c-1.895,0-3.446-1.551-3.446-3.446v-20.676c0-1.895,1.551-3.446,3.446-3.446
	h20.676c1.895,0,3.446,1.551,3.446,3.446v20.676C197.497,282.212,195.947,283.763,194.051,283.763z"/>
<path style="fill:#FFB70D;" d="M290.434,283.763h-20.676c-1.895,0-3.446-1.551-3.446-3.446v-20.676c0-1.895,1.551-3.446,3.446-3.446
	h20.676c1.895,0,3.446,1.551,3.446,3.446v20.676C293.88,282.212,292.329,283.763,290.434,283.763z"/>
<path style="fill:#92B620;" d="M386.816,283.763H366.14c-1.895,0-3.446-1.551-3.446-3.446v-20.676c0-1.895,1.551-3.446,3.446-3.446
	h20.676c1.895,0,3.446,1.551,3.446,3.446v20.676C390.262,282.212,388.712,283.763,386.816,283.763z"/>
<g>
</g>
<g>
</g>
<g>
</g>
<g>
</g>
<g>
</g>
<g>
</g>
<g>
</g>
<g>
</g>
<g>
</g>
<g>
</g>
<g>
</g>
<g>
</g>
<g>
</g>
<g>
</g>
<g>
</g>
</svg>
