<?xml version="1.0" encoding="iso-8859-1"?>
<!-- Generator: Adobe Illustrator 19.0.0, SVG Export Plug-In . SVG Version: 6.00 Build 0)  -->
<svg version="1.1" id="Capa_1" xmlns="http://www.w3.org/2000/svg" xmlns:xlink="http://www.w3.org/1999/xlink" x="0px" y="0px"
	 viewBox="0 0 512 512" style="enable-background:new 0 0 512 512;" xml:space="preserve">
<path style="fill:#898989;" d="M485.77,14.194h-97.434c-14.427,0-26.23,11.804-26.23,26.23v431.152
	c0,14.427,11.803,26.23,26.23,26.23h97.434c14.427,0,26.23-11.803,26.23-26.23V40.424C512,25.997,500.197,14.194,485.77,14.194z"/>
<path style="fill:#777777;" d="M393.013,471.576V40.424c0-14.426,11.803-26.23,26.23-26.23h-30.907
	c-14.427,0-26.23,11.803-26.23,26.23v431.152c0,14.427,11.803,26.23,26.23,26.23h30.907
	C404.816,497.806,393.013,486.003,393.013,471.576z"/>
<g>
	<path style="fill:#898989;" d="M474.984,188.225c-20.915,20.915-54.947,20.915-75.863-0.001c-20.915-20.915-20.915-54.947,0-75.862
		s54.947-20.915,75.862,0C495.9,133.278,495.9,167.309,474.984,188.225z M417.701,130.941c-10.671,10.671-10.671,28.034,0,38.704
		c10.671,10.671,28.034,10.672,38.705,0.001c10.671-10.671,10.67-28.034-0.001-38.705
		C445.734,120.27,428.372,120.27,417.701,130.941z"/>
	<path style="fill:#898989;" d="M292.129,497.806H69.977C31.49,497.806,0,466.316,0,427.829V205.677
		C0,167.189,31.49,135.7,69.977,135.7h222.152c38.488,0,69.977,31.49,69.977,69.977v222.152
		C362.107,466.316,330.617,497.806,292.129,497.806z"/>
</g>
<path style="fill:#777777;" d="M61.815,427.829V205.677c0-38.487,31.49-69.977,69.977-69.977H69.977
	C31.49,135.7,0,167.189,0,205.677v222.152c0,38.488,31.49,69.977,69.977,69.977h61.815
	C93.304,497.806,61.815,466.316,61.815,427.829z"/>
<path style="fill:#535454;" d="M148.729,321.798c0.07-7.528,3.868-14.146,9.624-18.124c1.016-0.702,1.114-2.143,0.184-2.957
	c-4.728-4.139-10.899-6.673-17.676-6.735c-1.322-0.012-2.619,0.081-3.891,0.252c-1.343,0.18-2.658,0.448-3.932,0.817
	c-0.314,0.091-0.622,0.197-0.932,0.299c-0.179,0.059-0.362,0.11-0.539,0.173c-0.433,0.153-0.858,0.319-1.28,0.493
	c-0.051,0.021-0.103,0.038-0.153,0.059c-0.471,0.197-0.936,0.407-1.393,0.629l-0.001-0.001c0,0-0.001,0-0.001,0.001v-0.001
	c-1.878,0.979-3.471,1.412-4.962,1.415c-1.491-0.03-3.076-0.492-4.935-1.506v0.001l-0.001-0.001v0.001
	c-0.453-0.231-0.914-0.449-1.382-0.655c-0.05-0.022-0.102-0.04-0.152-0.062c-0.419-0.181-0.842-0.356-1.271-0.517
	c-0.176-0.066-0.358-0.121-0.536-0.183c-0.308-0.108-0.613-0.219-0.926-0.316c-1.267-0.393-2.577-0.684-3.916-0.89
	c-1.269-0.194-2.564-0.312-3.886-0.324c-14.666-0.136-26.728,11.341-27.462,25.855c-2.401,25.633,18.066,47.561,18.08,47.577
	c2.087,2.462,5.185,4.043,8.665,4.075c0.399,0.004,0.792-0.018,1.181-0.055c0.09-0.009,0.179-0.023,0.268-0.033
	c0.316-0.037,0.628-0.085,0.935-0.147c0.067-0.014,0.133-0.028,0.199-0.043c0.364-0.08,0.721-0.176,1.071-0.289
	c0.002-0.001,0.004-0.001,0.005-0.002c0.383-0.125,0.76-0.264,1.125-0.426v0.001l0.036-0.016c0.028-0.013,0.056-0.024,0.085-0.037
	l0.539-0.238c7.412-3.272,15.875-3.194,23.225,0.215l0.534,0.248c0.028,0.013,0.056,0.026,0.084,0.039l0.036,0.017l0.001-0.001
	c0.361,0.169,0.735,0.315,1.116,0.447c0.002,0,0.004,0.001,0.005,0.002c0.348,0.12,0.703,0.222,1.066,0.309
	c0.066,0.016,0.132,0.032,0.198,0.046c0.306,0.068,0.618,0.122,0.933,0.165c0.089,0.012,0.177,0.028,0.267,0.038
	c0.388,0.043,0.781,0.073,1.179,0.076c3.48,0.032,6.607-1.491,8.739-3.914c0.01-0.01,8.85-9.147,14.492-22.601
	c0.397-0.947-0.046-2.029-0.992-2.427C154.292,339.149,148.643,331.116,148.729,321.798z"/>
<path style="fill:#444443;" d="M128.298,367.098c-0.015-0.016-20.481-21.944-18.08-47.577c0.457-9.037,5.308-16.895,12.443-21.507
	c-1.168-0.188-2.415-0.637-3.818-1.403v0.001l-0.001-0.001v0.001c-0.453-0.231-0.914-0.449-1.382-0.654
	c-0.05-0.022-0.102-0.04-0.152-0.062c-0.419-0.181-0.842-0.356-1.271-0.517c-0.176-0.066-0.358-0.121-0.536-0.183
	c-0.308-0.108-0.613-0.219-0.926-0.316c-1.267-0.393-2.577-0.684-3.916-0.889c-1.269-0.194-2.564-0.312-3.886-0.324
	c-14.666-0.136-26.728,11.341-27.462,25.854c-2.401,25.633,18.066,47.561,18.08,47.577c2.087,2.462,5.185,4.043,8.666,4.075
	c0.399,0.004,0.792-0.018,1.18-0.054c0.09-0.009,0.179-0.022,0.268-0.033c0.316-0.037,0.628-0.085,0.935-0.147
	c0.067-0.014,0.133-0.028,0.199-0.043c0.364-0.08,0.721-0.176,1.071-0.289c0.002-0.001,0.004-0.001,0.005-0.002
	c0.384-0.125,0.76-0.264,1.125-0.426l0.001,0.001l0.036-0.016c0.028-0.013,0.056-0.025,0.085-0.037l0.54-0.238
	c5.7-2.516,12.019-3.043,17.978-1.606C129.06,367.912,128.659,367.524,128.298,367.098z"/>
<g>
	<path style="fill:#535454;" d="M118.612,288.635c0.221,1.306,1.567,2.478,2.891,2.519c8.377,0.259,16.17-2.568,21.439-8.612
		c5.269-6.045,7.005-14.151,5.605-22.414c-0.221-1.306-1.567-2.479-2.891-2.52C127.568,257.049,115.587,270.785,118.612,288.635z"/>
	<path style="fill:#535454;" d="M203.919,357.552c3.082,2.985,9.791,1.973,12.972,2.174c8.727,0,8.715,13.044,0,13.044
		c-2.918-0.265-15.841,1.415-23.987-5.363c-4.301-3.574-6.45-9.324-6.45-17.248v-72.615c0-6.271,15.219-6.601,15.219,0v26.524
		h17.682c5.589,0,5.59,11.306,0,11.306h-17.682C202.274,348.241,200.192,353.95,203.919,357.552z"/>
	<path style="fill:#535454;" d="M227.833,311.315c-1.593-5.298,8.175-9.32,12.609-7.247c2.238,1.057,1.163,1.283,19.06,47.975
		l17.248-45.511c2.187-6.572,14.639-1.002,14.639,3.479c0,0.677-0.195,1.499-0.58,2.464c-25.969,61.104-23.235,59.61-27.031,61.019
		c-3.472,1.285-9.687,1.095-11.233-2.319C252.5,371.067,227.863,311.418,227.833,311.315z"/>
	<circle style="fill:#535454;" cx="406.15" cy="256" r="17.03"/>
</g>
<path style="fill:#444443;" d="M406.147,256c-3.149-5.454-2.923-11.92,0.008-17.012c-2.896-0.004-5.832,0.715-8.521,2.268
	c-8.143,4.702-10.933,15.114-6.232,23.257c4.701,8.143,15.114,10.933,23.257,6.232c2.689-1.552,4.78-3.735,6.224-6.245
	C415.008,264.491,409.296,261.454,406.147,256z"/>
<circle style="fill:#535454;" cx="467.96" cy="256" r="17.03"/>
<path style="fill:#444443;" d="M467.96,256c-3.149-5.454-2.923-11.92,0.008-17.012c-2.896-0.004-5.832,0.715-8.52,2.268
	c-8.143,4.702-10.933,15.114-6.232,23.258s15.114,10.933,23.258,6.232c2.689-1.552,4.779-3.735,6.224-6.245
	C476.821,264.491,471.109,261.454,467.96,256z"/>
<g>
	<path style="fill:#535454;" d="M480.458,106.909c-23.902-23.914-62.8-24.012-86.799-0.011
		c-11.575,11.575-17.95,26.987-17.95,43.395c0,27.641,18.018,43.499,17.95,43.396c0.196,0.127,15.809,17.945,43.396,17.945
		C491.378,211.634,519.115,145.584,480.458,106.909z M474.515,176.829l-7.792-7.792c7.178-11.328,7.261-26.027,0-37.486l7.791-7.791
		C485.743,139.594,485.743,160.994,474.515,176.829z M450.937,164.187c-7.658,7.652-20.113,7.656-27.773-0.005
		c-3.701-3.701-5.74-8.633-5.74-13.888s2.039-10.187,5.74-13.888c12.189-12.189,33.517-3.77,33.517,13.888
		c0.001,5.252-2.036,10.183-5.734,13.884C450.946,164.178,450.951,164.173,450.937,164.187z M463.59,112.829l-7.798,7.798
		c-11.402-7.204-26.075-7.204-37.478,0l-7.798-7.798C426.247,101.653,447.674,101.521,463.59,112.829z M399.588,123.756l7.794,7.794
		c-3.519,5.553-5.412,11.999-5.412,18.743c0,6.745,1.893,13.191,5.412,18.744l-7.793,7.794c-5.468-7.696-8.427-16.882-8.427-26.538
		C391.162,140.638,394.121,131.452,399.588,123.756z M410.519,187.755l7.791-7.791c11.389,7.217,26.095,7.219,37.488,0l7.791,7.792
		C447.754,198.983,426.354,198.982,410.519,187.755z"/>
	<path style="fill:#535454;" d="M467.96,452.777h-61.813c-4.267,0-7.727-3.459-7.727-7.727s3.459-7.727,7.727-7.727h61.813
		c4.267,0,7.727,3.459,7.727,7.727C475.687,449.318,472.227,452.777,467.96,452.777z"/>
</g>
<g>
</g>
<g>
</g>
<g>
</g>
<g>
</g>
<g>
</g>
<g>
</g>
<g>
</g>
<g>
</g>
<g>
</g>
<g>
</g>
<g>
</g>
<g>
</g>
<g>
</g>
<g>
</g>
<g>
</g>
</svg>
