<?xml version="1.0" encoding="iso-8859-1"?>
<!-- Generator: Adobe Illustrator 19.0.0, SVG Export Plug-In . SVG Version: 6.00 Build 0)  -->
<svg version="1.1" id="Capa_1" xmlns="http://www.w3.org/2000/svg" xmlns:xlink="http://www.w3.org/1999/xlink" x="0px" y="0px"
	 viewBox="0 0 512 512" style="enable-background:new 0 0 512 512;" xml:space="preserve">
<path style="fill:#EFEFEF;" d="M429.914,0h-67.996c-6.8,0-12.363,5.564-12.363,12.363c0,13.001,0,50.947,0,63.97h92.722v-3.091
	c0-18.346,0-43.042,0-60.879C442.276,5.564,436.713,0,429.914,0z"/>
<path style="fill:#DDDDDD;" d="M382.78,12.363C382.78,5.564,388.343,0,395.143,0h-33.225c-6.8,0-12.363,5.563-12.363,12.363
	c0,13.001,0,50.947,0,63.97h33.225C382.78,63.236,382.78,25.351,382.78,12.363z"/>
<path style="fill:#F9D698;" d="M429.914,0h-67.996c-6.8,0-12.363,5.563-12.363,12.363V46.97h92.722V12.363
	C442.276,5.563,436.713,0,429.914,0z"/>
<path style="fill:#EFBB81;" d="M382.78,12.363C382.78,5.564,388.343,0,395.143,0h-33.225c-6.793,0-12.363,5.574-12.363,12.363V46.97
	h33.225C382.78,42.234,382.78,21.779,382.78,12.363z"/>
<path style="fill:#CCCCCC;" d="M442.276,73.242c-29.178,0-66.258,0-94.783,0c-6.8,0-12.363,5.563-12.363,12.363
	c0,8.377,0,11.296,0,19.575c34.951,0,82.426,0,119.509,0c0-5.646,0-6.429,0-16.484v-3.091
	C454.639,78.805,449.076,73.242,442.276,73.242z"/>
<path style="fill:#BABABA;" d="M366.038,85.605c0-6.8,5.563-12.363,12.363-12.363c-2.711,0-23.113,0-30.907,0
	c-6.8,0-12.363,5.563-12.363,12.363c0,8.453,0,10.743,0,19.575c4.687,0,22.783,0,30.907,0
	C366.038,96.727,366.038,94.436,366.038,85.605z"/>
<g>
	<path style="fill:#F9E8CD;" d="M371.32,33.062c-4.267,0-7.727-3.459-7.727-7.727v-3.091c0-4.268,3.459-7.727,7.727-7.727
		c4.267,0,7.727,3.459,7.727,7.727v3.091C379.047,29.603,375.587,33.062,371.32,33.062z"/>
	<path style="fill:#F9E8CD;" d="M395.145,33.062c-4.267,0-7.727-3.459-7.727-7.727v-3.091c0-4.268,3.459-7.727,7.727-7.727
		c4.267,0,7.727,3.459,7.727,7.727v3.091C402.871,29.603,399.412,33.062,395.145,33.062z"/>
	<path style="fill:#F9E8CD;" d="M418.969,33.062c-4.267,0-7.727-3.459-7.727-7.727v-3.091c0-4.268,3.459-7.727,7.727-7.727
		c4.267,0,7.727,3.459,7.727,7.727v3.091C426.696,29.603,423.236,33.062,418.969,33.062z"/>
</g>
<path style="fill:#EFEFEF;" d="M380.977,314.724v34.248c0,74.405-60.815,135.212-135.213,135.212
	c-74.404,0-135.212-60.814-135.212-135.212v-34.248H82.735v34.248C82.735,438.75,155.992,512,245.765,512
	c43.381,0,84.276-17.003,115.151-47.877s47.878-71.769,47.878-115.151v-34.248H380.977z"/>
<path style="fill:#CCCCCC;" d="M71.676,309.91c0,6.048,4.948,10.996,10.996,10.996h27.943c6.048,0,10.996-4.948,10.996-10.996
	v-7.212c0-15.539,0-38.362,0-53.91H71.676C71.676,277.057,71.676,292.073,71.676,309.91z"/>
<path style="fill:#BABABA;" d="M96.644,309.91c0-17.81,0-32.749,0-61.122H71.676c0,28.269,0,43.285,0,61.122
	c0,6.048,4.948,10.996,10.996,10.996h24.967C101.592,320.905,96.644,315.957,96.644,309.91z"/>
<path style="fill:#CCCCCC;" d="M369.918,248.788c0,17.81,0,32.749,0,61.121c0,6.048,4.948,10.996,10.996,10.996h27.943
	c6.048,0,10.996-4.948,10.996-10.996v-7.212c0-15.539,0-38.362,0-53.91h-49.935V248.788z"/>
<path style="fill:#BABABA;" d="M394.885,309.91c0-17.81,0-32.749,0-61.122h-24.967c0,17.81,0,32.749,0,61.122
	c0,6.048,4.948,10.996,10.996,10.996h24.967C399.833,320.905,394.885,315.957,394.885,309.91z"/>
<path style="fill:#EFEFEF;" d="M140.425,256H52.863c-6.8,0-12.363-5.563-12.363-12.363V12.363C40.5,5.563,46.063,0,52.863,0h87.562
	c6.8,0,12.363,5.563,12.363,12.363v231.274C152.788,250.437,147.225,256,140.425,256z"/>
<path style="fill:#DDDDDD;" d="M71.676,243.637V12.363C71.676,5.563,77.24,0,84.039,0H52.863C46.063,0,40.5,5.563,40.5,12.363
	v231.274c0,6.8,5.563,12.363,12.363,12.363H84.04C77.24,256,71.676,250.437,71.676,243.637z"/>
<path style="fill:#EFEFEF;" d="M454.629,102.089H335.141c-9.279,0-16.871,7.592-16.871,16.871v120.17
	c0,9.279,7.592,16.871,16.871,16.871h119.488c9.279,0,16.871-7.592,16.871-16.871V118.96
	C471.5,109.68,463.908,102.089,454.629,102.089z"/>
<path style="fill:#DDDDDD;" d="M349.051,239.129v-120.17c0-9.279,7.592-16.871,16.871-16.871h-30.78
	c-9.279,0-16.871,7.592-16.871,16.871v120.17c0,9.279,7.592,16.871,16.871,16.871h30.78
	C356.643,256,349.051,248.408,349.051,239.129z"/>
<g>
</g>
<g>
</g>
<g>
</g>
<g>
</g>
<g>
</g>
<g>
</g>
<g>
</g>
<g>
</g>
<g>
</g>
<g>
</g>
<g>
</g>
<g>
</g>
<g>
</g>
<g>
</g>
<g>
</g>
</svg>
