<?xml version="1.0" encoding="iso-8859-1"?>
<!-- Generator: Adobe Illustrator 19.0.0, SVG Export Plug-In . SVG Version: 6.00 Build 0)  -->
<svg version="1.1" id="Capa_1" xmlns="http://www.w3.org/2000/svg" xmlns:xlink="http://www.w3.org/1999/xlink" x="0px" y="0px"
	 viewBox="0 0 512.001 512.001" style="enable-background:new 0 0 512.001 512.001;" xml:space="preserve">
<path style="fill:#FC6868;" d="M432.572,0.004H266.28v511.259h166.292c24.229,0,43.941-19.711,43.941-43.94V43.944
	C476.512,19.716,456.8,0.004,432.572,0.004z"/>
<rect x="266.28" y="0.004" style="fill:#ED5A5A;" width="62.56" height="511.26"/>
<path style="fill:#F94A46;" d="M432.572,27.821H266.28v455.626h166.292c8.891,0,16.124-7.233,16.124-16.124V43.944
	C448.696,35.053,441.462,27.821,432.572,27.821z"/>
<rect x="266.28" y="27.821" style="fill:#EA3939;" width="62.56" height="455.63"/>
<path style="fill:#FC6868;" d="M266.122,0H67.294C49.801,0,35.488,14.313,35.488,31.807v448.387
	c0,17.494,14.313,31.807,31.807,31.807h198.828c17.494,0,31.807-14.313,31.807-31.807V31.807C297.929,14.313,283.616,0,266.122,0z
	 M64.782,50.22c0-11.524,9.342-20.867,20.867-20.867h58.517c11.525,0,20.867,9.342,20.867,20.867s-9.342,20.867-20.867,20.867
	H85.649C74.124,71.087,64.782,61.745,64.782,50.22z"/>
<path style="fill:#ED5A5A;" d="M66.395,480.193V58.27c-1.037-2.478-1.613-5.196-1.613-8.05s0.576-5.572,1.613-8.05V31.807
	C66.395,14.313,80.708,0,98.202,0H67.294C49.801,0,35.488,14.313,35.488,31.807v448.387c0,17.494,14.313,31.807,31.807,31.807
	h30.907C80.708,512,66.395,497.687,66.395,480.193z"/>
<path style="fill:#F94A46;" d="M230.084,483.447H103.332c-6.799,0-12.363,5.563-12.363,12.363V512h151.478v-16.19
	C242.447,489.01,236.884,483.447,230.084,483.447z"/>
<path style="fill:#EA3939;" d="M134.239,483.447h-30.907c-6.799,0-12.363,5.563-12.363,12.363V512h30.907v-16.19
	C121.876,489.01,127.44,483.447,134.239,483.447z"/>
<circle style="fill:#F94A46;" cx="166.71" cy="161.14" r="34.18"/>
<path style="fill:#EA3939;" d="M166.708,161.138c-6.325-10.956-5.888-23.953,0.002-34.18c-5.811-0.006-11.7,1.461-17.095,4.576
	c-16.35,9.44-21.952,30.347-12.512,46.697s30.346,21.952,46.697,12.512c5.394-3.114,9.61-7.481,12.51-12.517
	C184.508,178.214,173.034,172.094,166.708,161.138z"/>
<g>
</g>
<g>
</g>
<g>
</g>
<g>
</g>
<g>
</g>
<g>
</g>
<g>
</g>
<g>
</g>
<g>
</g>
<g>
</g>
<g>
</g>
<g>
</g>
<g>
</g>
<g>
</g>
<g>
</g>
</svg>
