<?xml version="1.0" encoding="iso-8859-1"?>
<!-- Generator: Adobe Illustrator 19.0.0, SVG Export Plug-In . SVG Version: 6.00 Build 0)  -->
<svg version="1.1" id="Capa_1" xmlns="http://www.w3.org/2000/svg" xmlns:xlink="http://www.w3.org/1999/xlink" x="0px" y="0px"
	 viewBox="0 0 512 512" style="enable-background:new 0 0 512 512;" xml:space="preserve">
<path style="fill:#EFEFEF;" d="M396.126,505.497c-8.862-41.122-7.668-59.102-21.789-83.561
	C333.809,351.731,140.186,16.335,138.862,14.042C131.11,0.614,113.939-3.987,100.511,3.766l0,0
	C87.082,11.519,82.482,28.69,90.234,42.118c0.103,0.178,36.948,64.035,37.023,64.165
	c210.538,360.598,197.056,350.51,221.414,371.383l38.509,32.996C391.111,514.031,397.07,510.546,396.126,505.497z"/>
<path style="fill:#DDDDDD;" d="M391.023,478.204c-13.241-12.349-28.599-21.085-41.623-43.643
	c-1.288-2.231-194.865-337.548-235.475-407.894c-4.901-8.488-4.86-18.47-0.779-26.625c-20.678,1.016-33.504,23.73-22.912,42.076
	c0.103,0.178,36.948,64.035,37.023,64.165c210.538,360.598,197.056,350.51,221.414,371.383l38.509,32.996
	c3.933,3.371,9.893-0.098,8.945-5.164L391.023,478.204z"/>
<path style="fill:#EFEFEF;" d="M115.905,505.497c8.862-41.122,7.668-59.102,21.789-83.561
	c40.529-70.205,234.152-405.601,235.475-407.894c7.753-13.428,24.924-18.029,38.352-10.276l0,0
	c13.428,7.753,18.029,24.923,10.276,38.352c-0.103,0.178-36.948,64.035-37.023,64.165
	C174.236,466.881,187.718,456.793,163.36,477.666l-38.509,32.996c-1.647,1.411-3.65,1.612-5.355,1.008
	c-0.259-0.092-0.511-0.201-0.754-0.33c-0.063-0.033-0.131-0.058-0.192-0.094c-0.062-0.036-0.117-0.082-0.178-0.12
	c-0.233-0.146-0.453-0.309-0.663-0.488C116.333,509.464,115.506,507.629,115.905,505.497z"/>
<path style="fill:#DDDDDD;" d="M162.533,434.715C203.061,364.511,396.687,29.11,398.007,26.822
	c4.967-8.603,13.8-13.574,23.037-14.004c-11.123-17.204-37.176-17.308-47.876,1.225c-1.323,2.292-194.946,337.689-235.475,407.894
	c-6.034,10.451-10.25,21.851-12.468,33.713l-9.321,49.848c-0.399,2.132,0.429,3.967,1.805,5.141c0.21,0.179,0.43,0.342,0.663,0.488
	c0.06,0.038,0.116,0.084,0.178,0.12c0.061,0.036,0.129,0.06,0.192,0.094c0.243,0.128,0.494,0.238,0.754,0.33
	c1.705,0.604,3.708,0.404,5.355-1.008l20.622-17.669C149.619,475.003,149.482,457.32,162.533,434.715z"/>
<rect x="111.544" y="60.488" transform="matrix(0.866 -0.5 0.5 0.866 -17.0432 79.3901)" style="fill:#CCCCCC;" width="56.149" height="22.02"/>
<g>
	<path style="fill:#BABABA;" d="M134.252,61.874l-24.459,14.121c18.017,31.206,7.518,13.022,11.012,19.072l24.458-14.121
		L134.252,61.874z"/>
	<path style="fill:#BABABA;" d="M169.433,66.992l-48.628,28.075c4.263,7.396,7.563,13.121,14.187,24.613l48.645-28.085
		L169.433,66.992z"/>
</g>
<path style="fill:#898989;" d="M159.451,105.559c-5.318-9.226-8.867-15.383-14.187-24.613l-24.458,14.121
	c4.274,7.415,7.55,13.098,14.187,24.613L159.451,105.559z"/>
<rect x="344.332" y="60.478" transform="matrix(-0.866 -0.5 0.5 -0.866 659.173 319.6054)" style="fill:#CCCCCC;" width="56.149" height="22.02"/>
<g>
	<path style="fill:#BABABA;" d="M366.761,80.943l11.012-19.072l-24.163-13.95c-3.799,6.58-7.052,12.214-11.012,19.072
		L366.761,80.943z"/>
	<path style="fill:#BABABA;" d="M342.598,66.992l48.628,28.075c-4.263,7.396-7.563,13.121-14.187,24.613l-48.645-28.085
		L342.598,66.992z"/>
</g>
<path style="fill:#898989;" d="M342.598,66.992c-8.043,13.931-6.31,10.929-14.204,24.603l24.163,13.95l14.204-24.603L342.598,66.992
	z"/>
<path style="fill:#CCCCCC;" d="M352.616,481.045l34.565,29.617c3.903,3.345,9.895-0.087,8.945-5.165l-8.366-44.743L352.616,481.045z
	"/>
<path style="fill:#BABABA;" d="M391.023,478.204l-13.48-11.55l-24.927,14.391c37.068,31.761,35.268,30.863,37.91,30.943
	c2.789,0.086,5.43-2.029,5.68-4.967C396.324,505.636,396.237,506.479,391.023,478.204z"/>
<path style="fill:#CCCCCC;" d="M159.415,481.045l-34.565,29.617c-1.647,1.411-3.65,1.612-5.355,1.008
	c-0.259-0.092-0.511-0.201-0.754-0.33c-0.063-0.033-0.131-0.058-0.192-0.093c-0.062-0.036-0.117-0.082-0.177-0.12
	c-0.233-0.146-0.453-0.309-0.663-0.488c-1.376-1.174-2.203-3.009-1.805-5.141l8.366-44.743L159.415,481.045z"/>
<path style="fill:#BABABA;" d="M121.505,511.988c0.045-0.001,0.089-0.01,0.134-0.013c0.307-0.017,0.615-0.066,0.921-0.139
	c0.235-0.056,0.468-0.13,0.699-0.221c0.201-0.079,0.399-0.172,0.595-0.279c0.216-0.117,0.428-0.252,0.635-0.404
	c0.121-0.089,0.244-0.17,0.362-0.271c1.988-1.704,18.713-16.034,20.622-17.669l3.375-18.049l-24.576-14.189l-8.366,44.742
	c-0.099,0.528-0.121,1.038-0.08,1.524c0.021,0.25,0.059,0.493,0.113,0.73c0.053,0.232,0.122,0.458,0.204,0.676
	c0.329,0.872,0.88,1.624,1.568,2.211c0.209,0.179,0.43,0.342,0.663,0.488c0.032,0.02,0.063,0.041,0.094,0.064
	c0.027,0.019,0.054,0.039,0.083,0.056c0.061,0.036,0.129,0.06,0.192,0.094c0.243,0.128,0.494,0.238,0.754,0.33
	C120.135,511.896,120.816,512.01,121.505,511.988z"/>
<g>
</g>
<g>
</g>
<g>
</g>
<g>
</g>
<g>
</g>
<g>
</g>
<g>
</g>
<g>
</g>
<g>
</g>
<g>
</g>
<g>
</g>
<g>
</g>
<g>
</g>
<g>
</g>
<g>
</g>
</svg>
