<?xml version="1.0" encoding="iso-8859-1"?>
<!-- Generator: Adobe Illustrator 19.0.0, SVG Export Plug-In . SVG Version: 6.00 Build 0)  -->
<svg version="1.1" id="Capa_1" xmlns="http://www.w3.org/2000/svg" xmlns:xlink="http://www.w3.org/1999/xlink" x="0px" y="0px"
	 viewBox="0 0 512 512" style="enable-background:new 0 0 512 512;" xml:space="preserve">
<path style="fill:#EFEFEF;" d="M498.779,118.614H13.328c-7.305,0-13.282,5.977-13.282,13.282c0,0.244,0,9.442,0,9.316
	c0,0.104,0,1.134,0,1.03c0,0.108,0,12.614,0,12.362c0,0.225,0,9.375,0,9.271c0,10.927-0.103,10.302,0,10.302
	c0,0.166,0,20.125,0,19.859c0,0.225,0,9.375,0,9.271c0,0.104,0,1.134,0,1.03c0,0.225,0,9.376,0,9.271c0,7.893,0,168.894,0,159.866
	c0,10.952,8.96,19.912,19.912,19.912h472.505c10.745,0,19.537-8.792,19.537-19.537c0-16.255,0-258.019,0-241.91v-0.104
	C512.001,124.564,506.051,118.614,498.779,118.614z"/>
<path style="fill:#DDDDDD;" d="M71.128,373.475c0-37.076,0-206.492,0-241.534v-0.045c0-7.305,5.977-13.282,13.282-13.282H13.329
	c-7.305,0-13.282,5.977-13.282,13.282c0,0.244,0,9.442,0,9.316c0,0.104,0,1.134,0,1.03c0,0.108,0,12.614,0,12.362
	c0,0.225,0,9.375,0,9.271c0,10.927-0.103,10.302,0,10.302c0,0.166,0,20.125,0,19.859c0,0.225,0,9.375,0,9.271
	c0,0.104,0,1.134,0,1.03c0,0.225,0,9.376,0,9.271c0,7.893,0,168.894,0,159.866c0,10.952,8.96,19.912,19.912,19.912H91.04
	C80.088,393.388,71.128,384.427,71.128,373.475z"/>
<path style="fill:#CCCCCC;" d="M491.592,341.162h-27.966v-8.202h27.966c4.267,0,7.726-3.459,7.726-7.726
	c0-18.284,0-135.488,0-154.656c0-4.267-3.459-7.726-7.726-7.726c-12.669,0-115.826,0-128.491,0h-42.83h-42.83h-42.83H191.78h-42.83
	c-12.669,0-115.826,0-128.491,0c-4.267,0-7.726,3.459-7.726,7.726c0,92.433,0,116.372,0,201.965c0,4.268,3.459,7.726,7.726,7.726
	c10.982,0,324.232,0,342.643,0c4.267,0,7.726-3.459,7.726-7.726v-39.582c15.692,0,26.765,0,41.655,0v8.202h-27.965
	c-4.267,0-7.726,3.459-7.726,7.726v23.654c0,4.268,3.459,7.726,7.726,7.726c13.696,0,94.196,0,107.076,0
	c4.267,0,7.726-3.459,7.726-7.726v-23.654C499.318,344.62,495.858,341.162,491.592,341.162z M483.865,317.507
	c-8.908,0-61.385,0-70.208,0v-27.736c25.558,0,27.364,0,70.208,0V317.507z M363.1,274.319h-13.689v-27.735H363.1h13.689v27.735
	H363.1z M355.374,317.507h-27.378v-27.736c9.575,0,17.803,0,27.378,0V317.507z M285.165,317.507v-27.736c9.575,0,17.803,0,27.378,0
	v27.736H285.165z M242.335,317.507v-27.736h13.689h13.689v27.736H242.335z M199.504,317.507v-27.736h13.689h13.689v27.736H199.504z
	 M156.674,317.507v-27.736h13.689h13.689v27.736H156.674z M28.183,317.507v-27.736c42.817,0,44.648,0,70.208,0v27.736
	C89.866,317.507,36.739,317.507,28.183,317.507z M435.072,246.585c12.588,0,37.423,0,48.793,0v27.735h-48.793V246.585z
	 M483.865,231.132h-27.378v-27.736h27.378V231.132z M441.035,231.132c-9.575,0-17.803,0-27.378,0v-27.736h27.378V231.132z
	 M398.204,231.132h-13.689h-13.689v-27.736h27.378V231.132z M355.374,231.132h-13.689h-13.689v-27.736h27.378V231.132z
	 M333.958,274.319h-13.689H306.58v-27.735h13.689h13.689V274.319z M277.439,274.319H263.75v-27.735h13.689h13.689v27.735H277.439z
	 M234.609,274.319H220.92v-27.735h13.689h13.689v27.735H234.609z M191.778,274.319h-13.689v-27.735h13.689h13.689v27.735H191.778z
	 M135.259,274.319v-27.735c9.575,0,17.803,0,27.378,0v27.735C153.062,274.319,144.834,274.319,135.259,274.319z M92.428,274.319
	v-27.735c9.575,0,17.803,0,27.379,0v27.735C110.231,274.319,102.003,274.319,92.428,274.319z M28.183,274.319v-27.735
	c11.647,0,36.33,0,48.793,0v27.735H28.183z M312.543,231.132h-13.689h-13.689v-27.736h27.378V231.132z M269.713,231.132h-13.689
	h-13.689v-27.736h27.378V231.132z M226.883,231.132h-13.689h-13.689v-27.736h27.378L226.883,231.132L226.883,231.132z
	 M184.052,231.132h-13.689h-13.689v-27.736h27.378L184.052,231.132L184.052,231.132z M141.222,231.132c-9.575,0-17.803,0-27.378,0
	v-27.736h27.378V231.132z M98.391,231.132c-9.575,0-17.803,0-27.378,0v-27.736h27.378V231.132z M55.561,231.132H28.183v-27.736
	h27.378V231.132z M113.843,289.772c9.575,0,17.803,0,27.378,0v27.736h-27.378V289.772z M392.242,246.585h13.689h13.689v27.735
	h-13.689h-13.689V246.585z M483.865,187.944h-27.378v-9.641h27.378V187.944z M441.035,187.944h-27.378v-9.641h27.378V187.944z
	 M398.204,187.944h-27.378v-9.641h27.378V187.944z M355.374,187.944h-27.378v-9.641h27.378V187.944z M312.543,187.944h-27.378
	v-9.641h27.378V187.944z M269.713,187.944h-27.378v-9.641h27.378V187.944z M226.883,187.944h-27.378v-9.641h27.378V187.944z
	 M184.052,187.944h-27.378v-9.641h27.378V187.944z M141.222,187.944h-27.378v-9.641h27.378V187.944z M98.391,187.944H71.013v-9.641
	h27.378V187.944z M28.183,178.304h27.378v9.641H28.183V178.304z M28.183,332.96h27.378v31.856H28.183V332.96z M71.013,332.96h27.378
	v31.856H71.013V332.96z M113.843,332.96h27.378v31.856h-27.378V332.96z M355.374,364.816h-198.7V332.96c42.143,0,160.325,0,198.7,0
	V364.816z M370.826,289.772c9.575,0,17.803,0,27.378,0v27.736h-27.378V289.772z M448.173,332.96v8.202h-20.24v-8.202H448.173z
	 M392.242,356.614h20.239v8.202h-20.239V356.614z M427.933,356.614h20.24v8.202h-20.24V356.614z M483.865,364.816h-20.24v-8.202
	h20.24V364.816z"/>
<path style="fill:#BABABA;" d="M71.128,364.816h-0.114V332.96h0.114v-15.452c-8.445,0-28.186,0-42.945,0v-27.736h42.945
	c0-5.357,0-10.1,0-15.452H28.183v-27.735c14.696,0,34.552,0,42.945,0v-15.452h-0.114v-27.736h0.114c0-5.754,0-9.693,0-15.452h-0.114
	v-9.641h0.114c0-4.437,0-10.335,0-15.452c-10.42,0-40.068,0-50.671,0c-4.267,0-7.726,3.459-7.726,7.726
	c0,92.433,0,116.372,0,201.965c0,4.268,3.459,7.726,7.726,7.726c22.615,0,28.205,0,51.897,0c-0.779-2.125-1.226-4.407-1.226-6.793
	C71.128,373.236,71.128,364.355,71.128,364.816z M28.183,178.304h27.378v9.641H28.183V178.304z M28.183,203.397h27.378v27.736
	H28.183V203.397z M55.561,364.816H28.183V332.96h27.378V364.816z"/>
<g>
</g>
<g>
</g>
<g>
</g>
<g>
</g>
<g>
</g>
<g>
</g>
<g>
</g>
<g>
</g>
<g>
</g>
<g>
</g>
<g>
</g>
<g>
</g>
<g>
</g>
<g>
</g>
<g>
</g>
</svg>
