<?xml version="1.0" encoding="iso-8859-1"?>
<!-- Generator: Adobe Illustrator 19.0.0, SVG Export Plug-In . SVG Version: 6.00 Build 0)  -->
<svg version="1.1" id="Capa_1" xmlns="http://www.w3.org/2000/svg" xmlns:xlink="http://www.w3.org/1999/xlink" x="0px" y="0px"
	 viewBox="0 0 512 512" style="enable-background:new 0 0 512 512;" xml:space="preserve">
<path style="fill:#EFEFEF;" d="M498.245,162.931h-0.296c-1.68-0.509-85.218-0.376-90.11-0.396h-13.274c-52.869,0-71.298,0-124.841,0
	v0.396c-7.123,0-20.306,0-27.45,0v-0.396c-0.493,0-237.165,0-225.558,0c-0.849,0-1.85,0.149-2.666,0.396h-0.296
	c-3.454,0-6.254,2.8-6.254,6.254c0,0.106,0,2.725,0,2.565c0,11.598,0,148.637,0,146.625c0,0.102,0,24.801,0,23.896v0.542
	c0,3.454,2.8,6.254,6.254,6.254h0.296c1.898,0.576,164.999,0.396,228.224,0.396v-0.396c14.29,0,18.905,0,27.45,0v0.396
	c7.625,0.009,225.957,0.287,228.225-0.396h0.296c3.454,0,6.254-2.8,6.254-6.254c0-11.249,0-152.366,0-148.927c0-0.1,0-0.364,0-0.264
	c0-0.135,0-24.702,0-24.438C504.5,165.731,501.699,162.931,498.245,162.931z"/>
<path style="fill:#DDDDDD;" d="M74.859,349.069h-0.296c-3.454,0-6.254-2.8-6.254-6.254c0-0.106,0-2.725,0-2.565
	c0-0.623,0-23.56,0-22.136c0-0.1,0-0.496,0-0.396c0-16.446,0-152.994,0-148.531c0-3.454,2.8-6.254,6.254-6.254h0.296
	c0.816-0.248,1.817-0.396,2.666-0.396c-65.961,0-61.512-0.199-63.474,0.396h-0.296c-3.454,0-6.254,2.8-6.254,6.254
	c0,0.108,0,2.693,0,2.57c0,5.859,0,149.436,0,146.621c0,0.102,0,24.801,0,23.896v0.542c0,3.454,2.8,6.254,6.254,6.254h0.296
	c3.057,0.928,5.108,0.045,63.474,0.396C76.674,349.465,75.673,349.316,74.859,349.069z"/>
<path style="fill:#CCCCCC;" d="M495.354,155.43c-28.894,0-505.353,0-481.598,0C6.158,155.43,0,161.589,0,169.185
	c0,0.1,0,184.856,0,173.087c0,7.895,6.4,14.297,14.297,14.297c47.699,0,500.696,0,481.06,0c8.961,0,16.643-6.856,16.643-16.32
	c0-52.452,0-114.253,0-168.494C512,162.273,504.301,155.43,495.354,155.43z M254.471,170.431h19.171v15.956h-19.171L254.471,170.431
	L254.471,170.431z M257.522,232.345v15.956c-7.267,0-13.712,0-20.978,0v-15.956C243.829,232.345,250.085,232.345,257.522,232.345z
	 M162.989,294.259c8.456,0,15.721,0,24.175,0v15.956h-24.175V294.259z M145.266,279.258v-15.956h11.822h10.489v15.956
	C162.145,279.258,151.047,279.258,145.266,279.258z M182.577,279.258v-15.956h10.489h11.822v15.956
	C199.105,279.258,188.007,279.258,182.577,279.258z M202.165,294.259c8.746,0,15.723,0,24.175,0v15.956h-24.175V294.259z
	 M219.887,279.258v-15.956c8.233,0,14.569,0,22.31,0v15.956C234.465,279.258,227.616,279.258,219.887,279.258z M220.298,170.431
	h19.172v15.956h-19.172V170.431z M220.298,201.388h19.172v15.956c-4.698,0-14.213,0-19.172,0V201.388z M221.543,232.345v15.956
	c-2.966,0-18.009,0-20.977,0v-15.956C207.574,232.345,213.409,232.345,221.543,232.345z M185.864,170.431h19.171v15.956h-19.171
	V170.431z M185.864,201.388h19.171v15.956c-6.635,0-12.516,0-19.171,0V201.388z M185.565,232.345v15.956h-10.489h-10.489v-15.956
	C172.122,232.345,177.891,232.345,185.565,232.345z M151.692,170.431h19.172v15.956h-19.172V170.431z M151.692,201.388h19.172
	v15.956c-4.483,0-14.742,0-19.172,0V201.388z M149.587,232.345v15.956h-11.822h-9.157v-15.956h15.582H149.587z M117.519,170.431
	h19.172v15.956h-19.172V170.431z M117.519,201.388h19.172v15.956h-15.583h-3.589V201.388z M113.608,232.345v15.956h-13.154h-7.823
	v-15.956h17.388H113.608z M83.346,170.431h19.171v15.956H83.346V170.431z M83.346,201.388h19.171v15.956H85.13h-1.784V201.388z
	 M77.63,232.345v15.956c-4.135,0-16.849,0-20.977,0v-15.956C59.538,232.345,72.011,232.345,77.63,232.345z M49.174,170.431h19.171
	v15.956H49.174C49.174,186.387,49.174,170.431,49.174,170.431z M49.174,201.388h19.171v15.956H49.174
	C49.174,217.344,49.174,201.388,49.174,201.388z M15.001,170.431h19.172v15.956H15.001V170.431z M15.001,201.388h19.172v15.956
	H15.001V201.388z M15.001,232.345h26.651v15.956H15.001V232.345z M15.001,263.302c14.642,0,26.107,0,40.642,0v15.956H15.001V263.302
	z M36.521,341.569h-21.52v-15.956h21.52C36.521,325.613,36.521,341.569,36.521,341.569z M15.001,310.215v-15.956
	c8.43,0,48.32,0,54.633,0v15.956H15.001z M73.041,341.569H51.522v-15.956h21.519V341.569z M70.644,279.258v-15.956H85.13h7.823
	v15.956C84.225,279.258,74.525,279.258,70.644,279.258z M84.635,294.259c8.378,0,15.841,0,24.175,0v15.956H84.635V294.259z
	 M109.562,341.569H88.042v-15.956h21.519V341.569z M107.955,279.258v-15.956h13.154h9.157v15.956
	C122.543,279.258,115.701,279.258,107.955,279.258z M123.813,294.259c8.466,0,15.422,0,24.175,0v15.956h-24.175
	C123.813,310.215,123.813,294.259,123.813,294.259z M234.774,341.965h-109.84v-16.749c33.911,0,77.002,0,109.84,0L234.774,341.965
	L234.774,341.965z M271.294,341.569h-21.519v-15.956h21.519L271.294,341.569L271.294,341.569z M307.816,341.569h-21.519v-15.956
	h21.519V341.569z M307.816,310.215c-6.966,0-59.565,0-66.474,0v-15.956c9.983,0,55.5,0,66.474,0V310.215z M307.816,279.258h-50.617
	v-15.956c10.385,0,40.024,0,50.617,0V279.258z M307.816,248.301h-35.292v-15.956h35.292V248.301z M307.816,217.344
	c-6.619,0-46.605,0-53.344,0v-15.956c16.969,0,36.375,0,53.344,0V217.344z M307.816,186.387h-19.172v-15.956h19.172V186.387z
	 M415.339,170.034h19.197v16.088h-19.197L415.339,170.034L415.339,170.034z M415.339,201.123h19.197v16.089h-19.197L415.339,201.123
	L415.339,201.123z M415.339,232.213h19.197v16.088h-19.197L415.339,232.213L415.339,232.213z M381.141,170.034h19.197v16.088
	h-19.197L381.141,170.034L381.141,170.034z M381.141,201.124h19.197v16.088h-19.197L381.141,201.124L381.141,201.124z
	 M381.141,232.213h19.197v16.088h-19.197L381.141,232.213L381.141,232.213z M346.943,170.034h19.197v16.088h-19.197V170.034z
	 M346.943,201.124h19.197v16.088h-19.197V201.124z M346.943,232.213h19.197v16.088h-19.197V232.213z M366.14,341.965h-19.197
	v-16.749h19.197L366.14,341.965L366.14,341.965z M400.338,341.965h-19.197v-16.749h19.197L400.338,341.965L400.338,341.965z
	 M400.338,310.215h-19.197v-16.748h19.197L400.338,310.215L400.338,310.215z M434.536,341.965h-19.197v-16.749h19.197V341.965z
	 M457.536,341.965h-7.998v-24.249c0-4.143-3.358-7.5-7.5-7.5h-26.698v-24.248c0-4.142-3.358-7.5-7.5-7.5h-34.198
	c-4.142,0-7.5,3.358-7.5,7.5v24.248h-26.698c-4.142,0-7.5,3.357-7.5,7.5v24.249h-9.126c0-18.684,0-153.57,0-171.93h9.126
	c0,9.928,0,74.763,0,85.767c0,4.143,3.358,7.5,7.5,7.5h34.198c18.536,0,57.479,0,68.396,0c4.142,0,7.5-3.357,7.5-7.5
	c0-10.897,0-75.861,0-85.767h7.998C457.536,196.269,457.536,322.573,457.536,341.965z M496.999,340.249
	c0,0.946-0.77,1.716-1.716,1.716h-22.746v-48.498h24.462C496.999,307.291,496.999,325.956,496.999,340.249z M496.999,278.466
	h-24.462v-15.098h24.462V278.466z M496.999,248.368h-24.462V232.28h24.462C496.999,237.906,496.999,242.741,496.999,248.368z
	 M496.999,217.212h-24.462v-16.088h24.462V217.212z M496.999,186.122h-24.462v-16.088h22.742c0.948,0,1.72,0.771,1.72,1.72V186.122z
	"/>
<path style="fill:#BABABA;" d="M68.345,342.273v-0.704H51.522v-15.956h16.824c0-14.73,0-14.037,0-15.398H15.001v-15.956
	c15.181,0,37,0,53.344,0c0-19.849,0-25.614,0-45.958c-4.374,0-7.405,0-11.693,0v-15.956h11.693c0-5.246,0-9.755,0-15.001H49.174
	v-15.956h19.171c0-5.246,0-9.755,0-15.001H49.174v-15.956h19.171v-1.246c0-7.596,6.158-13.755,13.755-13.755
	c-23.644,0-43.736,0-68.345,0C6.158,155.43,0,161.589,0,169.185c0,17.18,0,151.395,0,173.087c0,7.895,6.4,14.297,14.297,14.297
	c16.09,0,51.334,0,68.345,0C74.747,356.57,68.345,350.168,68.345,342.273z M15.001,170.431h19.172v15.956H15.001V170.431z
	 M15.001,201.388h19.172v15.956H15.001V201.388z M15.001,232.345h26.651v15.956H15.001V232.345z M15.001,263.302
	c14.642,0,26.107,0,40.642,0v15.956H15.001V263.302z M36.521,341.569h-21.52v-15.956h21.52
	C36.521,325.613,36.521,341.569,36.521,341.569z"/>
<g>
</g>
<g>
</g>
<g>
</g>
<g>
</g>
<g>
</g>
<g>
</g>
<g>
</g>
<g>
</g>
<g>
</g>
<g>
</g>
<g>
</g>
<g>
</g>
<g>
</g>
<g>
</g>
<g>
</g>
</svg>
