<?xml version="1.0" encoding="iso-8859-1"?>
<!-- Generator: Adobe Illustrator 19.0.0, SVG Export Plug-In . SVG Version: 6.00 Build 0)  -->
<svg version="1.1" id="Capa_1" xmlns="http://www.w3.org/2000/svg" xmlns:xlink="http://www.w3.org/1999/xlink" x="0px" y="0px"
	 viewBox="0 0 512 512" style="enable-background:new 0 0 512 512;" xml:space="preserve">
<path style="fill:#EFEFEF;" d="M115.2,480.52c5.778,17.625,22.412,31.48,41.903,31.48h253.359c19.493,0,36.125-13.855,41.903-31.48
	L115.2,480.52L115.2,480.52z"/>
<path style="fill:#DDDDDD;" d="M176.995,480.52H115.2c5.778,17.625,22.412,31.48,41.903,31.48h61.795
	C199.406,512,182.773,498.145,176.995,480.52z"/>
<path style="fill:#EFEFEF;" d="M383.654,1.645C374.603-0.177,68.625-0.954,55.641,1.808l0,0c-3.145,0.665-6.256,1.544-9.827,2.864
	l0,0c-8.365,3.125-15.973,7.825-22.384,13.589l0,0C9.332,30.867,0.402,48.867,0.083,70.382c0,19.992,0,286.876,0,299.71
	c0,20.036,8.615,38.879,23.347,52.105l0,0c4.148,3.728,8.816,7.036,13.876,9.738l0,0c10.505,5.623,21.842,8.251,32.872,8.251l0,0
	c24.488,0,154.932,0,171.525,0l0,0c140.389-0.033,133.889,1.101,148.555-3.047c23.597-7.211,41.653-26.614,47.553-49.774
	c3.074-12.01,2.172,10.252,2.172-317C439.983,38.049,417.253,8.411,383.654,1.645z"/>
<path style="fill:#DDDDDD;" d="M99.1,431.935L99.1,431.935c-5.006-2.673-9.685-5.97-13.875-9.738l0,0
	c-10.851-9.743-18.91-23.116-21.977-38.364c-2.243-11.15-1.268-1.166-1.37-261.238c-0.151-58.843,0.052-56.41,0.408-59.715
	c0.033-0.107,1.148-25.136,22.939-44.621l0,0c6.772-6.087,14.456-10.627,22.384-13.589l0,0c3.541-1.309,6.713-2.206,9.827-2.864l0,0
	c4.632-0.986,9.563-1.537,14.537-1.537C73.321,0.977,68.854-1.003,55.641,1.808l0,0c-3.146,0.665-6.257,1.544-9.827,2.864l0,0
	c-8.365,3.125-15.973,7.825-22.384,13.589l0,0C11.327,29.082,2.417,44.807,0.492,62.874c0.005-0.103-0.409-14.547-0.409,307.217
	c0,20.036,8.615,38.879,23.347,52.105l0,0c4.148,3.728,8.816,7.036,13.876,9.738l0,0c10.531,5.637,21.867,8.251,32.872,8.251l0,0
	h61.794C120.625,440.187,109.32,437.406,99.1,431.935z"/>
<path style="fill:#CCCCCC;" d="M267.86,203.304c1.364-0.942,1.495-2.875,0.247-3.966c-11.176-9.784-26.964-11.697-39.972-5.384
	l-0.001-0.001c-0.001,0-0.001,0.001-0.001,0.001l-0.001-0.001c-4.856,2.532-8.407,2.532-13.278-0.123v0.001l-0.001-0.001
	l-0.001,0.001c-23.437-11.921-51.691,4.269-53.031,30.733c-3.221,34.387,24.235,63.803,24.255,63.825
	c4.569,5.391,11.954,6.848,18.043,4.132l0.001,0.002c0.379-0.08,15.021-7.996,32.043-0.102c0.104,0.048,0.981,0.455,0.877,0.407
	l0.001-0.002c5.97,2.797,13.41,1.552,18.116-3.798c0.013-0.014,11.872-12.27,19.442-30.319c0.533-1.271-0.061-2.722-1.332-3.255
	C251.546,246.332,248.41,216.746,267.86,203.304z"/>
<path style="fill:#BABABA;" d="M213.754,193.31c-23.456-10.962-50.624,5.399-51.931,31.253
	c-3.221,34.387,24.235,63.803,24.255,63.825c3.581,4.226,9.157,6.293,14.823,5.151c1.172-0.24,2.292-0.606,3.22-1.02l0.001,0.002
	c0.653-0.228,5.51-2.932,13.45-3.5C191.298,261.317,179.098,209.53,213.754,193.31z"/>
<g>
	<path style="fill:#CCCCCC;" d="M217.886,183.391c0.264,1.554,1.864,2.95,3.44,2.998c21.527,0.666,35.781-15.681,32.183-36.922
		c-0.263-1.554-1.864-2.95-3.44-2.998C228.545,145.803,214.286,162.149,217.886,183.391z"/>
	<path style="fill:#CCCCCC;" d="M498.383,481.55H69.183c-7.444,0-13.534-6.09-13.534-13.534v-69.342
		c0-7.444,6.09-13.534,13.534-13.534h429.201c7.444,0,13.534,6.09,13.534,13.534v69.342
		C511.917,475.46,505.827,481.55,498.383,481.55z"/>
</g>
<path style="fill:#BABABA;" d="M117.444,468.016v-69.342c0-7.444,6.09-13.534,13.534-13.534H69.183
	c-7.444,0-13.534,6.09-13.534,13.534v69.342c0,7.444,6.09,13.534,13.534,13.534h61.795
	C123.534,481.55,117.444,475.46,117.444,468.016z"/>
<path style="fill:#666666;" d="M452.366,422.413H115.2c-4.266,0-7.724-3.458-7.724-7.724c0-4.267,3.458-7.724,7.724-7.724h337.167
	c4.266,0,7.724,3.458,7.724,7.724S456.633,422.413,452.366,422.413z"/>
<g>
</g>
<g>
</g>
<g>
</g>
<g>
</g>
<g>
</g>
<g>
</g>
<g>
</g>
<g>
</g>
<g>
</g>
<g>
</g>
<g>
</g>
<g>
</g>
<g>
</g>
<g>
</g>
<g>
</g>
</svg>
