<?xml version="1.0" encoding="iso-8859-1"?>
<!-- Generator: Adobe Illustrator 19.0.0, SVG Export Plug-In . SVG Version: 6.00 Build 0)  -->
<svg version="1.1" id="Capa_1" xmlns="http://www.w3.org/2000/svg" xmlns:xlink="http://www.w3.org/1999/xlink" x="0px" y="0px"
	 viewBox="0 0 512.001 512.001" style="enable-background:new 0 0 512.001 512.001;" xml:space="preserve">
<path style="fill:#898989;" d="M340.54,10.385c-48.816-13.744-119.537-13.948-169.078,0c-19.108,4.306-70.484,21.351-70.484,80.168
	v330.896c0,58.817,51.377,75.862,70.484,80.168c48.816,13.744,119.537,13.948,169.078,0c19.108-4.306,70.485-21.351,70.485-80.168
	V90.553C411.024,31.736,359.647,14.691,340.54,10.385z"/>
<path style="fill:#777777;" d="M202.369,501.617c-19.108-4.306-70.484-21.351-70.484-80.168V90.553
	c0-58.817,51.377-75.862,70.484-80.168c19.289-5.431,43.055-9.033,69.085-10.067c-39.919-1.586-74.955,3.018-99.993,10.067
	c-19.108,4.306-70.484,21.351-70.484,80.168v330.896c0,58.817,51.377,75.862,70.484,80.168c25.03,7.047,60.065,11.653,99.993,10.067
	C245.424,510.65,221.659,507.047,202.369,501.617z"/>
<path style="fill:#666666;" d="M286.168,437.269h-63.42c-16.267,0-29.576-13.309-29.576-29.576V167.051
	c0-16.267,13.309-29.576,29.576-29.576h63.42c16.267,0,29.576,13.309,29.576,29.576v240.641
	C315.745,423.959,302.435,437.269,286.168,437.269z"/>
<g>
	<path style="fill:#535454;" d="M227.999,407.692V167.051c0-16.267,13.309-29.576,29.576-29.576h-34.826
		c-16.267,0-29.576,13.309-29.576,29.576v240.641c0,16.267,13.309,29.576,29.576,29.576h34.826
		C241.308,437.269,227.999,423.959,227.999,407.692z"/>
	<path style="fill:#535454;" d="M286.807,359.237h-64.698c-1.368,0-2.477,1.109-2.477,2.477c0,33.327-0.275,31.391,0.728,32.392
		c13.432,13.04,12.897,13.648,14.714,13.648c40.096-0.26,39.145,0.645,40.516-0.723l12.965-12.925
		c0.938-0.935,0.728,1.212,0.728-32.392C289.285,360.346,288.175,359.237,286.807,359.237z"/>
</g>
<path style="fill:#444443;" d="M250.54,392.351c0-6.153,0-24.467,0-30.637c0-1.368,1.109-2.477,2.477-2.477H222.11
	c-1.368,0-2.477,1.109-2.477,2.477v3.091c0,29.603-0.309,28.267,0.728,29.301c13.432,13.04,12.897,13.648,14.714,13.648h30.907
	c-0.656,0-1.284-0.26-1.749-0.723C251.167,393.652,250.54,394.177,250.54,392.351z"/>
<g>
	<path style="fill:#666666;" d="M267.582,389.304c-4.267,0-7.727-3.459-7.727-7.727v-0.318c0-4.268,3.459-7.727,7.727-7.727
		c4.267,0,7.727,3.459,7.727,7.727v0.318C275.308,385.845,271.849,389.304,267.582,389.304z"/>
	<path style="fill:#666666;" d="M241.336,389.304c-4.267,0-7.727-3.459-7.727-7.727v-0.318c0-4.268,3.459-7.727,7.727-7.727
		s7.727,3.459,7.727,7.727v0.318C249.062,385.845,245.603,389.304,241.336,389.304z"/>
</g>
<g>
	<path style="fill:#7E7F7F;" d="M273.575,198.244c-4.267,0-7.727-3.459-7.727-7.727v-0.125c0-4.268,3.459-7.727,7.727-7.727
		c4.267,0,7.727,3.459,7.727,7.727v0.125C281.302,194.785,277.842,198.244,273.575,198.244z"/>
	<path style="fill:#7E7F7F;" d="M235.342,198.244c-4.267,0-7.727-3.459-7.727-7.727v-0.125c0-4.268,3.459-7.727,7.727-7.727
		c4.267,0,7.727,3.459,7.727,7.727v0.125C243.069,194.785,239.61,198.244,235.342,198.244z"/>
	<path style="fill:#7E7F7F;" d="M256.867,338.321h-28.993c-4.267,0-7.727-3.459-7.727-7.727c0-4.268,3.459-7.727,7.727-7.727h28.993
		c4.267,0,7.727,3.459,7.727,7.727S261.134,338.321,256.867,338.321z"/>
	<path style="fill:#7E7F7F;" d="M274.499,329.084c0.744-3.978,4.72-6.922,9.086-6.069c8.34,1.748,8.154,13.463,0,15.155
		C279.841,338.939,273.233,335.148,274.499,329.084z"/>
</g>
<g>
	<path style="fill:#535454;" d="M277.171,303.743h-45.425c-6.662,0-12.114-5.451-12.114-12.114v-6.485
		c0-6.662,5.451-12.114,12.114-12.114h45.425c6.662,0,12.114,5.451,12.114,12.114v6.485
		C289.285,298.292,283.833,303.743,277.171,303.743z"/>
	<path style="fill:#535454;" d="M277.171,249.746h-45.425c-6.662,0-12.114-5.451-12.114-12.114v-6.484
		c0-6.662,5.451-12.114,12.114-12.114h45.425c6.662,0,12.114,5.451,12.114,12.114v6.484
		C289.285,244.294,283.833,249.746,277.171,249.746z"/>
</g>
<g>
	<path style="fill:#444443;" d="M250.54,291.63v-6.485c0-6.662,5.451-12.114,12.114-12.114h-30.907
		c-6.662,0-12.114,5.451-12.114,12.114v6.485c0,6.662,5.451,12.114,12.114,12.114h30.907
		C255.991,303.743,250.54,298.292,250.54,291.63z"/>
	<path style="fill:#444443;" d="M250.54,237.632v-6.484c0-6.662,5.451-12.114,12.114-12.114h-30.907
		c-6.662,0-12.114,5.451-12.114,12.114v6.484c0,6.662,5.451,12.114,12.114,12.114h30.907
		C255.991,249.746,250.54,244.294,250.54,237.632z"/>
</g>
<circle style="fill:#666666;" cx="152.131" cy="152.051" r="14.58"/>
<path style="fill:#535454;" d="M152.422,151.885c-2.661-4.609-2.505-10.06-0.089-14.394c-11.274-0.17-18.492,12.05-12.832,21.854
	c4.026,6.973,12.943,9.363,19.916,5.337c2.364-1.365,4.187-3.299,5.426-5.522C159.882,159.084,155.083,156.494,152.422,151.885z"/>
<ellipse style="fill:#666666;" cx="256.001" cy="60.461" rx="92.53" ry="31.936"/>
<path style="fill:#535454;" d="M179.283,42.599c13.951-2.911,30.307-4.586,47.798-4.586c74.373,0,117.842,28.794,76.718,49.796
	c26.809-5.593,44.731-15.749,44.731-27.35C348.53,28.923,229.987,16.704,179.283,42.599z"/>
<path style="fill:#666666;" d="M103.102,441.057c9.871,43.152,51.571,56.776,68.36,60.56c48.815,13.743,119.536,13.948,169.078,0
	c16.789-3.783,58.489-17.408,68.36-60.56C347.569,486.219,166.452,487.706,103.102,441.057z"/>
<path style="fill:#535454;" d="M271.454,511.684c-26.031-1.034-49.796-4.636-69.085-10.067
	c-14.067-3.17-45.622-13.247-61.292-41.812c-10.96-3.408-24.974-9.175-37.975-18.748l0,0c7.536,32.946,35.545,53.16,68.36,60.559
	C202.249,510.284,239.472,512.739,271.454,511.684z"/>
<g>
</g>
<g>
</g>
<g>
</g>
<g>
</g>
<g>
</g>
<g>
</g>
<g>
</g>
<g>
</g>
<g>
</g>
<g>
</g>
<g>
</g>
<g>
</g>
<g>
</g>
<g>
</g>
<g>
</g>
</svg>
