<?xml version="1.0" encoding="iso-8859-1"?>
<!-- Generator: Adobe Illustrator 19.0.0, SVG Export Plug-In . SVG Version: 6.00 Build 0)  -->
<svg version="1.1" id="Capa_1" xmlns="http://www.w3.org/2000/svg" xmlns:xlink="http://www.w3.org/1999/xlink" x="0px" y="0px"
	 viewBox="0 0 512 512" style="enable-background:new 0 0 512 512;" xml:space="preserve">
<path style="fill:#EFEFEF;" d="M99.367,0C68.131,0,42.808,25.321,42.808,56.557v398.884c0,31.236,25.321,56.557,56.557,56.557
	h134.316V0H99.367z"/>
<path style="fill:#DDDDDD;" d="M73.716,455.442V56.557C73.716,25.321,99.038,0,130.274,0H99.367
	C68.131,0,42.808,25.321,42.808,56.557v398.884c0,31.236,25.321,56.557,56.557,56.557h30.907
	C99.038,512,73.716,486.678,73.716,455.442z"/>
<path style="fill:#666666;" d="M42.808,367.267v88.176C42.808,486.679,68.13,512,99.366,512h134.316V367.267H42.808z"/>
<g>
	<path style="fill:#535454;" d="M73.716,455.442v-88.176H42.808v88.176c0,31.238,25.323,56.557,56.557,56.557h30.907
		C99.038,512,73.716,486.678,73.716,455.442z"/>
	<path style="fill:#535454;" d="M412.939,0h-171.75c-31.067,0-56.252,25.185-56.252,56.252v399.494
		c0,31.067,25.185,56.252,56.252,56.252h171.75c31.067,0,56.252-25.185,56.252-56.252V56.252C469.193,25.185,444.007,0,412.939,0z"
		/>
</g>
<path style="fill:#444443;" d="M212.066,455.747V56.252C212.066,25.185,237.252,0,268.319,0h-27.129
	c-31.068,0-56.253,25.185-56.253,56.252v399.494c0,31.067,25.185,56.252,56.252,56.252h27.129
	C237.252,512,212.066,486.815,212.066,455.747z"/>
<g>
	<circle style="fill:#666666;" cx="327.062" cy="454.967" r="28.867"/>
	<circle style="fill:#666666;" cx="327.062" cy="454.967" r="28.867"/>
</g>
<path style="fill:#5E5E5E;" d="M322.552,426.45c-19.904,3.145-30.647,25.357-20.49,42.951c10.156,17.591,34.764,19.396,47.441,3.731
	C323.418,477.254,305.947,446.971,322.552,426.45z"/>
<path style="fill:#898989;" d="M332.643,463.136h-11.159c-1.426,0-2.592-1.166-2.592-2.592v-11.159c0-1.426,1.166-2.592,2.592-2.592
	h11.159c1.425,0,2.592,1.166,2.592,2.592v11.159C335.235,461.97,334.069,463.136,332.643,463.136z"/>
<path style="fill:#A4D9F4;" d="M433.458,81.445H220.671c-4.813,0-8.715,3.902-8.715,8.715c0,14.204,0,305.345,0,300.08
	c0,4.813,3.902,8.715,8.715,8.715h212.787c4.813,0,8.715-3.902,8.715-8.715c0-6.499,0-284.965,0-289.266V90.16
	C442.174,85.347,438.271,81.445,433.458,81.445z"/>
<path style="fill:#7CC9E8;" d="M240.266,390.24v-10.813c0-4.273,0-282.739,0-289.266c0-4.813,3.902-8.715,8.715-8.715h-28.31
	c-4.813,0-8.716,3.902-8.716,8.715c0,14.605,0,284.567,0,300.08c0,4.813,3.902,8.715,8.716,8.715h28.31
	C244.169,398.955,240.266,395.054,240.266,390.24z"/>
<path style="fill:#666666;" d="M358.014,47.545h-61.898c-4.267,0-7.727-3.46-7.727-7.727s3.46-7.727,7.727-7.727h61.898
	c4.267,0,7.727,3.46,7.727,7.727C365.741,44.085,362.281,47.545,358.014,47.545z"/>
<circle style="fill:#535454;" cx="96.071" cy="53.387" r="13.57"/>
<path style="fill:#444443;" d="M96.073,39.828c-10.348-0.014-17.012,11.245-11.758,20.345c5.255,9.102,18.339,8.954,23.499-0.01
	C97.374,60.148,90.857,48.892,96.073,39.828z"/>
<path style="fill:#EFEFEF;" d="M211.956,90.16c0,10.784,0,20.433,0,31.27h230.218v-20.457V90.16c0-4.813-3.902-8.715-8.715-8.715
	H220.672C215.858,81.445,211.956,85.347,211.956,90.16z"/>
<path style="fill:#DDDDDD;" d="M240.266,90.16c0-4.813,3.902-8.715,8.715-8.715h-28.31c-4.201,0-7.724,2.978-8.539,6.959
	c-0.256,1.249-0.177,32.919-0.177,33.027h28.311C240.266,110.597,240.266,100.944,240.266,90.16z"/>
<path style="fill:#92B620;" d="M264.554,371.884h-20.676c-1.896,0-3.446-1.551-3.446-3.446v-20.676c0-1.896,1.551-3.446,3.446-3.446
	h20.676c1.896,0,3.446,1.551,3.446,3.446v20.676C268,370.333,266.45,371.884,264.554,371.884z"/>
<path style="fill:#70B5E8;" d="M313.23,371.884h-20.676c-1.896,0-3.446-1.551-3.446-3.446v-20.676c0-1.896,1.551-3.446,3.446-3.446
	h20.676c1.896,0,3.446,1.551,3.446,3.446v20.676C316.676,370.333,315.126,371.884,313.23,371.884z"/>
<path style="fill:#52A5D8;" d="M361.906,371.884H341.23c-1.896,0-3.446-1.551-3.446-3.446v-20.676c0-1.896,1.551-3.446,3.446-3.446
	h20.676c1.896,0,3.446,1.551,3.446,3.446v20.676C365.352,370.333,363.802,371.884,361.906,371.884z"/>
<path style="fill:#FFB70D;" d="M410.582,371.884h-20.676c-1.896,0-3.446-1.551-3.446-3.446v-20.676c0-1.896,1.551-3.446,3.446-3.446
	h20.676c1.896,0,3.446,1.551,3.446,3.446v20.676C414.028,370.333,412.478,371.884,410.582,371.884z"/>
<path style="fill:#92B620;" d="M264.388,177.015h-20.676c-1.896,0-3.446-1.551-3.446-3.446v-20.676c0-1.896,1.551-3.446,3.446-3.446
	h20.676c1.896,0,3.446,1.551,3.446,3.446v20.676C267.834,175.464,266.284,177.015,264.388,177.015z"/>
<path style="fill:#F94A46;" d="M313.064,177.015h-20.676c-1.896,0-3.446-1.551-3.446-3.446v-20.676c0-1.896,1.551-3.446,3.446-3.446
	h20.676c1.896,0,3.446,1.551,3.446,3.446v20.676C316.51,175.464,314.96,177.015,313.064,177.015z"/>
<path style="fill:#FFB70D;" d="M361.74,177.015h-20.676c-1.896,0-3.446-1.551-3.446-3.446v-20.676c0-1.896,1.551-3.446,3.446-3.446
	h20.676c1.896,0,3.446,1.551,3.446,3.446v20.676C365.186,175.464,363.636,177.015,361.74,177.015z"/>
<path style="fill:#EFEFEF;" d="M410.416,177.015H389.74c-1.896,0-3.446-1.551-3.446-3.446v-20.676c0-1.896,1.551-3.446,3.446-3.446
	h20.676c1.896,0,3.446,1.551,3.446,3.446v20.676C413.862,175.464,412.312,177.015,410.416,177.015z"/>
<path style="fill:#DDA36F;" d="M264.388,226.171h-20.676c-1.896,0-3.446-1.551-3.446-3.446v-20.676c0-1.896,1.551-3.446,3.446-3.446
	h20.676c1.896,0,3.446,1.551,3.446,3.446v20.676C267.834,224.619,266.284,226.171,264.388,226.171z"/>
<path style="fill:#70B5E8;" d="M313.064,226.171h-20.676c-1.896,0-3.446-1.551-3.446-3.446v-20.676c0-1.896,1.551-3.446,3.446-3.446
	h20.676c1.896,0,3.446,1.551,3.446,3.446v20.676C316.51,224.619,314.96,226.171,313.064,226.171z"/>
<path style="fill:#F9D698;" d="M361.74,226.171h-20.676c-1.896,0-3.446-1.551-3.446-3.446v-20.676c0-1.896,1.551-3.446,3.446-3.446
	h20.676c1.896,0,3.446,1.551,3.446,3.446v20.676C365.186,224.619,363.636,226.171,361.74,226.171z"/>
<path style="fill:#70B5E8;" d="M410.416,226.171H389.74c-1.896,0-3.446-1.551-3.446-3.446v-20.676c0-1.896,1.551-3.446,3.446-3.446
	h20.676c1.896,0,3.446,1.551,3.446,3.446v20.676C413.862,224.619,412.312,226.171,410.416,226.171z"/>
<path style="fill:#EFEFEF;" d="M264.388,275.966h-20.676c-1.896,0-3.446-1.551-3.446-3.446v-20.676c0-1.896,1.551-3.446,3.446-3.446
	h20.676c1.896,0,3.446,1.551,3.446,3.446v20.676C267.834,274.415,266.284,275.966,264.388,275.966z"/>
<path style="fill:#FFB70D;" d="M313.064,275.966h-20.676c-1.896,0-3.446-1.551-3.446-3.446v-20.676c0-1.896,1.551-3.446,3.446-3.446
	h20.676c1.896,0,3.446,1.551,3.446,3.446v20.676C316.51,274.415,314.96,275.966,313.064,275.966z"/>
<path style="fill:#70B5E8;" d="M361.74,275.966h-20.676c-1.896,0-3.446-1.551-3.446-3.446v-20.676c0-1.896,1.551-3.446,3.446-3.446
	h20.676c1.896,0,3.446,1.551,3.446,3.446v20.676C365.186,274.415,363.636,275.966,361.74,275.966z"/>
<path style="fill:#EFEFEF;" d="M410.416,275.966H389.74c-1.896,0-3.446-1.551-3.446-3.446v-20.676c0-1.896,1.551-3.446,3.446-3.446
	h20.676c1.896,0,3.446,1.551,3.446,3.446v20.676C413.862,274.415,412.312,275.966,410.416,275.966z"/>
<g>
</g>
<g>
</g>
<g>
</g>
<g>
</g>
<g>
</g>
<g>
</g>
<g>
</g>
<g>
</g>
<g>
</g>
<g>
</g>
<g>
</g>
<g>
</g>
<g>
</g>
<g>
</g>
<g>
</g>
</svg>
